<svg width="49" height="65" viewBox="0 0 49 65" fill="none" xmlns="http://www.w3.org/2000/svg">
<path d="M29.3205 0.594238H8.0705C5.94095 0.594238 3.89862 1.4402 2.3928 2.94602C0.886977 4.45184 0.0410156 6.49417 0.0410156 8.62372V56.8006C0.0410156 58.9302 0.886977 60.9725 2.3928 62.4783C3.89862 63.9842 5.94095 64.8301 8.0705 64.8301H40.1884C42.318 64.8301 44.3603 63.9842 45.8661 62.4783C47.372 60.9725 48.2179 58.9302 48.2179 56.8006V19.4916C48.2177 18.4269 47.7946 17.4059 47.0416 16.6532L32.159 1.77056C31.4062 1.0176 30.3852 0.594466 29.3205 0.594238ZM30.1516 14.6458V6.61635L42.1958 18.6606H34.1663C33.1016 18.6606 32.0804 18.2376 31.3275 17.4847C30.5746 16.7318 30.1516 15.7106 30.1516 14.6458ZM10.0779 36.7269C9.54548 36.7269 9.0349 36.5154 8.65845 36.139C8.28199 35.7625 8.0705 35.2519 8.0705 34.7196C8.0705 34.1872 8.28199 33.6766 8.65845 33.3001C9.0349 32.9237 9.54548 32.7122 10.0779 32.7122H38.1811C38.7135 32.7122 39.224 32.9237 39.6005 33.3001C39.977 33.6766 40.1884 34.1872 40.1884 34.7196C40.1884 35.2519 39.977 35.7625 39.6005 36.139C39.224 36.5154 38.7135 36.7269 38.1811 36.7269H10.0779ZM8.0705 42.749C8.0705 42.2167 8.28199 41.7061 8.65845 41.3296C9.0349 40.9532 9.54548 40.7417 10.0779 40.7417H38.1811C38.7135 40.7417 39.224 40.9532 39.6005 41.3296C39.977 41.7061 40.1884 42.2167 40.1884 42.749C40.1884 43.2814 39.977 43.792 39.6005 44.1685C39.224 44.5449 38.7135 44.7564 38.1811 44.7564H10.0779C9.54548 44.7564 9.0349 44.5449 8.65845 44.1685C8.28199 43.792 8.0705 43.2814 8.0705 42.749ZM10.0779 52.7859C9.54548 52.7859 9.0349 52.5744 8.65845 52.198C8.28199 51.8215 8.0705 51.3109 8.0705 50.7785C8.0705 50.2461 8.28199 49.7356 8.65845 49.3591C9.0349 48.9826 9.54548 48.7712 10.0779 48.7712H26.1368C26.6692 48.7712 27.1798 48.9826 27.5563 49.3591C27.9327 49.7356 28.1442 50.2461 28.1442 50.7785C28.1442 51.3109 27.9327 51.8215 27.5563 52.198C27.1798 52.5744 26.6692 52.7859 26.1368 52.7859H10.0779Z" fill="white"/>
</svg>
