<svg width="59" height="1260" viewBox="0 0 59 1260" fill="none" xmlns="http://www.w3.org/2000/svg">
<path d="M17.3166 1259.5C17.3264 1259.33 17.3385 1259.11 17.3528 1258.86C17.3964 1258.08 17.4603 1256.93 17.5421 1255.43C17.7056 1252.41 17.9405 1247.98 18.226 1242.28C18.7969 1230.88 19.5699 1214.43 20.3784 1194.24C21.9954 1153.87 23.7547 1098.52 24.3233 1038.65C25.4602 918.915 21.8391 780.97 2.7709 708.373C-0.97053 694.128 0.946637 683.59 3.66478 672.58C3.97582 671.32 4.2975 670.054 4.62237 668.775C7.13882 658.868 9.84692 648.207 9.28673 633.98C8.74305 620.173 6.48153 609.547 4.39269 599.732C3.82636 597.071 3.27273 594.469 2.76947 591.88C0.410889 579.747 -0.860683 567.82 2.77587 551.106C18.3368 479.589 21.9595 341.782 21.6976 221.909C21.5667 161.96 20.464 106.478 19.394 65.9842C18.859 45.7369 18.3322 29.2362 17.9391 17.7972C17.7426 12.0776 17.5795 7.6235 17.4655 4.59913C17.4085 3.08694 17.3638 1.9322 17.3334 1.15544C17.325 0.942787 17.3178 0.758461 17.3116 0.602888L57.7846 7.91728L50.2901 1259.5H17.3166Z" fill="#171722" stroke="url(#paint0_linear_5655_46377)"/>
<defs>
<linearGradient id="paint0_linear_5655_46377" x1="62.4527" y1="3.20733e-05" x2="-104.043" y2="6.89884" gradientUnits="userSpaceOnUse">
<stop stop-color="#84D52C"/>
<stop offset="1" stop-color="#171722" stop-opacity="0"/>
</linearGradient>
</defs>
</svg>
