<svg width="26" height="24" viewBox="0 0 26 24" fill="none" xmlns="http://www.w3.org/2000/svg">
<path d="M11.5646 1.979C12.3344 0.64567 14.2589 0.645671 15.0287 1.979L25.6471 20.3706C26.4169 21.7039 25.4546 23.3706 23.915 23.3706H2.67828C1.13867 23.3706 0.176426 21.7039 0.946226 20.3706L11.5646 1.979Z" fill="#F2C94C"/>
<path d="M14.403 16.6408H12.1695L11.7507 7.66699H14.8018L14.403 16.6408ZM14.4229 20.689C14.1039 21.008 13.725 21.1676 13.2863 21.1676C12.8475 21.1676 12.4686 21.008 12.1496 20.689C11.8438 20.3699 11.6909 19.9977 11.6909 19.5722C11.6909 19.1335 11.8438 18.7546 12.1496 18.4356C12.4686 18.1165 12.8475 17.9569 13.2863 17.9569C13.725 17.9569 14.1039 18.1165 14.4229 18.4356C14.742 18.7546 14.9015 19.1335 14.9015 19.5722C14.9015 19.9977 14.742 20.3699 14.4229 20.689Z" fill="#171722"/>
</svg>
