<svg width="53" height="47" viewBox="0 0 53 47" fill="none" xmlns="http://www.w3.org/2000/svg">
<g opacity="0.6">
<path d="M40.3339 16.1522L29.683 24.5949C28.7058 25.3499 27.4992 25.7602 26.2567 25.7602C25.0142 25.7602 23.8076 25.3499 22.8304 24.5949L12.0997 16.1645M14.4305 2.5H37.9581C39.6404 2.51813 41.3012 2.87364 42.8391 3.5448C44.3769 4.21597 45.7594 5.18867 46.9021 6.40343C48.0467 7.62043 48.9298 9.05227 49.4984 10.6131C50.067 12.1739 50.3094 13.8317 50.2111 15.4869V31.5131C50.3094 33.1683 50.067 34.826 49.4984 36.3868C48.9298 37.9477 48.0467 39.3795 46.9021 40.5965C45.7606 41.8101 44.3797 42.7821 42.8437 43.4532C41.3076 44.1243 39.6487 44.4805 37.9681 44.4999H14.4305C7.14359 44.5196 2.23242 38.689 2.23242 31.5229V15.4967C2.23242 8.3306 7.14359 2.5 14.4305 2.5Z" stroke="#959595" stroke-width="4" stroke-linecap="round" stroke-linejoin="round"/>
</g>
</svg>
