<svg width="25" height="25" viewBox="0 0 25 25" fill="none" xmlns="http://www.w3.org/2000/svg">
<path d="M12.6367 3.61792C17.5867 3.61792 21.6367 7.66792 21.6367 12.6179C21.6367 17.5679 17.5867 21.6179 12.6367 21.6179C7.68672 21.6179 3.63672 17.5679 3.63672 12.6179C3.63672 7.66792 7.68672 3.61792 12.6367 3.61792ZM12.6367 2.11792C6.86172 2.11792 2.13672 6.84292 2.13672 12.6179C2.13672 18.3929 6.86172 23.1179 12.6367 23.1179C18.4117 23.1179 23.1367 18.3929 23.1367 12.6179C23.1367 6.84292 18.4117 2.11792 12.6367 2.11792Z" fill="white"/>
<path d="M18.6367 11.8679H13.3867V6.61792H11.8867V11.8679H6.63672V13.3679H11.8867V18.6179H13.3867V13.3679H18.6367V11.8679Z" fill="white"/>
</svg>
