<svg width="7" height="15" viewBox="0 0 7 15" fill="none" xmlns="http://www.w3.org/2000/svg">
<path d="M6.99997 7.78809C7.00009 7.91708 6.97787 8.04483 6.93457 8.164C6.89127 8.28316 6.82775 8.3914 6.74766 8.48249L1.46047 14.5113C1.29813 14.6907 1.08044 14.7901 0.854388 14.7881C0.628338 14.786 0.412051 14.6827 0.252204 14.5004C0.0923578 14.3181 0.00177389 14.0715 -3.7324e-06 13.8137C-0.00178135 13.5559 0.0853936 13.3076 0.242706 13.1225L4.92101 7.78809L0.242708 2.45371C0.085395 2.26857 -0.0017799 2.02031 -2.21696e-06 1.76251C0.00177547 1.50471 0.0923594 1.25805 0.252206 1.07575C0.412053 0.893454 0.628339 0.790144 0.854389 0.788117C1.08044 0.78609 1.29813 0.885508 1.46047 1.06492L6.74766 7.09369C6.82775 7.18477 6.89127 7.29301 6.93457 7.41218C6.97787 7.53134 7.00009 7.65909 6.99997 7.78809Z" fill="#84D52C"/>
<path d="M6.99997 7.78809C7.00009 7.91708 6.97787 8.04483 6.93457 8.164C6.89127 8.28316 6.82775 8.3914 6.74766 8.48249L1.46047 14.5113C1.29813 14.6907 1.08044 14.7901 0.854388 14.7881C0.628338 14.786 0.412051 14.6827 0.252204 14.5004C0.0923578 14.3181 0.00177389 14.0715 -3.7324e-06 13.8137C-0.00178135 13.5559 0.0853936 13.3076 0.242706 13.1225L4.92101 7.78809L0.242708 2.45371C0.085395 2.26857 -0.0017799 2.02031 -2.21696e-06 1.76251C0.00177547 1.50471 0.0923594 1.25805 0.252206 1.07575C0.412053 0.893454 0.628339 0.790144 0.854389 0.788117C1.08044 0.78609 1.29813 0.885508 1.46047 1.06492L6.74766 7.09369C6.82775 7.18477 6.89127 7.29301 6.93457 7.41218C6.97787 7.53134 7.00009 7.65909 6.99997 7.78809Z" fill="url(#paint0_linear_5821_49467)" fill-opacity="0.2"/>
<defs>
<linearGradient id="paint0_linear_5821_49467" x1="-2.78906e-05" y1="0.788086" x2="1.6584" y2="14.5648" gradientUnits="userSpaceOnUse">
<stop stop-color="#6BAB2B"/>
<stop offset="1" stop-color="#84D52C" stop-opacity="0"/>
</linearGradient>
</defs>
</svg>
