<svg width="15" height="8" viewBox="0 0 15 8" fill="none" xmlns="http://www.w3.org/2000/svg">
<path d="M7.9758 7.99495C7.84669 7.99509 7.71883 7.96972 7.59956 7.9203C7.48029 7.87087 7.37196 7.79837 7.2808 7.70695L1.24679 1.67195C1.06723 1.48665 0.967728 1.23817 0.969757 0.980148C0.971786 0.722126 1.07519 0.475248 1.25764 0.292793C1.4401 0.110338 1.68697 0.00694233 1.945 0.00491325C2.20302 0.00288417 2.45149 0.102389 2.6368 0.281952L7.9758 5.62195L13.3148 0.281952C13.5001 0.102389 13.7486 0.00288417 14.0066 0.00491325C14.2646 0.00694233 14.5115 0.110338 14.6939 0.292793C14.8764 0.475248 14.9798 0.722126 14.9818 0.980148C14.9839 1.23817 14.8844 1.48665 14.7048 1.67195L8.67079 7.70695C8.57963 7.79837 8.4713 7.87087 8.35203 7.9203C8.23276 7.96972 8.1049 7.99509 7.9758 7.99495Z" fill="white"/>
</svg>
