<svg width="12" height="21" viewBox="0 0 12 21" fill="none" xmlns="http://www.w3.org/2000/svg">
<path d="M11.363 10.6253C11.3632 10.8058 11.3277 10.9845 11.2586 11.1513C11.1895 11.318 11.0881 11.4695 10.9603 11.5969L2.52304 20.0328C2.26398 20.2838 1.91659 20.423 1.55586 20.4201C1.19513 20.4173 0.849981 20.2727 0.594898 20.0176C0.339816 19.7626 0.195262 19.4174 0.192426 19.0567C0.189589 18.696 0.328702 18.3486 0.579742 18.0895L8.04537 10.6253L0.579744 3.16104C0.328704 2.90198 0.189591 2.5546 0.192428 2.19387C0.195265 1.83314 0.339818 1.48798 0.594901 1.2329C0.849983 0.97782 1.19513 0.833261 1.55586 0.830424C1.91659 0.827587 2.26398 0.966701 2.52304 1.21774L10.9603 9.65362C11.0881 9.78108 11.1895 9.93253 11.2586 10.0993C11.3277 10.266 11.3632 10.4448 11.363 10.6253Z" fill="#84D52C"/>
</svg>
