<svg width="11" height="9" viewBox="0 0 11 9" fill="none" xmlns="http://www.w3.org/2000/svg">
<path d="M4.35775 8.86693C4.17942 8.8668 4.00287 8.83139 3.83829 8.76274C3.6737 8.69409 3.52432 8.59356 3.39875 8.46693L0.832747 5.90093C0.704081 5.77561 0.601592 5.62599 0.531232 5.46073C0.460871 5.29548 0.424041 5.1179 0.42288 4.9383C0.421719 4.75869 0.456249 4.58065 0.524467 4.4145C0.592685 4.24835 0.69323 4.09741 0.820265 3.97044C0.9473 3.84347 1.09829 3.74301 1.26448 3.67488C1.43066 3.60674 1.60872 3.57231 1.78833 3.57356C1.96793 3.57482 2.14549 3.61174 2.31071 3.68219C2.47592 3.75263 2.6255 3.8552 2.75075 3.98393L4.35775 5.59193L8.68575 1.26393C8.94009 1.00959 9.28505 0.866699 9.64475 0.866699C10.0044 0.866699 10.3494 1.00959 10.6037 1.26393C10.8581 1.51827 11.001 1.86324 11.001 2.22293C11.001 2.58262 10.8581 2.92759 10.6037 3.18193L5.31275 8.46893C5.05952 8.7226 4.71617 8.86569 4.35775 8.86693Z" fill="white"/>
</svg>
