<svg width="24" height="25" viewBox="0 0 24 25" fill="none" xmlns="http://www.w3.org/2000/svg">
<path d="M9.28114 12.4746C9.28114 13.1708 9.5577 13.8385 10.05 14.3308C10.5423 14.823 11.2099 15.0996 11.9061 15.0996C12.6023 15.0996 13.27 14.823 13.7623 14.3308C14.2546 13.8385 14.5311 13.1708 14.5311 12.4746C14.5311 11.7784 14.2546 11.1107 13.7623 10.6185C13.27 10.1262 12.6023 9.84961 11.9061 9.84961C11.2099 9.84961 10.5423 10.1262 10.05 10.6185C9.5577 11.1107 9.28114 11.7784 9.28114 12.4746V12.4746ZM22.0827 11.8699C19.8608 7.18945 16.5022 4.83398 11.9999 4.83398C7.4952 4.83398 4.13895 7.18945 1.91708 11.8723C1.82796 12.061 1.78174 12.2671 1.78174 12.4758C1.78174 12.6845 1.82796 12.8906 1.91708 13.0793C4.13895 17.7598 7.49755 20.1152 11.9999 20.1152C16.5046 20.1152 19.8608 17.7598 22.0827 13.077C22.2632 12.6973 22.2632 12.2566 22.0827 11.8699V11.8699ZM11.9061 16.5996C9.62802 16.5996 7.78114 14.7527 7.78114 12.4746C7.78114 10.1965 9.62802 8.34961 11.9061 8.34961C14.1843 8.34961 16.0311 10.1965 16.0311 12.4746C16.0311 14.7527 14.1843 16.5996 11.9061 16.5996Z" fill="white"/>
</svg>
