<svg width="24" height="25" viewBox="0 0 24 25" fill="none" xmlns="http://www.w3.org/2000/svg">
<path d="M11.9061 15.0993C12.6023 15.0993 13.27 14.8228 13.7623 14.3305C14.2546 13.8382 14.5311 13.1705 14.5311 12.4743C14.5311 12.3974 14.5276 12.3213 14.5211 12.246L11.6779 15.0892C11.7531 15.0958 11.829 15.0993 11.9061 15.0993ZM20.5949 4.35462L19.5936 3.35431C19.5585 3.31918 19.5108 3.29944 19.4611 3.29944C19.4114 3.29944 19.3637 3.31918 19.3286 3.35431L16.7664 5.9172C15.3529 5.19486 13.7641 4.83369 11.9999 4.83369C7.4952 4.83369 4.13427 7.17978 1.91708 11.872C1.82796 12.0607 1.78174 12.2668 1.78174 12.4755C1.78174 12.6842 1.82796 12.8903 1.91708 13.079C2.80302 14.9451 3.86981 16.4408 5.11747 17.5661L2.63802 20.0446C2.60288 20.0798 2.58314 20.1275 2.58314 20.1772C2.58314 20.2269 2.60288 20.2745 2.63802 20.3097L3.63856 21.3102C3.67372 21.3454 3.7214 21.3651 3.7711 21.3651C3.82081 21.3651 3.86848 21.3454 3.90364 21.3102L20.5949 4.61994C20.6123 4.60252 20.6262 4.58184 20.6356 4.55908C20.645 4.53632 20.6499 4.51192 20.6499 4.48728C20.6499 4.46264 20.645 4.43824 20.6356 4.41548C20.6262 4.39272 20.6123 4.37204 20.5949 4.35462ZM7.78114 12.4743C7.78108 11.7618 7.96556 11.0615 8.31661 10.4415C8.66767 9.82148 9.17333 9.30298 9.78433 8.93649C10.3953 8.57 11.0908 8.36802 11.8031 8.35022C12.5154 8.33243 13.2201 8.49942 13.8486 8.83494L12.7091 9.97447C12.2495 9.82732 11.7583 9.8096 11.2894 9.92325C10.8204 10.0369 10.3918 10.2775 10.0506 10.6187C9.70936 10.96 9.46873 11.3886 9.35508 11.8575C9.24142 12.3265 9.25915 12.8177 9.4063 13.2773L8.26677 14.4168C7.94699 13.8193 7.78014 13.152 7.78114 12.4743V12.4743Z" fill="white"/>
<path d="M22.0826 11.8703C21.2576 10.1328 20.2756 8.71597 19.1367 7.61987L15.7584 10.9984C16.0432 11.7428 16.1063 12.5537 15.9402 13.3332C15.774 14.1128 15.3857 14.8275 14.8221 15.3911C14.2585 15.9546 13.5438 16.343 12.7643 16.5091C11.9848 16.6753 11.1738 16.6121 10.4294 16.3274L7.56396 19.1928C8.89334 19.808 10.3719 20.1156 11.9997 20.1156C16.5044 20.1156 19.8654 17.7695 22.0826 13.0773C22.1717 12.8886 22.2179 12.6825 22.2179 12.4738C22.2179 12.2651 22.1717 12.059 22.0826 11.8703V11.8703Z" fill="white"/>
</svg>
