<svg width="25" height="25" viewBox="0 0 25 25" fill="none" xmlns="http://www.w3.org/2000/svg">
<path fill-rule="evenodd" clip-rule="evenodd" d="M12.8384 4.68251C8.30957 4.68251 4.63838 8.35349 4.63838 12.8817C4.63838 17.4099 8.30957 21.0809 12.8384 21.0809C17.3672 21.0809 21.0384 17.4099 21.0384 12.8817C21.0384 8.35349 17.3672 4.68251 12.8384 4.68251ZM2.83838 12.8817C2.83838 7.35922 7.31561 2.88251 12.8384 2.88251C18.3612 2.88251 22.8384 7.35922 22.8384 12.8817C22.8384 18.4042 18.3612 22.8809 12.8384 22.8809C7.31561 22.8809 2.83838 18.4042 2.83838 12.8817ZM9.10195 9.14561C9.45341 8.79412 10.0233 8.7941 10.3747 9.14555L12.7384 11.509L15.102 9.14555C15.4535 8.7941 16.0233 8.79412 16.3748 9.14561C16.7263 9.4971 16.7262 10.0669 16.3747 10.4184L14.0112 12.7817L16.3747 15.145C16.7262 15.4965 16.7263 16.0663 16.3748 16.4178C16.0233 16.7693 15.4535 16.7693 15.102 16.4179L12.7384 14.0544L10.3747 16.4179C10.0233 16.7693 9.45341 16.7693 9.10195 16.4178C8.7505 16.0663 8.75052 15.4965 9.10201 15.145L11.4655 12.7817L9.10201 10.4184C8.75052 10.0669 8.7505 9.4971 9.10195 9.14561Z" fill="#FF6D59"/>
</svg>
