<svg width="29" height="28" viewBox="0 0 29 28" fill="none" xmlns="http://www.w3.org/2000/svg">
<g clip-path="url(#clip0_5821_1700)">
<circle cx="14.0391" cy="14" r="14" fill="#FF6D59"/>
<path fill-rule="evenodd" clip-rule="evenodd" d="M7.3803 7.35617C7.59887 7.13745 7.89526 7.01459 8.20431 7.01459C8.51335 7.01459 8.80975 7.13745 9.02831 7.35617L14.0318 12.3647L19.0352 7.35617C19.1428 7.24474 19.2714 7.15586 19.4136 7.09472C19.5558 7.03357 19.7087 7.00139 19.8634 7.00004C20.0182 6.9987 20.1717 7.02822 20.3149 7.08688C20.4581 7.14554 20.5883 7.23217 20.6977 7.34171C20.8071 7.45125 20.8937 7.58151 20.9523 7.72489C21.0109 7.86827 21.0404 8.0219 21.039 8.1768C21.0377 8.33171 21.0055 8.4848 20.9444 8.62714C20.8834 8.76948 20.7946 8.89821 20.6832 9.00584L15.6798 14.0143L20.6832 19.0228C20.8956 19.2429 21.013 19.5376 21.0104 19.8435C21.0077 20.1494 20.8851 20.442 20.6691 20.6583C20.453 20.8746 20.1606 20.9973 19.8551 21C19.5495 21.0026 19.2551 20.885 19.0352 20.6725L14.0318 15.664L9.02831 20.6725C8.8085 20.885 8.51409 21.0026 8.2085 21C7.90291 20.9973 7.61059 20.8746 7.3945 20.6583C7.17841 20.442 7.05583 20.1494 7.05318 19.8435C7.05052 19.5376 7.168 19.2429 7.3803 19.0228L12.3838 14.0143L7.3803 9.00584C7.16181 8.78705 7.03906 8.49036 7.03906 8.181C7.03906 7.87164 7.16181 7.57495 7.3803 7.35617Z" fill="white"/>
</g>
<defs>
<clipPath id="clip0_5821_1700">
<rect width="28" height="28" fill="white" transform="translate(0.0390625)"/>
</clipPath>
</defs>
</svg>
