<svg width="25" height="25" viewBox="0 0 25 25" fill="none" xmlns="http://www.w3.org/2000/svg">
<path fill-rule="evenodd" clip-rule="evenodd" d="M12.8384 4.68232C8.30957 4.68232 4.63838 8.3533 4.63838 12.8815C4.63838 17.4097 8.30957 21.0807 12.8384 21.0807C17.3672 21.0807 21.0384 17.4097 21.0384 12.8815C21.0384 8.3533 17.3672 4.68232 12.8384 4.68232ZM2.83838 12.8815C2.83838 7.35903 7.31561 2.88232 12.8384 2.88232C18.3612 2.88232 22.8384 7.35903 22.8384 12.8815C22.8384 18.404 18.3612 22.8807 12.8384 22.8807C7.31561 22.8807 2.83838 18.404 2.83838 12.8815ZM9.10195 9.14542C9.45341 8.79393 10.0233 8.79391 10.3747 9.14536L12.7384 11.5088L15.102 9.14536C15.4535 8.79391 16.0233 8.79393 16.3748 9.14542C16.7263 9.49691 16.7262 10.0667 16.3747 10.4182L14.0112 12.7815L16.3747 15.1448C16.7262 15.4963 16.7263 16.0661 16.3748 16.4176C16.0233 16.7691 15.4535 16.7691 15.102 16.4177L12.7384 14.0542L10.3747 16.4177C10.0233 16.7691 9.45341 16.7691 9.10195 16.4176C8.7505 16.0661 8.75052 15.4963 9.10201 15.1448L11.4655 12.7815L9.10201 10.4182C8.75052 10.0667 8.7505 9.49691 9.10195 9.14542Z" fill="#959595"/>
</svg>
