<svg width="24" height="24" viewBox="0 0 24 24" fill="none" xmlns="http://www.w3.org/2000/svg">
<path d="M10.281 7.66391H20.4086M5.03882 3.80579C4.6354 3.80935 4.24988 3.97284 3.96687 4.26037C3.68387 4.54789 3.52651 4.93596 3.52933 5.33939V6.24219C3.52883 6.86731 3.76646 7.46915 4.1939 7.92529L8.86801 12.8955C9.77361 13.8241 10.2807 15.0698 10.281 16.3669V20.7815C10.2808 20.8479 10.2978 20.9133 10.3302 20.9713C10.3627 21.0293 10.4095 21.0779 10.4663 21.1124C10.523 21.1469 10.5877 21.1662 10.6541 21.1684C10.7205 21.1706 10.7864 21.1556 10.8453 21.1249L13.5074 19.6781C13.7062 19.568 13.8716 19.4064 13.9862 19.2101C14.1008 19.0139 14.1603 18.7903 14.1585 18.5631V16.3553C14.1565 15.0647 14.6567 13.824 15.5532 12.8955L20.2273 7.92529C20.654 7.46879 20.8913 6.8671 20.8909 6.24219V5.33939C20.894 4.93605 20.7368 4.54798 20.454 4.26043C20.1711 3.97287 19.7857 3.80935 19.3823 3.80579H5.03882Z" stroke="url(#paint0_linear_5840_40560)" stroke-width="1.92906" stroke-linecap="round" stroke-linejoin="round"/>
<defs>
<linearGradient id="paint0_linear_5840_40560" x1="20.8909" y1="13.066" x2="2.14458" y2="13.1493" gradientUnits="userSpaceOnUse">
<stop stop-color="#58AA46"/>
<stop offset="1" stop-color="#FFD964"/>
</linearGradient>
</defs>
</svg>
