<svg width="25" height="25" viewBox="0 0 25 25" fill="none" xmlns="http://www.w3.org/2000/svg">
<path d="M3.56293 4.57805C3.77513 3.82018 3.88123 3.44124 4.1977 3.22062C4.51418 3 4.95165 3 5.82659 3H18.5163C19.3912 3 19.8287 3 20.1452 3.22062C20.4617 3.44124 20.5678 3.82018 20.78 4.57805L22.1842 9.59311C22.2972 9.99662 22.3537 10.1984 22.3412 10.3622C22.3089 10.7872 21.9901 11.1517 21.5362 11.2828C21.3612 11.3333 21.1229 11.3333 20.6462 11.3333C20.0242 11.3333 19.7132 11.3333 19.452 11.279C18.7202 11.1268 18.1153 10.6693 17.8269 10.0498C17.7239 9.8287 17.6739 9.561 17.574 9.02559C17.546 8.87579 17.5321 8.80089 17.5162 8.78118C17.4697 8.72332 17.3732 8.72332 17.3267 8.78118C17.3108 8.80089 17.2969 8.87579 17.2689 9.02559L17.1738 9.53522C17.1637 9.58925 17.1586 9.61626 17.1536 9.63992C16.9477 10.6047 16.0151 11.3101 14.9154 11.3328C14.8885 11.3333 14.8578 11.3333 14.7964 11.3333C14.7351 11.3333 14.7044 11.3333 14.6775 11.3328C13.5778 11.3101 12.6452 10.6047 12.4393 9.63992C12.4343 9.61626 12.4292 9.58925 12.4191 9.53522L12.324 9.02559C12.296 8.87579 12.2821 8.80089 12.2662 8.78118C12.2197 8.72332 12.1232 8.72332 12.0767 8.78118C12.0608 8.80089 12.0469 8.87579 12.0189 9.02559L11.9238 9.53522C11.9137 9.58925 11.9086 9.61626 11.9036 9.63992C11.6977 10.6047 10.7651 11.3101 9.66544 11.3328C9.63846 11.3333 9.60779 11.3333 9.54645 11.3333C9.4851 11.3333 9.45443 11.3333 9.42746 11.3328C8.32776 11.3101 7.39519 10.6047 7.18931 9.63992C7.18426 9.61626 7.17922 9.58925 7.16913 9.53522L7.074 9.02559C7.04604 8.87579 7.03206 8.80089 7.0162 8.78118C6.96965 8.72332 6.87324 8.72332 6.82669 8.78118C6.81083 8.80089 6.79685 8.87579 6.76889 9.02559C6.66895 9.561 6.61898 9.8287 6.51602 10.0498C6.22756 10.6693 5.62265 11.1268 4.89088 11.279C4.62968 11.3333 4.31868 11.3333 3.69668 11.3333C3.22004 11.3333 2.98172 11.3333 2.80669 11.2828C2.35282 11.1517 2.03402 10.7872 2.0017 10.3622C1.98923 10.1984 2.04573 9.99662 2.15871 9.59311L3.56293 4.57805Z" fill="#84D52C"/>
<path d="M3.56293 4.57805C3.77513 3.82018 3.88123 3.44124 4.1977 3.22062C4.51418 3 4.95165 3 5.82659 3H18.5163C19.3912 3 19.8287 3 20.1452 3.22062C20.4617 3.44124 20.5678 3.82018 20.78 4.57805L22.1842 9.59311C22.2972 9.99662 22.3537 10.1984 22.3412 10.3622C22.3089 10.7872 21.9901 11.1517 21.5362 11.2828C21.3612 11.3333 21.1229 11.3333 20.6462 11.3333C20.0242 11.3333 19.7132 11.3333 19.452 11.279C18.7202 11.1268 18.1153 10.6693 17.8269 10.0498C17.7239 9.8287 17.6739 9.561 17.574 9.02559C17.546 8.87579 17.5321 8.80089 17.5162 8.78118C17.4697 8.72332 17.3732 8.72332 17.3267 8.78118C17.3108 8.80089 17.2969 8.87579 17.2689 9.02559L17.1738 9.53522C17.1637 9.58925 17.1586 9.61626 17.1536 9.63992C16.9477 10.6047 16.0151 11.3101 14.9154 11.3328C14.8885 11.3333 14.8578 11.3333 14.7964 11.3333C14.7351 11.3333 14.7044 11.3333 14.6775 11.3328C13.5778 11.3101 12.6452 10.6047 12.4393 9.63992C12.4343 9.61626 12.4292 9.58925 12.4191 9.53522L12.324 9.02559C12.296 8.87579 12.2821 8.80089 12.2662 8.78118C12.2197 8.72332 12.1232 8.72332 12.0767 8.78118C12.0608 8.80089 12.0469 8.87579 12.0189 9.02559L11.9238 9.53522C11.9137 9.58925 11.9086 9.61626 11.9036 9.63992C11.6977 10.6047 10.7651 11.3101 9.66544 11.3328C9.63846 11.3333 9.60779 11.3333 9.54645 11.3333C9.4851 11.3333 9.45443 11.3333 9.42746 11.3328C8.32776 11.3101 7.39519 10.6047 7.18931 9.63992C7.18426 9.61626 7.17922 9.58925 7.16913 9.53522L7.074 9.02559C7.04604 8.87579 7.03206 8.80089 7.0162 8.78118C6.96965 8.72332 6.87324 8.72332 6.82669 8.78118C6.81083 8.80089 6.79685 8.87579 6.76889 9.02559C6.66895 9.561 6.61898 9.8287 6.51602 10.0498C6.22756 10.6693 5.62265 11.1268 4.89088 11.279C4.62968 11.3333 4.31868 11.3333 3.69668 11.3333C3.22004 11.3333 2.98172 11.3333 2.80669 11.2828C2.35282 11.1517 2.03402 10.7872 2.0017 10.3622C1.98923 10.1984 2.04573 9.99662 2.15871 9.59311L3.56293 4.57805Z" fill="url(#paint0_linear_6514_103362)" fill-opacity="0.2"/>
<path d="M4.02517 12.896C4.00478 13.3345 4.00478 13.8492 4.00478 14.4583V20.7083C4.00478 21.6904 4.00478 22.1815 4.34649 22.4866C4.6882 22.7917 5.23817 22.7917 6.33811 22.7917H9.83811V18.625C9.83811 18.0497 10.3604 17.5833 11.0048 17.5833H13.3381C13.9824 17.5833 14.5048 18.0497 14.5048 18.625V22.7917H18.0048C19.1047 22.7917 19.6547 22.7917 19.9964 22.4866C20.3381 22.1815 20.3381 21.6904 20.3381 20.7083V14.4583C20.3381 13.8492 20.3381 13.3345 20.3177 12.896C19.8921 12.8951 19.4568 12.8843 19.055 12.8008C18.449 12.6747 17.8928 12.4291 17.4215 12.0904C16.74 12.5801 15.8818 12.8757 14.9559 12.8949C14.9079 12.8959 14.8574 12.8958 14.8091 12.8958H14.7839C14.7356 12.8958 14.685 12.8959 14.637 12.8949C13.7111 12.8757 12.8529 12.5801 12.1714 12.0904C11.49 12.5801 10.6318 12.8757 9.7059 12.8949C9.65792 12.8959 9.6074 12.8958 9.55911 12.8958H9.53388C9.48559 12.8958 9.43497 12.8959 9.38699 12.8949C8.46109 12.8757 7.60289 12.5801 6.92144 12.0904C6.45007 12.4291 5.89385 12.6747 5.28792 12.8008C4.88611 12.8843 4.45076 12.8951 4.02517 12.896Z" fill="#84D52C"/>
<path d="M4.02517 12.896C4.00478 13.3345 4.00478 13.8492 4.00478 14.4583V20.7083C4.00478 21.6904 4.00478 22.1815 4.34649 22.4866C4.6882 22.7917 5.23817 22.7917 6.33811 22.7917H9.83811V18.625C9.83811 18.0497 10.3604 17.5833 11.0048 17.5833H13.3381C13.9824 17.5833 14.5048 18.0497 14.5048 18.625V22.7917H18.0048C19.1047 22.7917 19.6547 22.7917 19.9964 22.4866C20.3381 22.1815 20.3381 21.6904 20.3381 20.7083V14.4583C20.3381 13.8492 20.3381 13.3345 20.3177 12.896C19.8921 12.8951 19.4568 12.8843 19.055 12.8008C18.449 12.6747 17.8928 12.4291 17.4215 12.0904C16.74 12.5801 15.8818 12.8757 14.9559 12.8949C14.9079 12.8959 14.8574 12.8958 14.8091 12.8958H14.7839C14.7356 12.8958 14.685 12.8959 14.637 12.8949C13.7111 12.8757 12.8529 12.5801 12.1714 12.0904C11.49 12.5801 10.6318 12.8757 9.7059 12.8949C9.65792 12.8959 9.6074 12.8958 9.55911 12.8958H9.53388C9.48559 12.8958 9.43497 12.8959 9.38699 12.8949C8.46109 12.8757 7.60289 12.5801 6.92144 12.0904C6.45007 12.4291 5.89385 12.6747 5.28792 12.8008C4.88611 12.8843 4.45076 12.8951 4.02517 12.896Z" fill="url(#paint1_linear_6514_103362)" fill-opacity="0.2"/>
<defs>
<linearGradient id="paint0_linear_6514_103362" x1="22.3429" y1="3" x2="2.11184" y2="4.25162" gradientUnits="userSpaceOnUse">
<stop stop-color="#6BAB2B"/>
<stop offset="1" stop-color="#84D52C" stop-opacity="0"/>
</linearGradient>
<linearGradient id="paint1_linear_6514_103362" x1="22.3429" y1="3" x2="2.11184" y2="4.25162" gradientUnits="userSpaceOnUse">
<stop stop-color="#6BAB2B"/>
<stop offset="1" stop-color="#84D52C" stop-opacity="0"/>
</linearGradient>
</defs>
</svg>
