<svg width="29" height="29" viewBox="0 0 29 29" fill="none" xmlns="http://www.w3.org/2000/svg">
<path d="M14.0391 2.72656C13.6942 2.72668 13.3528 2.79471 13.0343 2.92678C12.7157 3.05885 12.4263 3.25237 12.1825 3.49628C11.9388 3.7402 11.7455 4.02974 11.6136 4.34837C11.4818 4.667 11.4139 5.00848 11.4141 5.35331C11.4142 5.69815 11.4822 6.03958 11.6143 6.35812C11.7463 6.67667 11.9399 6.96608 12.1838 7.20983C12.4277 7.45358 12.7172 7.64691 13.0359 7.77876C13.3545 7.91062 13.696 7.97843 14.0408 7.97831C14.7372 7.97808 15.405 7.7012 15.8973 7.20859C16.3896 6.71598 16.666 6.04799 16.6658 5.35156C16.6656 4.65514 16.3887 3.98733 15.8961 3.49504C15.4035 3.00276 14.7355 2.72633 14.0391 2.72656ZM7.85894 5.73481C7.27892 5.73528 6.72279 5.96589 6.31265 6.37603C5.90252 6.78616 5.6719 7.34229 5.67144 7.92231C5.67144 9.12806 6.65319 10.1098 7.85894 10.1098C8.4391 10.1098 8.9955 9.87934 9.40573 9.46911C9.81597 9.05887 10.0464 8.50247 10.0464 7.92231C10.0464 7.34215 9.81597 6.78575 9.40573 6.37552C8.9955 5.96528 8.4391 5.73481 7.85894 5.73481ZM20.2192 7.04731C19.7371 7.04731 19.3442 7.44019 19.3442 7.92231C19.3442 8.40356 19.7371 8.79731 20.2192 8.79731C20.7004 8.79731 21.0942 8.40356 21.0942 7.92231C21.0942 7.44019 20.7004 7.04731 20.2192 7.04731ZM5.28906 12.1328C5.03047 12.1329 4.77441 12.1839 4.53552 12.2829C4.29663 12.3819 4.07958 12.527 3.89676 12.7099C3.71395 12.8928 3.56895 13.1099 3.47004 13.3488C3.37113 13.5878 3.32026 13.8438 3.32031 14.1024C3.32037 14.361 3.37136 14.6171 3.47038 14.856C3.56939 15.0949 3.71449 15.3119 3.89738 15.4947C4.08028 15.6776 4.29739 15.8226 4.53633 15.9215C4.77526 16.0204 5.03134 16.0712 5.28994 16.0712C5.8122 16.0711 6.31302 15.8635 6.68224 15.4941C7.05145 15.1247 7.2588 14.6238 7.25869 14.1016C7.25857 13.5793 7.05099 13.0785 6.68162 12.7093C6.31224 12.3401 5.81132 12.1327 5.28906 12.1328ZM22.7891 13.0078C22.6419 13.0018 22.495 13.0256 22.3572 13.0778C22.2194 13.1299 22.0936 13.2094 21.9873 13.3113C21.881 13.4133 21.7964 13.5357 21.7385 13.6712C21.6807 13.8067 21.6508 13.9525 21.6507 14.0998C21.6506 14.2471 21.6802 14.3929 21.7379 14.5285C21.7955 14.6641 21.8799 14.7866 21.986 14.8888C22.0922 14.9909 22.2179 15.0706 22.3556 15.1229C22.4933 15.1753 22.6401 15.1993 22.7873 15.1936C23.0696 15.1825 23.3367 15.0626 23.5326 14.8591C23.7284 14.6555 23.838 14.384 23.8382 14.1015C23.8384 13.819 23.7293 13.5474 23.5338 13.3435C23.3382 13.1396 23.0713 13.0193 22.7891 13.0078ZM7.85894 18.5317C6.89206 18.5317 6.10894 19.3139 6.10894 20.2817C6.10894 20.7458 6.29331 21.1909 6.6215 21.5191C6.94969 21.8473 7.39481 22.0317 7.85894 22.0317C8.32307 22.0317 8.76819 21.8473 9.09637 21.5191C9.42456 21.1909 9.60894 20.7458 9.60894 20.2817C9.60894 19.3139 8.82669 18.5317 7.85894 18.5317ZM20.2192 18.9692C20.0468 18.9692 19.8762 19.0031 19.7169 19.0691C19.5577 19.1351 19.413 19.2317 19.2911 19.3536C19.1692 19.4755 19.0726 19.6202 19.0066 19.7794C18.9406 19.9387 18.9067 20.1093 18.9067 20.2817C18.9067 20.454 18.9406 20.6247 19.0066 20.784C19.0726 20.9432 19.1692 21.0879 19.2911 21.2098C19.413 21.3316 19.5577 21.4283 19.7169 21.4943C19.8762 21.5602 20.0468 21.5942 20.2192 21.5942C20.5673 21.5942 20.9011 21.4559 21.1473 21.2098C21.3934 20.9636 21.5317 20.6298 21.5317 20.2817C21.5317 19.9336 21.3934 19.5998 21.1473 19.3536C20.9011 19.1075 20.5673 18.9692 20.2192 18.9692ZM14.0391 21.3203C13.1947 21.3203 12.5078 22.0072 12.5078 22.8516C12.5078 23.6959 13.1947 24.3828 14.0391 24.3828C14.8834 24.3828 15.5703 23.6959 15.5703 22.8516C15.5703 22.0072 14.8834 21.3203 14.0391 21.3203Z" fill="#84D52C"/>
</svg>
