<svg width="25" height="25" viewBox="0 0 25 25" fill="none" xmlns="http://www.w3.org/2000/svg">
<path d="M12.0145 2.33447C11.7066 2.33457 11.4018 2.39289 11.1174 2.50609C10.833 2.61929 10.5746 2.78516 10.3569 2.99423C10.1393 3.2033 9.96667 3.45148 9.84894 3.72459C9.73122 3.9977 9.67067 4.2904 9.67078 4.58597C9.67088 4.88155 9.73162 5.1742 9.84954 5.44724C9.96746 5.72028 10.1402 5.96834 10.358 6.17727C10.5758 6.38621 10.8343 6.55191 11.1188 6.66493C11.4033 6.77795 11.7082 6.83607 12.0161 6.83597C12.6379 6.83577 13.2342 6.59845 13.6737 6.17621C14.1132 5.75397 14.36 5.18141 14.3598 4.58447C14.3596 3.98754 14.1124 3.41513 13.6726 2.99317C13.2328 2.57121 12.6363 2.33427 12.0145 2.33447V2.33447ZM6.49656 4.91297C5.97868 4.91337 5.48214 5.11104 5.11595 5.46259C4.74975 5.81413 4.54385 6.29081 4.54343 6.78797C4.54343 7.82147 5.42 8.66297 6.49656 8.66297C7.01456 8.66297 7.51134 8.46543 7.87763 8.1138C8.24391 7.76217 8.44968 7.28525 8.44968 6.78797C8.44968 6.29069 8.24391 5.81378 7.87763 5.46215C7.51134 5.11052 7.01456 4.91297 6.49656 4.91297V4.91297ZM17.5325 6.03797C17.102 6.03797 16.7512 6.37472 16.7512 6.78797C16.7512 7.20047 17.102 7.53797 17.5325 7.53797C17.9622 7.53797 18.3137 7.20047 18.3137 6.78797C18.3137 6.37472 17.9622 6.03797 17.5325 6.03797V6.03797ZM4.20203 10.397C3.97114 10.397 3.74252 10.4407 3.52922 10.5256C3.31593 10.6105 3.12213 10.7348 2.9589 10.8916C2.79568 11.0484 2.66621 11.2345 2.5779 11.4393C2.48959 11.6441 2.44416 11.8636 2.44421 12.0852C2.44427 12.3069 2.48979 12.5264 2.5782 12.7311C2.6666 12.9359 2.79616 13.1219 2.95946 13.2786C3.12276 13.4353 3.31661 13.5596 3.52994 13.6444C3.74328 13.7292 3.97192 13.7728 4.20281 13.7727C4.66911 13.7726 5.11628 13.5947 5.44593 13.2781C5.77558 12.9615 5.96072 12.5321 5.96062 12.0845C5.96052 11.6368 5.77518 11.2075 5.44538 10.8911C5.11558 10.5746 4.66833 10.3969 4.20203 10.397V10.397ZM19.827 11.147C19.6956 11.1418 19.5645 11.1622 19.4414 11.2069C19.3184 11.2516 19.2061 11.3197 19.1112 11.4071C19.0163 11.4945 18.9407 11.5995 18.8891 11.7156C18.8374 11.8317 18.8107 11.9567 18.8106 12.0829C18.8105 12.2092 18.837 12.3342 18.8884 12.4504C18.9399 12.5666 19.0153 12.6717 19.11 12.7592C19.2048 12.8468 19.317 12.915 19.44 12.9599C19.5629 13.0048 19.694 13.0254 19.8255 13.0205C20.0775 13.011 20.316 12.9082 20.4909 12.7338C20.6658 12.5593 20.7636 12.3266 20.7638 12.0844C20.764 11.8423 20.6666 11.6095 20.4919 11.4347C20.3173 11.26 20.0791 11.1568 19.827 11.147V11.147ZM6.49656 15.8817C5.63328 15.8817 4.93406 16.5522 4.93406 17.3817C4.93406 17.7795 5.09868 18.1611 5.3917 18.4424C5.68473 18.7237 6.08216 18.8817 6.49656 18.8817C6.91096 18.8817 7.30839 18.7237 7.60141 18.4424C7.89444 18.1611 8.05906 17.7795 8.05906 17.3817C8.05906 16.5522 7.36062 15.8817 6.49656 15.8817ZM17.5325 16.2567C17.3786 16.2567 17.2262 16.2858 17.084 16.3424C16.9419 16.3989 16.8127 16.4818 16.7039 16.5862C16.595 16.6907 16.5087 16.8147 16.4498 16.9512C16.3909 17.0877 16.3606 17.234 16.3606 17.3817C16.3606 17.5295 16.3909 17.6758 16.4498 17.8122C16.5087 17.9487 16.595 18.0728 16.7039 18.1772C16.8127 18.2817 16.9419 18.3646 17.084 18.4211C17.2262 18.4776 17.3786 18.5067 17.5325 18.5067C17.8433 18.5067 18.1414 18.3882 18.3611 18.1772C18.5809 17.9662 18.7044 17.6801 18.7044 17.3817C18.7044 17.0834 18.5809 16.7972 18.3611 16.5862C18.1414 16.3752 17.8433 16.2567 17.5325 16.2567V16.2567ZM12.0145 18.272C11.2606 18.272 10.6473 18.8607 10.6473 19.5845C10.6473 20.3082 11.2606 20.897 12.0145 20.897C12.7684 20.897 13.3817 20.3082 13.3817 19.5845C13.3817 18.8607 12.7684 18.272 12.0145 18.272Z" fill="#959595"/>
</svg>
