<svg width="25" height="25" viewBox="0 0 25 25" fill="none" xmlns="http://www.w3.org/2000/svg">
<path d="M22.6948 20.8116L18.9848 17.1316C20.4249 15.336 21.1223 13.0569 20.9336 10.7629C20.7449 8.46893 19.6844 6.33442 17.9703 4.79828C16.2561 3.26214 14.0186 2.44114 11.7177 2.5041C9.41681 2.56706 7.22749 3.50919 5.59991 5.13677C3.97233 6.76435 3.0302 8.95367 2.96724 11.2546C2.90428 13.5554 3.72527 15.793 5.26141 17.5072C6.79755 19.2213 8.93207 20.2818 11.2261 20.4704C13.5201 20.6591 15.7992 19.9617 17.5948 18.5216L21.2748 22.2016C21.3649 22.2995 21.4738 22.3783 21.595 22.4333C21.7162 22.4883 21.8471 22.5184 21.9802 22.5219C22.1132 22.5253 22.2456 22.502 22.3694 22.4533C22.4933 22.4047 22.6061 22.3316 22.7012 22.2385C22.7963 22.1454 22.8717 22.0342 22.923 21.9114C22.9743 21.7886 23.0005 21.6568 22.9999 21.5237C22.9993 21.3906 22.972 21.259 22.9195 21.1367C22.8671 21.0144 22.7907 20.9039 22.6948 20.8116ZM11.9848 18.5216C10.6003 18.5216 9.24692 18.1111 8.09578 17.3419C6.94463 16.5728 6.04742 15.4795 5.51761 14.2004C4.9878 12.9213 4.84917 11.5139 5.11927 10.156C5.38937 8.79813 6.05605 7.55085 7.03502 6.57189C8.01399 5.59292 9.26127 4.92623 10.6191 4.65614C11.977 4.38604 13.3845 4.52466 14.6636 5.05448C15.9426 5.58429 17.0359 6.4815 17.8051 7.63264C18.5742 8.78379 18.9848 10.1372 18.9848 11.5216C18.9848 13.3781 18.2473 15.1586 16.9345 16.4714C15.6218 17.7841 13.8413 18.5216 11.9848 18.5216V18.5216Z" fill="white"/>
</svg>
