<svg width="14" height="15" viewBox="0 0 14 15" fill="none" xmlns="http://www.w3.org/2000/svg">
<path d="M6.20612 10.1214C6.1021 10.1213 5.99911 10.1007 5.9031 10.0606C5.80709 10.0206 5.71995 9.96192 5.6467 9.88806L4.14987 8.39122C4.07482 8.31812 4.01503 8.23084 3.97399 8.13444C3.93294 8.03805 3.91146 7.93446 3.91078 7.82969C3.91011 7.72492 3.93025 7.62106 3.97004 7.52414C4.00984 7.42722 4.06849 7.33917 4.14259 7.26511C4.21669 7.19104 4.30477 7.13244 4.40171 7.09269C4.49865 7.05295 4.60252 7.03286 4.70729 7.03359C4.81206 7.03432 4.91564 7.05586 5.01202 7.09696C5.10839 7.13805 5.19564 7.19788 5.2687 7.27297L6.20612 8.21097L8.73079 5.68631C8.87915 5.53794 9.08038 5.45459 9.2902 5.45459C9.50003 5.45459 9.70126 5.53794 9.84962 5.68631C9.99799 5.83467 10.0813 6.0359 10.0813 6.24572C10.0813 6.45555 9.99799 6.65677 9.84962 6.80514L6.7632 9.88922C6.61549 10.0372 6.4152 10.1207 6.20612 10.1214Z" fill="#959595"/>
<path d="M6.99998 13.0966C9.9317 13.0966 12.3083 10.72 12.3083 7.78831C12.3083 4.8566 9.9317 2.47998 6.99998 2.47998C4.06827 2.47998 1.69165 4.8566 1.69165 7.78831C1.69165 10.72 4.06827 13.0966 6.99998 13.0966Z" stroke="#959595"/>
<path d="M6.99998 13.0966C9.9317 13.0966 12.3083 10.72 12.3083 7.78831C12.3083 4.8566 9.9317 2.47998 6.99998 2.47998C4.06827 2.47998 1.69165 4.8566 1.69165 7.78831C1.69165 10.72 4.06827 13.0966 6.99998 13.0966Z" stroke="url(#paint0_linear_5888_49615)" stroke-opacity="0.2"/>
<defs>
<linearGradient id="paint0_linear_5888_49615" x1="12.3083" y1="2.47998" x2="1.74787" y2="3.11561" gradientUnits="userSpaceOnUse">
<stop stop-color="#959595"/>
<stop offset="1" stop-color="#84D52C" stop-opacity="0"/>
</linearGradient>
</defs>
</svg>
