<svg width="14" height="15" viewBox="0 0 14 15" fill="none" xmlns="http://www.w3.org/2000/svg">
<path d="M6.20609 10.1214C6.10207 10.1213 5.99908 10.1007 5.90307 10.0606C5.80706 10.0206 5.71992 9.96192 5.64667 9.88806L4.14984 8.39122C4.07479 8.31812 4.015 8.23084 3.97396 8.13444C3.93291 8.03805 3.91143 7.93446 3.91075 7.82969C3.91008 7.72492 3.93022 7.62106 3.97001 7.52414C4.00981 7.42722 4.06846 7.33917 4.14256 7.26511C4.21666 7.19104 4.30474 7.13244 4.40168 7.09269C4.49862 7.05295 4.60249 7.03286 4.70726 7.03359C4.81203 7.03432 4.91561 7.05586 5.01199 7.09696C5.10836 7.13805 5.19561 7.19788 5.26867 7.27297L6.20609 8.21097L8.73076 5.68631C8.87912 5.53794 9.08035 5.45459 9.29017 5.45459C9.5 5.45459 9.70123 5.53794 9.84959 5.68631C9.99796 5.83467 10.0813 6.0359 10.0813 6.24572C10.0813 6.45555 9.99796 6.65677 9.84959 6.80514L6.76317 9.88922C6.61546 10.0372 6.41517 10.1207 6.20609 10.1214Z" fill="#84D52C"/>
<path d="M6.20609 10.1214C6.10207 10.1213 5.99908 10.1007 5.90307 10.0606C5.80706 10.0206 5.71992 9.96192 5.64667 9.88806L4.14984 8.39122C4.07479 8.31812 4.015 8.23084 3.97396 8.13444C3.93291 8.03805 3.91143 7.93446 3.91075 7.82969C3.91008 7.72492 3.93022 7.62106 3.97001 7.52414C4.00981 7.42722 4.06846 7.33917 4.14256 7.26511C4.21666 7.19104 4.30474 7.13244 4.40168 7.09269C4.49862 7.05295 4.60249 7.03286 4.70726 7.03359C4.81203 7.03432 4.91561 7.05586 5.01199 7.09696C5.10836 7.13805 5.19561 7.19788 5.26867 7.27297L6.20609 8.21097L8.73076 5.68631C8.87912 5.53794 9.08035 5.45459 9.29017 5.45459C9.5 5.45459 9.70123 5.53794 9.84959 5.68631C9.99796 5.83467 10.0813 6.0359 10.0813 6.24572C10.0813 6.45555 9.99796 6.65677 9.84959 6.80514L6.76317 9.88922C6.61546 10.0372 6.41517 10.1207 6.20609 10.1214Z" fill="url(#paint0_linear_5821_49469)" fill-opacity="0.2"/>
<path d="M7.00001 13.0966C9.93173 13.0966 12.3083 10.72 12.3083 7.78831C12.3083 4.8566 9.93173 2.47998 7.00001 2.47998C4.0683 2.47998 1.69168 4.8566 1.69168 7.78831C1.69168 10.72 4.0683 13.0966 7.00001 13.0966Z" stroke="#84D52C"/>
<path d="M7.00001 13.0966C9.93173 13.0966 12.3083 10.72 12.3083 7.78831C12.3083 4.8566 9.93173 2.47998 7.00001 2.47998C4.0683 2.47998 1.69168 4.8566 1.69168 7.78831C1.69168 10.72 4.0683 13.0966 7.00001 13.0966Z" stroke="url(#paint1_linear_5821_49469)" stroke-opacity="0.2"/>
<defs>
<linearGradient id="paint0_linear_5821_49469" x1="10.0813" y1="5.45459" x2="3.95994" y2="5.94176" gradientUnits="userSpaceOnUse">
<stop stop-color="#6BAB2B"/>
<stop offset="1" stop-color="#84D52C" stop-opacity="0"/>
</linearGradient>
<linearGradient id="paint1_linear_5821_49469" x1="12.3083" y1="2.47998" x2="1.7479" y2="3.11561" gradientUnits="userSpaceOnUse">
<stop stop-color="#6BAB2B"/>
<stop offset="1" stop-color="#84D52C" stop-opacity="0"/>
</linearGradient>
</defs>
</svg>
