<svg width="28" height="28" viewBox="0 0 28 28" fill="none" xmlns="http://www.w3.org/2000/svg">
<path d="M11.7846 3.99038C12.547 2.66987 14.453 2.66987 15.2154 3.99038L25.7317 22.2051C26.4941 23.5256 25.5411 25.1763 24.0163 25.1763H2.98372C1.45893 25.1763 0.50593 23.5256 1.26833 22.2051L11.7846 3.99038Z" fill="#F2C94C"/>
<path d="M14.5957 18.5112H12.3837L11.969 9.62368H14.9907L14.5957 18.5112ZM14.6155 22.5204C14.2995 22.8364 13.9242 22.9944 13.4897 22.9944C13.0552 22.9944 12.68 22.8364 12.364 22.5204C12.0611 22.2044 11.9097 21.8358 11.9097 21.4144C11.9097 20.9799 12.0611 20.6047 12.364 20.2887C12.68 19.9727 13.0552 19.8147 13.4897 19.8147C13.9242 19.8147 14.2995 19.9727 14.6155 20.2887C14.9315 20.6047 15.0895 20.9799 15.0895 21.4144C15.0895 21.8358 14.9315 22.2044 14.6155 22.5204Z" fill="#171722"/>
</svg>
