<svg width="55" height="1254" viewBox="0 0 55 1254" fill="none" xmlns="http://www.w3.org/2000/svg">
<path d="M52.9872 4.44914L54.2831 1252.49L9.92522 1242.7C9.93852 1242.52 9.9559 1242.28 9.97718 1241.99C10.0321 1241.23 10.113 1240.11 10.217 1238.64C10.4251 1235.7 10.7254 1231.36 11.0946 1225.8C11.8332 1214.67 12.8475 1198.6 13.9508 1178.87C16.1573 1139.41 18.7197 1085.28 20.1432 1026.6C22.9894 909.268 21.2853 773.669 3.04357 700.859C-0.535646 686.573 1.50123 676.057 4.34438 665.079C4.66973 663.822 5.00578 662.56 5.34518 661.285C7.97411 651.407 10.8033 640.778 10.4049 626.545C10.0182 612.733 7.87768 602.081 5.90057 592.243C5.36454 589.576 4.84053 586.968 4.36673 584.374C2.14627 572.214 1.0104 560.274 4.83676 543.603C21.2097 472.269 26.7529 336.392 28.2078 218.401C28.9353 159.395 28.6404 104.844 28.1635 65.0445C27.9251 45.1448 27.6412 28.9328 27.417 17.6956C27.3048 12.0769 27.2076 7.70199 27.1383 4.73157C27.1037 3.24636 27.0761 2.11228 27.0572 1.34945C27.0518 1.13086 27.047 0.94276 27.0431 0.785612L52.9872 4.44914Z" fill="#212129" stroke="url(#paint0_linear_6507_103451)"/>
<defs>
<linearGradient id="paint0_linear_6507_103451" x1="90.8434" y1="-159.071" x2="-75.996" y2="-156.178" gradientUnits="userSpaceOnUse">
<stop stop-color="#84D52C"/>
<stop offset="1" stop-color="#171722" stop-opacity="0"/>
</linearGradient>
</defs>
</svg>
