<svg width="113" height="60" viewBox="0 0 113 60" fill="none" xmlns="http://www.w3.org/2000/svg">
<g clip-path="url(#clip0_5417_17931)">
<path d="M38.963 39.702C38.7218 39.0392 38.2457 38.5007 37.6349 38.1996C36.8794 37.8788 36.0414 37.8443 35.2644 38.1019C34.3704 38.3829 33.569 38.9216 32.951 39.6569V39.5067C32.951 39.4391 32.901 39.1611 32.8653 38.9207C32.8296 38.6804 32.7939 38.47 32.7582 38.2822C32.7225 38.0944 32.6725 37.9967 32.6297 37.9892C31.6804 37.9457 30.7464 38.2512 29.9878 38.8531C29.1001 39.5423 28.3463 40.4043 27.7672 41.3923C27.1356 42.4605 26.6546 43.6194 26.3392 44.8329C25.8695 46.405 25.7163 48.0629 25.8894 49.7008C25.982 50.7824 26.4199 51.7991 27.1318 52.5855C27.7966 53.2385 28.6645 53.615 29.5737 53.6447C31.1164 53.7062 32.639 53.2597 33.9292 52.3676C35.2789 51.4511 36.4297 50.2455 37.3065 48.8294C38.2144 47.3777 38.8405 45.7514 39.1486 44.0441C39.2712 43.3453 39.3334 42.6362 39.3343 41.9256C39.3476 41.1662 39.2215 40.4112 38.963 39.702ZM35.3929 44.4723C35.2558 45.3392 35.0159 46.1847 34.6789 46.9889C34.3674 47.7792 33.9489 48.518 33.4365 49.1824C33.2733 49.4345 33.0621 49.6481 32.8163 49.8098C32.5704 49.9714 32.2954 50.0776 32.0085 50.1215C31.5158 50.1215 31.2159 49.7458 31.1374 49.1073C31.0597 48.3531 31.108 47.5904 31.2802 46.8536C31.4573 46.0141 31.696 45.1903 31.9942 44.3896C32.1541 43.8518 32.3952 43.3445 32.7082 42.8872C32.7279 43.2624 32.81 43.6311 32.951 43.9765C33.0692 44.3162 33.2804 44.6116 33.5579 44.8253H33.6436V44.7427C33.5808 43.9233 33.7498 43.1026 34.1291 42.3839C34.4504 41.8881 34.7289 41.6928 34.9645 41.7754C35.1201 41.876 35.2481 42.0177 35.3358 42.1863C35.4234 42.355 35.4677 42.5448 35.4643 42.7369C35.4998 43.3178 35.4638 43.9011 35.3572 44.4723H35.3929Z" fill="white"/>
<path d="M45.2266 38.5151C45.7183 38.7343 46.1571 39.0667 46.5105 39.4879C46.8639 39.9092 47.123 40.4085 47.2687 40.949C47.0473 42.0684 46.7474 43.3079 46.3761 44.7051C46.0477 45.9221 45.7478 47.109 45.4836 48.2659C45.2194 49.4228 45.3337 49.866 45.7621 49.5205C46.4794 48.8142 47.0951 48.0019 47.59 47.109C48.3754 45.842 49.1917 44.3971 50.039 42.7745C50.8863 41.1519 51.6146 39.6494 52.2239 38.2672C53.252 38.0033 54.3355 38.1256 55.2871 38.6127C55.7814 38.8301 56.223 39.1617 56.579 39.5831C56.935 40.0044 57.1962 40.5046 57.3434 41.0467C57.1149 42.1385 56.8269 43.3404 56.4795 44.6526C56.0606 46.2852 55.7131 47.8252 55.437 49.2726C55.1581 50.3268 55.1581 51.4411 55.437 52.4953C55.4847 52.592 55.5253 52.6925 55.5584 52.7958C55.569 52.8179 55.5746 52.8423 55.5746 52.8671C55.5746 52.8919 55.569 52.9164 55.5584 52.9385L55.3942 53.0437H55.3299C53.9019 53.7423 52.7523 53.87 52.0026 53.4418C51.6042 53.19 51.2646 52.8474 51.0088 52.4392C50.753 52.0309 50.5875 51.5675 50.5246 51.083C50.2904 49.773 50.2447 48.4334 50.3889 47.109C49.7216 48.2387 48.977 49.3158 48.1612 50.3318C47.4285 51.261 46.578 52.0799 45.6336 52.7657C44.8525 53.3465 43.9197 53.6588 42.9632 53.6597C42.4397 53.6302 41.9354 53.4423 41.5111 53.1184C41.0867 52.7946 40.7603 52.3486 40.5712 51.8342C40.0428 50.6698 39.8572 48.957 40.0928 46.6884C40.442 43.7728 41.1253 40.9124 42.1278 38.1695C43.1674 37.9017 44.2634 38.0239 45.2266 38.5151Z" fill="white"/>
<path d="M63.1552 46.8912C63.1429 46.9754 63.1238 47.0583 63.0981 47.1391C62.9767 47.5598 62.8339 48.1307 62.6697 48.8594C62.5058 49.5658 62.3913 50.2839 62.327 51.0079C62.2334 51.5435 62.306 52.0966 62.534 52.5854C62.5731 52.6366 62.6161 52.6843 62.6625 52.7282L62.7339 52.8183C62.7444 52.8336 62.75 52.852 62.75 52.8709C62.75 52.8898 62.7444 52.9082 62.7339 52.9235C62.6845 52.9819 62.6295 53.0348 62.5697 53.0813C62.0432 53.4562 61.438 53.6908 60.8061 53.7649C60.1782 53.8532 59.5396 53.7434 58.9711 53.4493C58.6683 53.283 58.4004 53.0542 58.1833 52.7768C57.9662 52.4993 57.8043 52.1788 57.7073 51.8342C57.2798 50.1572 57.185 48.4056 57.4288 46.6884C57.7852 43.7687 58.4781 40.9055 59.4923 38.162C60.4889 37.9005 61.5407 38.0093 62.4698 38.47C62.949 38.6707 63.3828 38.9749 63.7432 39.3632C64.1036 39.7514 64.3825 40.2149 64.5618 40.7237C65.2669 39.769 66.0851 38.9132 66.9966 38.177C68.0226 37.9169 69.1026 38.039 70.0526 38.5226C70.5474 38.7425 70.9894 39.0758 71.3464 39.4982C71.7033 39.9205 71.9663 40.4213 72.1161 40.9641C71.5667 42.1634 71.1452 43.4232 70.8594 44.7202C70.6751 45.4348 70.7436 46.1956 71.0522 46.8611C70.7294 47.0982 70.3568 47.2493 69.9664 47.3017C69.5759 47.354 69.1792 47.306 68.8102 47.1616C68.0246 46.8067 67.3861 46.167 67.0109 45.3587C66.5058 44.2944 66.2604 43.1146 66.2969 41.9256C65.1671 43.5214 64.1184 45.1789 63.1552 46.8912Z" fill="white"/>
<path d="M79.0773 42.8196C78.5754 43.7809 78.2074 44.8131 77.9848 45.8846C77.7353 46.9102 77.7181 47.9832 77.9348 49.0172C78.0094 49.4421 78.211 49.8308 78.5103 50.1267C78.8095 50.4227 79.1908 50.6103 79.5985 50.6623C80.4981 50.8276 81.8548 50.3468 83.6827 49.22C84.1253 49.0622 84.3467 49.22 84.3538 49.5956C84.287 50.1678 84.0348 50.6984 83.6398 51.098C82.9736 51.842 82.1558 52.4173 81.2479 52.7808C79.8798 53.3217 78.4246 53.5768 76.9638 53.532C76.2188 53.5488 75.4803 53.3847 74.8054 53.0525C74.1305 52.7202 73.5375 52.2288 73.0724 51.6164C72.1916 50.3773 71.7112 48.8741 71.7015 47.3269C71.6882 45.5935 72.1067 43.8867 72.9153 42.3764C73.8071 40.7186 75.1568 39.3851 76.7853 38.5526C78.1775 37.8307 79.7289 37.5167 81.2764 37.6437C82.8187 37.7989 83.9064 38.2221 84.5395 38.9132C84.8333 39.2111 85.0631 39.5717 85.2134 39.9708C85.3637 40.3699 85.4309 40.7982 85.4106 41.227C85.3641 42.0818 85.0673 42.9006 84.5609 43.5708C84.0986 44.2292 83.4228 44.6863 82.6616 44.8554C82.2436 44.9225 81.8164 44.8839 81.4153 44.7428C81.0143 44.6018 80.6509 44.3622 80.3553 44.0441C80.3054 43.984 80.2839 43.9314 80.2982 43.8938C80.3211 43.8475 80.3526 43.8066 80.391 43.7736C80.6421 43.5417 80.8253 43.2395 80.9194 42.9022C81.0296 42.5852 81.0591 42.2434 81.0051 41.9106C80.9942 41.7884 80.9394 41.6752 80.8518 41.5942C80.7641 41.5132 80.6504 41.4705 80.5338 41.4749C80.0412 41.4974 79.5556 41.9707 79.0773 42.8196Z" fill="white"/>
<path d="M98.8341 42.5491C98.9017 41.9591 98.8522 41.3606 98.6887 40.7917C98.5253 40.2227 98.2514 39.6957 97.8845 39.2438C97.4579 38.7614 96.942 38.3759 96.3686 38.1111C95.7951 37.8462 95.1763 37.7076 94.55 37.7038C92.7581 37.5767 90.9775 38.0873 89.4948 39.1536C88.1661 40.1436 87.1233 41.5007 86.4816 43.075C85.8431 44.5799 85.5496 46.2216 85.6248 47.8678C85.6678 49.3499 86.1692 50.7768 87.0529 51.9319C87.5331 52.4942 88.1229 52.941 88.7821 53.2417C89.4414 53.5425 90.1545 53.6902 90.8728 53.6747C92.3751 53.7118 93.871 53.4571 95.2854 52.9235C96.2155 52.5664 97.0574 51.9939 97.7488 51.2483C98.1549 50.8516 98.4217 50.3221 98.5057 49.7458C98.5057 49.3477 98.27 49.22 97.7916 49.3777C96.9404 50.3494 95.7615 50.9319 94.5072 51.0004C93.9691 50.9978 93.446 50.814 93.0143 50.4761C92.5826 50.1382 92.2651 49.6638 92.1081 49.1223C93.9507 48.6409 95.6433 47.6652 97.0205 46.2902C98.0142 45.2984 98.6544 43.9778 98.8341 42.5491ZM95.0641 43.0975C94.7198 43.9526 94.2365 44.7381 93.6361 45.4188C93.0874 46.1254 92.4341 46.7342 91.7011 47.2217C91.6357 46.2994 91.745 45.3725 92.0224 44.4948C92.2589 43.6386 92.6571 42.8414 93.1934 42.151C93.3528 41.8878 93.5906 41.6875 93.8696 41.5815C94.1486 41.4755 94.4532 41.4697 94.7356 41.5651C95.2426 41.8355 95.3354 42.3538 95.0641 43.0975Z" fill="white"/>
<path d="M15.1013 31.8668C14.827 32.237 14.5879 32.6345 14.3872 33.0537C14.4261 33.0467 14.4659 33.0484 14.504 33.0588C14.5422 33.0691 14.5778 33.0879 14.6086 33.1138C14.6501 33.1505 14.68 33.1997 14.694 33.2548C14.7081 33.3099 14.7057 33.3682 14.6871 33.4218C14.4294 34.1711 14.0312 34.8583 13.5161 35.4426C13.4013 35.8913 13.3178 36.3483 13.2662 36.8098L14.1588 35.6605L14.5515 35.1571C14.5185 35.1647 14.4844 35.1647 14.4515 35.1571L14.3658 35.0895C14.3241 35.031 14.3016 34.9598 14.3016 34.8867C14.3016 34.8135 14.3241 34.7424 14.3658 34.6839L14.4015 34.6087C14.5854 34.1216 14.8252 33.6599 15.1155 33.234C15.1232 33.2116 15.1385 33.1929 15.1584 33.1814C15.1237 33.1214 15.1054 33.0526 15.1054 32.9823C15.1054 32.9121 15.1237 32.8433 15.1584 32.7833C15.2771 32.5888 15.4083 32.4031 15.5511 32.2274C15.7355 32.0523 15.8733 31.8296 15.9509 31.5813C16 31.2576 16.1014 30.945 16.2508 30.6573C15.816 31.0022 15.429 31.4093 15.1013 31.8668ZM24.7904 29.2375V29.2976H25.583L25.3974 29.1849C24.9982 28.9611 24.5735 28.7919 24.1335 28.6816L23.3196 28.5915H23.4909C23.8768 28.6221 24.2554 28.7185 24.6119 28.8769H24.6619L24.7262 28.922C24.7565 28.9573 24.7807 28.998 24.7976 29.0422C24.8199 29.1057 24.8173 29.176 24.7904 29.2375ZM15.8652 36.299C15.6368 36.4567 15.394 36.5995 15.1512 36.7347L14.8513 36.8624C14.3181 37.0581 13.7681 37.199 13.2091 37.2831C13.1745 38.0178 13.2008 38.7543 13.2877 39.4842C13.3956 40.3216 13.5944 41.1433 13.8803 41.9331C14.4013 43.4425 15.1591 44.8493 16.1223 46.0949L16.2794 46.2752C16.6649 46.7635 17.0362 47.2593 17.4147 47.7776C17.7431 48.2234 18.0301 48.7014 18.2715 49.205C18.387 49.4575 18.4409 49.7363 18.4286 50.0163C18.3572 50.6774 17.7645 51.0304 16.6435 51.0605C15.78 50.9883 14.9567 50.6455 14.2801 50.0764C13.4575 49.4376 12.8941 48.4961 12.7022 47.4396C12.6593 47.1917 12.5522 47.1391 12.388 47.2593C12.165 47.4657 11.9893 47.7226 11.8739 48.0105C11.6893 48.4461 11.5735 48.9104 11.5312 49.3853C11.4812 49.9603 11.5519 50.5399 11.7382 51.083C11.9266 51.6221 12.2193 52.1141 12.5979 52.5279C12.9765 52.9417 13.4326 53.2683 13.9374 53.4869C15.0612 53.9986 16.2864 54.2151 17.5075 54.1179C18.7895 54.058 20.0471 53.7284 21.2061 53.1489C22.286 52.6471 23.195 51.8112 23.8122 50.7525C24.2525 49.9588 24.3855 49.0173 24.1835 48.1232C24.0046 47.2791 23.6698 46.4802 23.1982 45.7719C22.7556 45.1038 22.2638 44.4733 21.7273 43.8863C21.2561 43.3557 20.815 42.7963 20.4064 42.2111C19.994 41.6278 19.6845 40.9713 19.4924 40.2729C19.2169 39.0546 19.2966 37.7771 19.7209 36.607C20.1422 35.4125 20.7563 34.7064 21.556 34.4961C22.3271 34.4134 22.7769 34.6613 22.8983 35.2473C23.0114 35.8957 22.9133 36.5653 22.6198 37.1479C22.3849 37.7634 21.9426 38.2662 21.3774 38.5602C21.2489 38.6052 21.2418 38.6728 21.3774 38.763C21.7439 39.1234 22.1975 39.3707 22.6887 39.4781C23.1798 39.5854 23.6895 39.5485 24.1621 39.3715C25.2185 38.9784 26.1321 38.2484 26.7754 37.2831C27.5081 36.2789 27.9405 35.0683 28.0178 33.8049C28.0676 32.9495 27.8974 32.0957 27.5251 31.3334C27.2977 30.846 26.9825 30.4097 26.5969 30.0488C26.0973 30.5223 25.5014 30.8692 24.8547 31.063C24.8296 31.1376 24.7832 31.2022 24.7219 31.2479C24.6605 31.2936 24.5872 31.3183 24.512 31.3184C24.3356 31.3545 24.1562 31.3721 23.9765 31.371H23.3481C23.3185 31.4146 23.2785 31.4494 23.2322 31.4718C23.1858 31.4942 23.1347 31.5035 23.0839 31.4987H22.9126C22.4152 31.3737 21.9353 31.1818 21.4845 30.9278L21.3989 30.9803C21.3659 30.9879 21.3318 30.9879 21.2989 30.9803H21.2561C21.0538 30.9538 20.8587 30.885 20.6821 30.7779C20.5055 30.6708 20.3511 30.5277 20.2279 30.3568L20.1779 30.2967C19.8716 29.943 19.59 29.5664 19.3354 29.1699H18.9641C19.2711 29.5681 19.7424 29.9211 20.0851 30.4019L21.0133 31.5513L21.456 32.1598L21.5988 32.3626C21.6844 32.4602 21.75 32.5752 21.7916 32.7006C21.8987 33.1589 21.2846 33.6547 20.8277 33.7899C20.7302 33.8196 20.6292 33.8348 20.5278 33.835C20.3742 33.8288 20.2266 33.7706 20.107 33.6691C19.9874 33.5676 19.902 33.4282 19.8637 33.2716C19.7638 32.926 19.6495 32.588 19.5353 32.2424C19.421 31.8968 19.2782 31.5513 19.1926 31.1907C19.1212 30.9503 19.0212 30.6423 18.9212 30.3268L18.5999 29.2976V29.2525C18.5999 29.2525 18.3643 29.2525 18.3357 29.2901C18.4 29.5981 18.4714 29.9061 18.5642 30.2066C18.657 30.5071 18.6428 30.6423 18.6642 30.8677C18.7499 31.435 18.7499 32.0131 18.6642 32.5804C18.6642 32.8509 18.4928 33.0011 18.4143 32.9035C18.373 32.8426 18.3277 32.7848 18.2786 32.7307L18.2429 32.7983V32.9561C18.2013 33.2552 18.1417 33.5513 18.0644 33.8425C18.0073 34.0979 17.8574 34.4134 17.7431 34.8116C17.6646 35.082 17.636 35.1947 17.5289 35.082L17.4718 35.0219H17.4147C17.3575 35.0219 17.2719 35.1496 17.0934 35.4276C16.9229 35.7046 16.7189 35.9572 16.4864 36.1788C16.4118 36.2529 16.3169 36.3002 16.2151 36.314C16.1651 36.314 16.1437 36.314 16.0937 36.2389" fill="white"/>
<path d="M28.2395 56.95H28.0039V56.5294H29.1178C29.5819 56.5294 29.9103 56.7848 29.9103 57.2205C29.9172 57.3367 29.8919 57.4525 29.8374 57.5539C29.7829 57.6553 29.7015 57.7378 29.6033 57.7914C29.7279 57.8344 29.8355 57.9196 29.9092 58.0338C29.9828 58.148 30.0184 58.2847 30.0103 58.4224C30.0103 58.9558 29.6033 59.1737 29.132 59.1737H28.4823C28.3109 59.1737 28.2395 59.0985 28.2395 58.9182V56.95ZM29.1178 57.6261C29.1581 57.6271 29.1982 57.6198 29.2358 57.6045C29.2734 57.5891 29.3078 57.5662 29.337 57.5369C29.3662 57.5076 29.3896 57.4725 29.4059 57.4337C29.4221 57.3949 29.431 57.3531 29.4319 57.3106C29.4349 57.2702 29.4301 57.2295 29.4181 57.1909C29.406 57.1524 29.3868 57.1167 29.3616 57.086C29.3364 57.0553 29.3056 57.0301 29.2711 57.012C29.2367 56.9938 29.1991 56.9829 29.1606 56.9801H28.7108V57.6562L29.1178 57.6261ZM28.7893 58.7905H29.1606C29.2382 58.7672 29.3064 58.7179 29.355 58.6502C29.4036 58.5824 29.4299 58.4998 29.4299 58.4149C29.4299 58.33 29.4036 58.2474 29.355 58.1797C29.3064 58.1119 29.2382 58.0626 29.1606 58.0393H28.7108V58.7304C28.7143 58.749 28.7243 58.7656 28.7388 58.7767C28.7534 58.7878 28.7714 58.7928 28.7893 58.7905Z" fill="white"/>
<path d="M31.1237 57.7764C31.1247 57.7665 31.1238 57.7565 31.1211 57.747C31.1184 57.7375 31.1139 57.7286 31.1079 57.721C31.102 57.7133 31.0946 57.7069 31.0863 57.7022C31.0779 57.6976 31.0688 57.6947 31.0594 57.6938H30.9023V57.2881H31.3236C31.4878 57.2881 31.5664 57.3557 31.5664 57.521V57.7538C31.6035 57.6164 31.6807 57.4947 31.787 57.4057C31.8933 57.3168 32.0234 57.2652 32.159 57.258H32.2447V57.7313H32.1305C32.0174 57.7316 31.9075 57.7707 31.8173 57.8425C31.7271 57.9143 31.6616 58.015 31.6306 58.1295C31.5951 58.2302 31.5805 58.3378 31.5878 58.445V59.1962H31.1237V57.7689V57.7764Z" fill="white"/>
<path d="M33.2793 57.7764C33.2793 57.7163 33.2793 57.6938 33.1936 57.6938H33.0508V57.2881H33.4935C33.6577 57.2881 33.7362 57.3632 33.7362 57.5435V58.7229C33.7353 58.7328 33.7361 58.7428 33.7388 58.7523C33.7415 58.7618 33.746 58.7707 33.752 58.7783C33.758 58.786 33.7653 58.7924 33.7737 58.7971C33.782 58.8017 33.7911 58.8046 33.8005 58.8056H33.9576V59.2037H33.5577C33.3864 59.2037 33.315 59.1286 33.315 58.9483V57.7764H33.2793ZM33.2793 56.5294H33.6791V56.9726H33.2793V56.5294Z" fill="white"/>
<path d="M34.987 57.7764C34.988 57.7665 34.9871 57.7565 34.9844 57.747C34.9817 57.7375 34.9772 57.7287 34.9712 57.721C34.9652 57.7133 34.9579 57.7069 34.9496 57.7023C34.9412 57.6976 34.9321 57.6947 34.9227 57.6938H34.7656V57.2881H35.1869C35.3511 57.2881 35.4297 57.3632 35.4297 57.4984V57.6412C35.492 57.5178 35.5859 57.4152 35.7007 57.3448C35.8155 57.2745 35.9466 57.2392 36.0794 57.243C36.4864 57.243 36.722 57.4609 36.722 57.9942V58.7455C36.722 58.7674 36.7303 58.7884 36.745 58.8039C36.7598 58.8194 36.7797 58.8281 36.8006 58.8281H36.9434V59.2262H36.515C36.3365 59.2262 36.2651 59.1511 36.2651 58.9708V58.0694C36.2651 57.8365 36.2079 57.6787 35.9723 57.6787C35.8599 57.6774 35.7501 57.7148 35.6598 57.7854C35.5695 57.8559 35.5037 57.9557 35.4725 58.0694C35.4586 58.1539 35.4586 58.2403 35.4725 58.3248V59.2037H34.987V57.7764Z" fill="white"/>
<path d="M38.6641 59.5793C38.9497 59.5793 39.1925 59.4591 39.1925 59.1136V58.9182C39.1357 59.0041 39.058 59.0724 38.9676 59.116C38.8772 59.1596 38.7773 59.1769 38.6784 59.1662C38.4562 59.1642 38.2437 59.0699 38.0873 58.9039C37.9308 58.7379 37.843 58.5135 37.843 58.2797C37.8462 58.2523 37.8462 58.2245 37.843 58.1971C37.8189 57.972 37.8805 57.7461 38.0143 57.5687C38.1481 57.3913 38.3433 57.2769 38.557 57.2505H38.6499C38.7582 57.2397 38.8673 57.259 38.9662 57.3064C39.0652 57.3539 39.1506 57.4279 39.2139 57.521V57.4684C39.2139 57.3858 39.271 57.2956 39.421 57.2956H39.8494V57.7013H39.7066C39.6566 57.7013 39.6281 57.7013 39.6281 57.7764V59.0985C39.6281 59.3396 39.537 59.5708 39.375 59.7413C39.213 59.9118 38.9932 60.0075 38.7641 60.0075H38.6499C38.4218 60.0054 38.1972 59.9489 37.993 59.8423L38.1358 59.4666C38.301 59.5475 38.482 59.5861 38.6641 59.5793ZM39.1997 58.1971C39.1997 57.7614 38.9926 57.6487 38.7427 57.6487C38.68 57.6514 38.6186 57.6676 38.5622 57.6963C38.5058 57.7251 38.4556 57.7657 38.4147 57.8158C38.3739 57.8658 38.3432 57.9241 38.3247 57.9871C38.3062 58.0501 38.3002 58.1165 38.3071 58.182C38.3071 58.5051 38.4714 58.768 38.7712 58.768C39.0711 58.768 39.1997 58.6328 39.1997 58.1971Z" fill="white"/>
<path d="M40.9348 57.7764C40.9348 57.7163 40.9348 57.6938 40.8492 57.6938H40.6992V57.2881H41.1419C41.3061 57.2881 41.3775 57.3632 41.3775 57.5435V58.7229C41.3775 58.7448 41.3858 58.7659 41.4005 58.7813C41.4153 58.7968 41.4353 58.8056 41.4561 58.8056H41.606V59.2037H41.1633C40.9991 59.2037 40.9277 59.1286 40.9277 58.9483L40.9348 57.7764ZM40.9348 56.5294H41.3276V56.9726H40.9348V56.5294Z" fill="white"/>
<path d="M42.6686 57.7764C42.6696 57.7665 42.6687 57.7565 42.666 57.747C42.6633 57.7375 42.6588 57.7287 42.6529 57.721C42.6469 57.7133 42.6395 57.7069 42.6312 57.7023C42.6229 57.6976 42.6137 57.6947 42.6043 57.6938H42.4473V57.2881H42.84C43.0042 57.2881 43.0827 57.3632 43.0827 57.4984V57.6412C43.1451 57.5178 43.239 57.4152 43.3538 57.3448C43.4685 57.2745 43.5997 57.2392 43.7325 57.243C44.1466 57.243 44.3751 57.4609 44.3751 57.9942V58.7455C44.3751 58.7674 44.3834 58.7884 44.3981 58.8039C44.4128 58.8194 44.4328 58.8281 44.4536 58.8281H44.5964V59.2262H44.168C43.9895 59.2262 43.9181 59.1511 43.9181 58.9708V58.0694C43.9181 57.8365 43.861 57.6787 43.6254 57.6787C43.5129 57.6774 43.4032 57.7148 43.3129 57.7854C43.2226 57.8559 43.1568 57.9557 43.1256 58.0694C43.1117 58.1539 43.1117 58.2403 43.1256 58.3248V59.2037H42.6615V57.7764H42.6686Z" fill="white"/>
<path d="M46.3184 59.5793C46.604 59.5793 46.8468 59.4591 46.8468 59.1136V58.9182C46.79 59.0041 46.7123 59.0724 46.6219 59.116C46.5315 59.1595 46.4316 59.1769 46.3327 59.1661C46.1098 59.1622 45.8974 59.0663 45.7411 58.8991C45.5848 58.7318 45.4973 58.5067 45.4973 58.2722C45.5005 58.2473 45.5005 58.222 45.4973 58.1971C45.4732 57.972 45.5348 57.7461 45.6686 57.5687C45.8024 57.3913 45.9975 57.2769 46.2113 57.2505H46.3042C46.4124 57.2397 46.5216 57.259 46.6205 57.3064C46.7195 57.3539 46.8049 57.4279 46.8682 57.521V57.4684C46.8682 57.3858 46.9253 57.2956 47.0753 57.2956H47.5037V57.7013H47.3609C47.3109 57.7013 47.2824 57.7013 47.2824 57.7764V59.0985C47.2814 59.2179 47.2581 59.3359 47.2139 59.4458C47.1696 59.5557 47.1052 59.6554 47.0243 59.7391C46.9434 59.8228 46.8476 59.8889 46.7424 59.9337C46.6372 59.9785 46.5247 60.001 46.4113 60H46.297C46.069 59.9979 45.8444 59.9414 45.6401 59.8347L45.7829 59.4591C45.9493 59.5448 46.1333 59.5861 46.3184 59.5793ZM46.8539 58.1971C46.8539 57.7614 46.6469 57.6487 46.397 57.6487C46.3343 57.6514 46.2729 57.6676 46.2165 57.6963C46.1601 57.7251 46.1099 57.7657 46.069 57.8157C46.0281 57.8658 45.9975 57.9241 45.979 57.9871C45.9605 58.0501 45.9545 58.1165 45.9614 58.182C45.9614 58.5051 46.1256 58.768 46.4255 58.768C46.7254 58.768 46.8539 58.6328 46.8539 58.1971Z" fill="white"/>
<path d="M50.2805 56.95H50.0449V56.5294H51.1588C51.6229 56.5294 51.9513 56.7848 51.9513 57.2205C51.9556 57.3363 51.9292 57.451 51.875 57.5519C51.8207 57.6527 51.7409 57.7357 51.6443 57.7914C51.769 57.8344 51.8765 57.9196 51.9502 58.0338C52.0238 58.148 52.0594 58.2847 52.0513 58.4224C52.0513 58.9558 51.6443 59.1737 51.1731 59.1737H50.5233C50.352 59.1737 50.2805 59.0985 50.2805 58.9182V56.95ZM51.1588 57.6261C51.1991 57.6271 51.2392 57.6198 51.2768 57.6045C51.3144 57.5891 51.3488 57.5662 51.378 57.5369C51.4072 57.5076 51.4306 57.4725 51.4469 57.4337C51.4632 57.3949 51.472 57.3531 51.473 57.3106C51.4749 57.2692 51.469 57.2277 51.4557 57.1887C51.4424 57.1496 51.4218 57.1137 51.3953 57.083C51.3688 57.0523 51.3368 57.0274 51.3011 57.0098C51.2654 56.9921 51.2267 56.982 51.1873 56.9801H50.7518V57.6562L51.1588 57.6261ZM50.8303 58.7905H51.2016C51.2792 58.7672 51.3475 58.7179 51.3961 58.6502C51.4447 58.5824 51.4709 58.4998 51.4709 58.4149C51.4709 58.33 51.4447 58.2474 51.3961 58.1797C51.3475 58.1119 51.2792 58.0626 51.2016 58.0393H50.7518V58.7304C50.7553 58.749 50.7653 58.7656 50.7799 58.7767C50.7944 58.7878 50.8125 58.7928 50.8303 58.7905Z" fill="white"/>
<path d="M53.1647 57.7764C53.1657 57.7665 53.1648 57.7565 53.1621 57.747C53.1594 57.7375 53.1549 57.7286 53.149 57.721C53.143 57.7133 53.1356 57.7069 53.1273 57.7022C53.119 57.6976 53.1098 57.6947 53.1004 57.6938H52.9434V57.2881H53.3646C53.5289 57.2881 53.6074 57.3557 53.6074 57.521V57.7538C53.6426 57.6152 53.7191 57.4922 53.8259 57.4029C53.9326 57.3137 54.0638 57.2629 54.2 57.258H54.2643V57.7313H54.15C54.036 57.7312 53.925 57.77 53.8337 57.8417C53.7423 57.9135 53.6754 58.0144 53.6431 58.1295C53.6288 58.2341 53.6288 58.3403 53.6431 58.445V59.1962H53.179L53.1647 57.7764Z" fill="white"/>
<path d="M56.185 58.0018H56.2421C56.2421 57.7388 56.1421 57.6412 55.9065 57.6412C55.8208 57.6412 55.6566 57.6412 55.6566 57.7689V57.844H55.2282V57.6412C55.2282 57.2881 55.7137 57.2505 55.8922 57.2505C56.5205 57.2505 56.7062 57.5736 56.7062 58.0018V58.753C56.7052 58.7629 56.7061 58.7728 56.7088 58.7823C56.7115 58.7919 56.716 58.8007 56.7219 58.8084C56.7279 58.8161 56.7353 58.8224 56.7436 58.8271C56.7519 58.8318 56.7611 58.8347 56.7705 58.8356H56.9275V59.2338H56.5134C56.342 59.2338 56.2849 59.1361 56.2849 59.0234V58.9408C56.2261 59.0465 56.1414 59.1336 56.0397 59.1931C55.938 59.2525 55.8229 59.2822 55.7066 59.2788C55.6334 59.2861 55.5595 59.278 55.4893 59.255C55.4191 59.2321 55.3539 59.1947 55.2975 59.1452C55.2411 59.0956 55.1946 59.0347 55.1606 58.9661C55.1266 58.8975 55.1059 58.8225 55.0997 58.7455C55.0925 58.0318 55.8851 58.0018 56.185 58.0018ZM55.828 58.8882C55.9459 58.8733 56.0544 58.8128 56.1323 58.7183C56.2102 58.6239 56.2518 58.5024 56.2492 58.3774V58.3323H56.1635C55.9279 58.3323 55.5423 58.3323 55.5423 58.6253C55.5423 58.6611 55.5492 58.6966 55.5626 58.7295C55.5761 58.7624 55.5958 58.7921 55.6205 58.8167C55.6453 58.8413 55.6745 58.8604 55.7065 58.8727C55.7385 58.885 55.7725 58.8902 55.8065 58.8882H55.828Z" fill="white"/>
<path d="M57.9629 57.7764C57.9629 57.7163 57.9629 57.6938 57.8772 57.6938H57.7344V57.2881H58.1628C58.3199 57.2881 58.4056 57.3632 58.4056 57.4984V57.6412C58.4679 57.5178 58.5618 57.4152 58.6766 57.3448C58.7914 57.2745 58.9225 57.2392 59.0553 57.243C59.4694 57.243 59.7051 57.4609 59.7051 57.9942V58.7455C59.7041 58.7553 59.705 58.7653 59.7077 58.7748C59.7104 58.7843 59.7148 58.7932 59.7208 58.8009C59.7268 58.8086 59.7342 58.8149 59.7425 58.8196C59.7508 58.8243 59.7599 58.8272 59.7693 58.8281H59.9264V59.2262H59.4909C59.3195 59.2262 59.241 59.1511 59.241 58.9708V58.0694C59.241 57.8365 59.1838 57.6787 58.9553 57.6787C58.842 57.6734 58.7304 57.7093 58.6393 57.7804C58.5483 57.8516 58.4834 57.9537 58.4555 58.0694C58.4327 58.1524 58.4207 58.2383 58.4198 58.3248V59.2037H57.9629V57.7764Z" fill="white"/>
<path d="M61.6261 57.243C61.7267 57.2325 61.8282 57.2482 61.9216 57.2888C62.015 57.3294 62.0974 57.3937 62.1616 57.4759V57.0252C62.1616 56.9651 62.1616 56.9425 62.0759 56.9425H61.9402V56.5294H62.3758C62.5472 56.5294 62.6186 56.612 62.6186 56.7923V58.7229C62.6176 58.7328 62.6185 58.7428 62.6212 58.7523C62.6239 58.7618 62.6283 58.7707 62.6343 58.7783C62.6403 58.786 62.6476 58.7924 62.656 58.7971C62.6643 58.8017 62.6734 58.8046 62.6828 58.8056H62.8328V59.2037H62.4044C62.2401 59.2037 62.1759 59.1211 62.1759 59.0084V58.9408C62.1141 59.0414 62.0279 59.123 61.9263 59.1771C61.8247 59.2312 61.7112 59.256 61.5975 59.2488C61.4869 59.2468 61.3777 59.222 61.2762 59.1756C61.1747 59.1292 61.0828 59.0623 61.0059 58.9786C60.929 58.8948 60.8685 58.796 60.8279 58.6877C60.7873 58.5794 60.7674 58.4637 60.7693 58.3473C60.7657 58.3124 60.7657 58.2771 60.7693 58.2421C60.7564 58.1246 60.7658 58.0056 60.797 57.8919C60.8281 57.7783 60.8804 57.6723 60.9508 57.58C61.0212 57.4878 61.1083 57.4112 61.2071 57.3546C61.3058 57.2981 61.4143 57.2627 61.5261 57.2505L61.6261 57.243ZM61.7118 58.8506C61.9474 58.8506 62.1759 58.6703 62.1759 58.2421C62.1759 57.9417 62.0259 57.6487 61.7118 57.6487C61.3976 57.6487 61.2477 57.8665 61.2477 58.2421C61.2477 58.6178 61.4404 58.8506 61.7118 58.8506Z" fill="white"/>
<path d="M63.9186 58.5952C64.0622 58.7626 64.2618 58.8649 64.4755 58.8807C64.6112 58.8807 64.7183 58.8206 64.7183 58.6929C64.7183 58.4224 63.7472 58.4224 63.7472 57.7989C63.7472 57.4158 64.0828 57.243 64.4613 57.243C64.7183 57.243 65.111 57.3257 65.111 57.6412V57.844H64.7112V57.7538C64.7112 57.6637 64.5755 57.6186 64.4755 57.6186C64.3756 57.6186 64.2042 57.6787 64.2042 57.7914C64.2042 58.0919 65.1824 58.0318 65.1824 58.6703C65.1824 59.0309 64.8754 59.2563 64.4684 59.2563C64.3244 59.2608 64.1812 59.233 64.0482 59.1747C63.9152 59.1164 63.7956 59.029 63.6973 58.9182L63.9186 58.5952Z" fill="white"/>
<path d="M67.968 56.95H67.7324V56.5294H68.782C69.1191 56.5294 69.4424 56.6702 69.6807 56.921C69.9191 57.1718 70.053 57.5119 70.053 57.8665C70.053 58.2212 69.9191 58.5613 69.6807 58.8121C69.4424 59.0628 69.1191 59.2037 68.782 59.2037H68.2179C68.0466 59.2037 67.968 59.1286 67.968 58.9483V56.95ZM68.5464 58.7905H68.7749C68.9932 58.7698 69.1963 58.6638 69.3441 58.4935C69.492 58.3232 69.574 58.1009 69.574 57.8703C69.574 57.6396 69.492 57.4173 69.3441 57.247C69.1963 57.0768 68.9932 56.9708 68.7749 56.95H68.4679V58.7079C68.4669 58.7178 68.4678 58.7278 68.4705 58.7373C68.4732 58.7468 68.4776 58.7556 68.4836 58.7633C68.4896 58.771 68.4969 58.7774 68.5053 58.782C68.5136 58.7867 68.5227 58.7896 68.5321 58.7905H68.5464Z" fill="white"/>
<path d="M71.2011 57.7764C71.2021 57.7665 71.2012 57.7565 71.1985 57.747C71.1958 57.7375 71.1914 57.7286 71.1854 57.721C71.1794 57.7133 71.1721 57.7069 71.1637 57.7022C71.1554 57.6976 71.1463 57.6947 71.1369 57.6938H70.9727V57.2881H71.4011C71.5724 57.2881 71.6438 57.3632 71.6438 57.5435V58.7229C71.6428 58.7328 71.6437 58.7428 71.6464 58.7523C71.6491 58.7618 71.6536 58.7707 71.6596 58.7783C71.6656 58.786 71.6729 58.7924 71.6813 58.7971C71.6896 58.8017 71.6987 58.8046 71.7081 58.8056H71.8652V59.2037H71.4011C71.2297 59.2037 71.1583 59.1286 71.1583 58.9483V57.7764H71.2011ZM71.2011 56.5294H71.601V56.9726H71.2011V56.5294Z" fill="white"/>
<path d="M72.9433 57.7764C72.9443 57.7665 72.9434 57.7565 72.9407 57.747C72.938 57.7375 72.9336 57.7286 72.9276 57.721C72.9216 57.7133 72.9142 57.7069 72.9059 57.7022C72.8976 57.6976 72.8885 57.6947 72.8791 57.6938H72.7148V57.2881H73.1433C73.3075 57.2881 73.386 57.3557 73.386 57.521V57.7538C73.4208 57.6164 73.4963 57.4943 73.6016 57.4051C73.7069 57.316 73.8365 57.2644 73.9715 57.258H74.0572V57.7313H73.943C73.8299 57.7316 73.72 57.7707 73.6298 57.8425C73.5396 57.9143 73.4741 58.015 73.4431 58.1295C73.4149 58.232 73.4005 58.3382 73.4003 58.445V59.1962H72.9433V57.7689V57.7764Z" fill="white"/>
<path d="M75.8138 57.243C76.0228 57.2369 76.2256 57.318 76.3781 57.4686C76.5306 57.6191 76.6203 57.827 76.6277 58.0468C76.6313 58.0818 76.6313 58.117 76.6277 58.152C76.6346 58.2119 76.6346 58.2724 76.6277 58.3323H75.3497C75.3641 58.477 75.4305 58.6105 75.5353 58.7055C75.6402 58.8004 75.7755 58.8497 75.9137 58.8431C76.1069 58.835 76.2923 58.7612 76.4421 58.6328L76.6206 58.9783C76.4135 59.1412 76.1649 59.2354 75.9066 59.2488C75.657 59.2632 75.412 59.1735 75.2249 58.9991C75.0377 58.8247 74.9235 58.5797 74.907 58.3173V58.2421C74.9022 58.1158 74.9211 57.9898 74.9627 57.8712C75.0042 57.7526 75.0676 57.6438 75.1492 57.551C75.2308 57.4582 75.3289 57.3832 75.4381 57.3304C75.5472 57.2775 75.6652 57.2478 75.7852 57.243H75.8138ZM76.1708 57.9942C76.1737 57.9439 76.1671 57.8935 76.1514 57.8458C76.1358 57.7982 76.1113 57.7542 76.0795 57.7165C76.0476 57.6789 76.009 57.6482 75.9659 57.6262C75.9227 57.6042 75.8759 57.5915 75.828 57.5886C75.7195 57.586 75.6139 57.6261 75.532 57.7011C75.4501 57.7762 75.3978 57.8807 75.3854 57.9942H76.1708Z" fill="white"/>
<path d="M78.5423 57.243C78.7779 57.243 79.2135 57.3407 79.2135 57.6712V57.8966H78.8065V57.7914C78.8065 57.6862 78.6565 57.6412 78.5423 57.6412C78.4027 57.6577 78.2738 57.7277 78.1802 57.8379C78.0866 57.948 78.0348 58.0906 78.0348 58.2384C78.0348 58.3862 78.0866 58.5288 78.1802 58.6389C78.2738 58.7491 78.4027 58.8191 78.5423 58.8356C78.7498 58.8211 78.9452 58.7276 79.0921 58.5727L79.2777 58.9032C79.1786 59.0135 79.059 59.101 78.9264 59.1605C78.7937 59.22 78.6508 59.25 78.5066 59.2488C78.3808 59.2614 78.2538 59.2477 78.1331 59.2084C78.0124 59.1691 77.9002 59.1051 77.8031 59.0199C77.7061 58.9348 77.626 58.8302 77.5675 58.7124C77.509 58.5945 77.4734 58.4656 77.4625 58.3331C77.4517 58.2006 77.4659 58.0672 77.5043 57.9405C77.5428 57.8139 77.6047 57.6965 77.6865 57.5951C77.7683 57.4937 77.8684 57.4105 77.9809 57.35C78.0935 57.2896 78.2164 57.2532 78.3424 57.243C78.3969 57.2356 78.4521 57.2356 78.5066 57.243H78.5423Z" fill="white"/>
<path d="M80.3619 57.6637H80.1191V57.2881H80.3762V56.7622H80.8189V57.2881H81.2401V57.6637H80.8189V58.4149C80.817 58.4603 80.8236 58.5057 80.8383 58.5484C80.8531 58.5911 80.8757 58.6303 80.9049 58.6638C80.9341 58.6973 80.9692 58.7244 81.0084 58.7435C81.0475 58.7627 81.0899 58.7736 81.133 58.7755H81.2758V59.1887H81.1259C80.9498 59.2144 80.7712 59.1655 80.6293 59.0529C80.4874 58.9402 80.3938 58.7729 80.369 58.5877C80.3653 58.5377 80.3653 58.4875 80.369 58.4375L80.3619 57.6637Z" fill="white"/>
<path d="M84.6321 56.95H84.2537C84.1966 56.95 84.168 56.95 84.168 57.0327V57.1979H83.7539V56.7773C83.7539 56.597 83.811 56.5294 83.9824 56.5294H85.7817C85.9531 56.5294 86.0102 56.597 86.0102 56.7773V57.1979H85.5961V57.0327C85.5961 56.9801 85.5961 56.95 85.5104 56.95H85.1248V59.2037H84.6464V56.95H84.6321Z" fill="white"/>
<path d="M87.5087 57.243C87.6958 57.2533 87.8759 57.3212 88.0267 57.4382C88.1775 57.5552 88.2923 57.7162 88.3569 57.9013C88.4215 58.0863 88.433 58.2872 88.39 58.4791C88.3471 58.6709 88.2515 58.8453 88.1152 58.9806C87.979 59.1158 87.8079 59.206 87.6234 59.2399C87.4388 59.2738 87.2489 59.25 87.0771 59.1714C86.9053 59.0927 86.7592 58.9628 86.6569 58.7976C86.5547 58.6324 86.5008 58.4393 86.502 58.2422C86.5028 58.106 86.5298 57.9715 86.5814 57.8467C86.633 57.7219 86.7081 57.6094 86.8022 57.516C86.8963 57.4226 87.0075 57.3503 87.1289 57.3034C87.2503 57.2564 87.3795 57.2359 87.5087 57.243ZM87.5087 58.8431C87.6216 58.8475 87.7332 58.8166 87.8293 58.7542C87.9255 58.6919 88.0019 58.601 88.049 58.493C88.0961 58.385 88.1116 58.2647 88.0937 58.1474C88.0759 58.0301 88.0253 57.9209 87.9485 57.8338C87.8717 57.7467 87.7721 57.6855 87.6622 57.658C87.5523 57.6304 87.4372 57.6377 87.3313 57.679C87.2254 57.7203 87.1335 57.7937 87.0672 57.8899C87.0009 57.9861 86.9633 58.1009 86.9589 58.2196C86.9551 58.2946 86.9653 58.3697 86.9891 58.4405C87.0129 58.5113 87.0497 58.5765 87.0975 58.6323C87.1452 58.6882 87.203 58.7335 87.2674 58.7658C87.3319 58.7981 87.4017 58.8167 87.473 58.8206L87.5087 58.8431Z" fill="white"/>
<path d="M91.3079 56.95H91.0723V56.5294H92.5431C92.7145 56.5294 92.7859 56.612 92.7859 56.7848V57.1979H92.3575V57.0327C92.3585 57.0228 92.3576 57.0128 92.3549 57.0033C92.3522 56.9938 92.3477 56.9849 92.3417 56.9773C92.3358 56.9696 92.3284 56.9632 92.3201 56.9585C92.3117 56.9539 92.3026 56.951 92.2932 56.95H91.7863V57.7013H92.6074V58.1219H91.7863V59.1962H91.3079V56.9425V56.95Z" fill="white"/>
<path d="M94.6355 58.0018H94.6926C94.6926 57.7388 94.5855 57.6412 94.3499 57.6412C94.2713 57.6412 94.1071 57.6412 94.1071 57.7689V57.844H93.6715V57.6412C93.6715 57.2881 94.1642 57.2505 94.3427 57.2505C94.9711 57.2505 95.1496 57.5736 95.1496 58.0018V58.753C95.1496 58.7749 95.1578 58.7959 95.1726 58.8114C95.1873 58.8269 95.2073 58.8356 95.2281 58.8356H95.378V59.2338H94.9639C94.7925 59.2338 94.7283 59.1361 94.7283 59.0234V58.9408C94.6719 59.047 94.5887 59.1347 94.4879 59.1944C94.3871 59.254 94.2726 59.2832 94.1571 59.2788C94.0829 59.2861 94.0082 59.2778 93.9371 59.2544C93.8661 59.2311 93.8001 59.1932 93.743 59.1429C93.6859 59.0927 93.6388 59.031 93.6045 58.9615C93.5702 58.892 93.5493 58.816 93.543 58.738C93.5359 58.0318 94.3356 58.0018 94.6355 58.0018ZM94.2499 58.8882C94.3699 58.8786 94.4815 58.8195 94.5603 58.7239C94.6392 58.6282 94.679 58.5037 94.6712 58.3774V58.3323H94.5926C94.3499 58.3323 93.9714 58.3323 93.9714 58.6328C93.9714 58.6676 93.9781 58.7021 93.9912 58.7341C94.0043 58.7661 94.0234 58.795 94.0475 58.8189C94.0716 58.8428 94.1001 58.8613 94.1312 58.8732C94.1623 58.8852 94.1954 58.8902 94.2285 58.8882H94.2499Z" fill="white"/>
<path d="M96.3913 57.7764C96.3922 57.7665 96.3914 57.7565 96.3887 57.747C96.386 57.7375 96.3815 57.7286 96.3755 57.721C96.3695 57.7133 96.3622 57.7069 96.3539 57.7022C96.3455 57.6976 96.3364 57.6947 96.327 57.6938H96.1699V57.2881H96.5912C96.7554 57.2881 96.8339 57.3557 96.8339 57.521V57.7538C96.8687 57.6164 96.9443 57.4943 97.0496 57.4051C97.1548 57.316 97.2844 57.2644 97.4194 57.258H97.5123V57.7313H97.398C97.2837 57.73 97.1722 57.7683 97.0806 57.8402C96.989 57.9122 96.9224 58.0138 96.8911 58.1295C96.8771 58.2341 96.8771 58.3403 96.8911 58.445V59.1962H96.3913V57.7764Z" fill="white"/>
<path d="M98.5338 57.7764C98.5348 57.7665 98.5339 57.7565 98.5312 57.747C98.5285 57.7375 98.5241 57.7287 98.5181 57.721C98.5121 57.7133 98.5048 57.7069 98.4964 57.7023C98.4881 57.6976 98.479 57.6947 98.4696 57.6938H98.3125V57.2881H98.7409C98.9051 57.2881 98.9837 57.3632 98.9837 57.4984V57.6412C99.042 57.5256 99.1281 57.4281 99.2333 57.3582C99.3385 57.2884 99.4592 57.2487 99.5834 57.243C99.7019 57.233 99.8199 57.2665 99.9175 57.3377C100.015 57.4089 100.086 57.5135 100.119 57.6337C100.181 57.514 100.273 57.4144 100.385 57.3456C100.497 57.2767 100.625 57.2413 100.754 57.243C101.14 57.243 101.354 57.4684 101.354 57.9942V58.7455C101.354 58.7674 101.362 58.7884 101.377 58.8039C101.392 58.8194 101.412 58.8281 101.433 58.8281H101.583V59.2262H101.14C100.976 59.2262 100.897 59.1511 100.897 58.9708V58.0619C100.897 57.844 100.854 57.6787 100.647 57.6787C100.536 57.6861 100.431 57.7334 100.349 57.8127C100.267 57.8921 100.214 57.9986 100.198 58.1144C100.19 58.1969 100.19 58.2799 100.198 58.3623V59.2037H99.7334V58.0619C99.7334 57.8515 99.7334 57.6787 99.4835 57.6787C99.3722 57.6891 99.2674 57.7384 99.1859 57.8187C99.1044 57.8991 99.0508 58.0058 99.0337 58.122C99.0265 58.2019 99.0265 58.2824 99.0337 58.3623V59.2037H98.5338V57.7764Z" fill="white"/>
<path d="M102.667 58.5952C102.811 58.7626 103.011 58.8649 103.224 58.8807C103.36 58.8807 103.467 58.8206 103.467 58.6929C103.467 58.4224 102.496 58.4224 102.496 57.7989C102.496 57.4158 102.832 57.243 103.21 57.243C103.467 57.243 103.86 57.3257 103.86 57.6412V57.844H103.46V57.7538C103.46 57.6637 103.324 57.6186 103.224 57.6186C103.124 57.6186 102.953 57.6787 102.953 57.7914C102.953 58.0919 103.931 58.0318 103.931 58.6703C103.931 59.0309 103.624 59.2563 103.217 59.2563C103.074 59.2602 102.932 59.2321 102.801 59.1738C102.669 59.1155 102.55 59.0284 102.453 58.9182L102.667 58.5952Z" fill="white"/>
<path d="M13.8155 7.25679L14.4224 5.70928C14.7927 6.40189 15.108 7.12553 15.3649 7.8728C15.8073 9.0765 16.0791 10.342 16.1718 11.6289C16.1718 11.7115 16.0932 11.8768 16.3003 11.8618C16.386 12.0195 16.3003 12.1322 16.2075 12.2449C15.6554 13.1444 14.9682 13.9436 14.1725 14.6112C13.8512 14.8667 13.7156 14.8366 13.587 14.431C13.2443 13.3868 12.973 12.32 12.6731 11.2608C12.616 11.073 12.5446 10.8852 12.5017 10.6899C12.4946 10.637 12.4749 10.5868 12.4443 10.5441C12.4137 10.5014 12.3734 10.4676 12.327 10.4458C12.2806 10.4241 12.2297 10.415 12.1791 10.4196C12.1285 10.4242 12.0798 10.4422 12.0376 10.472C11.8663 10.3744 11.8377 10.179 11.7806 10.0138C11.5807 9.42782 11.4164 8.82685 11.1808 8.25592C10.9116 7.641 10.6732 7.01161 10.4668 6.37035C10.4668 6.25016 10.4668 6.12996 10.6239 6.11494C10.781 6.09992 10.8524 6.25016 10.9166 6.37787C11.3665 7.27933 11.7734 8.21084 12.1376 9.15738C12.1914 9.32569 12.2633 9.48699 12.3518 9.63816C12.5089 9.56304 12.5589 9.4128 12.6374 9.28509C12.9508 8.75323 13.2368 8.20405 13.4942 7.63992C13.5656 7.51221 13.6442 7.3244 13.8155 7.25679Z" fill="#58AA46"/>
<path d="M12.0606 10.5171L12.3391 10.1114C12.6437 10.8012 12.8828 11.5208 13.0531 12.2599C13.2816 13.0111 13.4887 13.7624 13.6886 14.5136C13.7743 14.8216 13.8314 14.8291 14.0813 14.6263C14.8776 13.9228 15.5769 13.1062 16.1591 12.1998C16.2085 12.1147 16.2538 12.0269 16.2948 11.9369C16.459 11.6064 16.6303 11.2758 16.8517 10.8476C16.9777 11.8966 17.0397 12.953 17.0373 14.0103C17.0161 15.0168 16.9302 16.0208 16.7803 17.0152C16.8588 17.1128 16.7803 17.203 16.7446 17.2706C16.3653 17.7647 15.9473 18.2246 15.4951 18.6453C15.403 18.7289 15.2878 18.7789 15.1666 18.788C14.9024 18.7129 14.8382 18.4725 14.7596 18.2472C14.4455 17.3532 14.1456 16.4517 13.8814 15.5428C13.7957 15.2423 13.6672 15.092 13.3601 15.2122C13.1174 15.1296 13.1388 14.8892 13.0817 14.7014C12.8389 13.815 12.6247 12.921 12.3677 12.0421C12.3089 11.7788 12.2325 11.5203 12.1392 11.2683C12.1392 10.9979 11.925 10.7575 12.0606 10.5171Z" fill="#0A9747"/>
<path d="M13.1886 14.6037C13.2386 14.7765 13.2885 14.9493 13.3457 15.1221C13.5626 15.6711 13.7137 16.2465 13.7955 16.8349C13.9022 17.0684 13.9323 17.3326 13.8812 17.5861C13.5813 17.8265 13.4599 17.6236 13.3814 17.3682C13.2314 16.8349 13.0886 16.3015 12.9672 15.7681C12.948 15.6343 12.8858 15.5114 12.7909 15.4198C12.6961 15.3283 12.5744 15.2736 12.446 15.2648C11.7123 15.1601 10.9932 14.9634 10.304 14.6789C10.1612 14.6112 9.97552 14.6188 9.91839 14.4084C9.96837 14.2131 9.81129 14.1079 9.71847 13.9802C8.90264 12.7635 8.34946 11.3739 8.09766 9.9086C8.39754 9.96119 8.60461 10.179 8.86879 10.1941C9.00318 10.167 9.14232 10.191 9.2615 10.2617C9.89057 10.4865 10.547 10.6155 11.2108 10.6448C11.3188 10.6343 11.4276 10.6498 11.5291 10.6901C11.6305 10.7305 11.7219 10.7946 11.7963 10.8777C11.8609 11.009 11.9112 11.1476 11.9462 11.2908C12.2175 12.2599 12.5174 13.2215 12.753 14.1981C12.853 14.431 12.9101 14.6188 13.1886 14.6037Z" fill="#6DB445"/>
<path d="M13.8168 7.25679C13.4242 8.19714 12.9459 9.09528 12.3888 9.93865C12.146 9.3527 11.9318 8.81182 11.6747 8.28596C11.382 7.62489 11.0678 6.97133 10.7537 6.31776C10.668 6.13747 10.5752 6.16752 10.5038 6.31776C10.2396 6.22011 10.2396 5.91962 10.0896 5.73181C10.0664 5.69412 10.0472 5.6538 10.0325 5.61162C9.98211 5.44612 9.9048 5.29107 9.80402 5.15337C9.74018 5.06157 9.68965 4.9603 9.65408 4.85288C9.57743 4.65768 9.48171 4.47138 9.36847 4.29698C9.31849 4.19181 9.25423 3.99649 9.36847 3.91386C9.48272 3.83122 9.58268 3.99649 9.65408 4.08664C9.86216 4.34729 10.0374 4.63514 10.1753 4.94303C10.2676 5.18471 10.4118 5.40068 10.5966 5.57406C10.7251 5.01815 10.8108 4.49981 10.9107 3.99649C10.9271 3.79651 10.9937 3.60468 11.1035 3.44059C11.0959 3.069 11.115 2.69734 11.1607 2.32878C11.48 2.63301 11.7694 2.97025 12.0246 3.33542C12.8516 4.44048 13.4389 5.72247 13.7454 7.09152C13.7587 7.15101 13.7829 7.20716 13.8168 7.25679Z" fill="#81BC41"/>
<path d="M11.738 10.9077C11.4381 10.6373 11.024 10.75 10.7241 10.7049C10.0874 10.638 9.46532 10.463 8.88192 10.1866C8.00522 8.80822 7.4544 7.22934 7.27539 5.58157C7.58075 5.66106 7.8757 5.77964 8.15363 5.93465C8.21614 5.91232 8.2839 5.91232 8.34641 5.93465C9.03449 6.12127 9.70962 6.35721 10.3671 6.64079C10.669 7.19833 10.9086 7.79072 11.0811 8.40616C11.3167 9.08977 11.5166 9.78841 11.7237 10.4795C11.7808 10.5997 11.9022 10.7575 11.738 10.9077Z" fill="#93C340"/>
<path d="M25.1683 14.6413L26.1607 14.0854C26.2607 14.2131 26.1607 14.3183 26.1607 14.4159C25.8241 15.8946 25.1992 17.2836 24.3257 18.495C24.3257 18.5401 24.2472 18.5702 24.2757 18.6378C24.3043 18.7054 24.1615 18.788 24.0687 18.8181C23.2392 19.0962 22.3631 19.1858 21.4982 19.081C21.4772 19.0745 21.4579 19.0629 21.4418 19.0473C21.4257 19.0317 21.4133 19.0124 21.4054 18.9909C21.3948 18.9283 21.3963 18.8641 21.4098 18.8022C21.4233 18.7402 21.4485 18.6817 21.4839 18.6303C21.9909 17.7513 22.3408 16.7973 22.7835 15.8883C22.8763 15.6855 22.7478 15.6404 22.605 15.5953C22.4907 15.37 22.6549 15.1972 22.7192 15.0019C22.7835 14.8066 22.9477 14.4535 23.0405 14.1755C23.2261 13.6647 23.3904 13.1464 23.5332 12.628C23.576 12.4778 23.6117 12.32 23.7759 12.2674C24.1401 12.3275 24.0758 12.6205 24.0401 12.8609C23.9386 13.4602 23.7783 14.0468 23.5617 14.6112C23.4704 14.8144 23.3894 15.0226 23.319 15.2348C23.8076 15.1064 24.2853 14.9355 24.747 14.7239C24.8054 14.675 24.8744 14.6418 24.9479 14.6274C25.0213 14.613 25.097 14.6178 25.1683 14.6413Z" fill="#58AA46"/>
<path d="M9.93238 14.4009C10.7832 14.7708 11.676 15.0234 12.5885 15.1521C12.7005 15.1566 12.8073 15.2029 12.8897 15.2828C12.9722 15.3626 13.0248 15.4708 13.0383 15.5878C13.174 16.1813 13.3454 16.7597 13.4953 17.3457C13.5453 17.556 13.6238 17.6537 13.8309 17.541C14.0023 17.5936 14.038 17.7513 14.0665 17.9016C14.1594 18.3749 14.3093 18.8406 14.4021 19.3214C14.4021 19.5993 14.5806 19.8548 14.5235 20.1402C14.2522 20.3055 14.1451 20.0952 14.0879 19.8923C14.0506 19.7467 13.9689 19.6179 13.8554 19.5257C13.742 19.4335 13.603 19.3828 13.4596 19.3815C13.1222 19.3353 12.7898 19.2548 12.4671 19.1411C12.3672 19.1035 12.2387 19.096 12.2529 18.9383C11.3876 18.0368 10.63 17.0277 9.99664 15.9334C9.65041 15.3138 9.34735 14.6685 9.08984 14.0028L9.93238 14.4009Z" fill="#3C9F47"/>
<path d="M13.7302 32.3926C12.6803 33.4076 11.4728 34.2257 10.1602 34.8116C10.1602 34.6012 10.3458 34.5411 10.3601 34.3834C10.5966 33.8945 10.8087 33.393 10.9956 32.8809C11.0384 32.7006 11.1812 32.5203 10.8242 32.4302C10.5814 32.3626 10.8242 32.1673 10.9027 32.0471C11.7881 31.5062 12.6592 30.9503 13.5017 30.3493C13.7874 30.169 14.0944 30.0113 14.3229 29.831C14.23 29.8836 14.1015 29.9737 13.973 30.0639C13.9125 30.1075 13.8404 30.1295 13.7672 30.1268C13.6939 30.1241 13.6234 30.0968 13.566 30.0488C13.2524 29.8543 12.9497 29.6411 12.6592 29.4103L12.345 29.2976C13.2511 28.7393 14.2302 28.3242 15.2511 28.0656C16.05 27.8334 16.88 27.742 17.7073 27.7952C17.6345 27.916 17.5305 28.0124 17.4074 28.0731C16.0936 28.8243 14.9369 29.846 13.616 30.6348C14.1729 30.8376 14.2158 31.8818 13.7302 32.3926Z" fill="#0F9647"/>
<path d="M12.2517 18.9608C12.7083 19.1569 13.1892 19.2834 13.6798 19.3364C13.8 19.3382 13.9159 19.3842 14.0072 19.4666C14.0986 19.5489 14.1595 19.6624 14.1796 19.7871C14.2224 19.975 14.251 20.1928 14.5223 20.1628C14.7936 20.1327 14.7151 20.3581 14.7508 20.4933C14.965 21.2445 15.2435 21.9957 15.4005 22.747C15.4943 23.2701 15.727 23.7545 16.0717 24.1442C16.4073 24.5274 16.6001 25.0006 16.9071 25.3988C16.9519 25.4448 16.9852 25.5019 17.0039 25.5648C17.0226 25.6278 17.0261 25.6946 17.0142 25.7594C16.0053 25.1853 15.1051 24.4214 14.3581 23.5057C13.1075 22.0883 12.0458 20.4987 11.2021 18.7805C11.1593 18.6829 11.1236 18.5777 11.0879 18.4725C11.4621 18.6693 11.8515 18.8327 12.2517 18.9608Z" fill="#008C46"/>
<path d="M9.74708 28.2835L10.0969 28.0055C8.30426 28.0784 6.51624 27.7666 4.8418 27.089L5.44157 26.9538C5.7845 26.7207 6.15392 26.534 6.54115 26.3979C6.99641 26.1782 7.40636 25.8669 7.74784 25.4814C7.52526 25.3529 7.28399 25.264 7.03382 25.2185C6.37815 25.0365 5.74178 24.7848 5.13454 24.4673C4.99888 24.3696 4.77754 24.2794 4.99888 24.0391C5.05513 24.013 5.11592 23.9995 5.17738 23.9995C5.23885 23.9995 5.29964 24.013 5.35589 24.0391C5.98422 24.332 6.64111 24.5499 7.29087 24.7903C7.61217 24.9706 8.00488 24.903 8.30477 25.2035C8.34761 25.4063 8.51897 25.3988 8.65464 25.4438L11.0537 26.1951C11.575 26.3603 11.6392 26.5406 11.3322 26.9463C10.9836 27.4057 10.5886 27.8238 10.1541 28.1933C10.0398 28.306 9.90416 28.4412 9.74708 28.2835Z" fill="#0A9747"/>
<path d="M8.24775 25.211L7.25527 24.8729C7.15525 24.7374 7.01415 24.6419 6.85542 24.6025C6.3481 24.445 5.84984 24.2569 5.36313 24.0391C5.22746 23.9865 5.08466 23.9489 5.01326 23.7912C4.8917 23.1733 4.72703 22.5656 4.52059 21.9732C4.49926 21.929 4.48815 21.8801 4.48815 21.8305C4.48815 21.7809 4.49926 21.732 4.52059 21.6877C4.43491 21.53 4.30638 21.2671 4.2207 21.1093C4.2207 21.1093 4.47775 21.1619 4.57057 21.1919C5.72117 21.4417 6.82876 21.8749 7.85504 22.4765C7.955 22.5366 8.04068 22.6568 8.18349 22.6042C8.38198 23.0529 8.47737 23.5444 8.46195 24.0391C8.53335 24.8579 8.51907 24.8579 9.29021 25.0457C9.51155 25.1058 9.88998 25.0457 9.6615 25.534C9.16921 25.5948 8.67172 25.4811 8.24775 25.211Z" fill="#6DB445"/>
<path d="M19.4707 16.7973C19.562 15.522 19.9361 14.287 20.5631 13.1914C20.6488 13.3868 20.7202 13.537 20.7916 13.6797C21.2205 14.2813 21.6856 14.8534 22.184 15.3925C22.2425 15.4625 22.2793 15.5497 22.2895 15.6423C22.2997 15.7349 22.2828 15.8286 22.2411 15.9109C22.1972 15.991 22.1706 16.0804 22.1632 16.1725C22.1558 16.2647 22.1678 16.3574 22.1982 16.4442C22.2339 16.9325 21.9126 17.2781 21.7413 17.6837C21.627 17.9617 21.4699 18.2321 21.3557 18.5176C21.306 18.6311 21.2268 18.7275 21.1272 18.7955C21.0632 18.8363 20.9893 18.8566 20.9145 18.854C20.8397 18.8513 20.7672 18.8258 20.7059 18.7805C20.0747 18.3034 19.6345 17.5966 19.4707 16.7973Z" fill="#6DB445"/>
<path d="M16.9868 25.7443C16.5726 25.256 16.3156 24.6701 15.9157 24.1668C15.5387 23.6576 15.2928 23.0547 15.2017 22.4164C15.0133 21.6488 14.7747 20.8958 14.4877 20.1628L14.2949 19.4115C14.3647 19.2676 14.4656 19.1429 14.5897 19.0476C14.7137 18.9524 14.8574 18.8892 15.0089 18.8631C15.2446 18.8631 15.3302 19.1035 15.4302 19.2838C15.5302 19.4641 15.573 19.6144 15.673 19.7721C15.9586 20.2304 16.2299 20.283 16.644 19.9524C16.7583 19.8548 16.8725 19.7421 17.0367 19.7872C16.8253 21.0541 16.7344 22.34 16.7654 23.6259C16.7759 24.3028 16.8842 24.974 17.0867 25.6166C17.1367 25.7293 17.1367 25.7293 16.9868 25.7443Z" fill="#006C39"/>
<path d="M22.1918 21.7854L23.0272 21.5826C22.7601 22.0173 22.4244 22.4009 22.0347 22.7169C21.3921 23.3029 20.6424 23.7611 20.0355 24.3997C19.2724 25.0971 18.6424 25.941 18.179 26.8862C18.179 26.9388 18.179 27.0815 18.0505 27.0289C17.922 26.9763 18.0077 26.9012 17.9934 26.8336C17.9468 25.3815 18.3015 23.9463 19.0144 22.7019C19.0787 22.5892 19.1501 22.484 19.2072 22.3714C19.5285 21.7478 19.5285 21.7478 20.1997 21.8455C20.6627 21.8694 21.1267 21.8443 21.5849 21.7704C21.7856 21.7266 21.9932 21.7317 22.1918 21.7854Z" fill="#006C39"/>
<path d="M22.1915 21.7854C21.5372 21.9317 20.8672 21.9848 20.1994 21.9432C20.0852 21.8455 20.128 21.7328 20.1994 21.6276C20.5279 20.7938 20.9134 19.975 21.2919 19.1636C21.3347 19.0735 21.3847 18.9834 21.5061 19.0059C22.4428 19.0528 23.3802 18.9282 24.2764 18.6378L25.1761 18.2847C24.7471 18.97 24.2698 19.6204 23.7481 20.2304C23.2557 20.7773 22.7361 21.2964 22.1915 21.7854Z" fill="#0F9647"/>
<path d="M22.1346 16.5269C22.0656 16.4583 22.0224 16.3657 22.0132 16.2663C22.0041 16.1668 22.0294 16.0672 22.0847 15.986C22.2703 15.693 22.1561 15.4977 21.9347 15.2348C21.437 14.8072 21.043 14.2613 20.7852 13.6422C20.9565 13.5746 20.8923 13.4018 20.9137 13.2816C21.134 12.2057 21.5511 11.1851 22.1418 10.2767C22.3417 10.4645 22.3774 10.7274 22.5059 10.9303C22.6197 10.9892 22.7213 11.0713 22.8046 11.1719C22.888 11.2725 22.9515 11.3896 22.9915 11.5162C23.1191 11.7614 23.2622 11.9973 23.4199 12.2224C23.4647 12.644 23.3823 13.0698 23.1842 13.4393C23.0779 13.6735 23.0551 13.9401 23.12 14.1906C22.9486 14.6488 22.7773 15.107 22.613 15.5578C22.6089 15.747 22.5637 15.9327 22.4807 16.1007C22.3978 16.2687 22.2794 16.4145 22.1346 16.5269Z" fill="#94C340"/>
<path d="M5.04016 24.0391C4.8688 24.2194 5.04016 24.2569 5.15441 24.332C5.91574 24.7083 6.70646 25.015 7.5178 25.2485C7.66774 25.3011 7.90336 25.2485 7.93907 25.4288C7.97477 25.6091 7.73914 25.6241 7.63918 25.7293C7.0234 26.3314 6.26711 26.7513 5.44715 26.9463C5.53284 26.7134 5.31149 26.7735 5.24009 26.7435C4.25528 26.332 3.34663 25.7421 2.55539 25.0006L2.35547 24.7903C2.52683 24.6926 2.69106 24.7903 2.84814 24.7903C2.98535 24.699 3.14292 24.6472 3.30511 24.64C3.73589 24.6096 4.15286 24.4677 4.51893 24.2269C4.24761 23.9489 3.91202 23.8137 3.65498 23.5733C3.52645 23.4606 3.27655 23.393 3.43363 23.1226C4.02447 23.3057 4.57191 23.618 5.04016 24.0391Z" fill="#58AA46"/>
<path d="M21.477 19.0359C20.9619 19.9694 20.5339 20.9531 20.1989 21.9732C19.7205 21.8155 19.5206 22.0333 19.2564 22.469C18.5209 23.7544 18.1058 25.2143 18.0497 26.7134C18.0413 26.7673 18.0218 26.8185 17.9926 26.8637C17.8064 26.4081 17.6931 25.9233 17.657 25.4288C17.4494 23.5371 17.6073 21.6207 18.1211 19.7947L18.5638 20.6135C18.8422 20.7337 18.9136 21.0342 19.0921 21.2445C19.2707 21.4549 19.3278 21.4774 19.5491 21.2445C20.0272 20.6149 20.4345 19.9292 20.7629 19.2012C20.8224 19.0709 20.9135 18.9594 21.0271 18.8782C21.0968 18.8526 21.172 18.8481 21.244 18.8654C21.316 18.8827 21.3819 18.921 21.4341 18.9758L21.477 19.0359Z" fill="#008B46"/>
<path d="M11.4245 23.8738C11.3459 23.7611 11.2745 23.6409 11.2031 23.5282C11.2817 23.4531 11.3459 23.4907 11.4102 23.5282C13.5542 24.0701 15.5245 25.1973 17.1223 26.796C17.1921 26.863 17.2566 26.9359 17.3151 27.0139C17.3302 27.0139 17.3448 27.0202 17.3555 27.0315C17.3662 27.0428 17.3722 27.0581 17.3722 27.074C17.3722 27.0899 17.3662 27.1052 17.3555 27.1165C17.3448 27.1278 17.3302 27.1341 17.3151 27.1341C17.2294 27.1341 17.2151 27.1341 17.158 27.1341C16.494 26.9388 15.8514 26.6683 15.1659 26.5256C14.7247 26.3833 14.2591 26.3449 13.8021 26.4129C13.4488 26.4312 13.0953 26.3802 12.7597 26.2627C12.4136 26.1801 12.0631 26.1199 11.7101 26.0824C11.6891 26.0825 11.6684 26.078 11.6492 26.0691C11.63 26.0603 11.6128 26.0473 11.5987 26.031C11.5845 26.0147 11.5738 25.9955 11.5672 25.9746C11.5605 25.9537 11.5581 25.9315 11.5601 25.9096C11.6433 25.7754 11.6951 25.6224 11.7112 25.4631C11.7274 25.3038 11.7074 25.1427 11.653 24.9931C11.5093 24.6389 11.4317 24.2589 11.4245 23.8738Z" fill="#0A9747"/>
<path d="M11.4234 23.8738C11.5983 24.3318 11.7275 24.8076 11.809 25.2936C11.8428 25.4094 11.8344 25.5342 11.7856 25.6439C11.7368 25.7536 11.651 25.8402 11.5448 25.8871C11.5219 25.9226 11.4885 25.9492 11.4498 25.9628C11.4111 25.9764 11.3692 25.9762 11.3306 25.9622C10.8094 25.8796 10.2953 25.7669 9.7812 25.6467C9.74142 25.64 9.70425 25.6216 9.67394 25.5937C9.64363 25.5658 9.62141 25.5295 9.60983 25.4889C9.71693 25.2936 9.60983 25.2185 9.44561 25.1734C9.0886 25.0833 8.61021 25.1734 8.41029 24.8804C8.21036 24.5875 8.36745 24.1743 8.33175 23.8137C8.29604 23.4531 8.21036 23.0024 8.15324 22.5967C8.1104 22.469 8.0747 22.3338 8.01758 22.146C8.58843 22.3544 9.1444 22.6054 9.68123 22.8972C10.1453 23.1526 10.6023 23.4381 11.0593 23.701C11.1878 23.7987 11.2806 23.9339 11.4234 23.8738Z" fill="#3BA047"/>
<path d="M11.1035 3.47064C10.975 4.17679 10.8536 4.88293 10.718 5.58908C10.718 5.6642 10.718 5.76937 10.6109 5.79191C10.5038 5.81445 10.4752 5.71679 10.4324 5.64918C10.1896 5.22849 9.95397 4.8003 9.71835 4.3721C9.65409 4.25942 9.57555 4.14674 9.44702 3.94391C9.41511 4.10389 9.4248 4.26997 9.47506 4.42465C9.52532 4.57933 9.6143 4.71689 9.73263 4.82284C9.48272 4.82284 9.39704 4.5524 9.2828 4.36459C8.7317 3.39348 8.05393 2.50845 7.26928 1.73532C6.85562 1.2835 6.39034 0.887343 5.88409 0.555903C5.74843 0.458244 5.49138 0.398146 5.5842 0.112682C7.54657 0.630316 9.33681 1.70327 10.7608 3.21522C10.8536 3.32039 10.925 3.48566 11.1035 3.47064Z" fill="#A6CB3F"/>
<path d="M27.7604 24.2194C27.9105 24.1581 28.0745 24.145 28.2317 24.1818C27.1693 25.0814 25.9593 25.7689 24.6616 26.2101C24.5851 26.2323 24.511 26.2625 24.4403 26.3002C24.2618 26.4505 24.1047 26.3002 23.9476 26.2552C23.6505 26.1472 23.3729 25.9872 23.1265 25.7819C22.8052 25.5265 22.798 25.3988 23.1265 25.2034C23.2904 25.1346 23.4359 25.0247 23.5504 24.8834C23.6649 24.742 23.7448 24.5734 23.7834 24.3921C24.2689 24.0015 24.8473 23.7686 25.3328 23.3705C25.8058 23.0625 26.2634 22.729 26.7037 22.3713C26.8815 22.2087 27.0727 22.0629 27.2749 21.9356C27.4034 21.8755 27.5391 21.7629 27.6462 21.9356C27.7533 22.1084 27.6462 22.2436 27.5248 22.3338C27.1751 22.6595 26.8054 22.9606 26.4181 23.2352C26.2182 23.3705 25.8826 23.4982 25.9397 23.7461C25.9968 23.994 26.3538 23.9489 26.5823 24.0165C26.8175 24.0667 27.0564 24.0943 27.2963 24.0992C27.4596 24.0819 27.6235 24.1244 27.7604 24.2194Z" fill="#0F9647"/>
<path d="M21.0926 18.9007C20.8546 19.1558 20.674 19.4639 20.5642 19.8022C20.3429 20.4858 19.7859 20.9365 19.486 21.56C19.4075 21.7253 19.3361 21.6502 19.2361 21.56C18.95 21.2883 18.7087 20.9684 18.5221 20.6135C18.4507 19.1971 18.615 17.7785 19.0076 16.4217C19.0272 16.318 19.0583 16.2172 19.1005 16.1212L19.4361 16.7973C19.7145 17.4564 20.0905 18.0649 20.5499 18.6002C20.6355 18.6892 20.7509 18.7391 20.8712 18.7391C20.9915 18.7391 21.107 18.6892 21.1925 18.6002C21.3496 18.7355 21.164 18.8256 21.0926 18.9007Z" fill="#3C9F47"/>
<path d="M25.1692 14.6413C24.5203 14.9406 23.8522 15.1917 23.1699 15.3925C23.1898 15.1712 23.2582 14.9577 23.3698 14.769C23.617 14.1456 23.8082 13.4992 23.9411 12.8384C23.9839 12.6506 24.0696 12.4102 23.7768 12.3125C23.6697 12.2224 23.7054 12.0947 23.6912 11.9745C23.7467 11.5152 23.8797 11.07 24.0839 10.6598C24.2838 10.6974 24.2766 10.8777 24.2909 11.0204C24.3173 11.3155 24.2931 11.6132 24.2195 11.8993C24.5754 11.5476 24.9739 11.247 25.4048 11.0054L25.9546 10.4194C26.0285 10.9812 26.0165 11.5519 25.9189 12.1097C25.8185 12.8956 25.5915 13.6577 25.2477 14.3633C25.2049 14.461 25.1263 14.5361 25.1692 14.6413Z" fill="#81BC41"/>
<path d="M23.7975 24.5048C23.9689 24.9931 23.5548 25.0983 23.3049 25.256C22.9122 25.4589 22.9264 25.549 23.3049 25.7819C23.6617 26.0286 24.055 26.2114 24.4687 26.3228L25.1827 26.5106C24.9325 26.7723 24.6189 26.9568 24.2759 27.044C23.4557 27.2963 22.6023 27.4079 21.7483 27.3745H20.0989C19.6548 27.3919 19.2141 27.4624 18.7852 27.5848C18.8444 27.3836 18.9506 27.2012 19.094 27.0543C19.2374 26.9073 19.4135 26.8005 19.6063 26.7435C20.196 26.4853 20.7643 26.1762 21.3056 25.8195C22.0553 25.4213 22.8193 25.0682 23.5476 24.5875C23.5814 24.556 23.6212 24.5324 23.6642 24.5181C23.7073 24.5039 23.7527 24.4994 23.7975 24.5048Z" fill="#006C39"/>
<path d="M5.58312 0.112683C5.77591 0.525855 6.22574 0.616001 6.5399 0.863904C6.79463 1.07439 7.03336 1.30546 7.25392 1.55503C8.23656 2.60709 9.07525 3.79793 9.74583 5.09328C9.78966 5.25727 9.85968 5.41223 9.95289 5.55152C9.98081 5.58871 10.0048 5.62902 10.0243 5.67172C10.1171 5.8445 10.1885 6.02479 10.2671 6.20508C10.3456 6.38538 10.4313 6.44547 10.2671 6.57318L8.12502 5.93464C8.14267 5.90408 8.152 5.869 8.152 5.83323C8.152 5.79746 8.14267 5.76238 8.12502 5.73181C7.56094 3.60586 6.96831 1.50244 5.07617 0C5.24992 0.00777801 5.42123 0.045857 5.58312 0.112683Z" fill="#B8D437"/>
<path d="M6.22656 17.849C8.44001 18.8181 10.6106 19.8397 11.9387 22.2061C9.38251 21.6051 7.69743 19.8773 6.22656 17.849Z" fill="#006C39"/>
<path d="M3.44155 23.1C3.57721 23.5207 3.99848 23.5883 4.27695 23.8513C4.41261 23.979 4.70536 23.994 4.69108 24.2043C4.6768 24.4147 4.39119 24.4147 4.23411 24.4898C3.7938 24.6641 3.32649 24.7508 2.85606 24.7452C0.285606 21.7854 0.449829 21.2445 0 19.374C0.0856818 19.3064 0.199924 19.4716 0.257045 19.5317C0.394816 19.6895 0.521304 19.8577 0.635473 20.0351C1.32744 21.101 2.19854 22.0251 3.20593 22.762C3.31303 22.8596 3.44155 22.9273 3.44155 23.1Z" fill="#81BC41"/>
<path d="M11.7173 25.9847C11.954 25.9098 12.2089 25.9313 12.4313 26.0448C13.3738 26.3754 14.3805 26.0448 15.2873 26.3979C15.9219 26.5339 16.535 26.7641 17.1081 27.0815C15.9653 27.2045 14.8476 27.5137 13.795 27.998C13.2086 28.2262 12.6073 28.4094 11.9957 28.5464C11.8672 28.3661 12.0457 28.276 12.1171 28.1633C12.1885 28.0506 12.2885 27.983 12.3813 27.9003C12.8454 27.3895 12.7597 26.9989 12.1457 26.751L11.8386 26.6308C11.4888 26.488 11.4602 26.3378 11.7173 25.9847Z" fill="#006C39"/>
<path d="M17.7639 27.8327C16.9839 28.6897 16.3228 29.6583 15.8004 30.7099C15.3577 31.4705 14.8089 32.1567 14.1724 32.7457C13.9833 32.9158 13.7618 33.0413 13.5227 33.1138C13.5227 32.8434 13.7369 32.6481 13.7297 32.3626C13.8354 32.1045 13.9028 31.8309 13.9297 31.5513C14.0296 30.8977 13.9868 30.8451 13.2656 30.8001L17.7639 27.8327Z" fill="#006C39"/>
<path d="M3.17023 22.8747C2.2278 22.1748 1.39848 21.32 0.714015 20.3431C0.521231 20.0501 0.399848 19.682 0.0785416 19.4867C0 19.404 0 19.1561 0 19.1561C1.28523 20.4933 2.8989 21.1018 4.52685 21.7028C4.81066 22.3741 5.00065 23.0851 5.09093 23.8137C4.74106 23.9114 4.51971 23.6259 4.24839 23.5057C3.86996 23.3404 3.57007 23.0475 3.17023 22.8747Z" fill="#94C340"/>
<path d="M13.6442 30.3869C12.7517 31.0404 11.8092 31.6189 10.8667 32.2048H10.7667C10.2403 32.3848 9.72914 32.6109 9.23871 32.8809C9.05782 32.9855 8.85191 33.0325 8.64608 33.0162C8.23909 32.7082 7.7607 32.5203 7.36799 32.1898L6.98242 32.0245C7.81269 31.4797 8.71497 31.0671 9.65998 30.8001C9.78136 30.8001 9.967 30.8001 10.017 30.6123C10.3597 30.5522 10.5097 30.8602 10.731 31.0329C11.3808 31.5588 11.3736 31.5813 12.0591 31.093C12.4439 30.8088 12.8498 30.5576 13.2729 30.3418C13.3943 30.2442 13.5656 30.1014 13.6442 30.3869Z" fill="#6CB545"/>
<path d="M11.7167 25.9847C11.5381 26.3528 11.681 26.5181 12.038 26.6383C12.9733 26.9463 13.0447 27.4421 12.3021 28.1407C12.1808 28.2609 12.0237 28.3736 11.9951 28.5689C11.093 28.8467 10.134 28.8467 9.23188 28.5689L9.74597 28.2534C10.417 27.8697 10.9808 27.3077 11.3811 26.6233C11.531 26.3979 11.3097 26.3528 11.1883 26.3153C10.2886 26.0298 9.38896 25.7669 8.48931 25.4889C8.35364 25.4439 8.08232 25.4889 8.24654 25.1809L9.62459 25.4589C10.2605 25.6363 10.9069 25.7693 11.5596 25.857L11.7167 25.9847Z" fill="#008043"/>
<path d="M27.7618 24.2194C27.1215 24.2498 26.4815 24.1503 25.8768 23.9264C25.6626 23.8437 25.5984 23.8287 25.7983 23.6184C26.241 23.1526 26.8336 22.8672 27.2692 22.4164C27.362 22.3188 27.4977 22.2587 27.5691 22.1235C27.6405 21.9882 27.6904 22.0183 27.6262 21.9507C27.5619 21.8831 27.4834 21.9507 27.412 21.9957C27.3334 21.8155 27.4762 21.7478 27.5691 21.6502C28.1005 21.1414 28.5791 20.5748 28.9971 19.9599C29.1185 19.8172 29.1827 19.5993 29.4112 19.5693C29.5826 19.7195 29.4112 19.8473 29.4112 19.9674C29.1234 20.5093 28.7759 21.0136 28.3759 21.4699C28.269 21.5669 28.1837 21.6874 28.126 21.823C28.5615 21.9957 28.9757 21.7178 29.4041 21.7629L29.8254 21.6577C29.4382 22.3923 28.9416 23.0568 28.3545 23.6259C28.1331 23.8287 27.8832 23.9564 27.7618 24.2194Z" fill="#58AA46"/>
<path d="M24.8043 21.7253C25.4874 20.9921 26.2466 20.342 27.0677 19.7872C27.1962 19.712 27.3176 19.6219 27.4604 19.5242C27.5604 19.697 27.4604 19.8247 27.4604 19.9449C27.5512 20.5574 27.527 21.1827 27.389 21.7854C27.0732 22.1103 26.7263 22.3998 26.3537 22.6493C25.9817 22.934 25.5876 23.1853 25.1756 23.4005C25.1042 23.4005 25.0256 23.4005 25.0042 23.3254C24.7682 22.8309 24.6977 22.2671 24.8043 21.7253Z" fill="#6DB445"/>
<path d="M17.0289 19.7571C16.904 19.8372 16.7889 19.9331 16.6861 20.0426C16.5811 20.1787 16.4295 20.2661 16.2639 20.2858C16.0983 20.3054 15.932 20.2559 15.8007 20.1477C15.7397 20.0959 15.6888 20.0321 15.6508 19.9599C15.408 19.6219 15.3224 19.2087 15.051 18.8631C15.0492 18.829 15.0571 18.7951 15.0736 18.7657C15.0901 18.7363 15.1146 18.7127 15.1439 18.6979C15.7707 18.2062 16.3242 17.6188 16.7861 16.955L17.5001 15.9785C17.5728 17.2581 17.4128 18.5405 17.0289 19.7571Z" fill="#008043"/>
<path d="M24.805 21.7253C24.8441 22.2955 24.9301 22.861 25.062 23.4156C24.8335 23.9039 24.348 24.009 23.941 24.272C23.7982 24.3771 23.5912 24.3997 23.5912 24.64C22.8644 25.1069 22.1109 25.5258 21.3349 25.8946C21.1349 25.7368 21.2849 25.6241 21.3849 25.534C21.5697 25.3643 21.7827 25.2319 22.0132 25.1434C22.1328 25.108 22.2353 25.0265 22.3001 24.9151C22.365 24.8036 22.3875 24.6705 22.3631 24.5424C22.3418 24.3603 22.3418 24.1761 22.3631 23.994C22.3631 23.8438 22.3631 23.671 22.5487 23.6109C23.2113 22.7948 23.9399 22.0407 24.7264 21.3572C24.7621 21.41 24.7874 21.4698 24.8009 21.533C24.8144 21.5962 24.8158 21.6615 24.805 21.7253Z" fill="#3BA047"/>
<path d="M10.8238 32.1297L10.8667 32.2048C10.7381 32.4452 10.8667 32.4002 10.988 32.3175C11.1094 32.2349 11.2379 32.3175 11.1951 32.4903C11.0804 33.1864 10.7949 33.839 10.3669 34.3834C9.51391 34.7321 8.61624 34.9447 7.70357 35.0144H7.41797L7.66787 34.7965C7.77062 34.5861 7.90036 34.3914 8.05344 34.2181C8.19724 34.0778 8.31058 33.9065 8.38575 33.716C8.46091 33.5254 8.49613 33.32 8.48899 33.1138C9.28155 32.8584 9.99556 32.4002 10.8238 32.1297Z" fill="#58AA46"/>
<path d="M22.5564 23.6109C22.436 23.91 22.4109 24.2421 22.485 24.5574C22.5034 24.6289 22.5081 24.7036 22.499 24.777C22.49 24.8505 22.4672 24.9214 22.432 24.9856C22.3969 25.0497 22.35 25.106 22.2942 25.1511C22.2384 25.1963 22.1746 25.2294 22.1066 25.2485H22.0352C21.8107 25.3467 21.5994 25.4755 21.4068 25.6317C21.3875 25.6399 21.3699 25.6521 21.3551 25.6675C21.3403 25.683 21.3286 25.7014 21.3206 25.7217C21.3126 25.742 21.3085 25.7637 21.3086 25.7857C21.3087 25.8076 21.313 25.8293 21.3212 25.8495C20.7926 26.2427 20.2131 26.5538 19.6004 26.7735C19.2573 26.944 18.9602 27.2023 18.7364 27.5247L18.5508 27.66C19.4682 25.825 20.8688 24.307 22.585 23.2878C22.5778 23.3705 22.5635 23.4907 22.5564 23.6109Z" fill="#008C46"/>
<path d="M13.6442 30.3869C13.53 30.2441 13.4371 30.3493 13.33 30.3869C12.794 30.6639 12.2785 30.9828 11.7878 31.3409C11.7333 31.3993 11.6683 31.4457 11.5965 31.4773C11.5248 31.509 11.4478 31.5253 11.3701 31.5253C11.2923 31.5253 11.2153 31.509 11.1436 31.4773C11.0719 31.4457 11.0069 31.3993 10.9524 31.3409L10.8881 31.2658C10.6158 30.9931 10.3246 30.742 10.017 30.5146C9.97397 30.5102 9.93302 30.493 9.8989 30.4651C9.86477 30.4372 9.83888 30.3996 9.82422 30.3568C10.7558 29.9746 11.7098 29.656 12.6803 29.4028C12.9527 29.4563 13.2023 29.5982 13.3943 29.8084C13.4408 29.8584 13.4964 29.8981 13.5577 29.9252C13.619 29.9523 13.6848 29.9663 13.7513 29.9663C13.8178 29.9663 13.8836 29.9523 13.9449 29.9252C14.0062 29.8981 14.0618 29.8584 14.1083 29.8084C14.2654 29.6807 14.4225 29.5004 14.7152 29.5831L13.6442 30.3869Z" fill="#3BA047"/>
<path d="M25.4039 11.0129C25.0088 11.4038 24.5863 11.7629 24.1401 12.0871C24.1401 11.7266 24.1972 11.4336 24.19 11.1481C24.19 10.9979 24.2543 10.8026 24.0544 10.7049C23.8545 10.6072 23.9687 10.457 23.983 10.3293C24.0234 9.92253 24.0424 9.51375 24.0401 9.10479C24.0357 8.16596 23.9157 7.23167 23.6831 6.32528C23.6759 6.19517 23.6759 6.06475 23.6831 5.93464C24.6331 7.31771 25.2103 8.94508 25.3539 10.6448C25.3635 10.7684 25.3802 10.8914 25.4039 11.0129Z" fill="#A6CB3F"/>
<path d="M18.264 28.644C18.1296 28.9443 18.0128 29.2528 17.9141 29.568L17.7856 29.6281C17.3766 29.8362 16.989 30.0879 16.6289 30.3794L16.7431 30.169C17.0904 29.5402 17.5513 28.989 18.0998 28.5464C18.214 28.4788 18.2212 28.4863 18.264 28.644Z" fill="#2A9A47"/>
<path d="M18.3141 15.4451C17.6929 13.2666 18.3141 11.381 19.0923 9.52548C19.3351 11.5312 19.4136 13.522 18.3141 15.4451Z" fill="#008043"/>
<path d="M4.5625 30.8001C6.29756 29.8761 8.06831 29.0722 10.1961 29.4028C8.4396 30.6648 6.54032 30.8601 4.5625 30.8001Z" fill="#006C39"/>
<path d="M23.6839 6.32528C23.9758 6.92424 24.1207 7.59052 24.1052 8.26343C24.1195 8.54369 24.1195 8.82454 24.1052 9.1048C24.0313 10.0767 23.8639 11.0382 23.6054 11.9745C23.5483 12.1097 23.6054 12.305 23.3912 12.3651C22.9485 11.982 22.8342 11.381 22.4844 10.9378C23.3115 9.56011 23.7292 7.95411 23.6839 6.32528Z" fill="#B8D437"/>
<path d="M8.47614 33.2415C8.59038 33.3842 8.66178 33.5044 8.52612 33.7073C8.29105 34.1135 8.00259 34.4827 7.6693 34.8041C7.6693 34.5787 7.53364 34.6763 7.46224 34.6839C6.10922 34.6962 4.782 34.2942 3.64226 33.527C3.5932 33.4892 3.55593 33.4369 3.53516 33.3767H3.7208C4.68363 33.583 5.67043 33.6362 6.64826 33.5345C7.14093 33.4669 7.62646 33.3392 8.11913 33.234C8.23337 33.1889 8.36904 33.0537 8.47614 33.2415Z" fill="#80BC42"/>
<path d="M29.3604 21.7854C28.9901 21.9657 28.5815 22.0408 28.1751 22.0033C28.0823 22.0033 27.9609 22.0033 27.918 21.9056C27.8752 21.8079 27.9823 21.7403 28.0466 21.6652C28.6238 21.0696 29.091 20.3666 29.4246 19.5918C29.2747 19.374 29.4246 19.2162 29.5317 19.0585C29.8401 18.47 30.0799 17.8444 30.2457 17.1954C30.4385 16.9475 30.4385 16.8874 30.4528 17.3832C30.4717 18.3045 30.3488 19.2228 30.0886 20.1027C29.9033 20.6892 29.6591 21.2533 29.3604 21.7854Z" fill="#81BC41"/>
<path d="M30.2604 17.1879C30.232 17.7726 30.0598 18.3395 29.7606 18.8331C29.6606 19.0885 29.4321 19.2763 29.425 19.5843C29.2982 19.7122 29.1899 19.859 29.1037 20.02C28.9109 20.0651 28.8538 20.2604 28.7538 20.4032C28.3929 20.8604 27.9939 21.2828 27.5614 21.6652C27.5389 21.6798 27.5129 21.6876 27.4864 21.6876C27.4599 21.6876 27.434 21.6798 27.4115 21.6652C27.3472 21.0887 27.3472 20.5064 27.4115 19.9299C27.797 19.8473 28.0041 19.5017 28.2826 19.2763C29.0448 18.6972 29.7127 17.992 30.2604 17.1879Z" fill="#94C340"/>
<path d="M6.61192 33.6021C5.65578 33.7746 4.67377 33.692 3.75586 33.3617C4.92449 33.172 6.06311 32.8157 7.14029 32.3025C7.22597 32.3025 7.30451 32.2123 7.3902 32.1673C7.86704 32.3177 8.30773 32.5738 8.68256 32.9185C8.57546 33.1964 8.30413 33.1814 8.10421 33.249C7.61154 33.3918 7.14029 33.512 6.61192 33.6021Z" fill="#94C340"/>
<path d="M28.7254 16.001C27.8022 17.7511 26.4703 19.2248 24.8555 20.283C25.7559 18.5154 27.0929 17.0361 28.7254 16.001Z" fill="#008043"/>
<path d="M23.3418 27.9078C24.7654 27.2761 26.3493 27.165 27.8401 27.5923C26.425 28.2609 24.8288 28.3729 23.3418 27.9078Z" fill="#006C39"/>
<path d="M14.4011 33.2866C13.8023 34.7867 12.7376 36.0288 11.3809 36.8098C12.0266 35.3416 13.0795 34.1134 14.4011 33.2866Z" fill="#006C39"/>
<path d="M20.4207 28.7492H20.3565C20.0328 28.8093 19.7186 28.8844 19.414 28.9746C19.3497 28.8995 19.2926 28.8168 19.2355 28.7417C19.0855 28.5389 18.8927 28.3886 18.7285 28.2008C18.8575 28.1327 19.0019 28.1037 19.1456 28.117C19.2894 28.1302 19.4268 28.1853 19.5425 28.276C19.8138 28.4262 20.078 28.584 20.3636 28.7117L20.4207 28.7492Z" fill="#006C39"/>
<path d="M21.5777 28.2985C21.4706 28.4036 21.3635 28.5163 21.2492 28.614C21.135 28.7117 20.8494 28.9295 20.5852 28.7492C20.4781 28.6741 20.4067 28.7492 20.3567 28.8243C20.0021 28.6676 19.6564 28.4896 19.3214 28.291C19.14 28.1879 18.9282 28.161 18.7287 28.2158C18.6431 28.1783 18.5645 28.1182 18.7287 28.0881C19.6764 27.8485 20.6711 27.922 21.5777 28.2985Z" fill="#008D46"/>
<path d="M11.7389 10.9077C11.5104 10.1565 11.2819 9.40528 11.0249 8.65406C11.0177 8.58666 11.0177 8.51863 11.0249 8.45123C11.1034 8.37611 11.1677 8.28596 11.2819 8.27094L12.0531 10.5246C12.1102 10.7575 12.1602 10.9979 12.2101 11.2307C12.1387 11.3735 12.0673 11.5162 11.8888 11.3509L11.7389 10.9077Z" fill="#B1CF57"/>
<path d="M11.2895 8.26342C11.2324 8.36859 11.1967 8.50381 11.0324 8.44372C10.7326 7.85025 10.6112 7.18167 10.2613 6.61825C10.2113 6.29523 9.9757 6.05484 9.9043 5.73932C9.96142 5.63415 10.0542 5.65669 10.1399 5.67171C10.2927 5.87941 10.4154 6.10978 10.5041 6.35532L11.2895 8.26342Z" fill="#C7D77E"/>
<path d="M15.1445 18.6979C15.1463 18.732 15.1384 18.7659 15.1219 18.7953C15.1054 18.8248 15.0809 18.8484 15.0517 18.8632L14.3376 19.3815C14.1663 18.7805 14.0877 18.1495 13.8664 17.5635C13.7022 16.7522 13.5379 15.9409 13.3809 15.1221C13.845 14.8141 13.8307 14.8216 14.0092 15.3775C14.3162 16.3541 14.6304 17.3232 14.9588 18.2997C15.0062 18.4394 15.0685 18.573 15.1445 18.6979Z" fill="#007F41"/>
<path d="M11.8945 11.3134C12.0302 11.366 12.1159 11.2533 12.2158 11.1932C12.5418 12.108 12.8113 13.0439 13.0227 13.9952C13.0727 14.1981 13.1369 14.4009 13.1869 14.6037C13.037 14.7089 12.8585 14.8967 12.7656 14.5587C12.4657 13.4769 12.1801 12.3951 11.8945 11.3134Z" fill="#9BC541"/>
<path d="M10.1385 5.65669L9.90284 5.7243L9.68149 5.25855C8.97391 3.95765 8.1541 2.72798 7.23242 1.58508C7.76678 2.0232 8.23396 2.54514 8.61761 3.13259C9.01032 3.68098 9.33163 4.25942 9.72433 4.82284C9.78146 4.9205 9.9671 5.29611 10.1028 5.57406C10.1189 5.59936 10.1309 5.62728 10.1385 5.65669Z" fill="#DFE4A0"/>
<path d="M23.4203 12.3651C23.4631 12.2299 23.5059 12.0947 23.5559 11.967C23.5919 11.9518 23.6314 11.948 23.6694 11.956C23.7074 11.964 23.7424 11.9835 23.7701 12.012V12.32L23.1204 14.2131C23.0813 14.1931 23.0463 14.1651 23.0176 14.1308C22.9888 14.0965 22.9669 14.0565 22.9529 14.0132C22.939 13.9699 22.9333 13.9241 22.9363 13.8784C22.9393 13.8328 22.9509 13.7882 22.9704 13.7473C23.1704 13.2891 23.2775 12.8158 23.4203 12.3651Z" fill="#B5D15D"/>
<path d="M22.9547 15.5653C22.8547 15.4526 22.7262 15.5653 22.6191 15.5653L22.1336 16.5269C21.9408 17.203 21.0983 18.7805 21.084 18.8932C21.1862 18.9527 21.3037 18.9763 21.4196 18.9608L21.541 18.6753C22.0408 17.7676 22.489 16.8294 22.8833 15.8658C22.9333 15.7756 23.0475 15.6705 22.9547 15.5653Z" fill="#3C9F47"/>
<path d="M5.40466 23.9865L7.02547 24.5424C7.18255 24.595 7.29679 24.6701 7.25395 24.8729C6.5904 24.6866 5.94495 24.4351 5.32611 24.1217C5.31183 24.0391 5.31897 23.994 5.40466 23.9865Z" fill="#94C340"/>
<path d="M5.40479 23.9865C5.38291 24.0389 5.35663 24.0892 5.32625 24.1367L5.04064 24.0391C4.52655 23.686 3.93392 23.4756 3.44125 23.0925L3.16992 22.8672C3.38413 22.8221 3.51265 23.0024 3.66973 23.085C4.11945 23.3873 4.59808 23.6391 5.09776 23.8362C5.16202 23.9414 5.30483 23.9264 5.40479 23.9865Z" fill="#B8D16B"/>
<path d="M23.5629 24.64C23.1987 24.3621 23.6057 24.3095 23.6986 24.2719C24.167 24.0289 24.6138 23.7422 25.0338 23.4155L26.319 22.5366C26.5118 22.6042 27.3115 21.7253 27.5114 21.7854C26.3314 22.7578 25.0911 23.6463 23.7985 24.4447L23.5629 24.64Z" fill="#86BD41"/>
<path d="M26.8182 22.4315C26.6968 22.4991 26.5825 22.5742 26.4683 22.6493C26.3541 22.7244 26.3255 22.6493 26.3184 22.5667C26.7168 22.3212 27.0839 22.0233 27.4108 21.6802C27.8898 21.294 28.3173 20.8417 28.6817 20.3355C28.7246 20.2679 29.3386 19.5317 29.3958 19.5843C28.7797 20.4417 28.1017 21.2479 27.368 21.9957L26.8182 22.4315Z" fill="#C6D680"/>
<path d="M23.7689 12.0195L23.5547 11.9745C23.7819 11.1234 23.9419 10.254 24.0331 9.37524C24.0311 9.32648 24.0391 9.27783 24.0563 9.23251C24.0735 9.18719 24.0997 9.14623 24.133 9.11232C24.1389 9.64689 24.1127 10.1813 24.0545 10.7124C23.9881 11.1545 23.8927 11.5913 23.7689 12.0195Z" fill="#CDDA83"/>
<path d="M6.61133 33.6021L8.28926 33.0537C8.41779 33.0086 8.53203 32.941 8.66055 32.8809C9.36757 32.6635 10.0536 32.3768 10.7098 32.0245C10.8526 31.9644 10.8454 31.9644 10.8383 32.1297C10.0833 32.5627 9.298 32.9344 8.48919 33.2415C7.87497 33.4216 7.24641 33.5423 6.61133 33.6021Z" fill="#AECD56"/>
<path d="M56.3069 12.8684C57.3326 12.6045 58.4138 12.7267 59.3628 13.214C59.8527 13.4363 60.2897 13.7698 60.6427 14.1906C60.9957 14.6113 61.256 15.109 61.4049 15.6479C61.2978 16.1437 61.1122 16.8198 60.8694 17.6912C60.5695 18.7805 60.2625 20.005 59.9769 21.3046C59.6977 22.4667 59.5491 23.6593 59.5342 24.8579C59.491 25.2672 59.5454 25.6814 59.6925 26.0631C59.8396 26.4448 60.0748 26.7819 60.3767 27.0439C60.4137 27.0564 60.4477 27.0769 60.4767 27.104C60.4866 27.1182 60.4919 27.1353 60.4919 27.1529C60.4919 27.1704 60.4866 27.1875 60.4767 27.2017C60.4767 27.2468 60.4124 27.2918 60.3196 27.3444C58.5489 28.2309 57.1208 28.5013 56.2212 28.1558C55.7607 27.9787 55.3526 27.6773 55.038 27.2817C54.7234 26.886 54.5133 26.4102 54.429 25.9021C54.1641 24.5963 54.1086 23.2532 54.2648 21.9281C53.4456 23.8972 52.1865 25.629 50.5947 26.9763C49.5332 27.9291 48.169 28.4254 46.7748 28.3661C46.3901 28.3119 46.0227 28.1642 45.7017 27.9347C45.3807 27.7053 45.115 27.4003 44.9255 27.0439C44.4589 26.162 44.1994 25.1756 44.1686 24.1668C44.1061 22.9207 44.2241 21.672 44.5185 20.4633C44.898 18.843 45.5668 17.3134 46.4892 15.9559C47.4324 14.5716 48.7056 13.473 50.1806 12.7708C50.9846 12.3743 51.8732 12.2059 52.7582 12.2825C53.1223 12.3051 53.477 12.4126 53.7968 12.5971C54.1167 12.7815 54.3935 13.0384 54.6075 13.3492C54.8296 13.758 54.9672 14.2115 55.0115 14.6801C55.0558 15.1486 55.0057 15.6218 54.8645 16.0686C54.3 15.8446 53.6935 15.7626 53.0935 15.8291C52.4934 15.8956 51.9165 16.1089 51.4087 16.4517C50.5115 17.1452 49.8285 18.1015 49.4452 19.2012C49.0758 20.1529 48.9147 21.1799 48.9739 22.2061C49.0667 23.1 49.4023 23.5357 49.9735 23.5207C50.5448 23.5057 51.4016 22.6944 52.4226 21.0868C53.9644 18.4844 55.2651 15.7323 56.3069 12.8684Z" fill="white"/>
<path d="M67.1811 13.0337C67.6808 13.2584 68.1266 13.5976 68.486 14.0264C68.8454 14.4552 69.1095 14.963 69.2589 15.5127C69.1518 16.0686 69.0233 16.6546 68.8876 17.2856C70.1201 15.5028 71.6315 13.9533 73.3573 12.7031C74.3658 12.4454 75.4288 12.5815 76.3491 13.0863C76.8352 13.322 77.2658 13.6678 77.6102 14.0989C77.9546 14.5301 78.2042 15.0359 78.3412 15.5803C78.1198 16.7071 77.8485 17.9316 77.5129 19.2688C77.2416 20.3431 76.9917 21.4023 76.7989 22.4314C76.5556 23.4124 76.4356 24.4226 76.4419 25.4363C76.4212 25.7912 76.4878 26.1456 76.6354 26.4654C76.783 26.7852 77.0066 27.0595 77.2844 27.2618C77.3074 27.2878 77.3372 27.3061 77.3701 27.3144C77.4139 27.3505 77.4546 27.3907 77.4915 27.4346V27.5548C77.4215 27.6231 77.3449 27.6835 77.263 27.7351C76.5937 28.164 75.8379 28.4213 75.0567 28.4863C74.2623 28.5689 73.4633 28.3877 72.7718 27.9679C72.4007 27.7205 72.0856 27.3905 71.8487 27.0012C71.6118 26.6118 71.459 26.1725 71.4009 25.7143C71.193 24.5432 71.1377 23.3478 71.2367 22.161C71.3718 20.4192 71.6586 18.6942 72.0935 17.0076C70.9507 18.4188 69.8806 19.8933 68.8876 21.4248C68.0681 22.6164 67.403 23.9174 66.9098 25.2936C66.7762 26.0147 66.808 26.759 67.0026 27.4646C67.0002 27.4871 67.0002 27.5098 67.0026 27.5322V27.5923C66.9871 27.6137 66.9676 27.6315 66.9455 27.6449C66.5531 27.9755 66.0898 28.1998 65.596 28.2985C65.1551 28.3971 64.7036 28.4324 64.2536 28.4037C62.6186 28.321 61.726 26.9688 61.5761 24.3245C61.4261 21.6802 62.2401 17.7964 64.0109 12.643C65.0777 12.3647 66.2043 12.5035 67.1811 13.0337Z" fill="white"/>
<path d="M84.3031 13.0337C84.8058 13.2547 85.2545 13.5926 85.6155 14.0219C85.9766 14.4512 86.2407 14.9608 86.388 15.5127C86.2809 16.0686 86.1595 16.6546 86.0167 17.2856C87.2538 15.5044 88.7673 13.9552 90.4936 12.7031H90.5293C91.5377 12.4454 92.6008 12.5815 93.521 13.0863C94.0047 13.3246 94.433 13.6713 94.7759 14.1021C95.1188 14.533 95.368 15.0375 95.506 15.5803C95.2918 16.7071 95.0133 17.9316 94.6777 19.2688C94.4064 20.3431 94.1636 21.4023 93.9637 22.4314C93.7204 23.4124 93.6004 24.4226 93.6067 25.4363C93.5824 25.7917 93.6475 26.1474 93.7954 26.4679C93.9433 26.7883 94.1688 27.0622 94.4492 27.2618C94.4708 27.2861 94.4978 27.3042 94.5278 27.3144C94.5748 27.3464 94.6159 27.3871 94.6492 27.4346V27.5548C94.5843 27.6293 94.5069 27.6905 94.4207 27.7351C93.7514 28.164 92.9956 28.4213 92.2144 28.4863C91.4202 28.5654 90.6222 28.3844 89.9295 27.9679C89.5484 27.7262 89.2227 27.3988 88.9759 27.0092C88.729 26.6196 88.567 26.1774 88.5015 25.7143C88.2935 24.5432 88.2383 23.3478 88.3373 22.161C88.4991 20.421 88.8049 18.6992 89.2512 17.0151C88.1061 18.4262 87.0336 19.9007 86.0382 21.4323C85.2187 22.6239 84.5536 23.9249 84.0603 25.3011C83.9248 26.0225 83.9591 26.7679 84.1603 27.4721V27.5397C84.1675 27.5591 84.1675 27.5805 84.1603 27.5998L84.1032 27.6524C83.7143 27.9842 83.2529 28.2089 82.7608 28.306C82.3175 28.4047 81.8636 28.4401 81.4113 28.4112C79.7834 28.3285 78.8909 26.9763 78.7338 24.332C78.5767 21.6877 79.3978 17.8039 81.1686 12.6506C82.2233 12.3793 83.3356 12.5152 84.3031 13.0337Z" fill="white"/>
<path d="M107.895 12.8684C108.921 12.6083 110.001 12.7304 110.951 13.214C111.444 13.4322 111.884 13.7643 112.239 14.1856C112.593 14.6069 112.854 15.1066 113 15.6479C112.893 16.1437 112.714 16.8198 112.464 17.6912C112.15 18.7955 111.85 20.005 111.551 21.3046C111.271 22.4667 111.123 23.6593 111.108 24.8579C111.062 25.2722 111.116 25.692 111.266 26.0781C111.416 26.4643 111.656 26.8043 111.965 27.0665C112.002 27.079 112.036 27.0994 112.065 27.1266C112.074 27.1407 112.08 27.1578 112.08 27.1754C112.08 27.193 112.074 27.2101 112.065 27.2242C112.065 27.2693 112 27.3144 111.908 27.367C110.101 28.2534 108.73 28.5238 107.809 28.1783C107.349 28.0013 106.94 27.6998 106.626 27.3042C106.311 26.9086 106.101 26.4328 106.017 25.9246C105.739 24.6083 105.674 23.2522 105.824 21.9131C105.002 23.8825 103.741 25.6142 102.147 26.9613C101.089 27.9149 99.7263 28.4115 98.3341 28.3511C97.9553 28.2958 97.5938 28.149 97.278 27.9223C96.9621 27.6955 96.7004 27.3949 96.5134 27.0439C96.0467 26.162 95.7873 25.1756 95.7565 24.1668C95.694 22.9207 95.8119 21.672 96.1064 20.4632C96.4814 18.8414 97.1505 17.3109 98.077 15.9559C99.0203 14.5716 100.294 13.473 101.769 12.7708C102.573 12.3743 103.461 12.2059 104.346 12.2825C104.71 12.3082 105.063 12.417 105.383 12.6012C105.702 12.7854 105.979 13.0407 106.195 13.3492C106.417 13.758 106.555 14.2115 106.599 14.6801C106.644 15.1486 106.594 15.6218 106.452 16.0686C105.884 15.8488 105.275 15.7724 104.673 15.8455C104.072 15.9185 103.495 16.1391 102.989 16.4893C102.092 17.1828 101.409 18.1391 101.026 19.2388C100.654 20.1896 100.493 21.2173 100.555 22.2436C100.648 23.1376 100.983 23.5733 101.554 23.5583C102.126 23.5433 102.982 22.7319 104.003 21.1243C105.55 18.5103 106.853 15.7456 107.895 12.8684Z" fill="white"/>
<path d="M45.8323 8.85689C45.7626 7.54251 45.2747 6.291 44.4471 5.30362C43.4299 4.22904 42.0542 3.61453 40.6129 3.59083C38.7158 3.45573 36.823 3.91307 35.1721 4.90547C33.5302 5.91472 32.0938 7.25496 30.9451 8.84938C29.7889 10.4395 28.8448 12.1885 28.139 14.0478C27.8463 14.8967 27.5607 15.7306 27.3393 16.5269C27.732 16.2038 28.1248 15.9109 28.5032 15.6329C28.582 15.5746 28.6775 15.5466 28.7737 15.5534C28.8698 15.5602 28.9608 15.6016 29.0316 15.6705C29.1009 15.74 29.1452 15.8326 29.1569 15.9326C29.1686 16.0326 29.147 16.1337 29.0958 16.2189C28.4407 17.3689 27.6462 18.4244 26.7324 19.359V19.5317L26.8895 19.4266L27.1323 19.2688L27.2679 19.1712C27.3134 19.1385 27.3646 19.1157 27.4185 19.1041C27.4725 19.0924 27.5281 19.0923 27.5821 19.1035C27.6671 19.1243 27.7442 19.1714 27.8034 19.2388C27.8934 19.1427 27.9888 19.0524 28.0891 18.9683C28.8064 18.4116 29.4313 17.7339 29.9383 16.9626C29.9701 16.9136 30.0113 16.8722 30.0593 16.8411C30.1073 16.81 30.1609 16.79 30.2168 16.7823C30.287 16.7554 30.3617 16.7439 30.4363 16.7484C30.5109 16.7529 30.5838 16.7733 30.6506 16.8085C30.7174 16.8436 30.7767 16.8928 30.8249 16.9528C30.8731 17.0129 30.9091 17.0827 30.9308 17.1579C30.9453 17.2373 30.9453 17.3189 30.9308 17.3983C30.9373 18.3592 30.8098 19.3159 30.5524 20.2379C30.4383 20.6282 30.2876 21.0057 30.1026 21.3647L30.1668 21.4323C30.2153 21.4976 30.2451 21.5761 30.2527 21.6586C30.2603 21.7411 30.2454 21.8242 30.2097 21.8981C29.7977 22.6711 29.2724 23.3708 28.6531 23.9714C28.6741 24.0094 28.6908 24.0497 28.7031 24.0916C28.7204 24.1711 28.7162 24.254 28.6909 24.331C28.6657 24.408 28.6204 24.476 28.5603 24.5274C28.0502 24.9498 27.5108 25.3315 26.9466 25.6692C27.0726 26.1448 27.2448 26.6055 27.4607 27.0439C27.6416 27.0809 27.8204 27.1285 27.9962 27.1867C28.0698 27.2138 28.1348 27.2618 28.184 27.3255C28.2331 27.3892 28.2645 27.4659 28.2747 27.5473C28.2849 27.6276 28.2728 27.7094 28.2398 27.7827C28.2069 27.856 28.1545 27.9177 28.0891 27.9604C28.257 28.1599 28.4436 28.3411 28.646 28.5013C29.8675 29.4902 31.3933 29.9691 32.9301 29.846C34.6433 29.747 36.3173 29.2683 37.8425 28.4412C39.3536 27.6617 40.6917 26.5559 41.7696 25.1959C42.124 24.8072 42.3709 24.3241 42.4836 23.7987C42.4836 23.4832 42.2765 23.4381 41.8338 23.6634C39.599 25.1659 37.8139 25.9171 36.4644 25.9171C35.9092 25.9865 35.3473 25.8718 34.8571 25.589C34.3668 25.3062 33.9727 24.8694 33.7298 24.3395C33.221 22.9434 33.1386 21.4151 33.4941 19.9674C33.9395 17.8308 34.683 15.7752 35.7004 13.8675C36.3127 12.6652 37.117 11.5827 38.0781 10.6673C38.9921 9.81094 39.7132 9.42031 40.2202 9.48792C40.4885 9.54805 40.7291 9.70314 40.9019 9.92734C41.0747 10.1515 41.1693 10.4313 41.1698 10.7199C41.1836 11.4596 41.0058 12.1893 40.6557 12.8308C40.279 13.6002 39.7537 14.2783 39.1134 14.8216C38.5095 15.3482 37.7555 15.647 36.9714 15.6705H36.9C36.8746 15.6825 36.8543 15.7039 36.8429 15.7306C36.8287 15.7718 36.8287 15.817 36.8429 15.8583C37.3927 17.2555 38.071 18.1119 38.885 18.45C39.2919 18.6099 39.7272 18.6739 40.1602 18.6375C40.5933 18.6012 41.0134 18.4654 41.3911 18.2396C42.3132 17.7152 43.1188 16.9905 43.7545 16.1137C44.4705 15.1761 45.024 14.1131 45.3896 12.9736C45.7963 11.6461 45.9468 10.2464 45.8323 8.85689Z" fill="white"/>
<path d="M15.4511 33.0086C15.3726 33.0086 15.2512 33.0086 15.344 32.8734C15.6011 32.4077 16.1152 32.0095 16.1723 31.5663C16.2665 31.0843 16.4563 30.6287 16.7292 30.2291C17.0613 29.6456 17.4977 29.1353 18.0144 28.7267C18.1216 28.6365 18.1216 28.644 18.1715 28.7868C17.9725 29.1818 17.8351 29.6079 17.7645 30.0488C17.6646 30.5897 17.5361 31.1156 17.3861 31.6414C17.3754 31.6871 17.3559 31.7299 17.3289 31.7674C17.3019 31.8048 17.2679 31.8361 17.229 31.8593C17.0362 31.9419 16.9934 32.1297 16.9434 32.31C16.8925 32.5022 16.8231 32.6885 16.7364 32.8659C16.6721 32.9861 16.5936 33.1063 16.4436 33.0838C16.1112 33.0964 15.7784 33.0713 15.4511 33.0086Z" fill="#2A9A47"/>
<path d="M18.8437 29.1624C19.4292 29.9136 20.186 30.9578 20.7715 31.709C20.9715 31.972 21.1571 32.2424 21.3499 32.5128C21.4108 32.5805 21.4592 32.6594 21.4927 32.7457C21.5427 32.9711 21.1214 33.3767 20.7215 33.4969C20.3217 33.6171 20.2003 33.4969 20.0861 33.1664C19.8719 32.4603 19.622 31.7691 19.4078 31.0705C19.2507 30.5446 18.9793 29.7033 18.8223 29.1774L18.8437 29.1624Z" fill="#006C39"/>
<path d="M16.2082 35.9008C15.794 35.9835 15.4942 36.4267 15.0872 36.5619C14.5278 36.8354 13.9296 37.0105 13.3164 37.0803C13.9073 36.4998 14.3914 35.8096 14.7444 35.0444C14.7873 34.9618 14.8301 34.7289 14.7016 34.6238C14.8801 34.3683 15.2442 34.5562 15.487 34.5336C15.6284 34.5302 15.7656 34.4827 15.8813 34.3971C15.997 34.3115 16.0859 34.1917 16.1368 34.0528C16.2581 33.7824 16.3581 33.5044 16.5009 33.249C16.5795 33.1063 16.6651 32.9485 16.8508 33.1288C16.7448 33.7329 16.4996 34.3003 16.1368 34.7815C16.0511 34.8792 15.9368 34.9468 15.894 35.052C15.9725 34.9693 16.0582 34.8116 16.2153 34.9843C16.2826 35.127 16.317 35.2843 16.3158 35.4435C16.3145 35.6027 16.2777 35.7594 16.2082 35.9008Z" fill="#8CC140"/>
<path d="M17.2229 31.8067C17.451 31.1883 17.6161 30.5461 17.7155 29.8911C17.7519 29.4855 17.921 29.1058 18.1939 28.8168C18.2317 29.5292 18.3345 30.2361 18.501 30.9278C18.6618 31.5481 18.6293 32.2064 18.4081 32.8058C18.2939 32.7457 18.3082 32.618 18.2511 32.5429C18.0709 32.267 17.8599 32.0148 17.6227 31.7917C17.4593 32.1351 17.3163 32.4889 17.1943 32.8509C17.1229 33.0011 17.0944 33.249 16.8302 33.1589C16.8261 32.6764 16.9632 32.2044 17.2229 31.8067Z" fill="#006C39"/>
<path d="M16.8146 33.1063C17.0145 33.1063 17.0145 32.9636 17.0574 32.8584C17.193 32.4978 17.3215 32.1072 17.4358 31.7691C17.5 31.5588 17.55 31.5287 17.7071 31.709C17.952 31.9174 18.1332 32.1969 18.2283 32.5128C18.0284 32.4678 18.2283 33.0687 17.5143 34.6463C17.3787 34.9618 17.4429 34.9843 17.293 34.7064C17.1908 34.3399 17.0594 33.983 16.9003 33.6397C16.7293 33.975 16.5386 34.2986 16.3291 34.6087C16.2434 34.7064 16.1791 34.9167 15.9863 34.7364C16.2855 34.2329 16.5366 33.6994 16.736 33.1439C16.7356 33.1364 16.737 33.129 16.74 33.1223C16.7429 33.1155 16.7475 33.1097 16.7531 33.1052C16.7588 33.1007 16.7654 33.0978 16.7724 33.0967C16.7794 33.0956 16.7865 33.0963 16.7932 33.0988L16.8146 33.1063Z" fill="#0F9647"/>
<path d="M16.8152 33.1288H16.7438C16.601 33.0387 16.5725 33.1288 16.5296 33.249C16.3868 33.5645 16.2298 33.8725 16.0941 34.1881C16.0503 34.3151 15.9694 34.4243 15.8629 34.4999C15.7564 34.5755 15.6298 34.6136 15.5015 34.6087C15.2306 34.6289 14.9625 34.6792 14.7018 34.759C14.4876 34.8266 14.4947 34.8642 14.5947 34.6388C14.764 34.1651 14.9895 33.7158 15.2658 33.3016C15.3301 33.1964 15.4515 33.1213 15.4515 32.9711C15.727 32.9109 16.0113 32.9109 16.2869 32.9711C16.5225 33.0161 16.6296 32.9711 16.6939 32.7232C16.7581 32.4753 16.8652 32.2499 16.9366 31.972C17.008 31.694 17.0509 31.7391 17.2008 31.7391L16.8152 33.1288Z" fill="#6CB545"/>
<path d="M24.4914 29.1474C24.5842 29.4479 24.8484 29.4178 25.0626 29.4704C25.5539 29.5754 26.0587 29.5906 26.5549 29.5155C25.9794 30.1554 25.2322 30.5956 24.4128 30.7775C24.1344 30.7775 23.9987 30.5747 23.8702 30.3719C23.7417 30.169 23.8702 30.1315 23.9773 30.0563L24.0844 30.0038H24.013C24.013 30.0038 23.8131 30.0038 23.8202 29.8235C23.9702 29.5155 24.2772 29.3727 24.4914 29.1474Z" fill="#8AC040"/>
<path d="M21.2919 30.5747C21.1057 30.5521 20.9263 30.4873 20.7661 30.3849C20.6058 30.2824 20.4686 30.1447 20.3637 29.9812C20.0381 29.6224 19.7329 29.2436 19.4498 28.8469C19.3141 28.6516 19.1285 28.5163 18.9785 28.336C19.0988 28.2697 19.2346 28.2408 19.3699 28.2528C19.5052 28.2648 19.6345 28.3171 19.7425 28.4036C19.9996 28.5464 20.2566 28.6891 20.5208 28.8168L21.3205 29.1849C21.5775 29.3577 21.9417 29.3352 22.113 29.6582C21.9203 29.9136 21.7132 29.7183 21.5204 29.6582C21.1206 29.5455 21.1063 29.5455 21.1848 29.9512C21.199 30.1625 21.235 30.3715 21.2919 30.5747Z" fill="#006C39"/>
<path d="M21.2919 30.5747C21.2446 30.4986 21.204 30.4181 21.1705 30.3343C20.9849 29.7559 20.9063 29.7108 21.0848 29.5004C21.2633 29.2901 21.5418 29.5681 21.7988 29.6657C21.8503 29.6953 21.908 29.7108 21.9666 29.7108C22.0253 29.7108 22.083 29.6953 22.1344 29.6657C22.3772 29.5004 22.5771 29.7408 22.7985 29.7559C23.0841 29.9286 23.4554 29.831 23.7124 30.0864C23.6696 30.3042 23.5053 30.2517 23.3768 30.2366C23.1348 30.2065 22.8959 30.1537 22.6628 30.0789C22.6628 30.4244 23.0484 30.6123 23.027 30.9653C23.1555 31.1156 23.0912 31.1381 22.9413 31.1005C22.3571 30.9506 21.8017 30.6965 21.299 30.3493C21.2062 30.4169 21.3633 30.4996 21.2919 30.5747Z" fill="#269947"/>
<path d="M15.9942 34.759C16.3655 34.6613 16.4298 34.2857 16.6083 34.0078C16.7868 33.7298 16.8153 33.5796 16.901 33.3617C17.1526 33.7666 17.2912 34.2377 17.3009 34.7214C16.9869 35.1805 16.6305 35.6058 16.237 35.991C16.1227 36.0886 16.087 36.0811 16.1156 35.9234C16.1442 35.7656 16.2013 35.1722 16.0585 35.067C15.9157 34.9618 15.8157 35.36 15.5801 35.2773C15.6962 35.0864 15.8354 34.9121 15.9942 34.759Z" fill="#58AA46"/>
<path d="M22.7423 29.8009C22.5138 29.8009 22.3425 29.6131 22.114 29.6507L21.2786 29.2976C21.2143 29.0722 21.3714 29.0948 21.4857 29.1098C21.6637 29.1385 21.8369 29.1941 21.9998 29.2751C22.0942 29.3538 22.2141 29.3908 22.3341 29.3782C22.454 29.3655 22.5646 29.3043 22.6424 29.2075C22.6728 29.1694 22.6969 29.1262 22.7138 29.0798C22.789 28.937 22.8882 28.8097 23.0065 28.7041C23.0621 28.7695 23.1304 28.8215 23.2068 28.8565C23.2832 28.8915 23.3659 28.9087 23.4492 28.907C23.8209 28.9353 24.1854 29.0293 24.5274 29.1849C24.456 29.5756 24.0276 29.6281 23.8776 29.9361C23.6991 30.0939 23.5206 29.9361 23.3421 29.9361C23.1636 29.9361 22.9423 29.7559 22.7423 29.8009Z" fill="#6FB545"/>
<path d="M22.9691 28.6666C22.9334 29.0121 22.6407 29.1849 22.4765 29.4178C22.4265 29.5004 22.3408 29.4178 22.2694 29.4178L21.5554 29.1699C21.4483 29.1699 21.3055 29.0197 21.2484 29.245L20.4844 28.8995C20.4844 28.7718 20.5344 28.7041 20.6343 28.7342C20.7835 28.7736 20.9403 28.7669 21.0859 28.7149C21.2315 28.663 21.3598 28.5679 21.4554 28.4412C21.4806 28.4211 21.5095 28.4067 21.5402 28.399C21.5709 28.3912 21.6028 28.3903 21.6339 28.3961C21.6628 28.4375 21.7003 28.4713 21.7437 28.4948C21.7871 28.5183 21.8351 28.5308 21.8838 28.5314C22.2498 28.524 22.615 28.5695 22.9691 28.6666Z" fill="#269947"/>
<path d="M21.6624 28.4112C21.5671 28.519 21.4644 28.6194 21.3554 28.7116C21.1697 28.8619 20.9769 29.0121 20.727 28.8394C20.6271 28.7717 20.5628 28.8394 20.5128 28.9145C20.163 28.7868 19.8702 28.5539 19.5346 28.4036C19.3619 28.3143 19.1652 28.2904 18.9777 28.336C18.892 28.336 18.8206 28.2459 18.9777 28.2158C19.8705 27.9902 20.8076 28.0584 21.6624 28.4112Z" fill="#008D46"/>
<path d="M23.0271 30.9503C22.8843 30.7324 22.7344 30.5071 22.5987 30.2817C22.5505 30.2041 22.5326 30.1099 22.5487 30.0188C22.5987 29.9136 22.713 30.0188 22.7915 30.0188C23.0128 30.0188 23.227 30.1089 23.4412 30.154C23.5269 30.154 23.6269 30.2141 23.6555 30.0714C23.684 29.9286 23.9196 30.0714 24.041 30.0714C23.9125 30.1991 23.8625 30.3268 24.041 30.462L24.4194 30.77C24.6408 30.9277 24.4194 30.9278 24.348 30.9503C23.9091 31.0028 23.466 31.0028 23.0271 30.9503Z" fill="#58AA46"/>
<path d="M24.0417 30.0488H23.6561C23.339 30.0242 23.0291 29.9376 22.7422 29.7934C22.7422 29.5831 22.8993 29.6958 22.9992 29.7258C23.2749 29.8177 23.5603 29.8732 23.8489 29.8911C24.0274 29.9962 24.2488 29.8911 24.4772 30.0488H24.0417Z" fill="#B5D161"/>
</g>
<defs>
<clipPath id="clip0_5417_17931">
<rect width="113" height="60" fill="white"/>
</clipPath>
</defs>
</svg>
