<svg width="151" height="68" viewBox="0 0 151 68" fill="none" xmlns="http://www.w3.org/2000/svg">
<g clip-path="url(#clip0_5435_62118)">
<path d="M52.6882 45.1458C52.368 44.4078 51.7361 43.808 50.9253 43.4727C49.9224 43.1154 48.81 43.077 47.7786 43.3639C46.5919 43.6768 45.5281 44.2767 44.7077 45.0956V44.9283C44.7077 44.853 44.6413 44.5435 44.5939 44.2758C44.5465 44.0081 44.4991 43.7738 44.4518 43.5647C44.4044 43.3555 44.338 43.2468 44.2812 43.2384C43.0211 43.19 41.7812 43.5301 40.7743 44.2005C39.5959 44.968 38.5952 45.9279 37.8266 47.0282C36.9882 48.2177 36.3497 49.5084 35.931 50.8597C35.3074 52.6105 35.1041 54.4568 35.3338 56.2808C35.4568 57.4853 36.038 58.6176 36.983 59.4933C37.8656 60.2206 39.0177 60.6399 40.2245 60.6729C42.2725 60.7414 44.2936 60.2442 46.0062 59.2507C47.7978 58.2301 49.3254 56.8874 50.4893 55.3104C51.6946 53.6937 52.5256 51.8826 52.9346 49.9813C53.0974 49.2031 53.1799 48.4135 53.1811 47.6221C53.1988 46.7764 53.0314 45.9356 52.6882 45.1458V45.1458ZM47.9492 50.4582C47.7671 51.4236 47.4487 52.3652 47.0014 53.2607C46.5878 54.1409 46.0324 54.9637 45.3522 55.7036C45.1355 55.9843 44.8552 56.2222 44.5288 56.4022C44.2025 56.5822 43.8374 56.7004 43.4566 56.7493C42.8026 56.7493 42.4045 56.331 42.3002 55.6199C42.1971 54.78 42.2613 53.9306 42.4898 53.1101C42.7249 52.1752 43.0418 51.2578 43.4376 50.3661C43.6499 49.7672 43.9699 49.2023 44.3854 48.693C44.4115 49.1109 44.5206 49.5215 44.7077 49.906C44.8646 50.2844 45.1449 50.6133 45.5133 50.8514H45.627V50.7593C45.5438 49.8468 45.768 48.9328 46.2715 48.1325C46.6981 47.5803 47.0677 47.3628 47.3805 47.4548C47.5871 47.5669 47.757 47.7247 47.8733 47.9125C47.9897 48.1003 48.0485 48.3116 48.0439 48.5256C48.091 49.1725 48.0432 49.8221 47.9018 50.4582H47.9492Z" fill="white"/>
<path d="M61.001 43.824C61.6538 44.0681 62.2362 44.4383 62.7053 44.9075C63.1745 45.3766 63.5184 45.9326 63.7118 46.5346C63.418 47.7811 63.0199 49.1615 62.527 50.7175C62.091 52.0728 61.6929 53.3946 61.3423 54.6829C60.9916 55.9713 61.1432 56.4649 61.7119 56.08C62.664 55.2935 63.4814 54.3889 64.1383 53.3946C65.1809 51.9835 66.2645 50.3745 67.3893 48.5675C68.514 46.7605 69.4808 45.0873 70.2896 43.548C71.6543 43.2541 73.0925 43.3903 74.3557 43.9328C75.0119 44.1748 75.5981 44.5442 76.0706 45.0134C76.5431 45.4826 76.89 46.0397 77.0853 46.6433C76.782 47.8592 76.3998 49.1977 75.9385 50.659C75.3824 52.4771 74.9212 54.1921 74.5547 55.804C74.1845 56.978 74.1845 58.2189 74.5547 59.3929C74.618 59.5006 74.6719 59.6125 74.7158 59.7275C74.73 59.7522 74.7374 59.7794 74.7374 59.807C74.7374 59.8346 74.73 59.8619 74.7158 59.8865L74.4978 60.0036H74.4125C72.5169 60.7816 70.9909 60.9239 69.9957 60.447C69.4669 60.1666 69.0161 59.785 68.6765 59.3304C68.3369 58.8758 68.1173 58.3597 68.0338 57.8201C67.7229 56.3612 67.6622 54.8694 67.8537 53.3946C66.9679 54.6526 65.9795 55.8521 64.8965 56.9835C63.9239 58.0183 62.795 58.9304 61.5413 59.6941C60.5044 60.3409 59.2662 60.6886 57.9965 60.6896C57.3016 60.6568 56.6322 60.4475 56.0689 60.0869C55.5056 59.7262 55.0724 59.2296 54.8213 58.6567C54.12 57.36 53.8735 55.4526 54.1863 52.9261C54.6499 49.6792 55.5569 46.4938 56.8876 43.4392C58.2677 43.141 59.7224 43.2771 61.001 43.824V43.824Z" fill="white"/>
<path d="M84.8 53.152C84.7836 53.2458 84.7583 53.3381 84.7242 53.4281C84.563 53.8966 84.3735 54.5324 84.1555 55.3439C83.9379 56.1306 83.7859 56.9302 83.7005 57.7365C83.5763 58.333 83.6727 58.9489 83.9754 59.4934C84.0273 59.5503 84.0844 59.6035 84.146 59.6523L84.2408 59.7527C84.2547 59.7698 84.2621 59.7902 84.2621 59.8113C84.2621 59.8323 84.2547 59.8527 84.2408 59.8698C84.1752 59.9348 84.1021 59.9937 84.0228 60.0455C83.3239 60.4631 82.5205 60.7244 81.6817 60.8068C80.8482 60.9051 80.0005 60.7829 79.2458 60.4554C78.8439 60.2701 78.4883 60.0154 78.2001 59.7064C77.9119 59.3975 77.6971 59.0405 77.5682 58.6568C77.0008 56.7892 76.8749 54.8385 77.1986 52.9261C77.6716 49.6747 78.5914 46.4861 79.9377 43.4309C81.2606 43.1397 82.6568 43.2609 83.8901 43.7739C84.5262 43.9973 85.1021 44.3362 85.5805 44.7685C86.0589 45.2009 86.4291 45.717 86.6672 46.2836C87.6031 45.2205 88.6892 44.2674 89.8992 43.4476V43.4476C91.2611 43.1579 92.6947 43.2939 93.9558 43.8324C94.6127 44.0774 95.1994 44.4486 95.6732 44.9189C96.1471 45.3892 96.4961 45.9469 96.695 46.5514C95.9656 47.887 95.4062 49.2899 95.0268 50.7343C94.7822 51.5302 94.8731 52.3774 95.2827 53.1186C94.8543 53.3825 94.3597 53.5509 93.8413 53.6091C93.323 53.6674 92.7964 53.6139 92.3066 53.4532C91.2638 53.058 90.4162 52.3455 89.9181 51.4454C89.2476 50.2602 88.9219 48.9463 88.9703 47.6222C87.4707 49.3992 86.0786 51.2451 84.8 53.152V53.152Z" fill="white"/>
<path d="M105.936 48.6177C105.27 49.6883 104.781 50.8378 104.486 52.031C104.154 53.1732 104.132 54.3682 104.419 55.5196C104.518 55.9928 104.786 56.4257 105.183 56.7552C105.58 57.0848 106.087 57.2938 106.628 57.3517C107.822 57.5358 109.623 57.0003 112.049 55.7454C112.637 55.5698 112.931 55.7454 112.94 56.1637C112.851 56.801 112.517 57.3919 111.992 57.8369C111.108 58.6654 110.022 59.3061 108.817 59.7109C107.001 60.3133 105.069 60.5974 103.13 60.5475C102.141 60.5661 101.161 60.3834 100.265 60.0134C99.3693 59.6435 98.5821 59.0962 97.9647 58.4142C96.7956 57.0343 96.1578 55.3603 96.1449 53.6373C96.1273 51.7069 96.6828 49.8061 97.7562 48.1241C98.9401 46.278 100.732 44.793 102.893 43.8659C104.741 43.0619 106.801 42.7122 108.855 42.8536C110.902 43.0265 112.346 43.4978 113.187 44.2675C113.577 44.5991 113.882 45.0007 114.081 45.4452C114.281 45.8897 114.37 46.3667 114.343 46.8442C114.281 47.7961 113.887 48.7079 113.215 49.4543C112.601 50.1875 111.704 50.6966 110.694 50.8849C110.139 50.9596 109.572 50.9167 109.039 50.7595C108.507 50.6024 108.025 50.3357 107.632 49.9814C107.566 49.9144 107.538 49.8559 107.557 49.814C107.587 49.7625 107.629 49.7169 107.68 49.6802C108.013 49.4219 108.256 49.0853 108.381 48.7098C108.527 48.3567 108.567 47.976 108.495 47.6055C108.48 47.4694 108.408 47.3433 108.291 47.2531C108.175 47.1629 108.024 47.1154 107.869 47.1202C107.215 47.1453 106.571 47.6724 105.936 48.6177Z" fill="white"/>
<path d="M132.163 48.3165C132.253 47.6594 132.187 46.9929 131.97 46.3594C131.753 45.7258 131.39 45.1388 130.902 44.6356C130.336 44.0983 129.651 43.6691 128.89 43.3741C128.129 43.0792 127.307 42.9248 126.476 42.9205C124.097 42.779 121.734 43.3477 119.766 44.5352C118.002 45.6376 116.618 47.1489 115.766 48.9021C114.918 50.5781 114.529 52.4063 114.629 54.2396C114.686 55.8901 115.351 57.4791 116.524 58.7655C117.162 59.3917 117.945 59.8893 118.82 60.2242C119.695 60.5591 120.641 60.7236 121.595 60.7064C123.589 60.7477 125.575 60.4641 127.452 59.8698C128.687 59.4721 129.805 58.8345 130.722 58.0042C131.262 57.5625 131.616 56.9728 131.727 56.331C131.727 55.8876 131.414 55.7454 130.779 55.9211C129.649 57.0032 128.084 57.6519 126.419 57.7281C125.705 57.7252 125.011 57.5206 124.438 57.1443C123.865 56.768 123.443 56.2397 123.235 55.6367C125.681 55.1006 127.927 54.0139 129.756 52.4827C131.075 51.3782 131.924 49.9076 132.163 48.3165V48.3165ZM127.159 48.9272C126.702 49.8795 126.06 50.7542 125.263 51.5123C124.535 52.2991 123.667 52.9771 122.694 53.5201C122.608 52.4929 122.753 51.4607 123.121 50.4833C123.435 49.5298 123.964 48.642 124.675 47.8731C124.887 47.58 125.203 47.3569 125.573 47.2389C125.943 47.1208 126.348 47.1144 126.723 47.2206C127.396 47.5218 127.519 48.099 127.159 48.9272Z" fill="white"/>
<path d="M21.0136 36.4202C20.6496 36.8325 20.3321 37.2752 20.0658 37.742C20.1173 37.7342 20.1702 37.7361 20.2208 37.7477C20.2715 37.7592 20.3188 37.7801 20.3596 37.809C20.4148 37.8498 20.4544 37.9046 20.473 37.9659C20.4917 38.0273 20.4885 38.0923 20.4639 38.152C20.1217 38.9864 19.5931 39.7517 18.9095 40.4024C18.757 40.9021 18.6461 41.411 18.5777 41.925L19.7625 40.645L20.2838 40.0845C20.2401 40.0928 20.1948 40.0928 20.1511 40.0845L20.0373 40.0092C19.982 39.944 19.952 39.8648 19.952 39.7833C19.952 39.7018 19.982 39.6226 20.0373 39.5574L20.0847 39.4738C20.3288 38.9313 20.6471 38.4171 21.0325 37.9428C21.0428 37.9178 21.063 37.897 21.0894 37.8842C21.0434 37.8174 21.019 37.7407 21.019 37.6626C21.019 37.5844 21.0434 37.5077 21.0894 37.4409C21.247 37.2243 21.4212 37.0174 21.6107 36.8218C21.8555 36.6268 22.0385 36.3788 22.1415 36.1023C22.2066 35.7418 22.3412 35.3937 22.5396 35.0733C21.9623 35.4574 21.4487 35.9107 21.0136 36.4202V36.4202ZM33.8753 33.4922V33.5591H34.9274L34.681 33.4336C34.1512 33.1843 33.5874 32.996 33.0034 32.8731L31.9229 32.7727H32.1503C32.6626 32.8068 33.1652 32.9141 33.6384 33.0906H33.7047L33.79 33.1408C33.8303 33.1802 33.8624 33.2255 33.8848 33.2747C33.9145 33.3454 33.9111 33.4236 33.8753 33.4922ZM22.0277 41.3561C21.7244 41.5318 21.4022 41.6907 21.0799 41.8413L20.6819 41.9835C19.974 42.2014 19.244 42.3583 18.5019 42.452C18.4559 43.2702 18.4908 44.0904 18.6062 44.9032C18.7494 45.8359 19.0134 46.7509 19.3928 47.6305C20.0844 49.3114 21.0904 50.878 22.369 52.2652L22.5775 52.466C23.0893 53.0097 23.5821 53.5619 24.0845 54.1391C24.5205 54.6355 24.9014 55.1678 25.2219 55.7286C25.3752 56.0099 25.4468 56.3204 25.4304 56.6322C25.3356 57.3684 24.5489 57.7616 23.0609 57.795C21.9145 57.7147 20.8218 57.3329 19.9236 56.6991C18.8317 55.9878 18.0837 54.9392 17.829 53.7627C17.7721 53.4866 17.6299 53.428 17.4119 53.5619C17.1159 53.7918 16.8826 54.0778 16.7295 54.3985C16.4844 54.8835 16.3308 55.4006 16.2746 55.9294C16.2083 56.5698 16.3021 57.2152 16.5494 57.8201C16.7994 58.4205 17.188 58.9684 17.6905 59.4292C18.1931 59.8901 18.7986 60.2537 19.4687 60.4972C20.9605 61.067 22.5868 61.3082 24.2077 61.1999C25.9095 61.1331 27.5788 60.7662 29.1173 60.1207C30.5508 59.5619 31.7575 58.631 32.5768 57.452C33.1613 56.5682 33.3378 55.5196 33.0697 54.524C32.8322 53.5839 32.3878 52.6943 31.7617 51.9054C31.1743 51.1614 30.5215 50.4593 29.8092 49.8056C29.1837 49.2147 28.5982 48.5918 28.0558 47.94C27.5084 47.2904 27.0975 46.5594 26.8426 45.7816C26.4769 44.4248 26.5826 43.0022 27.1459 41.6991C27.7051 40.3689 28.5202 39.5825 29.5818 39.3483C30.6054 39.2562 31.2025 39.5323 31.3636 40.1849C31.5137 40.907 31.3835 41.6527 30.994 42.3014C30.6821 42.9869 30.095 43.5468 29.3448 43.8742C29.1742 43.9244 29.1647 43.9997 29.3448 44.1001C29.8313 44.5014 30.4334 44.7769 31.0854 44.8964C31.7373 45.0159 32.414 44.9749 33.0413 44.7777C34.4436 44.34 35.6563 43.527 36.5102 42.452C37.4828 41.3337 38.0569 39.9855 38.1594 38.5786C38.2255 37.626 37.9996 36.6752 37.5054 35.8262C37.2036 35.2835 36.7851 34.7976 36.2733 34.3957C35.6102 34.923 34.8191 35.3093 33.9606 35.5251C33.9274 35.6081 33.8658 35.6801 33.7843 35.731C33.7028 35.7819 33.6055 35.8094 33.5057 35.8095C33.2715 35.8497 33.0334 35.8693 32.7948 35.8681H31.9608C31.9214 35.9167 31.8684 35.9554 31.8068 35.9803C31.7453 36.0053 31.6775 36.0156 31.6101 36.0103H31.3826C30.7224 35.8711 30.0853 35.6574 29.487 35.3745L29.3733 35.4331C29.3295 35.4414 29.2843 35.4414 29.2406 35.4331H29.1837C28.9152 35.4035 28.6562 35.3268 28.4218 35.2076C28.1874 35.0884 27.9824 34.9289 27.8188 34.7387L27.7525 34.6718C27.3459 34.2778 26.9721 33.8584 26.6341 33.4169H26.1412C26.5488 33.8603 27.1743 34.2535 27.6293 34.7889L28.8614 36.0689L29.4491 36.7465L29.6386 36.9724C29.7523 37.0811 29.8394 37.2092 29.8945 37.3488C30.0367 37.8592 29.2216 38.4113 28.615 38.5619C28.4856 38.595 28.3516 38.6119 28.2169 38.6121C28.0131 38.6052 27.8172 38.5404 27.6584 38.4273C27.4996 38.3143 27.3863 38.159 27.3355 37.9846C27.2028 37.5998 27.0511 37.2233 26.8995 36.8385C26.7478 36.4537 26.5583 36.0689 26.4445 35.6673C26.3497 35.3996 26.2171 35.0566 26.0844 34.7052L25.6578 33.5591V33.5089C25.6578 33.5089 25.3451 33.5089 25.3072 33.5507C25.3925 33.8937 25.4872 34.2367 25.6105 34.5714C25.7337 34.906 25.7147 35.0566 25.7431 35.3076C25.857 35.9394 25.857 36.5831 25.7431 37.215C25.7431 37.5162 25.5157 37.6835 25.4114 37.5747C25.3566 37.5069 25.2964 37.4426 25.2313 37.3823L25.1839 37.4576V37.6333C25.1287 37.9664 25.0495 38.2961 24.947 38.6204C24.8712 38.9049 24.6721 39.2563 24.5205 39.6996C24.4162 40.0008 24.3783 40.1263 24.2361 40.0008L24.1603 39.9339H24.0845C24.0087 39.9339 23.8949 40.0761 23.658 40.3856C23.4317 40.6942 23.1609 40.9754 22.8523 41.2222C22.7533 41.3048 22.6272 41.3575 22.4922 41.3728C22.4258 41.3728 22.3974 41.3728 22.331 41.2892" fill="white"/>
<path d="M38.4534 64.3539H38.1406V63.8854H39.6192C40.2353 63.8854 40.6713 64.1698 40.6713 64.655C40.6804 64.7845 40.6468 64.9135 40.5744 65.0263C40.5021 65.1392 40.3941 65.2311 40.2637 65.2908C40.4292 65.3387 40.572 65.4336 40.6697 65.5608C40.7675 65.688 40.8147 65.8402 40.804 65.9936C40.804 66.5875 40.2637 66.8302 39.6382 66.8302H38.7757C38.5482 66.8302 38.4534 66.7465 38.4534 66.5457V64.3539ZM39.6192 65.1068C39.6727 65.1079 39.726 65.0997 39.7759 65.0826C39.8258 65.0656 39.8715 65.04 39.9102 65.0074C39.9489 64.9747 39.98 64.9357 40.0016 64.8925C40.0232 64.8492 40.035 64.8027 40.0362 64.7554V64.7554C40.0401 64.7104 40.0339 64.6651 40.0178 64.6221C40.0018 64.5792 39.9763 64.5395 39.9429 64.5053C39.9094 64.4711 39.8686 64.4431 39.8228 64.4228C39.777 64.4026 39.7272 64.3905 39.6761 64.3873H39.079V65.1403L39.6192 65.1068ZM39.1832 66.4035H39.6761C39.7791 66.3775 39.8697 66.3227 39.9342 66.2472C39.9987 66.1717 40.0336 66.0797 40.0336 65.9852C40.0336 65.8907 39.9987 65.7987 39.9342 65.7232C39.8697 65.6478 39.7791 65.5929 39.6761 65.5669H39.079V66.3366C39.0836 66.3573 39.0969 66.3757 39.1162 66.3881C39.1355 66.4005 39.1595 66.406 39.1832 66.4035V66.4035Z" fill="white"/>
<path d="M42.2821 65.2741C42.2834 65.2632 42.2822 65.252 42.2787 65.2414C42.2751 65.2308 42.2691 65.221 42.2612 65.2124C42.2533 65.2039 42.2435 65.1968 42.2324 65.1916C42.2214 65.1864 42.2093 65.1832 42.1968 65.1821H41.9883V64.7304H42.5475C42.7655 64.7304 42.8697 64.8057 42.8697 64.9897V65.249C42.919 65.096 43.0214 64.9604 43.1625 64.8614C43.3037 64.7623 43.4764 64.7048 43.6564 64.6969H43.7702V65.2239H43.6185C43.4684 65.2243 43.3225 65.2678 43.2028 65.3478C43.0831 65.4277 42.9962 65.5399 42.955 65.6673C42.9078 65.7795 42.8884 65.8993 42.8982 66.0187V66.8553H42.2821V65.2658V65.2741Z" fill="white"/>
<path d="M45.1431 65.2741C45.1431 65.2072 45.1431 65.1821 45.0294 65.1821H44.8398V64.7303H45.4275C45.6455 64.7303 45.7497 64.814 45.7497 65.0148V66.3282C45.7484 66.3392 45.7496 66.3503 45.7532 66.3609C45.7568 66.3715 45.7627 66.3814 45.7706 66.3899C45.7786 66.3985 45.7884 66.4056 45.7994 66.4108C45.8105 66.416 45.8226 66.4192 45.835 66.4202H46.0436V66.8636H45.5128C45.2853 66.8636 45.1905 66.78 45.1905 66.5792V65.2741H45.1431ZM45.1431 63.8854H45.6739V64.379H45.1431V63.8854Z" fill="white"/>
<path d="M47.4091 65.2741C47.4104 65.2631 47.4092 65.252 47.4056 65.2414C47.402 65.2308 47.3961 65.2209 47.3882 65.2124C47.3802 65.2038 47.3704 65.1967 47.3594 65.1915C47.3483 65.1863 47.3362 65.1831 47.3238 65.1821H47.1152V64.7303H47.6744C47.8924 64.7303 47.9967 64.814 47.9967 64.9646V65.1235C48.0795 64.9861 48.2041 64.8718 48.3565 64.7935C48.5088 64.7152 48.6829 64.6759 48.8592 64.6801C49.3995 64.6801 49.7122 64.9227 49.7122 65.5167V66.3533C49.7122 66.3777 49.7232 66.4011 49.7428 66.4184C49.7623 66.4356 49.7888 66.4453 49.8165 66.4453H50.0061V66.8887H49.4374C49.2004 66.8887 49.1056 66.805 49.1056 66.6043V65.6004C49.1056 65.341 49.0298 65.1653 48.717 65.1653C48.5678 65.1638 48.422 65.2055 48.3022 65.2841C48.1824 65.3627 48.095 65.4738 48.0536 65.6004C48.0352 65.6945 48.0352 65.7907 48.0536 65.8848V66.8636H47.4091V65.2741Z" fill="white"/>
<path d="M52.2901 67.282C52.6693 67.282 52.9915 67.1481 52.9915 66.7633V66.5458C52.9161 66.6414 52.813 66.7174 52.693 66.766C52.573 66.8145 52.4404 66.8338 52.3091 66.8219C52.0141 66.8197 51.7321 66.7147 51.5244 66.5298C51.3167 66.3449 51.2002 66.0951 51.2002 65.8347C51.2044 65.8041 51.2044 65.7732 51.2002 65.7427C51.1681 65.4921 51.2499 65.2405 51.4275 65.0429C51.6051 64.8454 51.8642 64.718 52.148 64.6886H52.2712C52.4149 64.6765 52.5598 64.698 52.6912 64.7508C52.8226 64.8037 52.936 64.8861 53.02 64.9897V64.9312C53.02 64.8392 53.0958 64.7388 53.2948 64.7388H53.8635V65.1905H53.6739C53.6076 65.1905 53.5697 65.1905 53.5697 65.2742V66.7466C53.5697 67.0151 53.4489 67.2725 53.2338 67.4624C53.0187 67.6522 52.727 67.7589 52.4228 67.7589H52.2712C51.9685 67.7565 51.6703 67.6936 51.3992 67.5748L51.5888 67.1565C51.8081 67.2465 52.0484 67.2895 52.2901 67.282V67.282ZM53.001 65.7427C53.001 65.2575 52.7261 65.132 52.3944 65.132C52.3113 65.135 52.2297 65.153 52.1548 65.185C52.0799 65.217 52.0133 65.2623 51.959 65.318C51.9048 65.3737 51.8642 65.4387 51.8396 65.5089C51.815 65.579 51.8071 65.6529 51.8162 65.7259C51.8162 66.0857 52.0342 66.3785 52.4323 66.3785C52.8304 66.3785 53.001 66.2279 53.001 65.7427Z" fill="white"/>
<path d="M55.305 65.2741C55.305 65.2072 55.305 65.1821 55.1912 65.1821H54.9922V64.7303H55.5798C55.7978 64.7303 55.8926 64.814 55.8926 65.0148V66.3282C55.8926 66.3526 55.9036 66.376 55.9231 66.3933C55.9427 66.4105 55.9692 66.4202 55.9969 66.4202H56.1959V66.8636H55.6083C55.3903 66.8636 55.2955 66.78 55.2955 66.5792L55.305 65.2741ZM55.305 63.8854H55.8263V64.379H55.305V63.8854Z" fill="white"/>
<path d="M57.6083 65.2741C57.6096 65.2631 57.6084 65.252 57.6048 65.2414C57.6012 65.2308 57.5953 65.2209 57.5874 65.2124C57.5794 65.2038 57.5697 65.1967 57.5586 65.1915C57.5476 65.1863 57.5354 65.1831 57.523 65.1821H57.3145V64.7303H57.8357C58.0537 64.7303 58.158 64.814 58.158 64.9646V65.1235C58.2408 64.9861 58.3654 64.8718 58.5178 64.7935C58.6701 64.7152 58.8442 64.6759 59.0205 64.6801C59.5702 64.6801 59.8735 64.9227 59.8735 65.5167V66.3533C59.8735 66.3777 59.8845 66.4011 59.9041 66.4184C59.9236 66.4356 59.9501 66.4453 59.9778 66.4453H60.1674V66.8887H59.5987C59.3617 66.8887 59.2669 66.805 59.2669 66.6043V65.6004C59.2669 65.341 59.1911 65.1653 58.8783 65.1653C58.7291 65.1638 58.5833 65.2055 58.4635 65.2841C58.3437 65.3627 58.2563 65.4738 58.2149 65.6004C58.1965 65.6945 58.1965 65.7907 58.2149 65.8848V66.8636H57.5988V65.2741H57.6083Z" fill="white"/>
<path d="M62.4503 67.282C62.8294 67.282 63.1517 67.1481 63.1517 66.7633V66.5458C63.0762 66.6414 62.9731 66.7174 62.8531 66.766C62.7331 66.8145 62.6006 66.8338 62.4693 66.8219C62.1734 66.8175 61.8914 66.7107 61.6839 66.5244C61.4765 66.3382 61.3603 66.0875 61.3603 65.8263C61.3645 65.7986 61.3645 65.7704 61.3603 65.7427C61.3283 65.4921 61.41 65.2405 61.5877 65.0429C61.7653 64.8454 62.0243 64.718 62.3081 64.6886H62.4313C62.5751 64.6765 62.7199 64.698 62.8513 64.7508C62.9827 64.8037 63.0961 64.8861 63.1801 64.9897V64.9897V64.9312C63.1801 64.8392 63.2559 64.7388 63.455 64.7388H64.0237V65.1905H63.8341C63.7678 65.1905 63.7298 65.1905 63.7298 65.2742V66.7466C63.7286 66.8795 63.6977 67.0109 63.6389 67.1333C63.5801 67.2557 63.4946 67.3667 63.3872 67.4599C63.2799 67.5531 63.1527 67.6268 63.0131 67.6766C62.8735 67.7265 62.7241 67.7516 62.5735 67.7505H62.4219C62.1192 67.7482 61.821 67.6852 61.5499 67.5664L61.7395 67.1481C61.9604 67.2436 62.2045 67.2896 62.4503 67.282ZM63.1612 65.7427C63.1612 65.2575 62.8863 65.132 62.5546 65.132C62.4714 65.135 62.3899 65.153 62.315 65.185C62.2401 65.217 62.1734 65.2623 62.1192 65.318C62.065 65.3737 62.0243 65.4387 61.9997 65.5089C61.9752 65.579 61.9672 65.6529 61.9764 65.7259C61.9764 66.0857 62.1944 66.3785 62.5925 66.3785C62.9905 66.3785 63.1612 66.2279 63.1612 65.7427Z" fill="white"/>
<path d="M67.7112 64.3539H67.3984V63.8854H68.877C69.4931 63.8854 69.9291 64.1698 69.9291 64.655C69.9348 64.784 69.8997 64.9118 69.8277 65.0241C69.7557 65.1364 69.6497 65.2288 69.5215 65.2908V65.2908C69.687 65.3387 69.8298 65.4336 69.9276 65.5608C70.0253 65.688 70.0725 65.8402 70.0618 65.9936C70.0618 66.5875 69.5215 66.8302 68.896 66.8302H68.0335C67.806 66.8302 67.7112 66.7465 67.7112 66.5457V64.3539ZM68.877 65.1068C68.9305 65.1079 68.9838 65.0997 69.0337 65.0826C69.0837 65.0656 69.1293 65.04 69.168 65.0074C69.2067 64.9747 69.2378 64.9357 69.2594 64.8925C69.2811 64.8492 69.2928 64.8027 69.2941 64.7554V64.7554C69.2966 64.7093 69.2888 64.6631 69.2711 64.6196C69.2534 64.5761 69.2262 64.5362 69.191 64.502C69.1558 64.4678 69.1133 64.44 69.0659 64.4204C69.0185 64.4007 68.9672 64.3895 68.9149 64.3873H68.3368V65.1403L68.877 65.1068ZM68.441 66.4035H68.9339C69.0369 66.3775 69.1275 66.3227 69.192 66.2472C69.2565 66.1717 69.2914 66.0797 69.2914 65.9852C69.2914 65.8907 69.2565 65.7987 69.192 65.7232C69.1275 65.6478 69.0369 65.5929 68.9339 65.5669H68.3368V66.3366C68.3414 66.3573 68.3547 66.3757 68.374 66.3881C68.3934 66.4005 68.4173 66.406 68.441 66.4035V66.4035Z" fill="white"/>
<path d="M71.5399 65.2741C71.5412 65.2632 71.5401 65.252 71.5365 65.2414C71.5329 65.2308 71.5269 65.221 71.519 65.2124C71.5111 65.2039 71.5013 65.1968 71.4902 65.1916C71.4792 65.1864 71.4671 65.1832 71.4546 65.1821H71.2461V64.7304H71.8053C72.0233 64.7304 72.1276 64.8057 72.1276 64.9897V65.249C72.1742 65.0947 72.2759 64.9577 72.4176 64.8583C72.5592 64.7588 72.7334 64.7023 72.9142 64.6969H72.9995V65.2239H72.8479C72.6965 65.2239 72.5492 65.267 72.4279 65.3469C72.3066 65.4268 72.2179 65.5392 72.1749 65.6673C72.156 65.7839 72.156 65.9022 72.1749 66.0187V66.8553H71.5589L71.5399 65.2741Z" fill="white"/>
<path d="M75.5501 65.5251H75.6259C75.6259 65.2323 75.4932 65.1235 75.1805 65.1235C75.0667 65.1235 74.8487 65.1235 74.8487 65.2657V65.3494H74.28V65.1235C74.28 64.7303 74.9246 64.6885 75.1615 64.6885C75.9956 64.6885 76.242 65.0482 76.242 65.5251V66.3617C76.2407 66.3727 76.2419 66.3838 76.2455 66.3944C76.249 66.405 76.255 66.4148 76.2629 66.4234C76.2708 66.4319 76.2806 66.439 76.2917 66.4442C76.3027 66.4494 76.3148 66.4526 76.3273 66.4537H76.5358V66.8971H75.9861C75.7586 66.8971 75.6828 66.7883 75.6828 66.6628V66.5708C75.6048 66.6885 75.4923 66.7855 75.3573 66.8517C75.2222 66.918 75.0695 66.951 74.9151 66.9473C74.8179 66.9553 74.7199 66.9463 74.6267 66.9207C74.5335 66.8952 74.447 66.8536 74.3721 66.7984C74.2972 66.7432 74.2354 66.6754 74.1903 66.599C74.1453 66.5226 74.1178 66.4391 74.1094 66.3533V66.3533C74.1 65.5585 75.152 65.5251 75.5501 65.5251ZM75.0762 66.5122C75.2328 66.4957 75.3768 66.4282 75.4802 66.3231C75.5836 66.2179 75.6389 66.0826 75.6354 65.9434V65.8932H75.5217C75.2089 65.8932 74.6971 65.8932 74.6971 66.2194C74.697 66.2593 74.7062 66.2988 74.724 66.3355C74.7419 66.3722 74.768 66.4052 74.8008 66.4326C74.8337 66.4601 74.8725 66.4813 74.915 66.4949C74.9575 66.5086 75.0026 66.5145 75.0478 66.5122H75.0762Z" fill="white"/>
<path d="M77.9107 65.2741C77.9107 65.2072 77.9107 65.1821 77.797 65.1821H77.6074V64.7303H78.1761C78.3846 64.7303 78.4984 64.814 78.4984 64.9646V65.1235C78.5812 64.9861 78.7058 64.8718 78.8581 64.7935C79.0105 64.7152 79.1846 64.6759 79.3609 64.6801C79.9106 64.6801 80.2234 64.9227 80.2234 65.5167V66.3533C80.2221 66.3643 80.2232 66.3754 80.2268 66.386C80.2304 66.3966 80.2364 66.4064 80.2443 66.415C80.2522 66.4236 80.262 66.4306 80.273 66.4358C80.2841 66.4411 80.2962 66.4443 80.3087 66.4453H80.5172V66.8887H79.939C79.7116 66.8887 79.6073 66.805 79.6073 66.6043V65.6004C79.6073 65.341 79.5315 65.1653 79.2282 65.1653C79.0778 65.1593 78.9296 65.1994 78.8087 65.2786C78.6878 65.3579 78.6017 65.4715 78.5647 65.6004C78.5344 65.6928 78.5184 65.7885 78.5173 65.8848V66.8636H77.9107V65.2741Z" fill="white"/>
<path d="M82.7717 64.6801C82.9053 64.6684 83.04 64.6859 83.164 64.7311C83.288 64.7764 83.3974 64.8479 83.4826 64.9395V64.9395V64.4375C83.4826 64.3706 83.4826 64.3455 83.3689 64.3455H83.1888V63.8854H83.7669C83.9944 63.8854 84.0892 63.9774 84.0892 64.1782V66.3282C84.0879 66.3392 84.0891 66.3503 84.0926 66.3609C84.0962 66.3715 84.1022 66.3814 84.1101 66.3899C84.118 66.3985 84.1278 66.4056 84.1389 66.4108C84.1499 66.416 84.162 66.4192 84.1745 66.4202H84.3735V66.8636H83.8049C83.5869 66.8636 83.5016 66.7716 83.5016 66.6461V66.5708C83.4195 66.6829 83.3052 66.7737 83.1703 66.834C83.0354 66.8943 82.8848 66.9218 82.7338 66.9138C82.5869 66.9116 82.442 66.8839 82.3073 66.8323C82.1725 66.7807 82.0506 66.7061 81.9485 66.6129C81.8464 66.5197 81.7661 66.4096 81.7122 66.289C81.6583 66.1684 81.6319 66.0396 81.6344 65.9099C81.6297 65.871 81.6297 65.8317 81.6344 65.7928C81.6173 65.6619 81.6298 65.5294 81.6712 65.4028C81.7125 65.2762 81.782 65.1582 81.8754 65.0554C81.9689 64.9527 82.0845 64.8674 82.2156 64.8044C82.3466 64.7414 82.4906 64.702 82.639 64.6885L82.7717 64.6801ZM82.8855 66.4704C83.1983 66.4704 83.5016 66.2696 83.5016 65.7928C83.5016 65.4582 83.3025 65.1319 82.8855 65.1319C82.4684 65.1319 82.2694 65.3745 82.2694 65.7928C82.2694 66.2111 82.5253 66.4704 82.8855 66.4704Z" fill="white"/>
<path d="M85.8153 66.186C86.0059 66.3724 86.2709 66.4864 86.5546 66.5039C86.7347 66.5039 86.8769 66.437 86.8769 66.2948C86.8769 65.9936 85.5878 65.9936 85.5878 65.2993C85.5878 64.8726 86.0333 64.6802 86.5356 64.6802C86.8769 64.6802 87.3981 64.7722 87.3981 65.1236V65.3494H86.8674V65.2491C86.8674 65.1487 86.6873 65.0985 86.5546 65.0985C86.4219 65.0985 86.1944 65.1654 86.1944 65.2909C86.1944 65.6255 87.4929 65.5586 87.4929 66.2697C87.4929 66.6713 87.0854 66.9222 86.5451 66.9222C86.354 66.9273 86.1638 66.8963 85.9873 66.8314C85.8108 66.7665 85.652 66.6691 85.5215 66.5458L85.8153 66.186Z" fill="white"/>
<path d="M91.1878 64.3539H90.875V63.8854H92.2683C92.7157 63.8854 93.1448 64.0423 93.4612 64.3215C93.7776 64.6008 93.9554 64.9796 93.9554 65.3745C93.9554 65.7694 93.7776 66.1482 93.4612 66.4275C93.1448 66.7067 92.7157 66.8636 92.2683 66.8636H91.5195C91.292 66.8636 91.1878 66.78 91.1878 66.5792V64.3539ZM91.9555 66.4035H92.2588C92.5486 66.3804 92.8182 66.2624 93.0145 66.0728C93.2108 65.8831 93.3196 65.6355 93.3196 65.3787C93.3196 65.1218 93.2108 64.8742 93.0145 64.6846C92.8182 64.495 92.5486 64.377 92.2588 64.3539H91.8512V66.3115C91.8499 66.3225 91.8511 66.3336 91.8547 66.3442C91.8583 66.3548 91.8642 66.3646 91.8721 66.3732C91.8801 66.3817 91.8898 66.3888 91.9009 66.394C91.912 66.3992 91.9241 66.4025 91.9365 66.4035H91.9555Z" fill="white"/>
<path d="M95.483 65.2741C95.4843 65.2631 95.4831 65.252 95.4795 65.2414C95.4759 65.2308 95.47 65.2209 95.4621 65.2124C95.4542 65.2038 95.4444 65.1967 95.4333 65.1915C95.4223 65.1863 95.4102 65.1831 95.3977 65.1821H95.1797V64.7303H95.7484C95.9759 64.7303 96.0706 64.814 96.0706 65.0148V66.3282C96.0693 66.3392 96.0705 66.3503 96.0741 66.3609C96.0777 66.3715 96.0836 66.3814 96.0915 66.3899C96.0995 66.3985 96.1092 66.4056 96.1203 66.4108C96.1314 66.416 96.1435 66.4192 96.1559 66.4202H96.3645V66.8636H95.7484C95.5209 66.8636 95.4261 66.78 95.4261 66.5792V65.2741H95.483ZM95.483 63.8854H96.0138V64.379H95.483V63.8854Z" fill="white"/>
<path d="M97.7955 65.2741C97.7968 65.2632 97.7956 65.252 97.792 65.2414C97.7884 65.2308 97.7825 65.221 97.7746 65.2124C97.7666 65.2039 97.7569 65.1968 97.7458 65.1916C97.7348 65.1864 97.7227 65.1832 97.7102 65.1821H97.4922V64.7304H98.0609C98.2789 64.7304 98.3831 64.8057 98.3831 64.9897V65.249C98.4293 65.096 98.5296 64.96 98.6693 64.8607C98.8091 64.7614 98.9811 64.704 99.1603 64.6969H99.2741V65.2239H99.1224C98.9723 65.2243 98.8264 65.2678 98.7067 65.3478C98.5871 65.4277 98.5001 65.5399 98.459 65.6673C98.4215 65.7815 98.4023 65.8998 98.4021 66.0187V66.8553H97.7955V65.2658V65.2741Z" fill="white"/>
<path d="M101.605 64.6802C101.883 64.6734 102.152 64.7637 102.354 64.9313C102.557 65.099 102.676 65.3305 102.686 65.5753C102.69 65.6142 102.69 65.6535 102.686 65.6924C102.695 65.7591 102.695 65.8265 102.686 65.8932H100.989C101.008 66.0544 101.096 66.2031 101.235 66.3088C101.375 66.4146 101.554 66.4694 101.738 66.4621C101.994 66.4531 102.24 66.3709 102.439 66.2279L102.676 66.6127C102.401 66.7941 102.071 66.8989 101.728 66.9139C101.397 66.9299 101.072 66.83 100.823 66.6358C100.575 66.4416 100.423 66.1688 100.401 65.8765V65.7928C100.395 65.6522 100.42 65.5118 100.475 65.3797C100.53 65.2477 100.615 65.1265 100.723 65.0232C100.831 64.9198 100.961 64.8363 101.106 64.7775C101.251 64.7186 101.408 64.6856 101.567 64.6802H101.605ZM102.079 65.5168C102.083 65.4607 102.074 65.4045 102.053 65.3515C102.032 65.2984 102 65.2495 101.958 65.2075C101.915 65.1655 101.864 65.1313 101.807 65.1069C101.75 65.0824 101.688 65.0682 101.624 65.065V65.065C101.48 65.0621 101.34 65.1068 101.231 65.1904C101.122 65.2739 101.053 65.3903 101.036 65.5168H102.079Z" fill="white"/>
<path d="M105.225 64.6802C105.538 64.6802 106.116 64.7889 106.116 65.157V65.408H105.576V65.2909C105.576 65.1738 105.377 65.1236 105.225 65.1236C105.04 65.142 104.869 65.2199 104.744 65.3426C104.62 65.4653 104.552 65.6241 104.552 65.7887C104.552 65.9532 104.62 66.112 104.744 66.2347C104.869 66.3574 105.04 66.4354 105.225 66.4538C105.501 66.4376 105.76 66.3335 105.955 66.161L106.201 66.5291C106.07 66.6518 105.911 66.7494 105.735 66.8156C105.559 66.8818 105.369 66.9152 105.178 66.9139C105.011 66.9279 104.842 66.9126 104.682 66.8689C104.522 66.8252 104.373 66.7538 104.244 66.659C104.115 66.5642 104.009 66.4478 103.931 66.3165C103.854 66.1852 103.806 66.0417 103.792 65.8941C103.777 65.7466 103.796 65.598 103.847 65.4569C103.898 65.3159 103.98 65.1851 104.089 65.0723C104.198 64.9594 104.331 64.8666 104.48 64.7993C104.629 64.7321 104.792 64.6916 104.96 64.6802C105.032 64.6719 105.105 64.6719 105.178 64.6802H105.225Z" fill="white"/>
<path d="M107.643 65.1487H107.32V64.7304H107.662V64.1448H108.249V64.7304H108.808V65.1487H108.249V65.9853C108.247 66.0358 108.255 66.0863 108.275 66.1339C108.295 66.1814 108.325 66.2251 108.363 66.2624C108.402 66.2997 108.449 66.3299 108.501 66.3512C108.553 66.3726 108.609 66.3847 108.666 66.3868H108.856V66.847H108.657C108.423 66.8756 108.186 66.8212 107.998 66.6957C107.809 66.5702 107.685 66.3839 107.652 66.1777C107.647 66.122 107.647 66.0661 107.652 66.0104L107.643 65.1487Z" fill="white"/>
<path d="M113.31 64.3539H112.808C112.732 64.3539 112.694 64.3539 112.694 64.4459V64.6299H112.145V64.1615C112.145 63.9607 112.22 63.8854 112.448 63.8854H114.836C115.064 63.8854 115.14 63.9607 115.14 64.1615V64.6299H114.59V64.4459C114.59 64.3873 114.59 64.3539 114.476 64.3539H113.964V66.8636H113.329V64.3539H113.31Z" fill="white"/>
<path d="M117.129 64.6801C117.378 64.6916 117.617 64.7672 117.817 64.8975C118.017 65.0278 118.17 65.2071 118.255 65.4132C118.341 65.6192 118.356 65.8429 118.299 66.0566C118.242 66.2703 118.115 66.4645 117.935 66.6151C117.754 66.7657 117.527 66.8661 117.282 66.9039C117.037 66.9417 116.784 66.9151 116.556 66.8276C116.328 66.74 116.134 66.5953 115.999 66.4113C115.863 66.2274 115.791 66.0123 115.793 65.7928C115.794 65.6412 115.83 65.4914 115.898 65.3524C115.967 65.2134 116.067 65.0881 116.192 64.9841C116.316 64.8801 116.464 64.7996 116.625 64.7473C116.786 64.6951 116.958 64.6722 117.129 64.6801ZM117.129 66.4621C117.279 66.4669 117.427 66.4325 117.555 66.3631C117.683 66.2937 117.784 66.1924 117.847 66.0721C117.909 65.9518 117.93 65.8179 117.906 65.6872C117.882 65.5566 117.815 65.4351 117.713 65.3381C117.611 65.241 117.479 65.1729 117.333 65.1422C117.187 65.1115 117.034 65.1197 116.894 65.1657C116.753 65.2116 116.631 65.2934 116.543 65.4005C116.455 65.5077 116.405 65.6355 116.4 65.7677C116.394 65.8512 116.408 65.9348 116.44 66.0137C116.471 66.0925 116.52 66.1651 116.583 66.2273C116.647 66.2895 116.724 66.34 116.809 66.376C116.895 66.4119 116.987 66.4327 117.082 66.437V66.437L117.129 66.4621Z" fill="white"/>
<path d="M122.172 64.3539H121.859V63.8854H123.812C124.039 63.8854 124.134 63.9774 124.134 64.1698V64.6299H123.565V64.4459C123.567 64.4349 123.566 64.4238 123.562 64.4132C123.558 64.4026 123.552 64.3927 123.545 64.3842C123.537 64.3756 123.527 64.3685 123.516 64.3633C123.505 64.3581 123.493 64.3549 123.48 64.3539H122.807V65.1904H123.897V65.6589H122.807V66.8553H122.172V64.3455V64.3539Z" fill="white"/>
<path d="M126.589 65.5251H126.665C126.665 65.2323 126.523 65.1235 126.21 65.1235C126.106 65.1235 125.888 65.1235 125.888 65.2657V65.3494H125.309V65.1235C125.309 64.7303 125.963 64.6885 126.2 64.6885C127.034 64.6885 127.271 65.0482 127.271 65.5251V66.3617C127.271 66.3861 127.282 66.4095 127.302 66.4267C127.321 66.444 127.348 66.4537 127.376 66.4537H127.575V66.8971H127.025C126.797 66.8971 126.712 66.7883 126.712 66.6628V66.5708C126.637 66.6891 126.527 66.7868 126.393 66.8532C126.259 66.9196 126.107 66.9522 125.954 66.9473C125.855 66.9553 125.756 66.9461 125.662 66.9201C125.568 66.8941 125.48 66.8519 125.404 66.7959C125.328 66.7399 125.266 66.6713 125.22 66.5938C125.175 66.5164 125.147 66.4318 125.139 66.3449V66.3449C125.129 65.5585 126.191 65.5251 126.589 65.5251ZM126.077 66.5122C126.236 66.5015 126.384 66.4358 126.489 66.3293C126.594 66.2227 126.647 66.0841 126.636 65.9434V65.8932H126.532C126.21 65.8932 125.707 65.8932 125.707 66.2278C125.707 66.2666 125.716 66.305 125.734 66.3407C125.751 66.3763 125.776 66.4084 125.808 66.4351C125.84 66.4617 125.878 66.4823 125.919 66.4956C125.961 66.5089 126.005 66.5145 126.049 66.5122H126.077Z" fill="white"/>
<path d="M128.921 65.2741C128.922 65.2632 128.921 65.252 128.917 65.2414C128.914 65.2308 128.908 65.221 128.9 65.2124C128.892 65.2039 128.882 65.1968 128.871 65.1916C128.86 65.1864 128.848 65.1832 128.835 65.1821H128.627V64.7304H129.186C129.404 64.7304 129.508 64.8057 129.508 64.9897V65.249C129.555 65.096 129.655 64.96 129.795 64.8607C129.934 64.7614 130.106 64.704 130.286 64.6969H130.409V65.2239H130.257C130.105 65.2225 129.957 65.2651 129.836 65.3452C129.714 65.4253 129.626 65.5385 129.584 65.6673C129.566 65.7839 129.566 65.9022 129.584 66.0187V66.8553H128.921V65.2741Z" fill="white"/>
<path d="M131.765 65.2741C131.766 65.2631 131.765 65.252 131.761 65.2414C131.757 65.2308 131.752 65.221 131.744 65.2124C131.736 65.2039 131.726 65.1968 131.715 65.1916C131.704 65.1864 131.692 65.1832 131.679 65.1821H131.471V64.7304H132.039C132.257 64.7304 132.362 64.814 132.362 64.9646V65.1236C132.439 64.9948 132.553 64.8862 132.693 64.8084C132.833 64.7307 132.993 64.6864 133.158 64.6802C133.315 64.669 133.472 64.7063 133.601 64.7856C133.731 64.8649 133.825 64.9813 133.869 65.1152C133.951 64.9819 134.073 64.871 134.222 64.7944C134.371 64.7177 134.54 64.6782 134.712 64.6802C135.224 64.6802 135.508 64.9311 135.508 65.5167V66.3533C135.508 66.3777 135.519 66.4011 135.539 66.4184C135.558 66.4357 135.585 66.4453 135.613 66.4453H135.812V66.8887H135.224C135.006 66.8887 134.902 66.8051 134.902 66.6043V65.592C134.902 65.3494 134.845 65.1654 134.57 65.1654C134.423 65.1736 134.283 65.2263 134.174 65.3146C134.065 65.4029 133.994 65.5216 133.973 65.6506C133.963 65.7424 133.963 65.8348 133.973 65.9267V66.8636H133.357V65.592C133.357 65.3578 133.357 65.1654 133.025 65.1654C132.877 65.1769 132.738 65.2318 132.63 65.3213C132.522 65.4107 132.451 65.5296 132.428 65.659C132.419 65.748 132.419 65.8376 132.428 65.9267V66.8636H131.765V65.2741Z" fill="white"/>
<path d="M137.251 66.186C137.442 66.3724 137.707 66.4864 137.99 66.5039C138.171 66.5039 138.313 66.437 138.313 66.2948C138.313 65.9936 137.024 65.9936 137.024 65.2993C137.024 64.8726 137.469 64.6802 137.971 64.6802C138.313 64.6802 138.834 64.7722 138.834 65.1236V65.3494H138.303V65.2491C138.303 65.1487 138.123 65.0985 137.99 65.0985C137.858 65.0985 137.63 65.1654 137.63 65.2909C137.63 65.6255 138.929 65.5586 138.929 66.2697C138.929 66.6713 138.521 66.9222 137.981 66.9222C137.791 66.9266 137.603 66.8953 137.428 66.8304C137.253 66.7655 137.096 66.6685 136.967 66.5458L137.251 66.186Z" fill="white"/>
<path d="M19.3065 9.01365L20.1122 7.29028C20.6037 8.0616 21.0222 8.86747 21.3633 9.69965C21.9504 11.0401 22.3113 12.4495 22.4343 13.8826C22.4343 13.9746 22.3301 14.1587 22.6049 14.1419C22.7187 14.3176 22.6049 14.4431 22.4817 14.5686C21.7489 15.5703 20.8366 16.4603 19.7804 17.2038C19.3539 17.4883 19.1739 17.4548 19.0032 17.0031C18.5483 15.8402 18.1881 14.6522 17.7901 13.4727C17.7142 13.2635 17.6194 13.0544 17.5626 12.8369C17.5532 12.7779 17.5269 12.7221 17.4864 12.6745C17.4458 12.627 17.3922 12.5893 17.3306 12.5651C17.269 12.5408 17.2015 12.5308 17.1343 12.5359C17.0671 12.541 17.0025 12.5611 16.9465 12.5942C16.719 12.4855 16.6811 12.268 16.6053 12.0839C16.3399 11.4314 16.1219 10.7621 15.8091 10.1263C15.4517 9.44151 15.1353 8.7406 14.8613 8.02648C14.8613 7.89263 14.8613 7.75877 15.0698 7.74204C15.2784 7.72531 15.3731 7.89263 15.4584 8.03485C16.0556 9.03875 16.5958 10.0761 17.0792 11.1302C17.1506 11.3176 17.246 11.4973 17.3635 11.6656C17.5721 11.582 17.6384 11.4147 17.7427 11.2724C18.1587 10.6801 18.5383 10.0685 18.88 9.44031C18.9748 9.29809 19.0791 9.08894 19.3065 9.01365Z" fill="#58AA46"/>
<path d="M16.9758 12.6445L17.3454 12.1927C17.7497 12.9609 18.0672 13.7623 18.2932 14.5854C18.5965 15.422 18.8714 16.2586 19.1368 17.0951C19.2505 17.4381 19.3263 17.4465 19.6581 17.2206C20.7151 16.4372 21.6433 15.5278 22.4162 14.5185C22.4818 14.4236 22.5419 14.3259 22.5963 14.2257C22.8143 13.8576 23.0417 13.4895 23.3356 13.0126C23.5029 14.1808 23.5852 15.3572 23.582 16.5346C23.5538 17.6556 23.4398 18.7736 23.2408 19.881C23.345 19.9897 23.2408 20.0901 23.1934 20.1654C22.6899 20.7157 22.1351 21.2278 21.5347 21.6964C21.4126 21.7894 21.2597 21.8452 21.0987 21.8553C20.748 21.7717 20.6627 21.504 20.5585 21.253C20.1415 20.2574 19.7434 19.2535 19.3927 18.2413C19.2789 17.9066 19.1083 17.7393 18.7008 17.8732C18.3785 17.7811 18.407 17.5134 18.3311 17.3043C18.0089 16.3171 17.7245 15.3216 17.3833 14.3428C17.3053 14.0496 17.2039 13.7617 17.08 13.4811C17.08 13.1799 16.7957 12.9122 16.9758 12.6445Z" fill="#0A9747"/>
<path d="M18.4727 17.1955C18.5391 17.3879 18.6054 17.5803 18.6812 17.7727C18.9692 18.3842 19.1698 19.0249 19.2783 19.6801C19.42 19.9402 19.46 20.2344 19.3921 20.5167C18.994 20.7844 18.8329 20.5585 18.7286 20.2741C18.5296 19.6801 18.34 19.0861 18.1789 18.4922C18.1533 18.3431 18.0707 18.2062 17.9449 18.1043C17.819 18.0023 17.6575 17.9414 17.487 17.9317C16.5131 17.815 15.5585 17.596 14.6436 17.2791C14.454 17.2038 14.2076 17.2122 14.1318 16.978C14.1981 16.7604 13.9896 16.6433 13.8664 16.5011C12.7834 15.1461 12.0491 13.5986 11.7148 11.9668C12.1129 12.0254 12.3878 12.268 12.7385 12.2847C12.9169 12.2546 13.1016 12.2813 13.2598 12.36C14.0948 12.6104 14.9661 12.754 15.8473 12.7867C15.9906 12.7749 16.1351 12.7922 16.2698 12.8371C16.4045 12.8821 16.5258 12.9535 16.6245 13.046C16.7104 13.1922 16.7771 13.3466 16.8235 13.5061C17.1837 14.5853 17.5818 15.6561 17.8945 16.7437C18.0272 17.003 18.1031 17.2122 18.4727 17.1955Z" fill="#6DB445"/>
<path d="M19.3059 9.01364C18.7847 10.0609 18.1499 11.0611 17.4103 12.0003C17.088 11.3477 16.8037 10.7454 16.4625 10.1598C16.0739 9.42357 15.6569 8.69574 15.2398 7.96791C15.1261 7.76713 15.0029 7.80059 14.9081 7.96791C14.5574 7.85915 14.5574 7.52452 14.3584 7.31537C14.3275 7.2734 14.3021 7.2285 14.2825 7.18152C14.2156 6.99721 14.113 6.82454 13.9792 6.6712C13.8945 6.56896 13.8274 6.45619 13.7802 6.33657C13.6785 6.11918 13.5514 5.91171 13.4011 5.71749C13.3347 5.60037 13.2494 5.38286 13.4011 5.29083C13.5527 5.19881 13.6854 5.38286 13.7802 5.48325C14.0564 5.77352 14.289 6.09408 14.4721 6.43696C14.5947 6.7061 14.786 6.94661 15.0313 7.13969C15.2019 6.52062 15.3156 5.94337 15.4483 5.38286C15.4701 5.16015 15.5584 4.94652 15.7043 4.76378C15.6942 4.34997 15.7195 3.93608 15.7801 3.52563C16.204 3.86444 16.5882 4.24 16.9269 4.64666C18.0247 5.8773 18.8044 7.30496 19.2111 8.82959C19.2287 8.89584 19.261 8.95838 19.3059 9.01364V9.01364Z" fill="#81BC41"/>
<path d="M16.5488 13.0795C16.1507 12.7783 15.601 12.9038 15.2029 12.8536C14.3578 12.7791 13.532 12.5842 12.7576 12.2763C11.5938 10.7414 10.8626 8.98309 10.625 7.14807C11.0303 7.23659 11.4219 7.36864 11.7908 7.54127C11.8738 7.51641 11.9637 7.51641 12.0467 7.54127C12.9601 7.7491 13.8563 8.01185 14.729 8.32766C15.1297 8.94855 15.4478 9.60826 15.6768 10.2936C15.9896 11.0549 16.255 11.833 16.5298 12.6026C16.6057 12.7365 16.7668 12.9122 16.5488 13.0795Z" fill="#93C340"/>
<path d="M34.3772 17.2374L35.6947 16.6183C35.8274 16.7605 35.6947 16.8776 35.6947 16.9864C35.2478 18.6331 34.4183 20.18 33.2588 21.5291C33.2588 21.5792 33.1546 21.6127 33.1925 21.688C33.2304 21.7633 33.0408 21.8553 32.9176 21.8888C31.8166 22.1985 30.6535 22.2983 29.5055 22.1816C29.4776 22.1743 29.452 22.1615 29.4306 22.1441C29.4093 22.1267 29.3927 22.1052 29.3823 22.0812C29.3682 22.0115 29.3702 21.94 29.3881 21.8711C29.406 21.8021 29.4395 21.737 29.4866 21.6796C30.1595 20.7008 30.6239 19.6384 31.2116 18.6261C31.3348 18.4002 31.1642 18.35 30.9746 18.2998C30.823 18.0489 31.041 17.8564 31.1263 17.6389C31.2116 17.4214 31.4296 17.0282 31.5528 16.7187C31.7992 16.1498 32.0172 15.5726 32.2068 14.9953C32.2636 14.828 32.311 14.6523 32.529 14.5938C33.0124 14.6607 32.9271 14.9869 32.8797 15.2547C32.7449 15.922 32.5321 16.5753 32.2447 17.2039C32.1235 17.4302 32.0159 17.662 31.9224 17.8983C32.5711 17.7553 33.2051 17.565 33.818 17.3294C33.8956 17.2749 33.9872 17.238 34.0847 17.2219C34.1822 17.2059 34.2826 17.2112 34.3772 17.2374V17.2374Z" fill="#58AA46"/>
<path d="M14.1516 16.9696C15.2811 17.3816 16.4662 17.6628 17.6775 17.8062C17.8261 17.8112 17.9678 17.8628 18.0773 17.9518C18.1867 18.0407 18.2567 18.1611 18.2746 18.2914C18.4547 18.9523 18.6821 19.5965 18.8812 20.2491C18.9475 20.4833 19.0518 20.5921 19.3266 20.4666C19.5541 20.5251 19.6015 20.7008 19.6394 20.8681C19.7626 21.3952 19.9617 21.9139 20.0849 22.4493C20.0849 22.7588 20.3218 23.0433 20.246 23.3612C19.8859 23.5452 19.7437 23.311 19.6679 23.0851C19.6182 22.9229 19.5098 22.7795 19.3592 22.6768C19.2086 22.5741 19.0241 22.5177 18.8338 22.5162C18.3859 22.4648 17.9446 22.3751 17.5163 22.2485C17.3836 22.2067 17.213 22.1983 17.232 22.0226C16.0834 21.0187 15.0776 19.8949 14.2369 18.6763C13.7773 17.9862 13.375 17.2677 13.0332 16.5262L14.1516 16.9696Z" fill="#3C9F47"/>
<path d="M19.1922 37.0059C17.7984 38.1362 16.1955 39.0473 14.4531 39.6997C14.4531 39.4655 14.6996 39.3985 14.7185 39.2229C15.0325 38.6785 15.314 38.12 15.5621 37.5497C15.6189 37.3489 15.8085 37.1481 15.3346 37.0477C15.0123 36.9724 15.3346 36.7549 15.4388 36.6211C16.6141 36.0187 17.7705 35.3997 18.8889 34.7304C19.268 34.5296 19.6755 34.3539 19.9788 34.1531C19.8556 34.2117 19.685 34.3121 19.5144 34.4125C19.4342 34.4611 19.3384 34.4856 19.2412 34.4826C19.1439 34.4796 19.0504 34.4492 18.9742 34.3958C18.5579 34.1792 18.156 33.9417 17.7705 33.6847L17.3534 33.5592C18.5561 32.9374 19.8559 32.4751 21.211 32.1872C22.2715 31.9285 23.3732 31.8268 24.4715 31.886C24.3748 32.0205 24.2367 32.1279 24.0734 32.1955C22.3294 33.0321 20.794 34.1699 19.0405 35.0483C19.7798 35.2742 19.8367 36.437 19.1922 37.0059Z" fill="#0F9647"/>
<path d="M17.2305 22.0477C17.8365 22.2661 18.4749 22.407 19.1261 22.466C19.2857 22.4679 19.4396 22.5192 19.5608 22.6109C19.682 22.7026 19.763 22.829 19.7896 22.9679C19.8464 23.1771 19.8843 23.4197 20.2445 23.3862C20.6047 23.3528 20.5004 23.6037 20.5478 23.7543C20.8321 24.5909 21.2018 25.4275 21.4103 26.2641C21.5348 26.8467 21.8437 27.3862 22.3012 27.8201C22.7467 28.2468 23.0026 28.7738 23.4102 29.2172C23.4697 29.2685 23.5138 29.3321 23.5387 29.4022C23.5635 29.4723 23.5682 29.5467 23.5524 29.6188C22.2131 28.9795 21.0181 28.1288 20.0265 27.109C18.3665 25.5306 16.9572 23.7603 15.8372 21.8469C15.7803 21.7382 15.7329 21.621 15.6855 21.5039C16.1823 21.7231 16.6991 21.905 17.2305 22.0477V22.0477Z" fill="#008C46"/>
<path d="M13.904 32.4297L14.3684 32.1201C11.9888 32.2014 9.61528 31.8541 7.39258 31.0995L8.18874 30.9489C8.64395 30.6894 9.13434 30.4814 9.64836 30.3299C10.2527 30.0852 10.7969 29.7385 11.2502 29.3092C10.9547 29.1661 10.6344 29.0672 10.3023 29.0164C9.43199 28.8137 8.58725 28.5334 7.78118 28.1798C7.6011 28.0711 7.30728 27.9707 7.6011 27.703C7.67576 27.6739 7.75646 27.6589 7.83805 27.6589C7.91964 27.6589 8.00034 27.6739 8.075 27.703C8.90907 28.0292 9.78105 28.2718 10.6436 28.5396C11.0701 28.7403 11.5914 28.665 11.9894 28.9997C12.0463 29.2256 12.2738 29.2172 12.4539 29.2674L15.6385 30.104C16.3304 30.288 16.4157 30.4888 16.0081 30.9406C15.5454 31.4522 15.0211 31.9178 14.4443 32.3293C14.2926 32.4548 14.1125 32.6054 13.904 32.4297Z" fill="#0A9747"/>
<path d="M11.914 29.0081L10.5965 28.6316C10.4638 28.4807 10.2765 28.3744 10.0658 28.3304C9.39234 28.1551 8.73093 27.9456 8.08485 27.703C7.90477 27.6444 7.71521 27.6026 7.62043 27.4269C7.45906 26.7388 7.24047 26.0621 6.96644 25.4024C6.93813 25.3531 6.92338 25.2987 6.92338 25.2434C6.92338 25.1882 6.93813 25.1337 6.96644 25.0845C6.8527 24.9088 6.6821 24.616 6.56836 24.4403C6.56836 24.4403 6.90957 24.4989 7.03279 24.5323C8.56013 24.8105 10.0304 25.2929 11.3927 25.9629C11.5254 26.0298 11.6391 26.1637 11.8287 26.1051C12.0922 26.6048 12.2188 27.1522 12.1983 27.703C12.2931 28.6149 12.2742 28.6149 13.2978 28.824C13.5916 28.8909 14.094 28.824 13.7907 29.3678C13.1372 29.4355 12.4768 29.3089 11.914 29.0081V29.0081Z" fill="#6DB445"/>
<path d="M26.8145 19.6383C26.9356 18.2181 27.4323 16.8428 28.2646 15.6227C28.3783 15.8402 28.4731 16.0075 28.5679 16.1665C29.1372 16.8364 29.7546 17.4735 30.4161 18.0739C30.4938 18.1519 30.5427 18.2489 30.5562 18.352C30.5698 18.4552 30.5473 18.5595 30.4919 18.6511C30.4337 18.7404 30.3985 18.8399 30.3886 18.9425C30.3788 19.0452 30.3947 19.1485 30.4351 19.2451C30.4825 19.7889 30.056 20.1737 29.8285 20.6255C29.6768 20.935 29.4683 21.2362 29.3167 21.5541C29.2507 21.6805 29.1456 21.7878 29.0134 21.8636C28.9284 21.909 28.8302 21.9316 28.7309 21.9287C28.6316 21.9257 28.5355 21.8973 28.4542 21.8469C27.6163 21.3156 27.0319 20.5285 26.8145 19.6383V19.6383Z" fill="#6DB445"/>
<path d="M23.5146 29.6021C22.9649 29.0583 22.6237 28.4058 22.0929 27.8453C21.5925 27.2782 21.2661 26.6069 21.1451 25.896C20.895 25.0412 20.5783 24.2026 20.1973 23.3863L19.9414 22.5497C20.034 22.3894 20.168 22.2505 20.3327 22.1444C20.4974 22.0383 20.688 21.9679 20.8892 21.939C21.202 21.939 21.3157 22.2067 21.4484 22.4075C21.5811 22.6082 21.638 22.7756 21.7707 22.9512C22.1498 23.4616 22.51 23.5201 23.0597 23.152C23.2113 23.0433 23.363 22.9178 23.581 22.968C23.3003 24.3788 23.1796 25.8109 23.2208 27.2429C23.2347 27.9967 23.3785 28.7443 23.6473 29.4599C23.7137 29.5854 23.7137 29.5854 23.5146 29.6021Z" fill="#006C39"/>
<path d="M30.4249 25.1933L31.5338 24.9674C31.1792 25.4515 30.7337 25.8787 30.2164 26.2307C29.3634 26.8832 28.3682 27.3935 27.5625 28.1046C26.5495 28.8813 25.7132 29.8211 25.0982 30.8737C25.0982 30.9323 25.0982 31.0912 24.9276 31.0327C24.757 30.9741 24.8708 30.8904 24.8518 30.8151C24.7899 29.198 25.2607 27.5997 26.2072 26.2139C26.2925 26.0884 26.3872 25.9713 26.4631 25.8458C26.8896 25.1515 26.8896 25.1515 27.7805 25.2602C28.3951 25.2869 29.0111 25.2588 29.6193 25.1766C29.8857 25.1278 30.1613 25.1335 30.4249 25.1933V25.1933Z" fill="#006C39"/>
<path d="M30.4255 25.1933C29.5569 25.3562 28.6675 25.4153 27.7811 25.369C27.6295 25.2602 27.6863 25.1347 27.7811 25.0176C28.2171 24.089 28.7289 23.1771 29.2313 22.2736C29.2881 22.1732 29.3545 22.0728 29.5156 22.0979C30.7591 22.1501 32.0034 22.0114 33.1931 21.688L34.3873 21.2948C33.8179 22.058 33.1842 22.7823 32.4917 23.4616C31.8381 24.0706 31.1484 24.6487 30.4255 25.1933V25.1933Z" fill="#0F9647"/>
<path d="M30.348 19.3371C30.2563 19.2608 30.199 19.1577 30.1868 19.0469C30.1746 18.9362 30.2083 18.8253 30.2817 18.7348C30.5281 18.4085 30.3764 18.191 30.0826 17.8982C29.422 17.422 28.8989 16.8142 28.5566 16.1246C28.7841 16.0493 28.6988 15.8569 28.7272 15.7231C29.0197 14.5249 29.5734 13.3883 30.3575 12.3767C30.6229 12.5859 30.6703 12.8787 30.8409 13.1045C30.9919 13.1702 31.1267 13.2617 31.2374 13.3737C31.348 13.4857 31.4323 13.616 31.4854 13.7571C31.6548 14.0301 31.8448 14.2929 32.0541 14.5435C32.1136 15.013 32.0041 15.4872 31.7413 15.8987C31.6001 16.1595 31.5698 16.4565 31.656 16.7353C31.4285 17.2456 31.201 17.756 30.983 18.2579C30.9776 18.4687 30.9175 18.6755 30.8074 18.8626C30.6973 19.0496 30.5402 19.212 30.348 19.3371V19.3371Z" fill="#94C340"/>
<path d="M7.65751 27.703C7.43003 27.9038 7.65751 27.9456 7.80915 28.0293C8.81977 28.4483 9.8694 28.7898 10.9464 29.0499C11.1454 29.1085 11.4582 29.0499 11.5056 29.2507C11.553 29.4515 11.2402 29.4682 11.1075 29.5853C10.2901 30.2558 9.28619 30.7234 8.19776 30.9406C8.31149 30.6813 8.01767 30.7482 7.92289 30.7147C6.61562 30.2565 5.40946 29.5996 4.35914 28.7738L4.09375 28.5396C4.32122 28.4308 4.53922 28.5396 4.74774 28.5396C4.92988 28.438 5.13904 28.3803 5.35433 28.3723C5.92617 28.3384 6.47966 28.1803 6.96561 27.9122C6.60544 27.6026 6.15997 27.452 5.81876 27.1843C5.64815 27.0588 5.31642 26.9835 5.52494 26.6824C6.30924 26.8863 7.03593 27.2341 7.65751 27.703V27.703Z" fill="#58AA46"/>
<path d="M29.4775 22.1314C28.7938 23.1709 28.2256 24.2663 27.7809 25.4024C27.1459 25.2267 26.8805 25.4693 26.5298 25.9546C25.5535 27.386 25.0025 29.0118 24.928 30.6813C24.9168 30.7413 24.8909 30.7983 24.8522 30.8486C24.6051 30.3412 24.4546 29.8013 24.4067 29.2507C24.1312 27.144 24.3408 25.0098 25.0228 22.9763L25.6104 23.8882C25.9801 24.0221 26.0748 24.3567 26.3118 24.5909C26.5487 24.8252 26.6246 24.8503 26.9184 24.5909C27.553 23.8897 28.0936 23.1261 28.5297 22.3154C28.6085 22.1703 28.7295 22.0462 28.8803 21.9557C28.9729 21.9271 29.0726 21.9222 29.1682 21.9415C29.2638 21.9607 29.3512 22.0033 29.4206 22.0644L29.4775 22.1314Z" fill="#008B46"/>
<path d="M16.1317 27.5189C16.0275 27.3935 15.9327 27.2596 15.8379 27.1341C15.9421 27.0505 16.0275 27.0923 16.1128 27.1341C18.9588 27.7376 21.5742 28.9928 23.6952 30.7733C23.7878 30.8479 23.8734 30.929 23.9511 31.0159C23.9712 31.0159 23.9905 31.0229 24.0047 31.0355C24.019 31.048 24.0269 31.0651 24.0269 31.0828C24.0269 31.1006 24.019 31.1176 24.0047 31.1301C23.9905 31.1427 23.9712 31.1497 23.9511 31.1497C23.8374 31.1497 23.8184 31.1497 23.7426 31.1497C22.8611 30.9322 22.0081 30.6311 21.0982 30.4721C20.5125 30.3137 19.8945 30.2708 19.2879 30.3466C18.8189 30.367 18.3497 30.3102 17.9041 30.1793C17.4448 30.0873 16.9795 30.0203 16.5108 29.9785C16.483 29.9786 16.4555 29.9736 16.43 29.9637C16.4045 29.9539 16.3817 29.9394 16.3629 29.9213C16.3442 29.9032 16.3299 29.8818 16.3211 29.8585C16.3123 29.8352 16.3091 29.8105 16.3118 29.7861C16.4222 29.6367 16.4909 29.4663 16.5124 29.2888C16.5338 29.1114 16.5073 28.9321 16.435 28.7655C16.2443 28.371 16.1414 27.9478 16.1317 27.5189V27.5189Z" fill="#0A9747"/>
<path d="M16.1324 27.519C16.3645 28.029 16.536 28.5589 16.6442 29.1001C16.689 29.2291 16.6779 29.3681 16.6131 29.4902C16.5483 29.6124 16.4344 29.7089 16.2935 29.7611C16.2631 29.8006 16.2188 29.8303 16.1674 29.8454C16.116 29.8605 16.0604 29.8603 16.0092 29.8447C15.3173 29.7527 14.6348 29.6272 13.9524 29.4933C13.8996 29.4859 13.8503 29.4655 13.81 29.4344C13.7698 29.4033 13.7403 29.3629 13.7249 29.3177C13.8671 29.1002 13.7249 29.0165 13.5069 28.9663C13.033 28.8659 12.398 28.9663 12.1326 28.64C11.8672 28.3138 12.0758 27.8536 12.0284 27.4521C11.981 27.0505 11.8672 26.5486 11.7914 26.0968C11.7345 25.9546 11.6872 25.804 11.6113 25.5948C12.3691 25.8269 13.1071 26.1065 13.8197 26.4314C14.4358 26.7159 15.0424 27.0338 15.649 27.3266C15.8196 27.4353 15.9428 27.5859 16.1324 27.519Z" fill="#3BA047"/>
<path d="M15.7043 4.79728C15.5337 5.58367 15.3726 6.37006 15.1925 7.15646C15.1925 7.24012 15.1925 7.35724 15.0503 7.38233C14.9082 7.40743 14.8703 7.29868 14.8134 7.22338C14.4911 6.75489 14.1784 6.27804 13.8656 5.80119C13.7803 5.6757 13.676 5.55021 13.5054 5.32433C13.4631 5.5025 13.4759 5.68745 13.5426 5.85971C13.6094 6.03196 13.7275 6.18515 13.8845 6.30314C13.5528 6.30314 13.4391 6.00197 13.2874 5.79282C12.5559 4.71136 11.6562 3.72575 10.6146 2.86477C10.0655 2.3616 9.44788 1.92043 8.77586 1.55133C8.59578 1.44257 8.25457 1.37564 8.37778 1.05774C10.9827 1.63419 13.3591 2.82908 15.2494 4.51284C15.3726 4.62996 15.4674 4.81401 15.7043 4.79728Z" fill="#A6CB3F"/>
<path d="M37.8185 27.9038C38.0177 27.8356 38.2354 27.821 38.444 27.862C37.0337 28.8639 35.4276 29.6294 33.705 30.1208C33.6035 30.1455 33.5051 30.1791 33.4112 30.2212C33.1742 30.3885 32.9657 30.2212 32.7572 30.171C32.3628 30.0507 31.9943 29.8725 31.6672 29.6439C31.2407 29.3595 31.2312 29.2173 31.6672 28.9997C31.8848 28.9231 32.078 28.8007 32.2299 28.6433C32.3819 28.4858 32.488 28.2981 32.5392 28.0962C33.1837 27.6612 33.9514 27.4019 34.5959 26.9585C35.2238 26.6155 35.8312 26.2441 36.4157 25.8458C36.6518 25.6647 36.9055 25.5023 37.174 25.3606C37.3446 25.2937 37.5247 25.1682 37.6668 25.3606C37.809 25.553 37.6668 25.7036 37.5057 25.804C37.0415 26.1667 36.5507 26.502 36.0366 26.8079C35.7712 26.9585 35.3257 27.1007 35.4016 27.3768C35.4774 27.6528 35.9513 27.6026 36.2546 27.6779C36.5667 27.7338 36.884 27.7646 37.2024 27.77C37.4191 27.7508 37.6366 27.7981 37.8185 27.9038Z" fill="#0F9647"/>
<path d="M28.9649 21.9807C28.649 22.2648 28.4093 22.6079 28.2636 22.9847C27.9697 23.7459 27.2304 24.2479 26.8324 24.9423C26.7281 25.1263 26.6333 25.0427 26.5006 24.9423C26.1208 24.6396 25.8005 24.2834 25.5528 23.8882C25.458 22.3109 25.6761 20.7311 26.1973 19.22C26.2233 19.1046 26.2646 18.9922 26.3206 18.8854L26.766 19.6383C27.1357 20.3723 27.6347 21.05 28.2446 21.6461C28.3582 21.7452 28.5114 21.8008 28.6711 21.8008C28.8308 21.8008 28.9841 21.7452 29.0976 21.6461V21.6461C29.3061 21.7967 29.0597 21.8971 28.9649 21.9807Z" fill="#3C9F47"/>
<path d="M34.3765 17.2373C33.5152 17.5706 32.6284 17.8502 31.7227 18.0739C31.749 17.8274 31.8398 17.5897 31.988 17.3795C32.3161 16.6852 32.5699 15.9654 32.7463 15.2295C32.8032 15.0203 32.9169 14.7526 32.5283 14.6438C32.3861 14.5435 32.4335 14.4012 32.4146 14.2674C32.4883 13.7559 32.6648 13.2601 32.9358 12.8034C33.2012 12.8452 33.1918 13.046 33.2107 13.2049C33.2457 13.5336 33.2136 13.8651 33.1159 14.1837C33.5883 13.7921 34.1174 13.4573 34.6893 13.1882L35.4191 12.5356C35.5173 13.1613 35.5013 13.7968 35.3717 14.418C35.2384 15.2932 34.9371 16.1419 34.4808 16.9277C34.4239 17.0365 34.3196 17.1201 34.3765 17.2373Z" fill="#81BC41"/>
<path d="M32.5579 28.2217C32.7854 28.7655 32.2357 28.8826 31.9039 29.0583C31.3826 29.2842 31.4016 29.3846 31.9039 29.6439C32.3776 29.9187 32.8997 30.1223 33.4488 30.2463L34.3967 30.4554C34.0646 30.7469 33.6482 30.9524 33.1929 31.0494C32.1042 31.3304 30.9713 31.4547 29.8377 31.4175H27.6483C27.0587 31.4368 26.4736 31.5154 25.9043 31.6517C25.983 31.4277 26.1239 31.2246 26.3143 31.0609C26.5047 30.8973 26.7384 30.7783 26.9943 30.7148C27.777 30.4272 28.5315 30.0831 29.2501 29.6858C30.2453 29.2424 31.2594 28.8492 32.2262 28.3138C32.271 28.2787 32.3238 28.2524 32.3809 28.2366C32.4381 28.2207 32.4984 28.2157 32.5579 28.2217V28.2217Z" fill="#006C39"/>
<path d="M8.37802 1.05774C8.63393 1.51786 9.23105 1.61825 9.64808 1.89433C9.98622 2.12873 10.3031 2.38606 10.5959 2.66399C11.9003 3.8356 13.0136 5.16177 13.9037 6.60431C13.9619 6.78694 14.0549 6.95951 14.1786 7.11463C14.2157 7.15604 14.2474 7.20093 14.2734 7.24848C14.3966 7.4409 14.4914 7.64168 14.5956 7.84246C14.6999 8.04324 14.8136 8.11016 14.5956 8.25238L11.7522 7.54129C11.7756 7.50724 11.788 7.46818 11.788 7.42835C11.788 7.38852 11.7756 7.34945 11.7522 7.31541C11.0034 4.94787 10.2168 2.60542 7.70508 0.932251C7.93572 0.940913 8.16312 0.983319 8.37802 1.05774V1.05774Z" fill="#B8D437"/>
<path d="M9.23242 20.8096C12.1706 21.8888 15.052 23.0265 16.8149 25.6618C13.4217 24.9925 11.1849 23.0684 9.23242 20.8096Z" fill="#006C39"/>
<path d="M5.53523 26.6572C5.71531 27.1257 6.27452 27.201 6.64416 27.4938C6.82425 27.636 7.21285 27.6528 7.19389 27.887C7.17494 28.1213 6.79581 28.1213 6.58729 28.2049C6.00281 28.3991 5.3825 28.4955 4.75803 28.4894C1.34592 25.1932 1.56392 24.5909 0.966797 22.5078C1.08053 22.4325 1.23218 22.6165 1.30801 22.6835C1.49089 22.8591 1.65879 23.0464 1.81035 23.244C2.72889 24.4311 3.88521 25.4602 5.22245 26.2808C5.36462 26.3895 5.53523 26.4648 5.53523 26.6572Z" fill="#81BC41"/>
<path d="M16.5211 29.8698C16.8354 29.7864 17.1737 29.8103 17.4689 29.9368C18.72 30.3049 20.0564 29.9368 21.2601 30.33C22.1025 30.4815 22.9163 30.7378 23.677 31.0913C22.16 31.2282 20.6764 31.5725 19.2792 32.1119C18.5008 32.366 17.7025 32.5701 16.8907 32.7226C16.7201 32.5218 16.9571 32.4214 17.0519 32.296C17.1466 32.1705 17.2793 32.0952 17.4026 32.0031C18.0186 31.4343 17.9049 30.9992 17.0898 30.7232L16.6822 30.5893C16.2178 30.4304 16.1799 30.263 16.5211 29.8698Z" fill="#006C39"/>
<path d="M24.5474 31.9277C23.5119 32.8821 22.6344 33.9608 21.9409 35.1319C21.3533 35.9789 20.6248 36.7431 19.7799 37.399C19.5288 37.5885 19.2347 37.7282 18.9174 37.8089C18.9174 37.5078 19.2017 37.2903 19.1922 36.9724C19.3325 36.6849 19.422 36.3802 19.4576 36.0688C19.5903 35.341 19.5335 35.2824 18.5762 35.2323L24.5474 31.9277Z" fill="#006C39"/>
<path d="M5.17506 26.4064C3.92405 25.6269 2.82318 24.675 1.9146 23.5871C1.6587 23.2608 1.49757 22.8509 1.07106 22.6334C0.966797 22.5413 0.966797 22.2653 0.966797 22.2653C2.67285 23.7544 4.81489 24.432 6.9759 25.1013C7.35263 25.8489 7.60483 26.6407 7.72466 27.4521C7.26024 27.5609 6.96642 27.243 6.60625 27.1091C6.10391 26.925 5.70583 26.5988 5.17506 26.4064Z" fill="#94C340"/>
<path d="M19.0794 34.7722C17.8946 35.5 16.6435 36.1442 15.3924 36.7967H15.2597C14.5609 36.9971 13.8824 37.249 13.2314 37.5496C12.9913 37.6661 12.7179 37.7184 12.4447 37.7002C11.9045 37.3572 11.2694 37.1481 10.7481 36.78L10.2363 36.5959C11.3385 35.9892 12.5362 35.5297 13.7906 35.2323C13.9517 35.2323 14.1982 35.2323 14.2645 35.0231C14.7195 34.9562 14.9185 35.2992 15.2123 35.4916C16.0748 36.0772 16.0653 36.1023 16.9752 35.5586C17.4861 35.2421 18.0249 34.9623 18.5865 34.722C18.7476 34.6132 18.9751 34.4543 19.0794 34.7722Z" fill="#6CB545"/>
<path d="M16.52 29.8698C16.2831 30.2797 16.4727 30.4637 16.9466 30.5976C18.1882 30.9406 18.283 31.4927 17.2973 32.2708C17.1361 32.4046 16.9276 32.5301 16.8897 32.7476C15.6921 33.0569 14.4192 33.0569 13.2217 32.7476L13.9041 32.3962C14.7949 31.9689 15.5433 31.343 16.0746 30.5809C16.2736 30.3299 15.9798 30.2797 15.8187 30.2379C14.6244 29.92 13.4302 29.6271 12.236 29.3176C12.0559 29.2674 11.6957 29.3176 11.9137 28.9746L13.743 29.2841C14.5872 29.4817 15.4452 29.6298 16.3115 29.7275L16.52 29.8698Z" fill="#008043"/>
<path d="M37.8173 27.9038C36.9672 27.9377 36.1177 27.8269 35.3151 27.5775C35.0308 27.4855 34.9454 27.4688 35.2108 27.2345C35.7985 26.7159 36.5852 26.398 37.1633 25.896C37.2865 25.7872 37.4666 25.7203 37.5614 25.5697C37.6562 25.4192 37.7225 25.4526 37.6372 25.3773C37.5519 25.302 37.4477 25.3773 37.3529 25.4275C37.2486 25.2267 37.4382 25.1514 37.5614 25.0427C38.2668 24.4761 38.9022 23.8451 39.457 23.1604C39.6181 23.0014 39.7034 22.7588 40.0067 22.7253C40.2342 22.8927 40.0067 23.0349 40.0067 23.1687C39.6247 23.7722 39.1634 24.3338 38.6324 24.8419C38.4906 24.95 38.3773 25.0842 38.3007 25.2351C38.8788 25.4275 39.4286 25.118 39.9973 25.1682L40.5565 25.0511C40.0425 25.8691 39.3833 26.6091 38.604 27.2429C38.3102 27.4688 37.9784 27.611 37.8173 27.9038Z" fill="#58AA46"/>
<path d="M33.8943 25.1264C34.8011 24.3099 35.809 23.5859 36.8989 22.968C37.0695 22.8843 37.2306 22.7839 37.4202 22.6752C37.5529 22.8676 37.4202 23.0098 37.4202 23.1437C37.5407 23.8258 37.5085 24.5221 37.3254 25.1933C36.9062 25.5551 36.4457 25.8775 35.9511 26.1554C35.4573 26.4724 34.9341 26.7523 34.3872 26.992C34.2924 26.992 34.1882 26.992 34.1597 26.9083C33.8464 26.3577 33.7529 25.7298 33.8943 25.1264V25.1264Z" fill="#6DB445"/>
<path d="M23.5711 22.9345C23.4053 23.0237 23.2525 23.1304 23.1161 23.2524C22.9768 23.404 22.7755 23.5013 22.5556 23.5232C22.3358 23.5451 22.115 23.4899 21.9408 23.3695C21.8598 23.3118 21.7922 23.2408 21.7418 23.1604C21.4195 22.7839 21.3058 22.3238 20.9456 21.9389C20.9433 21.9009 20.9537 21.8632 20.9756 21.8304C20.9976 21.7977 21.03 21.7714 21.0689 21.7549C21.9009 21.2073 22.6357 20.5531 23.2488 19.814L24.1966 18.7264C24.2931 20.1515 24.0808 21.5797 23.5711 22.9345V22.9345Z" fill="#008043"/>
<path d="M33.8934 25.1264C33.9454 25.7613 34.0595 26.3911 34.2346 27.0087C33.9313 27.5525 33.2868 27.6696 32.7466 27.9624C32.557 28.0795 32.2821 28.1046 32.2821 28.3723C31.3174 28.8922 30.3172 29.3588 29.2871 29.7694C29.0217 29.5937 29.2207 29.4682 29.3534 29.3679C29.5988 29.1789 29.8816 29.0314 30.1875 28.9328C30.3462 28.8935 30.4823 28.8027 30.5684 28.6786C30.6545 28.5545 30.6843 28.4062 30.6519 28.2636C30.6237 28.0607 30.6237 27.8557 30.6519 27.6529C30.6519 27.4855 30.6519 27.2931 30.8983 27.2262C31.7779 26.3174 32.7451 25.4776 33.7892 24.7164C33.8365 24.7752 33.87 24.8418 33.8879 24.9121C33.9058 24.9825 33.9077 25.0553 33.8934 25.1264V25.1264Z" fill="#3BA047"/>
<path d="M15.3355 36.713L15.3924 36.7967C15.2218 37.0644 15.3924 37.0142 15.5535 36.9222C15.7146 36.8301 15.8852 36.9222 15.8284 37.1146C15.6761 37.8898 15.2971 38.6165 14.7289 39.2228C13.5967 39.6111 12.4051 39.8479 11.1936 39.9255H10.8145L11.1462 39.6829C11.2826 39.4485 11.4548 39.2318 11.658 39.0387C11.8489 38.8825 11.9993 38.6917 12.0991 38.4795C12.1989 38.2673 12.2456 38.0386 12.2362 37.8089C13.2882 37.5245 14.236 37.0142 15.3355 36.713Z" fill="#58AA46"/>
<path d="M30.909 27.2262C30.7491 27.5593 30.7159 27.9291 30.8142 28.2803C30.8386 28.3599 30.8449 28.443 30.8329 28.5249C30.8208 28.6067 30.7906 28.6856 30.7439 28.7571C30.6972 28.8286 30.6351 28.8912 30.5609 28.9415C30.4868 28.9917 30.4022 29.0286 30.3119 29.0499H30.2171C29.9191 29.1592 29.6386 29.3027 29.383 29.4766C29.3574 29.4858 29.334 29.4994 29.3144 29.5166C29.2947 29.5338 29.2791 29.5543 29.2685 29.5769C29.2579 29.5994 29.2526 29.6237 29.2527 29.6481C29.2528 29.6725 29.2585 29.6967 29.2693 29.7192C28.5677 30.1571 27.7984 30.5036 26.9851 30.7482C26.5296 30.9381 26.1353 31.2257 25.8382 31.5848L25.5918 31.7354C26.8096 29.6919 28.6689 28.0015 30.9469 26.8665C30.9374 26.9585 30.9185 27.0923 30.909 27.2262Z" fill="#008C46"/>
<path d="M19.0786 34.7722C18.9269 34.6132 18.8037 34.7304 18.6615 34.7722C17.95 35.0807 17.2657 35.4358 16.6143 35.8347C16.5419 35.8997 16.4557 35.9513 16.3605 35.9866C16.2653 36.0218 16.1631 36.04 16.0598 36.04C15.9566 36.04 15.8544 36.0218 15.7592 35.9866C15.664 35.9513 15.5777 35.8997 15.5053 35.8347L15.42 35.751C15.0586 35.4473 14.6721 35.1676 14.2637 34.9144C14.2066 34.9095 14.1522 34.8904 14.1069 34.8593C14.0616 34.8282 14.0273 34.7864 14.0078 34.7387C15.2444 34.3131 16.5108 33.9582 17.799 33.6763C18.1606 33.7359 18.492 33.8938 18.7468 34.128C18.8086 34.1837 18.8824 34.2279 18.9637 34.2581C19.0451 34.2882 19.1325 34.3038 19.2208 34.3038C19.309 34.3038 19.3964 34.2882 19.4778 34.2581C19.5592 34.2279 19.6329 34.1837 19.6947 34.128V34.128C19.9032 33.9858 20.1117 33.785 20.5003 33.8771L19.0786 34.7722Z" fill="#3BA047"/>
<path d="M34.6898 13.1966C34.1653 13.6319 33.6045 14.0318 33.0121 14.3929C33.0121 13.9913 33.088 13.6651 33.0785 13.3472C33.0785 13.1799 33.1638 12.9623 32.8984 12.8536C32.633 12.7448 32.7847 12.5775 32.8036 12.4353C32.8572 11.9823 32.8826 11.5271 32.8795 11.0717C32.8736 10.0261 32.7143 8.98568 32.4055 7.97628C32.3961 7.8314 32.3961 7.68615 32.4055 7.54126C33.6666 9.08149 34.4329 10.8938 34.6234 12.7867C34.6362 12.9243 34.6584 13.0612 34.6898 13.1966V13.1966Z" fill="#A6CB3F"/>
<path d="M25.2115 32.8313C25.0331 33.1656 24.878 33.5092 24.7471 33.8603L24.5765 33.9272C24.0335 34.1589 23.519 34.4392 23.041 34.7638L23.1927 34.5295C23.6536 33.8293 24.2654 33.2154 24.9935 32.7225C25.1451 32.6472 25.1546 32.6556 25.2115 32.8313Z" fill="#2A9A47"/>
<path d="M25.2779 18.1325C24.4533 15.7064 25.2779 13.6065 26.311 11.5402C26.6333 13.7738 26.7375 15.9908 25.2779 18.1325Z" fill="#008043"/>
<path d="M7.02344 35.2323C9.32661 34.2033 11.6772 33.3082 14.5016 33.6763C12.17 35.0817 9.64886 35.2992 7.02344 35.2323Z" fill="#006C39"/>
<path d="M32.4048 7.97632C32.7923 8.64334 32.9845 9.38534 32.964 10.1347C32.983 10.4468 32.983 10.7596 32.964 11.0717C32.866 12.154 32.6437 13.2248 32.3006 14.2675C32.2247 14.418 32.3006 14.6355 32.0162 14.7025C31.4286 14.2758 31.2769 13.6065 30.8125 13.113C31.9105 11.5787 32.4649 9.79024 32.4048 7.97632V7.97632Z" fill="#B8D437"/>
<path d="M12.217 37.9512C12.3687 38.1102 12.4635 38.244 12.2834 38.4699C11.9713 38.9223 11.5884 39.3335 11.146 39.6913C11.146 39.4404 10.9659 39.5491 10.8711 39.5575C9.0751 39.5712 7.31331 39.1236 5.80037 38.2691C5.73526 38.227 5.68577 38.1688 5.6582 38.1018H5.90463C7.18273 38.3316 8.49264 38.3908 9.79064 38.2775C10.4446 38.2022 11.0891 38.06 11.7431 37.9429C11.8948 37.8927 12.0749 37.7421 12.217 37.9512Z" fill="#80BC42"/>
<path d="M39.9413 25.1933C39.4499 25.3941 38.9074 25.4777 38.3679 25.4359C38.2447 25.4359 38.0836 25.4359 38.0267 25.3271C37.9699 25.2184 38.112 25.1431 38.1973 25.0594C38.9635 24.3962 39.5838 23.6133 40.0266 22.7505C39.8276 22.5078 40.0266 22.3322 40.1688 22.1565C40.5782 21.5011 40.8964 20.8045 41.1166 20.0817C41.3725 19.8057 41.3725 19.7387 41.3914 20.2909C41.4166 21.3168 41.2534 22.3395 40.9081 23.3193C40.662 23.9725 40.3379 24.6007 39.9413 25.1933V25.1933Z" fill="#81BC41"/>
<path d="M41.1348 20.0734C41.0971 20.7245 40.8685 21.3558 40.4713 21.9055C40.3386 22.1899 40.0353 22.3991 40.0258 22.7421C39.8575 22.8845 39.7138 23.048 39.5993 23.2273C39.3434 23.2775 39.2676 23.495 39.1349 23.654C38.6559 24.1632 38.1261 24.6336 37.552 25.0594C37.5221 25.0757 37.4877 25.0843 37.4525 25.0843C37.4174 25.0843 37.3829 25.0757 37.353 25.0594C37.2677 24.4174 37.2677 23.7689 37.353 23.1269C37.8648 23.0349 38.1397 22.6501 38.5093 22.3991C39.5212 21.7542 40.4078 20.9688 41.1348 20.0734V20.0734Z" fill="#94C340"/>
<path d="M9.74435 38.3528C8.47514 38.5449 7.17159 38.4528 5.95312 38.0851C7.50441 37.8738 9.01585 37.477 10.4457 36.9055C10.5595 36.9055 10.6637 36.8051 10.7775 36.7549C11.4104 36.9224 11.9954 37.2076 12.493 37.5915C12.3508 37.901 11.9907 37.8843 11.7253 37.9596C11.0713 38.1185 10.4457 38.2524 9.74435 38.3528Z" fill="#94C340"/>
<path d="M39.0981 18.7516C37.8725 20.7005 36.1045 22.3417 33.9609 23.5201C35.1562 21.5517 36.9309 19.9043 39.0981 18.7516V18.7516Z" fill="#008043"/>
<path d="M31.9512 32.0115C33.841 31.308 35.9435 31.1842 37.9224 31.6601C36.0439 32.4047 33.925 32.5294 31.9512 32.0115V32.0115Z" fill="#006C39"/>
<path d="M20.0834 38.0015C19.2886 39.6721 17.8752 41.0553 16.0742 41.9251C16.9314 40.29 18.3291 38.9223 20.0834 38.0015V38.0015Z" fill="#006C39"/>
<path d="M28.0744 32.9484H27.9891C27.5595 33.0154 27.1424 33.099 26.738 33.1994C26.6527 33.1158 26.5769 33.0237 26.5011 32.9401C26.302 32.7142 26.0461 32.5469 25.8281 32.3377C25.9993 32.2619 26.191 32.2296 26.3818 32.2443C26.5726 32.2591 26.755 32.3204 26.9086 32.4214C27.2688 32.5887 27.6195 32.7644 27.9986 32.9066L28.0744 32.9484Z" fill="#006C39"/>
<path d="M29.6103 32.4464C29.4681 32.5635 29.3259 32.689 29.1743 32.7978C29.0226 32.9065 28.6435 33.1491 28.2928 32.9484C28.1506 32.8647 28.0559 32.9484 27.9895 33.032C27.5188 32.8575 27.06 32.6592 26.6152 32.4381C26.3744 32.3232 26.0933 32.2933 25.8285 32.3544C25.7148 32.3126 25.6105 32.2456 25.8285 32.2122C27.0864 31.9453 28.4069 32.0271 29.6103 32.4464V32.4464Z" fill="#008D46"/>
<path d="M16.5487 13.0795C16.2454 12.2429 15.9421 11.4063 15.6009 10.5697C15.5914 10.4947 15.5914 10.4189 15.6009 10.3438C15.7051 10.2602 15.7904 10.1598 15.9421 10.1431L16.9657 12.6528C17.0415 12.9122 17.1079 13.1799 17.1742 13.4392C17.0794 13.5982 16.9846 13.7571 16.7477 13.5731L16.5487 13.0795Z" fill="#B1CF57"/>
<path d="M15.952 10.1347C15.8762 10.2518 15.8288 10.4024 15.6108 10.3355C15.2127 9.67457 15.0516 8.93001 14.5872 8.30257C14.5208 7.94284 14.2081 7.67513 14.1133 7.32376C14.1891 7.20664 14.3123 7.23174 14.4261 7.24847C14.6289 7.47977 14.7918 7.73632 14.9094 8.00977L15.952 10.1347Z" fill="#C7D77E"/>
<path d="M21.0696 21.7548C21.072 21.7928 21.0615 21.8306 21.0396 21.8634C21.0177 21.8961 20.9852 21.9224 20.9464 21.9389L19.9986 22.5161C19.7711 21.8469 19.6668 21.1441 19.373 20.4916C19.155 19.5881 18.937 18.6846 18.7285 17.7727C19.3446 17.4297 19.3256 17.4381 19.5626 18.0571C19.9701 19.1447 20.3872 20.2239 20.8232 21.3114C20.8861 21.467 20.9687 21.6157 21.0696 21.7548Z" fill="#007F41"/>
<path d="M16.7578 13.5312C16.9379 13.5898 17.0516 13.4643 17.1843 13.3973C17.617 14.4161 17.9747 15.4584 18.2553 16.5178C18.3217 16.7437 18.407 16.9696 18.4733 17.1954C18.2743 17.3126 18.0374 17.5217 17.9141 17.1452C17.5161 15.9406 17.1369 14.7359 16.7578 13.5312Z" fill="#9BC541"/>
<path d="M14.4259 7.23181L14.1132 7.3071L13.8193 6.78842C12.8801 5.33969 11.7918 3.97029 10.5684 2.69751C11.2777 3.18543 11.8978 3.76667 12.4071 4.42088C12.9284 5.03159 13.3549 5.67576 13.8762 6.3032C13.952 6.41196 14.1985 6.83025 14.3785 7.13979C14.3999 7.16796 14.416 7.19905 14.4259 7.23181V7.23181Z" fill="#DFE4A0"/>
<path d="M32.0555 14.7025C32.1124 14.5519 32.1693 14.4013 32.2356 14.2591C32.2834 14.2422 32.3358 14.2379 32.3862 14.2469C32.4367 14.2558 32.4832 14.2775 32.52 14.3093V14.6523L31.6575 16.7605C31.6056 16.7382 31.5592 16.707 31.521 16.6688C31.4829 16.6306 31.4537 16.5861 31.4352 16.5378C31.4166 16.4896 31.4092 16.4386 31.4132 16.3877C31.4171 16.3369 31.4325 16.2873 31.4584 16.2418V16.2418C31.7238 15.7315 31.866 15.2044 32.0555 14.7025Z" fill="#B5D15D"/>
<path d="M31.4383 18.2663C31.3056 18.1409 31.135 18.2663 30.9929 18.2663L30.3484 19.3372C30.0924 20.0901 28.974 21.8469 28.9551 21.9724C29.0907 22.0386 29.2468 22.065 29.4005 22.0477L29.5617 21.7298C30.2252 20.7189 30.8202 19.6741 31.3436 18.601C31.4099 18.5006 31.5615 18.3835 31.4383 18.2663Z" fill="#3C9F47"/>
<path d="M8.14126 27.6444L10.2928 28.2635C10.5013 28.322 10.6529 28.4057 10.5961 28.6316C9.71526 28.4241 8.85847 28.144 8.037 27.795C8.01804 27.703 8.02752 27.6528 8.14126 27.6444Z" fill="#94C340"/>
<path d="M8.14242 27.6445C8.11338 27.7029 8.07849 27.7589 8.03816 27.8118L7.65904 27.703C6.97662 27.3098 6.18994 27.0756 5.53595 26.6489L5.17578 26.3979C5.46012 26.3478 5.63073 26.5485 5.83925 26.6406C6.43621 26.9772 7.07157 27.2576 7.73486 27.4771C7.82016 27.5943 8.00973 27.5775 8.14242 27.6445Z" fill="#B8D16B"/>
<path d="M32.2444 28.3723C31.7611 28.0627 32.3013 28.0042 32.4245 27.9623C33.0463 27.6916 33.6395 27.3724 34.1969 27.0086L35.903 26.0298C36.1589 26.1051 37.2204 25.1263 37.4858 25.1932C35.9195 26.2762 34.273 27.2656 32.5572 28.1547L32.2444 28.3723Z" fill="#86BD41"/>
<path d="M36.5658 25.9127C36.4047 25.988 36.253 26.0716 36.1014 26.1553C35.9497 26.2389 35.9118 26.1553 35.9023 26.0633C36.4312 25.7898 36.9185 25.4581 37.3525 25.0761C37.9883 24.6459 38.5558 24.1422 39.0396 23.5786C39.0965 23.5033 39.9116 22.6834 39.9874 22.742C39.1696 23.6968 38.2697 24.5946 37.2956 25.4275L36.5658 25.9127Z" fill="#C6D680"/>
<path d="M32.5187 14.3177L32.2344 14.2675C32.536 13.3197 32.7484 12.3515 32.8694 11.3729C32.8668 11.3186 32.8773 11.2644 32.9002 11.2139C32.9231 11.1635 32.9578 11.1178 33.0021 11.0801C33.0099 11.6754 32.9751 12.2706 32.8978 12.862C32.8097 13.3544 32.683 13.8408 32.5187 14.3177V14.3177Z" fill="#CDDA83"/>
<path d="M9.74414 38.3528L11.9715 37.7421C12.1421 37.6919 12.2937 37.6166 12.4643 37.5496C13.4029 37.3075 14.3136 36.9882 15.1846 36.5959C15.3741 36.529 15.3646 36.529 15.3552 36.7131C14.353 37.1953 13.3105 37.6092 12.2369 37.9512C11.4215 38.1517 10.5872 38.2862 9.74414 38.3528Z" fill="#AECD56"/>
<path d="M75.7105 15.263C77.0721 14.9691 78.5074 15.1052 79.7671 15.6479C80.4173 15.8955 80.9974 16.2669 81.4661 16.7354C81.9347 17.204 82.2802 17.7582 82.4778 18.3584C82.3357 18.9106 82.0892 19.6635 81.767 20.6339C81.3689 21.847 80.9613 23.2106 80.5822 24.6579C80.2116 25.9521 80.0144 27.2802 79.9946 28.615C79.9372 29.0708 80.0094 29.5321 80.2047 29.9571C80.4 30.3822 80.7121 30.7576 81.113 31.0494C81.162 31.0633 81.2072 31.0861 81.2457 31.1164C81.2588 31.1321 81.2658 31.1512 81.2658 31.1707C81.2658 31.1903 81.2588 31.2093 81.2457 31.2251C81.2457 31.2753 81.1604 31.3255 81.0372 31.3841C78.6866 32.3712 76.791 32.6724 75.5967 32.2876C74.9855 32.0905 74.4438 31.7547 74.0261 31.3142C73.6085 30.8736 73.3297 30.3437 73.2178 29.7778C72.8661 28.3237 72.7924 26.8279 72.9998 25.3523C71.9123 27.5451 70.241 29.4737 68.128 30.9741C66.7189 32.0352 64.908 32.5879 63.0573 32.5218C62.5467 32.4615 62.059 32.297 61.6329 32.0415C61.2068 31.7859 60.854 31.4462 60.6024 31.0494C59.983 30.0673 59.6386 28.9688 59.5978 27.8453C59.5148 26.4577 59.6714 25.067 60.0622 23.7209C60.566 21.9166 61.4537 20.2132 62.6781 18.7014C63.9303 17.1597 65.6203 15.9363 67.5783 15.1543C68.6456 14.7127 69.8251 14.5253 70.9999 14.6105C71.4832 14.6358 71.9541 14.7554 72.3786 14.9609C72.8031 15.1663 73.1707 15.4524 73.4547 15.7985C73.7495 16.2537 73.9322 16.7588 73.991 17.2806C74.0498 17.8024 73.9833 18.3293 73.7959 18.8269C73.0465 18.5775 72.2414 18.4861 71.4449 18.5602C70.6484 18.6343 69.8826 18.8717 69.2085 19.2536C68.0176 20.0258 67.111 21.0909 66.6021 22.3155C66.1117 23.3754 65.8979 24.5191 65.9765 25.6618C66.0997 26.6574 66.5452 27.1426 67.3034 27.1258C68.0617 27.1091 69.1991 26.2056 70.5544 24.4153C72.601 21.5172 74.3276 18.4524 75.7105 15.263V15.263Z" fill="white"/>
<path d="M90.1451 15.447C90.8085 15.6973 91.4002 16.0749 91.8773 16.5525C92.3544 17.0301 92.7049 17.5955 92.9033 18.2077C92.7611 18.8268 92.5905 19.4793 92.4104 20.182C94.0465 18.1967 96.0528 16.4711 98.3437 15.0789V15.0789C99.6823 14.7918 101.093 14.9434 102.315 15.5055C102.96 15.768 103.532 16.1531 103.989 16.6333C104.446 17.1134 104.778 17.6767 104.959 18.283C104.666 19.5379 104.305 20.9015 103.86 22.3906C103.5 23.587 103.168 24.7665 102.912 25.9127C102.589 27.005 102.43 28.1301 102.438 29.259C102.411 29.6542 102.499 30.0489 102.695 30.405C102.891 30.7612 103.188 31.0666 103.557 31.2919C103.587 31.3209 103.627 31.3413 103.67 31.3505C103.729 31.3907 103.782 31.4355 103.831 31.4843V31.6182C103.739 31.6943 103.637 31.7616 103.528 31.819C102.64 32.2966 101.637 32.5832 100.599 32.6556C99.545 32.7476 98.4843 32.5457 97.5665 32.0783C97.0738 31.8028 96.6555 31.4353 96.3411 31.0017C96.0267 30.568 95.8238 30.0789 95.7467 29.5685C95.4706 28.2644 95.3973 26.9331 95.5287 25.6115C95.708 23.6718 96.0887 21.7507 96.6661 19.8725C95.1491 21.444 93.7285 23.0861 92.4104 24.7916C91.3226 26.1186 90.4397 27.5675 89.785 29.1001C89.6077 29.9032 89.6499 30.732 89.9082 31.5178C89.9051 31.5428 89.9051 31.5681 89.9082 31.5931V31.66C89.8876 31.6838 89.8618 31.7037 89.8324 31.7186C89.3116 32.0867 88.6965 32.3366 88.041 32.4464C87.4558 32.5562 86.8564 32.5956 86.2591 32.5635C84.0887 32.4715 82.9039 30.9656 82.7049 28.0209C82.5058 25.0761 83.5863 20.7509 85.9369 15.0119C87.353 14.7019 88.8485 14.8565 90.1451 15.447V15.447Z" fill="white"/>
<path d="M112.875 15.4471C113.542 15.6932 114.138 16.0695 114.617 16.5475C115.096 17.0256 115.447 17.5932 115.643 18.2078C115.5 18.8269 115.339 19.4794 115.15 20.1821C116.792 18.1985 118.801 16.4733 121.093 15.079H121.14C122.479 14.7919 123.89 14.9435 125.111 15.5056C125.753 15.771 126.322 16.1571 126.777 16.6369C127.232 17.1167 127.563 17.6786 127.746 18.2831C127.462 19.538 127.092 20.9016 126.647 22.3907C126.287 23.587 125.964 24.7666 125.699 25.9128C125.376 27.0051 125.217 28.1302 125.225 29.2591C125.193 29.6548 125.279 30.051 125.475 30.4079C125.672 30.7648 125.971 31.0697 126.343 31.292C126.372 31.319 126.408 31.3392 126.448 31.3506C126.51 31.3862 126.565 31.4316 126.609 31.4844V31.6183C126.523 31.7013 126.42 31.7694 126.305 31.8191C125.417 32.2967 124.414 32.5833 123.377 32.6556C122.323 32.7437 121.263 32.5421 120.344 32.0784C119.838 31.8092 119.406 31.4446 119.078 31.0107C118.75 30.5768 118.535 30.0844 118.448 29.5686C118.172 28.2645 118.099 26.9332 118.23 25.6116C118.445 23.6739 118.851 21.7564 119.443 19.881C117.923 21.4524 116.5 23.0944 115.178 24.8001C114.09 26.1271 113.208 27.5759 112.553 29.1085C112.373 29.9119 112.418 30.742 112.686 31.5263V31.6015C112.695 31.6231 112.695 31.647 112.686 31.6685V31.6685L112.61 31.727C112.093 32.0965 111.481 32.3467 110.828 32.4549C110.239 32.5648 109.637 32.6042 109.036 32.572C106.875 32.48 105.691 30.9741 105.482 28.0293C105.274 25.0845 106.364 20.7594 108.714 15.0204C110.114 14.7183 111.591 14.8697 112.875 15.4471V15.4471Z" fill="white"/>
<path d="M144.189 15.263C145.551 14.9733 146.985 15.1093 148.246 15.6479C148.9 15.8909 149.484 16.2607 149.955 16.7299C150.426 17.199 150.771 17.7556 150.966 18.3584C150.824 18.9106 150.587 19.6635 150.255 20.6339C149.838 21.8637 149.44 23.2106 149.042 24.6579C148.671 25.9521 148.474 27.2802 148.454 28.615C148.393 29.0763 148.466 29.5438 148.664 29.9739C148.863 30.4039 149.182 30.7826 149.592 31.0745C149.641 31.0884 149.686 31.1112 149.724 31.1415C149.737 31.1572 149.744 31.1763 149.744 31.1958C149.744 31.2154 149.737 31.2344 149.724 31.2502C149.724 31.3004 149.639 31.3506 149.516 31.4092C147.118 32.3963 145.298 32.6975 144.075 32.3127C143.464 32.1156 142.922 31.7798 142.505 31.3392C142.087 30.8987 141.808 30.3688 141.696 29.8029C141.328 28.337 141.241 26.8268 141.44 25.3355C140.349 27.5287 138.675 29.4572 136.559 30.9574C135.154 32.0194 133.346 32.5724 131.498 32.5051C130.995 32.4435 130.515 32.2801 130.096 32.0276C129.677 31.775 129.329 31.4402 129.081 31.0494C128.462 30.0673 128.117 28.9687 128.076 27.8453C127.993 26.4577 128.15 25.067 128.541 23.7209C129.039 21.9147 129.927 20.2104 131.157 18.7014C132.409 17.1597 134.099 15.9363 136.057 15.1543C137.124 14.7127 138.304 14.5253 139.478 14.6105C139.961 14.6392 140.43 14.7603 140.854 14.9655C141.278 15.1706 141.646 15.4549 141.933 15.7985C142.228 16.2537 142.411 16.7588 142.47 17.2806C142.528 17.8024 142.462 18.3293 142.274 18.8269C141.52 18.5822 140.711 18.4971 139.913 18.5784C139.114 18.6598 138.349 18.9054 137.678 19.2954C136.487 20.0677 135.58 21.1327 135.071 22.3573C134.577 23.4162 134.363 24.5607 134.446 25.7036C134.569 26.6992 135.014 27.1844 135.772 27.1677C136.531 27.1509 137.668 26.2474 139.023 24.4571C141.076 21.5461 142.806 18.4671 144.189 15.263V15.263Z" fill="white"/>
<path d="M61.807 10.7956C61.7144 9.33183 61.0667 7.9381 59.9682 6.83852C58.6179 5.64183 56.7918 4.95749 54.8785 4.9311C52.3603 4.78065 49.8478 5.28996 47.6562 6.39513C45.4767 7.51906 43.5699 9.0116 42.0452 10.7872C40.5104 12.558 39.2571 14.5058 38.3203 16.5764C37.9317 17.5217 37.5526 18.4503 37.2588 19.3371C37.7801 18.9774 38.3013 18.6511 38.8037 18.3416C38.9084 18.2767 39.0351 18.2455 39.1628 18.2531C39.2904 18.2607 39.4112 18.3067 39.5051 18.3834C39.5971 18.4608 39.6559 18.564 39.6714 18.6753C39.687 18.7867 39.6583 18.8993 39.5904 18.9941C38.7208 20.2749 37.6662 21.4504 36.4531 22.4911V22.6835L36.6616 22.5663L36.9839 22.3907L37.164 22.2819C37.2243 22.2455 37.2923 22.2201 37.3639 22.2072C37.4355 22.1943 37.5093 22.1941 37.581 22.2066C37.6938 22.2297 37.7962 22.2822 37.8748 22.3572C37.9943 22.2502 38.1209 22.1496 38.254 22.056C39.2062 21.436 40.0357 20.6813 40.7088 19.8223C40.7509 19.7678 40.8056 19.7217 40.8693 19.6871C40.933 19.6525 41.0043 19.6302 41.0784 19.6216C41.1716 19.5916 41.2707 19.5788 41.3698 19.5838C41.4688 19.5889 41.5656 19.6116 41.6543 19.6508C41.743 19.6899 41.8217 19.7446 41.8856 19.8115C41.9496 19.8784 41.9974 19.9561 42.0262 20.0399C42.0454 20.1283 42.0454 20.2191 42.0262 20.3076C42.0349 21.3777 41.8656 22.4431 41.5239 23.4699C41.3724 23.9046 41.1724 24.3249 40.9268 24.7247L41.0121 24.8C41.0765 24.8728 41.116 24.9602 41.1261 25.0521C41.1362 25.1439 41.1163 25.2364 41.069 25.3187C40.5221 26.1795 39.8248 26.9588 39.0027 27.6277V27.6277C39.0305 27.67 39.0528 27.7149 39.0691 27.7616C39.092 27.85 39.0864 27.9423 39.0529 28.0281C39.0194 28.1139 38.9593 28.1896 38.8795 28.2468C38.2024 28.7172 37.4864 29.1423 36.7375 29.5184C36.9047 30.0481 37.1333 30.5611 37.4199 31.0493C37.66 31.0905 37.8974 31.1436 38.1307 31.2083C38.2284 31.2385 38.3147 31.292 38.38 31.3629C38.4452 31.4338 38.4869 31.5193 38.5004 31.6099C38.5139 31.6994 38.4979 31.7904 38.4541 31.872C38.4104 31.9537 38.3409 32.0224 38.254 32.07C38.4769 32.2921 38.7246 32.4939 38.9932 32.6723C40.6147 33.7735 42.6401 34.3069 44.6801 34.1698C46.9543 34.0595 49.1765 33.5264 51.201 32.6054C53.207 31.7373 54.9832 30.5058 56.414 28.9913C56.8844 28.5584 57.2121 28.0204 57.3618 27.4353C57.3618 27.0839 57.0869 27.0337 56.4993 27.2847C53.5326 28.9579 51.1631 29.7945 49.3717 29.7945C48.6347 29.8717 47.8888 29.744 47.238 29.429C46.5873 29.1141 46.0641 28.6276 45.7416 28.0376C45.0663 26.4828 44.9569 24.7809 45.4289 23.1687C46.02 20.7892 47.007 18.5 48.3576 16.3756C49.1703 15.0367 50.2379 13.8311 51.5138 12.8117C52.727 11.858 53.6843 11.423 54.3572 11.4983C54.7134 11.5653 55.0328 11.738 55.2622 11.9877C55.4916 12.2373 55.6171 12.5489 55.6178 12.8703C55.636 13.694 55.4002 14.5066 54.9354 15.2211C54.4353 16.0779 53.738 16.833 52.8881 17.4381C52.0865 18.0245 51.0855 18.3573 50.0447 18.3834H49.9499C49.9162 18.3968 49.8893 18.4206 49.8741 18.4503C49.8553 18.4963 49.8553 18.5466 49.8741 18.5926C50.6039 20.1486 51.5043 21.1023 52.5848 21.4788C53.125 21.6568 53.7029 21.7281 54.2777 21.6877C54.8525 21.6472 55.4102 21.4959 55.9116 21.2445C57.1356 20.6605 58.205 19.8535 59.0489 18.877C59.9993 17.8328 60.734 16.6491 61.2193 15.3801C61.7592 13.9017 61.9589 12.343 61.807 10.7956V10.7956Z" fill="white"/>
<path d="M21.4776 37.6918C21.3734 37.6918 21.2123 37.6918 21.3355 37.5412C21.6767 37.0226 22.3591 36.5792 22.4349 36.0856C22.56 35.5489 22.812 35.0415 23.1742 34.5965C23.615 33.9466 24.1943 33.3784 24.8803 32.9233C25.0224 32.8229 25.0224 32.8313 25.0888 32.9902C24.8246 33.4302 24.6422 33.9047 24.5485 34.3957C24.4158 34.998 24.2452 35.5836 24.0462 36.1692C24.032 36.2201 24.0061 36.2678 23.9703 36.3095C23.9344 36.3512 23.8893 36.3861 23.8377 36.4118C23.5818 36.5039 23.5249 36.713 23.4586 36.9138C23.3909 37.1278 23.2988 37.3353 23.1837 37.5329C23.0984 37.6667 22.9941 37.8006 22.7951 37.7755C22.3538 37.7896 21.9121 37.7616 21.4776 37.6918V37.6918Z" fill="#2A9A47"/>
<path d="M25.9796 33.4086C26.7568 34.2452 27.7615 35.408 28.5387 36.2446C28.8041 36.5374 29.0505 36.8386 29.3064 37.1397C29.3873 37.2151 29.4516 37.303 29.496 37.3991C29.5623 37.6501 29.0031 38.1018 28.4723 38.2357C27.9416 38.3695 27.7804 38.2357 27.6288 37.8676C27.3444 37.0812 27.0127 36.3115 26.7284 35.5335C26.5199 34.9479 26.1597 34.0109 25.9512 33.4253L25.9796 33.4086Z" fill="#006C39"/>
<path d="M22.4812 40.9127C21.9315 41.0047 21.5334 41.4983 20.9931 41.6489C20.2506 41.9535 19.4566 42.1485 18.6426 42.2262C19.427 41.5797 20.0696 40.8111 20.5382 39.959C20.5951 39.867 20.6519 39.6076 20.4813 39.4905C20.7183 39.2061 21.2017 39.4152 21.5239 39.3901C21.7116 39.3863 21.8938 39.3334 22.0473 39.2381C22.2009 39.1427 22.3189 39.0093 22.3864 38.8547C22.5475 38.5535 22.6802 38.244 22.8698 37.9596C22.9741 37.8006 23.0878 37.6249 23.3342 37.8257C23.1935 38.4984 22.8681 39.1303 22.3864 39.6662C22.2727 39.7749 22.121 39.8502 22.0642 39.9674C22.1684 39.8753 22.2822 39.6997 22.4907 39.8921C22.58 40.0509 22.6257 40.2261 22.624 40.4034C22.6224 40.5807 22.5734 40.7552 22.4812 40.9127V40.9127Z" fill="#8CC140"/>
<path d="M23.8281 36.3533C24.1309 35.6646 24.3501 34.9495 24.482 34.22C24.5303 33.7683 24.7547 33.3455 25.1171 33.0237C25.1671 33.817 25.3036 34.6042 25.5246 35.3745C25.7381 36.0653 25.6949 36.7984 25.4014 37.466C25.2498 37.399 25.2687 37.2568 25.1929 37.1732C24.9537 36.8659 24.6737 36.585 24.3588 36.3366C24.142 36.7191 23.952 37.113 23.7901 37.5162C23.6954 37.6835 23.6574 37.9595 23.3068 37.8592C23.3014 37.3219 23.4834 36.7962 23.8281 36.3533V36.3533Z" fill="#006C39"/>
<path d="M23.287 37.8007C23.5523 37.8007 23.5523 37.6417 23.6092 37.5246C23.7893 37.123 23.9599 36.688 24.1115 36.3116C24.1969 36.0773 24.2632 36.0438 24.4717 36.2446C24.7968 36.4767 25.0374 36.788 25.1636 37.1398C24.8982 37.0896 25.1636 37.7588 24.2158 39.5157C24.0357 39.867 24.121 39.8921 23.922 39.5826C23.7863 39.1744 23.6119 38.777 23.4007 38.3947C23.1738 38.768 22.9206 39.1285 22.6424 39.4739C22.5287 39.5826 22.4434 39.8169 22.1875 39.6161C22.5846 39.0553 22.918 38.4612 23.1827 37.8425C23.1822 37.8342 23.1839 37.826 23.1879 37.8185C23.1918 37.811 23.1978 37.8044 23.2054 37.7995C23.2129 37.7945 23.2216 37.7912 23.2309 37.79C23.2402 37.7887 23.2497 37.7895 23.2585 37.7923L23.287 37.8007Z" fill="#0F9647"/>
<path d="M23.287 37.8257H23.1923C23.0027 37.7253 22.9648 37.8257 22.9079 37.9596C22.7183 38.3109 22.5098 38.6539 22.3297 39.0053C22.2717 39.1468 22.1642 39.2684 22.0229 39.3526C21.8815 39.4368 21.7135 39.4792 21.5431 39.4738C21.1835 39.4962 20.8277 39.5523 20.4815 39.6411C20.1972 39.7164 20.2067 39.7582 20.3394 39.5073C20.5641 38.9798 20.8635 38.4794 21.2303 38.0181C21.3156 37.901 21.4767 37.8174 21.4767 37.65C21.8425 37.5831 22.2199 37.5831 22.5857 37.65C22.8984 37.7002 23.0406 37.65 23.1259 37.374C23.2112 37.0979 23.3534 36.8469 23.4482 36.5374C23.5429 36.2278 23.5998 36.278 23.7989 36.278L23.287 37.8257Z" fill="#6CB545"/>
<path d="M33.4761 33.3918C33.5993 33.7265 33.95 33.693 34.2343 33.7516C34.8865 33.8685 35.5566 33.8855 36.2152 33.8018C35.4513 34.5144 34.4594 35.0047 33.3718 35.2072C33.0022 35.2072 32.8221 34.9814 32.6515 34.7555C32.4809 34.5296 32.6515 34.4878 32.7937 34.4041L32.9358 34.3456H32.841C32.841 34.3456 32.5757 34.3456 32.5851 34.1448C32.7842 33.8018 33.1917 33.6428 33.4761 33.3918Z" fill="#8AC040"/>
<path d="M29.2311 34.9814C28.9838 34.9562 28.7457 34.8841 28.533 34.77C28.3203 34.6559 28.1381 34.5026 27.9989 34.3205C27.5666 33.9209 27.1615 33.4991 26.7857 33.0572C26.6056 32.8397 26.3592 32.6891 26.1602 32.4883C26.3198 32.4145 26.5 32.3823 26.6797 32.3956C26.8593 32.409 27.0309 32.4673 27.1743 32.5636C27.5155 32.7226 27.8567 32.8815 28.2074 33.0238L29.269 33.4337C29.6102 33.6261 30.0936 33.601 30.321 33.9607C30.0651 34.2452 29.7903 34.0277 29.5343 33.9607C29.0036 33.8352 28.9846 33.8352 29.0889 34.287C29.1078 34.5223 29.1554 34.7551 29.2311 34.9814V34.9814Z" fill="#006C39"/>
<path d="M29.2305 34.9813C29.1677 34.8966 29.1138 34.807 29.0694 34.7136C28.8229 34.0694 28.7187 34.0192 28.9556 33.785C29.1926 33.5507 29.5622 33.8603 29.9034 33.969C29.9717 34.002 30.0483 34.0193 30.1262 34.0193C30.204 34.0193 30.2806 34.002 30.3489 33.969C30.6711 33.785 30.9365 34.0527 31.2304 34.0694C31.6095 34.2618 32.1023 34.1531 32.4435 34.4375C32.3867 34.6801 32.1687 34.6216 31.9981 34.6048C31.6769 34.5713 31.3597 34.5125 31.0503 34.4292C31.0503 34.814 31.5621 35.0231 31.5337 35.4163C31.7043 35.5837 31.619 35.6087 31.4199 35.5669C30.6445 35.3999 29.9072 35.1169 29.24 34.7303C29.1167 34.8056 29.3253 34.8976 29.2305 34.9813Z" fill="#269947"/>
<path d="M22.1982 39.6411C22.691 39.5324 22.7763 39.1141 23.0133 38.8045C23.2502 38.495 23.2881 38.3277 23.4019 38.0851C23.7359 38.536 23.9198 39.0607 23.9327 39.5993C23.5159 40.1106 23.0429 40.5841 22.5204 41.0131C22.3688 41.1219 22.3214 41.1135 22.3593 40.9378C22.3972 40.7622 22.473 40.1013 22.2835 39.9841C22.0939 39.867 21.9612 40.3104 21.6484 40.2184C21.8026 40.0057 21.9873 39.8117 22.1982 39.6411V39.6411Z" fill="#58AA46"/>
<path d="M31.1542 34.1196C30.8509 34.1196 30.6235 33.9105 30.3202 33.9523L29.2112 33.5591C29.1259 33.3081 29.3344 33.3332 29.4861 33.35C29.7224 33.3819 29.9523 33.4439 30.1685 33.534C30.2939 33.6217 30.4531 33.6628 30.6123 33.6488C30.7715 33.6347 30.9183 33.5666 31.0215 33.4587C31.0619 33.4163 31.094 33.3683 31.1163 33.3165C31.2162 33.1575 31.3478 33.0158 31.5049 32.8982C31.5786 32.971 31.6693 33.0289 31.7708 33.0679C31.8722 33.1068 31.982 33.126 32.0926 33.1241C32.5859 33.1556 33.0697 33.2603 33.5237 33.4336C33.429 33.8686 32.8603 33.9272 32.6612 34.2702C32.4243 34.4459 32.1873 34.2702 31.9504 34.2702C31.7134 34.2702 31.4196 34.0694 31.1542 34.1196Z" fill="#6FB545"/>
<path d="M31.4585 32.8564C31.4111 33.2413 31.0225 33.4337 30.8045 33.693C30.7382 33.785 30.6245 33.693 30.5297 33.693L29.5819 33.4169C29.4397 33.4169 29.2501 33.2496 29.1743 33.5006L28.1602 33.1158C28.1602 32.9735 28.2265 32.8983 28.3592 32.9317C28.5572 32.9756 28.7653 32.9681 28.9586 32.9103C29.1519 32.8524 29.3223 32.7466 29.4492 32.6054C29.4826 32.5831 29.5209 32.5671 29.5617 32.5584C29.6025 32.5498 29.6448 32.5487 29.6861 32.5552C29.7244 32.6014 29.7743 32.639 29.8319 32.6651C29.8894 32.6912 29.9531 32.7052 30.0179 32.7058C30.5036 32.6976 30.9884 32.7483 31.4585 32.8564V32.8564Z" fill="#269947"/>
<path d="M29.7242 32.5719C29.5977 32.692 29.4615 32.8038 29.3167 32.9066C29.0702 33.0739 28.8143 33.2412 28.4826 33.0488C28.3499 32.9735 28.2646 33.0488 28.1983 33.1324C27.7338 32.9902 27.3452 32.7309 26.8998 32.5636C26.6705 32.464 26.4094 32.4375 26.1605 32.4883C26.0467 32.4883 25.9519 32.3879 26.1605 32.3544C27.3456 32.1031 28.5896 32.1791 29.7242 32.5719V32.5719Z" fill="#008D46"/>
<path d="M31.5333 35.3996C31.3437 35.157 31.1447 34.906 30.9646 34.655C30.9007 34.5686 30.8769 34.4637 30.8983 34.3622C30.9646 34.2451 31.1163 34.3622 31.2205 34.3622C31.5143 34.3622 31.7987 34.4626 32.083 34.5128C32.1968 34.5128 32.3295 34.5797 32.3674 34.4208C32.4053 34.2618 32.7181 34.4208 32.8792 34.4208C32.7086 34.563 32.6422 34.7052 32.8792 34.8558L33.3815 35.1988C33.6753 35.3745 33.3815 35.3745 33.2867 35.3996C32.7041 35.4581 32.1159 35.4581 31.5333 35.3996Z" fill="#58AA46"/>
<path d="M32.8793 34.3957H32.3675C31.9466 34.3683 31.5351 34.2719 31.1543 34.1113C31.1543 33.877 31.3628 34.0025 31.4955 34.036C31.8614 34.1383 32.2403 34.2002 32.6234 34.22C32.8604 34.3372 33.1542 34.22 33.4575 34.3957H32.8793Z" fill="#B5D161"/>
</g>
<defs>
<clipPath id="clip0_5435_62118">
<rect width="150" height="66.8182" fill="white" transform="translate(0.966797 0.932251)"/>
</clipPath>
</defs>
</svg>
