<svg width="51" height="45" viewBox="0 0 51 45" fill="none" xmlns="http://www.w3.org/2000/svg">
<g clip-path="url(#clip0_5521_74190)">
<path d="M45.6585 10.1448H38.7672L34.789 5.85911H21.7455V10.1448H32.8759L36.8542 14.4305H45.6585V40.1448H10.8759V20.8591H6.52809V40.1448C6.52809 42.502 8.48461 44.4305 10.8759 44.4305H45.6585C48.0498 44.4305 50.0063 42.502 50.0063 40.1448V14.4305C50.0063 12.0734 48.0498 10.1448 45.6585 10.1448ZM17.3977 27.2877C17.3977 33.202 22.2672 38.002 28.2672 38.002C34.2672 38.002 39.1368 33.202 39.1368 27.2877C39.1368 21.3734 34.2672 16.5734 28.2672 16.5734C22.2672 16.5734 17.3977 21.3734 17.3977 27.2877ZM28.2672 20.8591C31.8542 20.8591 34.789 23.752 34.789 27.2877C34.789 30.8234 31.8542 33.7163 28.2672 33.7163C24.6803 33.7163 21.7455 30.8234 21.7455 27.2877C21.7455 23.752 24.6803 20.8591 28.2672 20.8591ZM10.8759 10.1448H17.3977V5.85911H10.8759V-0.569458H6.52809V5.85911H0.00634766V10.1448H6.52809V16.5734H10.8759V10.1448Z" fill="#959595"/>
</g>
<defs>
<clipPath id="clip0_5521_74190">
<rect width="50" height="45" fill="white" transform="translate(0.00634766)"/>
</clipPath>
</defs>
</svg>
