<svg width="14" height="14" viewBox="0 0 14 14" fill="none" xmlns="http://www.w3.org/2000/svg">
<path fill-rule="evenodd" clip-rule="evenodd" d="M9.65665 1.12791L3.11143 8.03377C3.05662 8.0915 3.02004 8.1639 3.00619 8.24204C2.99234 8.32018 3.00184 8.40064 3.03352 8.47348C3.06519 8.54632 3.11765 8.60835 3.18442 8.65193C3.25119 8.6955 3.32934 8.7187 3.40924 8.71867H6.12796L4.65447 13.474C4.6272 13.5617 4.63066 13.656 4.66428 13.7415C4.69789 13.827 4.75969 13.8987 4.83959 13.9449C4.91949 13.991 5.01278 14.009 5.10427 13.9958C5.19575 13.9825 5.28002 13.9389 5.34335 13.8721L11.8886 6.96621C11.9434 6.90848 11.98 6.83608 11.9938 6.75794C12.0077 6.6798 11.9982 6.59934 11.9665 6.5265C11.9348 6.45366 11.8824 6.39163 11.8156 6.34805C11.7488 6.30448 11.6707 6.28128 11.5908 6.28131H8.87204L10.3455 1.52683C10.3728 1.439 10.3693 1.34458 10.3356 1.25899C10.3019 1.1734 10.2399 1.1017 10.1598 1.05561C10.0799 1.00962 9.98675 0.991006 9.8954 1.00428C9.8436 1.01181 9.79412 1.02908 9.74945 1.05479C9.74898 1.05506 9.74852 1.05533 9.74805 1.05561C9.71448 1.07511 9.68366 1.09939 9.65665 1.12791ZM9.52893 2.13489L8.05794 6.88131H11.1424L5.47138 12.8648L6.94202 8.11867H3.85764L9.52893 2.13489Z" fill="white"/>
</svg>
