<svg width="20" height="20" viewBox="0 0 20 20" fill="none" xmlns="http://www.w3.org/2000/svg">
<path d="M9.53957 11.6011C10.0907 11.6011 10.6193 11.3821 11.009 10.9924C11.3987 10.6027 11.6177 10.0741 11.6177 9.52296C11.6177 9.4621 11.6149 9.4018 11.6097 9.34224L9.35884 11.5931C9.4184 11.5983 9.47852 11.6011 9.53957 11.6011ZM16.4182 3.09488L15.6255 2.30296C15.5977 2.27515 15.5599 2.25952 15.5206 2.25952C15.4812 2.25952 15.4435 2.27515 15.4157 2.30296L13.3873 4.33192C12.2683 3.76006 11.0105 3.47414 9.61378 3.47414C6.04757 3.47414 3.38683 5.33146 1.63156 9.04611C1.56101 9.1955 1.52441 9.35867 1.52441 9.52389C1.52441 9.68911 1.56101 9.85228 1.63156 10.0017C2.33293 11.479 3.17747 12.6631 4.1652 13.554L2.2023 15.5161C2.17448 15.544 2.15886 15.5817 2.15886 15.6211C2.15886 15.6604 2.17448 15.6981 2.2023 15.726L2.9944 16.5181C3.02224 16.5459 3.05998 16.5615 3.09933 16.5615C3.13868 16.5615 3.17642 16.5459 3.20425 16.5181L16.4182 3.30492C16.432 3.29113 16.4429 3.27476 16.4504 3.25674C16.4579 3.23872 16.4617 3.2194 16.4617 3.1999C16.4617 3.18039 16.4579 3.16107 16.4504 3.14305C16.4429 3.12503 16.432 3.10866 16.4182 3.09488ZM6.27394 9.52296C6.27389 8.95891 6.41994 8.40446 6.69786 7.91363C6.97577 7.4228 7.37609 7.01232 7.8598 6.72219C8.34351 6.43205 8.89412 6.27215 9.458 6.25806C10.0219 6.24397 10.5798 6.37617 11.0774 6.64179L10.1753 7.54392C9.81143 7.42743 9.42255 7.4134 9.05128 7.50337C8.68001 7.59334 8.3407 7.78385 8.07057 8.05397C7.80045 8.3241 7.60995 8.66341 7.51997 9.03468C7.43 9.40595 7.44403 9.79483 7.56052 10.1586L6.65839 11.0608C6.40523 10.5878 6.27315 10.0594 6.27394 9.52296V9.52296Z" fill="white"/>
<path d="M17.5954 9.04482C16.9423 7.6693 16.1649 6.54767 15.2633 5.67993L12.5888 8.35459C12.8143 8.94391 12.8643 9.58591 12.7327 10.203C12.6012 10.8201 12.2937 11.3859 11.8476 11.8321C11.4014 12.2783 10.8356 12.5857 10.2185 12.7172C9.60138 12.8488 8.95938 12.7988 8.37006 12.5734L6.10156 14.8419C7.15398 15.3289 8.32454 15.5724 9.61322 15.5724C13.1794 15.5724 15.8402 13.715 17.5954 10.0004C17.666 9.851 17.7026 9.68783 17.7026 9.52261C17.7026 9.35739 17.666 9.19422 17.5954 9.04482V9.04482Z" fill="white"/>
</svg>
