<svg width="14" height="14" viewBox="0 0 14 14" fill="none" xmlns="http://www.w3.org/2000/svg">
<path fill-rule="evenodd" clip-rule="evenodd" d="M10.5754 8.27368C11.7417 7.36056 12.4183 6.03639 12.7132 5.34308C12.8254 5.07934 12.8824 4.90689 12.8901 4.88308C12.9159 4.80305 12.8989 4.71516 12.8445 4.65079C12.7899 4.5869 12.7073 4.55722 12.623 4.56743C12.6008 4.57076 12.4178 4.59943 12.1297 4.68147C11.5136 4.85695 10.417 5.2766 9.38549 6.21476C9.3147 6.27917 9.24478 6.34506 9.17634 6.41168C8.96727 6.61518 8.76932 6.82783 8.58341 7.04248C8.47858 7.16352 8.37757 7.28519 8.28056 7.40622C8.31872 7.25728 8.35392 7.10355 8.38507 6.94554C8.43869 6.67351 8.48028 6.38877 8.5042 6.09386C8.51894 5.91212 8.52697 5.72652 8.52697 5.53766C8.52697 3.80678 7.86216 2.33454 7.49956 1.66041C7.37422 1.42737 7.285 1.28971 7.27183 1.2697C7.18209 1.13289 6.95519 1.13289 6.86548 1.2697C6.8523 1.28971 6.76307 1.42737 6.63773 1.6604C6.27513 2.33453 5.61031 3.80677 5.61031 5.53766C5.61031 5.72652 5.61835 5.91213 5.63309 6.09386C5.65701 6.38885 5.69862 6.67367 5.75226 6.94576C5.78339 7.10371 5.81858 7.25737 5.85673 7.40624C5.75971 7.28521 5.6587 7.16354 5.55387 7.0425C5.36796 6.82785 5.17002 6.61519 4.96094 6.41169C4.8925 6.34507 4.82286 6.27944 4.75207 6.21504C3.72078 5.27712 2.62424 4.85719 2.00805 4.68163C1.7197 4.59948 1.53648 4.57078 1.51424 4.56746C1.43141 4.55724 1.34762 4.58693 1.29277 4.65081C1.23843 4.71518 1.22134 4.80305 1.2472 4.8831C1.25492 4.90692 1.31198 5.07962 1.42435 5.3437C1.71943 6.03718 2.39593 7.36084 3.56191 8.27369C3.56326 8.27474 3.5646 8.27579 3.56594 8.27684C3.7544 8.42409 3.9517 8.56023 4.15201 8.68572C4.1754 8.70037 4.19884 8.71488 4.22232 8.72926C4.35413 8.80995 4.48708 8.88619 4.61965 8.95822C4.46849 8.94895 4.31567 8.94277 4.16169 8.94252C4.15847 8.94251 4.15524 8.94251 4.15201 8.94251C4.15202 8.94251 4.152 8.94251 4.15201 8.94251C3.88003 8.94251 3.61772 8.96579 3.37 9.00423C2.96983 9.06633 2.6077 9.168 2.3042 9.27502C2.30353 9.27525 2.30287 9.27549 2.3022 9.27572C2.11787 9.34079 1.95522 9.40781 1.81888 9.46909C1.53926 9.59478 1.37029 9.69635 1.35191 9.70751C1.27926 9.75192 1.23513 9.83102 1.23535 9.91604C1.23558 10.0013 1.28045 10.0802 1.35332 10.1239C1.37184 10.135 1.54112 10.2353 1.81967 10.3598C2.32247 10.5845 3.1813 10.8881 4.15199 10.8881C4.1769 10.8881 4.20179 10.8879 4.22665 10.8873C4.42483 10.8832 4.62101 10.8628 4.81278 10.8309C4.92178 10.8128 5.02935 10.791 5.13506 10.7664C5.06302 10.8513 5.00139 10.9381 4.94865 11.0247C4.94187 11.0358 4.93524 11.047 4.92875 11.0581C4.91325 11.0847 4.89856 11.1112 4.88466 11.1377C4.80873 11.2821 4.75604 11.4234 4.71952 11.5518C4.71492 11.5679 4.71057 11.5839 4.70647 11.5996C4.63212 11.8849 4.63747 12.0959 4.63834 12.1146C4.64166 12.1894 4.67917 12.2588 4.74017 12.3022C4.78171 12.3319 4.83109 12.3474 4.88117 12.3474C4.90444 12.3474 4.9277 12.344 4.95049 12.3374C4.9665 12.3326 5.14229 12.279 5.39084 12.1556C5.52527 12.0888 5.68098 12.0016 5.8442 11.8906C5.84756 11.8883 5.85093 11.886 5.85431 11.8837C5.94335 11.8227 6.03453 11.7547 6.12562 11.6791C6.26076 11.5669 6.39571 11.4379 6.52323 11.2904C6.5541 11.2547 6.58374 11.2188 6.61175 11.1832C6.6665 11.1138 6.71623 11.0448 6.76267 10.9763C6.78431 10.9444 6.80524 10.9126 6.82562 10.881V12.5905C6.82562 12.725 6.93434 12.8338 7.06869 12.8338C7.20304 12.8338 7.31175 12.725 7.31175 12.5905V10.881C7.33212 10.9126 7.35303 10.9444 7.37466 10.9763C7.42111 11.0448 7.47085 11.1138 7.52562 11.1833C7.55367 11.2188 7.58303 11.2545 7.61395 11.2902C7.74146 11.4377 7.87662 11.5669 8.01175 11.6791C8.10314 11.7549 8.19462 11.8232 8.28393 11.8843C8.28722 11.8866 8.2905 11.8888 8.29379 11.891C8.45761 12.0024 8.61385 12.0898 8.74858 12.1566C8.99604 12.2793 9.17092 12.3326 9.18688 12.3374C9.20967 12.344 9.23294 12.3474 9.2562 12.3474C9.30628 12.3474 9.35566 12.3319 9.3972 12.3022C9.4582 12.2588 9.49571 12.1894 9.49903 12.1146C9.49989 12.0959 9.50525 11.8862 9.43168 11.6024C9.42733 11.5855 9.42269 11.5685 9.41776 11.5512C9.38136 11.4233 9.32889 11.2825 9.25337 11.1387C9.23964 11.1125 9.22513 11.0862 9.20983 11.0599C9.20274 11.0477 9.19547 11.0355 9.18802 11.0233C9.13501 10.9364 9.07301 10.8492 9.00051 10.7641C9.10686 10.7892 9.215 10.8114 9.32443 10.8299C9.51678 10.8623 9.71314 10.8831 9.91086 10.8874C9.93566 10.8879 9.96047 10.8882 9.9853 10.8882C9.98527 10.8882 9.98532 10.8882 9.9853 10.8882C10.9664 10.8882 11.8215 10.5852 12.3211 10.3604C12.5992 10.2352 12.7671 10.1343 12.7855 10.1232C12.8579 10.079 12.902 10.0001 12.902 9.91533C12.902 9.83054 12.8578 9.7517 12.7854 9.70751C12.7671 9.69638 12.5991 9.59538 12.3209 9.47021C11.9598 9.3077 11.4131 9.10444 10.7673 9.00423C10.5196 8.96579 10.2573 8.94251 9.98532 8.94251C9.98533 8.94251 9.98531 8.94251 9.98532 8.94251C9.98214 8.94251 9.97894 8.94252 9.97576 8.94252C9.82175 8.94277 9.66888 8.94893 9.51767 8.95822C9.65025 8.88619 9.7832 8.80995 9.91501 8.72925C9.93849 8.71488 9.96192 8.70037 9.98532 8.68571C10.1856 8.56023 10.3827 8.42429 10.5711 8.27703C10.5725 8.27598 10.5741 8.27474 10.5754 8.27368ZM10.272 7.89369C10.9546 7.36046 11.4615 6.66043 11.8117 6.05474C11.9478 5.81931 12.0603 5.59814 12.1502 5.40655C12.1936 5.31386 12.2318 5.22809 12.2649 5.15099C12.1842 5.17422 12.0939 5.20214 11.9957 5.23547C11.7967 5.30303 11.565 5.39281 11.3139 5.51079C10.8216 5.74206 10.2547 6.08166 9.71283 6.57459C9.47314 6.79263 9.2455 7.02761 9.03301 7.2674C8.95315 7.35752 8.87539 7.44835 8.79988 7.53928C8.75244 7.59639 8.70589 7.65355 8.66025 7.71058C8.65065 7.72258 8.6411 7.73457 8.63158 7.74655C8.49386 7.91998 8.36472 8.09203 8.2451 8.25837C8.24208 8.26257 8.23906 8.26677 8.23606 8.27096C8.20855 8.3093 8.18156 8.34732 8.15508 8.38498C7.99538 8.61217 7.85463 8.82614 7.73541 9.01521C7.67984 9.10334 7.62895 9.18607 7.583 9.26219C7.66892 9.23331 7.76242 9.20076 7.86202 9.16449C7.87091 9.16125 7.87986 9.15798 7.88885 9.15468C8.12437 9.06828 8.39256 8.96147 8.67453 8.83354C8.68481 8.82888 8.6951 8.82419 8.7054 8.81947C8.88133 8.73898 9.06232 8.6503 9.24383 8.55327C9.25771 8.54585 9.2716 8.53838 9.28549 8.53085C9.3519 8.4949 9.41834 8.45782 9.48457 8.41961C9.58089 8.36406 9.67678 8.30611 9.77157 8.24576C9.94328 8.13643 10.1116 8.019 10.272 7.89369ZM7.44919 8.36825C7.50302 8.23592 7.55689 8.09437 7.60901 7.94467C7.67595 7.75239 7.73999 7.54667 7.79729 7.3298C7.80119 7.31504 7.80506 7.30023 7.8089 7.28537C7.82713 7.21474 7.84463 7.14296 7.86126 7.07011C7.8867 6.95871 7.91013 6.8448 7.93108 6.72865C7.999 6.35203 8.04087 5.9519 8.04087 5.53766C8.04087 4.43742 7.74426 3.433 7.44905 2.70569C7.35863 2.48292 7.26835 2.28616 7.18675 2.12059C7.14468 2.03522 7.10492 1.95814 7.06864 1.89007C7.03236 1.95814 6.9926 2.03521 6.95053 2.12058C6.86893 2.28615 6.77864 2.48292 6.68822 2.70569C6.39301 3.433 6.09642 4.43742 6.09642 5.53766C6.09642 5.95191 6.13828 6.35204 6.20621 6.72867C6.22716 6.84482 6.25058 6.95873 6.27602 7.07013C6.29266 7.14298 6.31016 7.21477 6.32839 7.2854C6.33223 7.30026 6.3361 7.31507 6.34 7.32983C6.39738 7.54699 6.46151 7.75295 6.52855 7.94545C6.58058 8.09486 6.63436 8.23615 6.68809 8.36825C6.77888 8.59146 6.86953 8.78845 6.95135 8.95406C6.96013 8.97182 6.9688 8.98921 6.97736 9.00624C6.98119 9.01387 6.985 9.02142 6.98879 9.0289C6.99082 9.03291 6.99284 9.03689 6.99486 9.04086C6.99717 9.04539 6.99946 9.04989 7.00175 9.05437C7.00993 9.07038 7.01799 9.08603 7.02592 9.10131C7.02927 9.10699 7.03267 9.11273 7.03608 9.11848C7.03762 9.12108 7.03917 9.12368 7.04071 9.12628C7.05034 9.14251 7.05993 9.15866 7.06864 9.17361C7.07736 9.15864 7.08696 9.14247 7.0966 9.12623C7.09799 9.12388 7.09939 9.12153 7.10078 9.11918C7.10433 9.11319 7.10788 9.10722 7.11137 9.10131C7.11957 9.08551 7.1279 9.06932 7.13636 9.05274C7.13838 9.0488 7.1404 9.04484 7.14242 9.04086C7.14444 9.03689 7.14646 9.03291 7.14849 9.0289C7.1522 9.02157 7.15594 9.01416 7.1597 9.00669C7.16832 8.98954 7.17706 8.97201 7.1859 8.95412C7.26773 8.7885 7.35839 8.59149 7.44919 8.36825ZM5.50556 7.74665C5.49605 7.73467 5.4865 7.72269 5.47691 7.7107C5.43127 7.65364 5.38471 7.59647 5.33727 7.53933C5.2618 7.44844 5.1841 7.35764 5.10431 7.26757C4.89175 7.02763 4.66435 6.79281 4.42472 6.57485C3.8832 6.08223 3.3164 5.74253 2.82433 5.51129C2.57287 5.39312 2.34086 5.30321 2.14159 5.23558C2.04357 5.20232 1.95347 5.17444 1.87287 5.15124C1.90596 5.22834 1.9442 5.3141 1.98772 5.40676C2.07774 5.59846 2.19033 5.81974 2.32652 6.05522C2.67708 6.66132 3.18406 7.36152 3.86527 7.89369C4.02571 8.01899 4.19412 8.13645 4.36587 8.24577C4.4606 8.30607 4.55643 8.36396 4.65268 8.41948C4.71896 8.4577 4.78543 8.4948 4.85188 8.53077C4.86577 8.53829 4.87966 8.54576 4.89354 8.55318C5.07483 8.65008 5.25559 8.73865 5.43131 8.81907C5.44215 8.82403 5.45297 8.82896 5.46376 8.83385C5.74611 8.96192 6.01462 9.0688 6.2503 9.15522C6.25864 9.15828 6.26693 9.16131 6.27518 9.16431C6.37472 9.20056 6.46817 9.2331 6.55406 9.26197C6.50816 9.186 6.45735 9.10346 6.40189 9.01554C6.28323 8.82743 6.14327 8.61466 5.98457 8.38875C5.95742 8.35011 5.92973 8.31109 5.90151 8.27175C5.89822 8.26716 5.89492 8.26257 5.89162 8.25798C5.7721 8.09178 5.64309 7.91989 5.50556 7.74665ZM5.94257 9.63067C5.73578 9.58775 5.50748 9.54642 5.26627 9.51246C5.25563 9.51096 5.24497 9.50948 5.23429 9.50801C5.04177 9.48156 4.84135 9.45993 4.63734 9.44601C4.62156 9.44493 4.60576 9.4439 4.58994 9.44292C4.51437 9.43823 4.43836 9.43462 4.36212 9.43224C4.29222 9.43006 4.22213 9.42891 4.15201 9.42891C4.152 9.42891 4.15202 9.42891 4.15201 9.42891C4.11168 9.42891 4.07155 9.42949 4.03166 9.43061C3.69764 9.43999 3.37978 9.48747 3.09067 9.55352C2.78785 9.62271 2.51657 9.71229 2.2913 9.7998C2.19062 9.83891 2.09914 9.87761 2.01813 9.9139C2.09954 9.95014 2.19141 9.9888 2.29235 10.0279C2.51801 10.1154 2.789 10.205 3.08978 10.2746C3.41549 10.3499 3.77612 10.4017 4.15199 10.4017C4.28447 10.4017 4.41695 10.3933 4.54821 10.378C4.58561 10.3736 4.6229 10.3687 4.66007 10.3633C4.78339 10.3453 4.90533 10.3216 5.02487 10.2936C5.11474 10.2725 5.20326 10.2489 5.28999 10.2235C5.36152 10.2026 5.43183 10.1803 5.50068 10.1571C5.67145 10.0996 5.83325 10.0363 5.98239 9.972C6.00374 9.96279 6.02483 9.95357 6.04565 9.94435C6.09591 9.92208 6.14459 9.89979 6.19155 9.87768C6.23216 9.85856 6.27147 9.83957 6.3094 9.82085C6.32856 9.81139 6.34737 9.802 6.36581 9.7927C6.36978 9.79069 6.37373 9.78869 6.37767 9.7867C6.40309 9.77381 6.42779 9.76109 6.45175 9.74859C6.44642 9.74723 6.44105 9.74586 6.43566 9.74449C6.42239 9.74111 6.40893 9.73772 6.39528 9.7343C6.36904 9.72773 6.34209 9.72108 6.31447 9.71437C6.27035 9.70367 6.22452 9.69283 6.17711 9.68194C6.10265 9.66484 6.02429 9.64763 5.94257 9.63067ZM6.25195 10.479C6.14071 10.5571 6.01954 10.6442 5.88851 10.7409C5.88844 10.7409 5.88858 10.7408 5.88851 10.7409C5.86957 10.7549 5.85021 10.7692 5.83085 10.7836C5.80625 10.8019 5.78132 10.8205 5.75605 10.8395C5.65662 10.9141 5.57278 10.9947 5.50211 11.0778C5.40883 11.1875 5.33849 11.3015 5.28547 11.4117C5.28437 11.414 5.28327 11.4163 5.28219 11.4186C5.27646 11.4307 5.27094 11.4427 5.26562 11.4546C5.22404 11.548 5.19461 11.6378 5.17382 11.7192C5.25963 11.6765 5.35608 11.624 5.45798 11.5607C5.62771 11.4552 5.81253 11.3196 5.98836 11.1492C5.98839 11.1491 5.98833 11.1492 5.98836 11.1492C6.03486 11.1041 6.08083 11.0565 6.12562 11.0065C6.13566 10.9953 6.14563 10.9839 6.15555 10.9725C6.18185 10.942 6.20738 10.9114 6.23172 10.881C6.30237 10.7929 6.3649 10.7053 6.4202 10.6198C6.44358 10.5836 6.46566 10.5478 6.48652 10.5126C6.5221 10.4524 6.55411 10.3936 6.5829 10.3369C6.5929 10.3172 6.60251 10.2977 6.61175 10.2785C6.62227 10.2566 6.63231 10.235 6.64188 10.2139C6.63197 10.2204 6.62193 10.227 6.61175 10.2337C6.53605 10.2836 6.45278 10.3397 6.36198 10.4023C6.35378 10.408 6.34552 10.4137 6.3372 10.4195C6.30946 10.4387 6.28105 10.4585 6.25195 10.479ZM7.55548 10.3371C7.58351 10.3925 7.61459 10.4498 7.64899 10.5084C7.67049 10.5451 7.69329 10.5822 7.71747 10.6197C7.7727 10.7054 7.83512 10.793 7.90558 10.881C7.92993 10.9114 7.95523 10.9418 7.98153 10.9722C7.99147 10.9837 8.00171 10.9953 8.01175 11.0066C8.05655 11.0566 8.10235 11.1041 8.14874 11.1492C8.14877 11.1492 8.14871 11.1492 8.14874 11.1492C8.3254 11.3208 8.51055 11.4568 8.68025 11.5624C8.78234 11.6258 8.87887 11.6783 8.96467 11.7208C8.94378 11.6385 8.91403 11.5474 8.87172 11.4528C8.86674 11.4417 8.86159 11.4305 8.85625 11.4192C8.85396 11.4144 8.85164 11.4096 8.84928 11.4047C8.79632 11.2961 8.72637 11.184 8.63401 11.076C8.56359 10.9937 8.48013 10.9137 8.38125 10.8395C8.35321 10.8184 8.32557 10.7978 8.29835 10.7776C8.28171 10.7652 8.26522 10.753 8.24888 10.7409C8.24887 10.7409 8.24889 10.7409 8.24888 10.7409C8.11785 10.6442 7.99666 10.5571 7.88542 10.4789C7.8562 10.4584 7.82767 10.4385 7.79982 10.4192C7.78999 10.4124 7.78024 10.4057 7.77057 10.399C7.68168 10.3377 7.60002 10.2828 7.52562 10.2338C7.51599 10.2275 7.50648 10.2212 7.49709 10.2151C7.50618 10.2352 7.51569 10.2557 7.52562 10.2764C7.53517 10.2964 7.54512 10.3166 7.55548 10.3371ZM8.09789 9.94371C8.11645 9.9519 8.13522 9.96009 8.1542 9.96827C8.30157 10.0318 8.46112 10.0945 8.62915 10.1516C8.70212 10.1764 8.77671 10.2002 8.85258 10.2225C8.93758 10.2476 9.0242 10.2708 9.11203 10.2916C9.23052 10.3198 9.3512 10.3436 9.47303 10.3619C9.51154 10.3676 9.55016 10.3728 9.58887 10.3774C9.7205 10.3931 9.85307 10.4017 9.9853 10.4017C9.98532 10.4017 9.98527 10.4017 9.9853 10.4017C10.365 10.4017 10.7262 10.3506 11.0509 10.2761C11.3534 10.2067 11.6242 10.1171 11.8491 10.0296C11.9495 9.99047 12.0407 9.95181 12.1215 9.91556C12.0405 9.87929 11.949 9.84058 11.8483 9.80143C11.6235 9.71404 11.3528 9.62449 11.0511 9.55509C10.7604 9.48825 10.4409 9.44011 10.1056 9.43062C10.0658 9.42949 10.0256 9.42891 9.98532 9.42891C9.98531 9.42891 9.98533 9.42891 9.98532 9.42891C9.91519 9.42891 9.84508 9.43005 9.7752 9.43223C9.69897 9.4346 9.62299 9.4382 9.54746 9.44288C9.53164 9.44386 9.51584 9.44489 9.50006 9.44596C9.29802 9.45971 9.09958 9.48102 8.90892 9.50706C8.89657 9.50875 8.88426 9.51046 8.87199 9.51218C8.62819 9.54644 8.39766 9.58823 8.1892 9.63156C8.10933 9.64817 8.0327 9.665 7.95981 9.68172C7.91344 9.69236 7.86858 9.70295 7.82537 9.71341C7.79671 9.72035 7.76878 9.72722 7.74161 9.73402C7.73219 9.73638 7.72286 9.73872 7.71363 9.74106C7.70521 9.74318 7.69687 9.7453 7.68861 9.74741C7.71112 9.75908 7.73427 9.77093 7.75805 9.78294C7.76349 9.78569 7.76896 9.78844 7.77446 9.7912C7.79269 9.80035 7.81128 9.80958 7.83021 9.81888C7.86874 9.83781 7.90868 9.85702 7.94993 9.87636C7.99756 9.8987 8.04693 9.92122 8.09789 9.94371Z" fill="white"/>
</svg>
