<svg width="19" height="19" viewBox="0 0 19 19" fill="none" xmlns="http://www.w3.org/2000/svg">
<path d="M0.773656 2.06392V16.9332H9.80638C15.2612 16.9332 18.2299 14.3943 18.2299 9.48045C18.2299 4.43357 15.0112 2.06392 9.80638 2.06392H0.773656ZM9.80638 1.29442C17.806 1.29442 19 6.42145 19 9.48045C19 14.7838 15.7344 17.7057 9.80638 17.7057H0V1.29442H9.80638ZM1.9855 10.5712H4.87647V15.7202H1.9855V10.5712ZM5.22678 7.98004C5.22678 8.21607 5.18029 8.44978 5.08997 8.66783C4.99965 8.88589 4.86726 9.08402 4.70037 9.25091C4.53348 9.41781 4.33535 9.55019 4.11729 9.64051C3.89923 9.73084 3.66552 9.77732 3.4295 9.77732C3.19348 9.77732 2.95977 9.73084 2.74171 9.64051C2.52365 9.55019 2.32552 9.41781 2.15863 9.25091C1.99174 9.08402 1.85935 8.88589 1.76903 8.66783C1.67871 8.44978 1.63222 8.21607 1.63222 7.98004C1.63222 5.58367 5.22619 5.58367 5.22619 7.98004H5.22678ZM6.32997 7.14167V8.82139H6.84594C7.20219 8.82139 7.53291 8.71926 7.53291 7.96698C7.53291 7.23785 7.16478 7.14107 6.84594 7.14107L6.32997 7.14167ZM14.9215 6.31042H15.7557V8.82139H16.9902C16.6499 4.26317 13.0661 3.27992 9.80638 3.27992H6.33353V6.31042H6.84653C7.78406 6.31042 8.36831 6.94692 8.36831 7.96757C8.36831 9.02504 7.80009 9.65323 6.84653 9.65323H6.33353V15.7237H9.80638C15.1032 15.7237 16.9462 13.2626 17.0115 9.65323H14.9245V6.30745L14.9215 6.31042ZM12.6018 8.17479H13.205L12.9265 7.22895H12.8772L12.6018 8.17479ZM11.2997 9.65561L12.3114 6.30982H13.4959L14.5035 9.65561H13.6384L13.4461 9.00664H12.3577L12.1695 9.65561H11.2997ZM10.9013 8.82139V9.65264H8.84153V6.31042H10.8365V7.14167H9.67338V7.53176H10.7706V8.36301H9.67338V8.82139H10.9013Z" fill="#F2C94C"/>
</svg>
