<svg width="16" height="18" viewBox="0 0 16 18" fill="none" xmlns="http://www.w3.org/2000/svg">
<path d="M1.93486 1.83879C2.09282 1.20696 2.1718 0.891047 2.40737 0.70712C2.64294 0.523193 2.96858 0.523193 3.61985 0.523193H13.0656C13.7168 0.523193 14.0425 0.523193 14.2781 0.70712C14.5136 0.891047 14.5926 1.20696 14.7506 1.83879L15.7958 6.01976C15.8799 6.35616 15.922 6.52436 15.9127 6.66098C15.8886 7.01524 15.6513 7.31916 15.3135 7.42843C15.1832 7.47056 15.0058 7.47056 14.651 7.47056C14.188 7.47056 13.9565 7.47056 13.7621 7.42527C13.2174 7.29838 12.7671 6.91694 12.5524 6.40051C12.4758 6.21617 12.4386 5.99299 12.3642 5.54663C12.3433 5.42175 12.3329 5.35931 12.3211 5.34288C12.2865 5.29464 12.2147 5.29464 12.1801 5.34288C12.1683 5.35931 12.1579 5.42175 12.137 5.54663L12.0662 5.9715C12.0587 6.01654 12.055 6.03906 12.0512 6.05879C11.898 6.86311 11.2038 7.45116 10.3852 7.4701C10.3652 7.47056 10.3423 7.47056 10.2967 7.47056C10.251 7.47056 10.2282 7.47056 10.2081 7.4701C9.38952 7.45116 8.69534 6.86311 8.5421 6.05879C8.53834 6.03906 8.53459 6.01654 8.52708 5.9715L8.45627 5.54663C8.43545 5.42175 8.42505 5.35931 8.41324 5.34288C8.37859 5.29464 8.30683 5.29464 8.27218 5.34288C8.26038 5.35931 8.24997 5.42175 8.22916 5.54663L8.15834 5.9715C8.15084 6.01654 8.14708 6.03906 8.14332 6.05879C7.99008 6.86311 7.2959 7.45116 6.47734 7.4701C6.45726 7.47056 6.43443 7.47056 6.38876 7.47056C6.3431 7.47056 6.32027 7.47056 6.30019 7.4701C5.48162 7.45116 4.78745 6.86311 4.6342 6.05879C4.63044 6.03906 4.62669 6.01654 4.61918 5.9715L4.54837 5.54663C4.52756 5.42175 4.51715 5.35931 4.50535 5.34288C4.4707 5.29464 4.39893 5.29464 4.36428 5.34288C4.35248 5.35931 4.34207 5.42175 4.32126 5.54663C4.24687 5.99299 4.20967 6.21617 4.13303 6.40051C3.91831 6.91694 3.46804 7.29838 2.92334 7.42527C2.72891 7.47056 2.49742 7.47056 2.03442 7.47056C1.67963 7.47056 1.50224 7.47056 1.37195 7.42843C1.03411 7.31916 0.796808 7.01524 0.772749 6.66098C0.763471 6.52436 0.805521 6.35616 0.889621 6.01976L1.93486 1.83879Z" fill="#84D52C"/>
<path d="M1.93486 1.83879C2.09282 1.20696 2.1718 0.891047 2.40737 0.70712C2.64294 0.523193 2.96858 0.523193 3.61985 0.523193H13.0656C13.7168 0.523193 14.0425 0.523193 14.2781 0.70712C14.5136 0.891047 14.5926 1.20696 14.7506 1.83879L15.7958 6.01976C15.8799 6.35616 15.922 6.52436 15.9127 6.66098C15.8886 7.01524 15.6513 7.31916 15.3135 7.42843C15.1832 7.47056 15.0058 7.47056 14.651 7.47056C14.188 7.47056 13.9565 7.47056 13.7621 7.42527C13.2174 7.29838 12.7671 6.91694 12.5524 6.40051C12.4758 6.21617 12.4386 5.99299 12.3642 5.54663C12.3433 5.42175 12.3329 5.35931 12.3211 5.34288C12.2865 5.29464 12.2147 5.29464 12.1801 5.34288C12.1683 5.35931 12.1579 5.42175 12.137 5.54663L12.0662 5.9715C12.0587 6.01654 12.055 6.03906 12.0512 6.05879C11.898 6.86311 11.2038 7.45116 10.3852 7.4701C10.3652 7.47056 10.3423 7.47056 10.2967 7.47056C10.251 7.47056 10.2282 7.47056 10.2081 7.4701C9.38952 7.45116 8.69534 6.86311 8.5421 6.05879C8.53834 6.03906 8.53459 6.01654 8.52708 5.9715L8.45627 5.54663C8.43545 5.42175 8.42505 5.35931 8.41324 5.34288C8.37859 5.29464 8.30683 5.29464 8.27218 5.34288C8.26038 5.35931 8.24997 5.42175 8.22916 5.54663L8.15834 5.9715C8.15084 6.01654 8.14708 6.03906 8.14332 6.05879C7.99008 6.86311 7.2959 7.45116 6.47734 7.4701C6.45726 7.47056 6.43443 7.47056 6.38876 7.47056C6.3431 7.47056 6.32027 7.47056 6.30019 7.4701C5.48162 7.45116 4.78745 6.86311 4.6342 6.05879C4.63044 6.03906 4.62669 6.01654 4.61918 5.9715L4.54837 5.54663C4.52756 5.42175 4.51715 5.35931 4.50535 5.34288C4.4707 5.29464 4.39893 5.29464 4.36428 5.34288C4.35248 5.35931 4.34207 5.42175 4.32126 5.54663C4.24687 5.99299 4.20967 6.21617 4.13303 6.40051C3.91831 6.91694 3.46804 7.29838 2.92334 7.42527C2.72891 7.47056 2.49742 7.47056 2.03442 7.47056C1.67963 7.47056 1.50224 7.47056 1.37195 7.42843C1.03411 7.31916 0.796808 7.01524 0.772749 6.66098C0.763471 6.52436 0.805521 6.35616 0.889621 6.01976L1.93486 1.83879Z" fill="url(#paint0_linear_5155_122243)" fill-opacity="0.2"/>
<path d="M2.27894 8.77336C2.26376 9.13888 2.26376 9.56798 2.26376 10.0758V15.2864C2.26376 16.1051 2.26376 16.5145 2.51812 16.7688C2.77247 17.0232 3.18185 17.0232 4.00061 17.0232H6.60587V13.5495C6.60587 13.0699 6.99467 12.6811 7.47429 12.6811H9.21113C9.69075 12.6811 10.0796 13.0699 10.0796 13.5495V17.0232H12.6848C13.5036 17.0232 13.9129 17.0232 14.1673 16.7688C14.4217 16.5145 14.4217 16.1051 14.4217 15.2864V10.0758C14.4217 9.56798 14.4217 9.13888 14.4065 8.77336C14.0897 8.77261 13.7656 8.76361 13.4665 8.69393C13.0155 8.58886 12.6015 8.38406 12.2506 8.1017C11.7434 8.50996 11.1046 8.75644 10.4154 8.77238C10.3796 8.77321 10.342 8.7732 10.3061 8.7732H10.2873C10.2514 8.7732 10.2137 8.77321 10.178 8.77238C9.48876 8.75644 8.84995 8.50996 8.34271 8.1017C7.83547 8.50996 7.19666 8.75644 6.50746 8.77238C6.47174 8.77321 6.43414 8.7732 6.39819 8.7732H6.37941C6.34346 8.7732 6.30579 8.77321 6.27007 8.77238C5.58087 8.75644 4.94205 8.50996 4.43481 8.1017C4.08394 8.38406 3.66991 8.58886 3.21888 8.69393C2.91979 8.76361 2.59573 8.77261 2.27894 8.77336Z" fill="#84D52C"/>
<path d="M2.27894 8.77336C2.26376 9.13888 2.26376 9.56798 2.26376 10.0758V15.2864C2.26376 16.1051 2.26376 16.5145 2.51812 16.7688C2.77247 17.0232 3.18185 17.0232 4.00061 17.0232H6.60587V13.5495C6.60587 13.0699 6.99467 12.6811 7.47429 12.6811H9.21113C9.69075 12.6811 10.0796 13.0699 10.0796 13.5495V17.0232H12.6848C13.5036 17.0232 13.9129 17.0232 14.1673 16.7688C14.4217 16.5145 14.4217 16.1051 14.4217 15.2864V10.0758C14.4217 9.56798 14.4217 9.13888 14.4065 8.77336C14.0897 8.77261 13.7656 8.76361 13.4665 8.69393C13.0155 8.58886 12.6015 8.38406 12.2506 8.1017C11.7434 8.50996 11.1046 8.75644 10.4154 8.77238C10.3796 8.77321 10.342 8.7732 10.3061 8.7732H10.2873C10.2514 8.7732 10.2137 8.77321 10.178 8.77238C9.48876 8.75644 8.84995 8.50996 8.34271 8.1017C7.83547 8.50996 7.19666 8.75644 6.50746 8.77238C6.47174 8.77321 6.43414 8.7732 6.39819 8.7732H6.37941C6.34346 8.7732 6.30579 8.77321 6.27007 8.77238C5.58087 8.75644 4.94205 8.50996 4.43481 8.1017C4.08394 8.38406 3.66991 8.58886 3.21888 8.69393C2.91979 8.76361 2.59573 8.77261 2.27894 8.77336Z" fill="url(#paint1_linear_5155_122243)" fill-opacity="0.2"/>
<defs>
<linearGradient id="paint0_linear_5155_122243" x1="15.9139" y1="0.523195" x2="0.843083" y2="1.35567" gradientUnits="userSpaceOnUse">
<stop stop-color="#6BAB2B"/>
<stop offset="1" stop-color="#84D52C" stop-opacity="0"/>
</linearGradient>
<linearGradient id="paint1_linear_5155_122243" x1="15.9139" y1="0.523195" x2="0.843083" y2="1.35567" gradientUnits="userSpaceOnUse">
<stop stop-color="#6BAB2B"/>
<stop offset="1" stop-color="#84D52C" stop-opacity="0"/>
</linearGradient>
</defs>
</svg>
