<svg width="0" height="0" style="position:absolute"><symbol fill="none" viewBox="0 0 21 20" id="usa" xmlns="http://www.w3.org/2000/svg"><path fill="#fff" d="M.5 2.857h20v14.286H.5z"/><mask id="aa" style="mask-type:alpha" maskUnits="userSpaceOnUse" x="0" y="2" width="21" height="16"><path fill="#fff" d="M.5 2.857h20v14.286H.5z"/></mask><g mask="url(#aa)"><path fill-rule="evenodd" clip-rule="evenodd" d="M20.5 2.857H.5v.953h20v-.953Zm0 1.905H.5v.952h20v-.952ZM.5 6.667h20v.952H.5v-.952Zm20 1.904H.5v.953h20V8.57Zm-20 1.905h20v.953H.5v-.953Zm20 1.905H.5v.952h20v-.952Zm-20 1.905h20v.952H.5v-.952Zm20 1.905H.5v.952h20v-.953Z" fill="#D02F44"/><path fill="#46467F" d="M.5 2.857h8.571v6.667H.5z"/><g filter="url(#ab)"><path fill-rule="evenodd" clip-rule="evenodd" d="M1.93 4.762a.476.476 0 1 0 0-.952.476.476 0 0 0 0 .952Zm1.904 0a.476.476 0 1 0 0-.952.476.476 0 0 0 0 .952Zm2.381-.476a.476.476 0 1 1-.952 0 .476.476 0 0 1 .952 0Zm1.429.476a.476.476 0 1 0 0-.952.476.476 0 0 0 0 .952Zm-4.286.476a.476.476 0 1 1-.952 0 .476.476 0 0 1 .952 0Zm1.428.476a.476.476 0 1 0 0-.952.476.476 0 0 0 0 .952Zm2.381-.476a.476.476 0 1 1-.952 0 .476.476 0 0 1 .952 0Zm.477 1.429a.476.476 0 1 0 0-.953.476.476 0 0 0 0 .953ZM6.215 6.19a.476.476 0 1 1-.952 0 .476.476 0 0 1 .952 0Zm-2.38.477a.476.476 0 1 0 0-.953.476.476 0 0 0 0 .953Zm-1.43-.477a.476.476 0 1 1-.952 0 .476.476 0 0 1 .953 0Zm.477 1.429a.476.476 0 1 0 0-.952.476.476 0 0 0 0 .952Zm2.38-.476a.476.476 0 1 1-.952 0 .476.476 0 0 1 .953 0Zm1.43.476a.476.476 0 1 0 0-.952.476.476 0 0 0 0 .952Zm1.428.476a.476.476 0 1 1-.953 0 .476.476 0 0 1 .953 0Zm-2.381.476a.476.476 0 1 0 0-.952.476.476 0 0 0 0 .952ZM4.31 8.095a.476.476 0 1 1-.952 0 .476.476 0 0 1 .952 0Zm-2.38.476a.476.476 0 1 0 0-.952.476.476 0 0 0 0 .952Z" fill="url(#ac)"/></g></g><defs><linearGradient id="ac" x1="1.453" y1="3.81" x2="1.453" y2="8.571" gradientUnits="userSpaceOnUse"><stop stop-color="#fff"/><stop offset="1" stop-color="#F0F0F0"/></linearGradient><filter id="ab" x="1.453" y="3.81" width="6.666" height="6.762" filterUnits="userSpaceOnUse" color-interpolation-filters="sRGB"><feFlood flood-opacity="0" result="BackgroundImageFix"/><feColorMatrix in="SourceAlpha" values="0 0 0 0 0 0 0 0 0 0 0 0 0 0 0 0 0 0 127 0" result="hardAlpha"/><feOffset dy="2"/><feColorMatrix values="0 0 0 0 0 0 0 0 0 0 0 0 0 0 0 0 0 0 0.06 0"/><feBlend in2="BackgroundImageFix" result="effect1_dropShadow_5302_61276"/><feBlend in="SourceGraphic" in2="effect1_dropShadow_5302_61276" result="shape"/></filter></defs></symbol></svg>