<svg width="0" height="0" style="position:absolute"><symbol fill="none" viewBox="0 0 24 24" id="arrowHight" xmlns="http://www.w3.org/2000/svg"><path d="M11 20V7.825l-5.6 5.6L4 12l8-8 8 8-1.4 1.425-5.6-5.6V20h-2Z" fill="#84D52C"/></symbol><symbol fill="none" viewBox="0 0 24 24" id="arrowLow" xmlns="http://www.w3.org/2000/svg"><path d="M13 4v12.175l5.6-5.6L20 12l-8 8-8-8 1.4-1.425 5.6 5.6V4h2Z" fill="#84D52C"/></symbol><symbol fill="none" viewBox="0 0 7 15" id="arrowRight" xmlns="http://www.w3.org/2000/svg"><path d="M7 7.788a1.1 1.1 0 0 1-.065.376.998.998 0 0 1-.187.318l-5.288 6.03a.809.809 0 0 1-.606.276.812.812 0 0 1-.602-.288A1.055 1.055 0 0 1 0 13.814a1.06 1.06 0 0 1 .243-.691L4.92 7.788.243 2.454A1.06 1.06 0 0 1 0 1.763c.002-.258.092-.505.252-.687A.812.812 0 0 1 .854.788a.808.808 0 0 1 .606.277l5.288 6.029c.08.09.143.199.187.318A1.1 1.1 0 0 1 7 7.788Z" fill="#84D52C"/><path d="M7 7.788a1.1 1.1 0 0 1-.065.376.998.998 0 0 1-.187.318l-5.288 6.03a.809.809 0 0 1-.606.276.812.812 0 0 1-.602-.288A1.055 1.055 0 0 1 0 13.814a1.06 1.06 0 0 1 .243-.691L4.92 7.788.243 2.454A1.06 1.06 0 0 1 0 1.763c.002-.258.092-.505.252-.687A.812.812 0 0 1 .854.788a.808.808 0 0 1 .606.277l5.288 6.029c.08.09.143.199.187.318A1.1 1.1 0 0 1 7 7.788Z" fill="url(#aca)" fill-opacity=".2"/><defs><linearGradient id="aca" x1="0" y1=".788" x2="1.658" y2="14.565" gradientUnits="userSpaceOnUse"><stop stop-color="#6BAB2B"/><stop offset="1" stop-color="#84D52C" stop-opacity="0"/></linearGradient></defs></symbol><symbol fill="none" viewBox="0 0 14 15" id="calendar" xmlns="http://www.w3.org/2000/svg"><g clip-path="url(#ada)" fill="#fff"><path fill-rule="evenodd" clip-rule="evenodd" d="M3.5 1.187V.749a.437.437 0 1 0-.875 0v.438H1.75A1.75 1.75 0 0 0 0 2.937v9.625a1.75 1.75 0 0 0 1.75 1.75h10.5a1.75 1.75 0 0 0 1.75-1.75V2.937a1.75 1.75 0 0 0-1.75-1.75h-.875V.749a.438.438 0 0 0-.875 0v.438h-7Zm-1.75.875a.875.875 0 0 0-.875.875v9.625a.875.875 0 0 0 .875.875h10.5a.875.875 0 0 0 .875-.875V2.937a.875.875 0 0 0-.875-.875H1.75Z"/><path d="M2.188 3.812a.437.437 0 0 1 .437-.438h8.75a.438.438 0 0 1 .438.438v.875a.438.438 0 0 1-.438.437h-8.75a.438.438 0 0 1-.438-.437v-.875Zm7.437 3.062a.437.437 0 0 1 .438-.437h.874a.438.438 0 0 1 .438.437v.875a.438.438 0 0 1-.438.438h-.874a.438.438 0 0 1-.438-.438v-.875ZM7 6.874a.437.437 0 0 1 .438-.437h.875a.437.437 0 0 1 .437.437v.875a.437.437 0 0 1-.438.438h-.874A.438.438 0 0 1 7 7.749v-.875ZM2.625 9.5a.437.437 0 0 1 .438-.437h.874a.437.437 0 0 1 .438.437v.875a.437.437 0 0 1-.438.438h-.874a.437.437 0 0 1-.438-.438V9.5Zm2.625 0a.437.437 0 0 1 .438-.437h.875A.437.437 0 0 1 7 9.499v.875a.437.437 0 0 1-.438.438h-.875a.437.437 0 0 1-.437-.438V9.5Z"/></g><defs><clipPath id="ada"><path fill="#fff" transform="translate(0 .312)" d="M0 0h14v14H0z"/></clipPath></defs></symbol><symbol fill="none" viewBox="0 0 24 24" id="cbdHight" xmlns="http://www.w3.org/2000/svg"><g clip-path="url(#aea)"><path d="M3.68 11.605c-1.057 0-1.935-.32-2.637-.962C.348 9.995 0 9.163 0 8.147 0 7.124.348 6.292 1.043 5.65c.695-.642 1.574-.963 2.637-.963.802 0 1.447.188 1.935.562.494.374.862.835 1.102 1.384l-1.744.812a1.403 1.403 0 0 0-.491-.682 1.248 1.248 0 0 0-.802-.29c-.482 0-.873.16-1.173.48-.301.321-.452.719-.452 1.194 0 .474.15.872.452 1.193.3.32.691.48 1.173.48.294 0 .561-.093.802-.28a1.46 1.46 0 0 0 .49-.692l1.745.802c-.106.248-.24.478-.4.692-.161.207-.361.411-.602.612-.24.2-.538.36-.892.481-.348.114-.729.17-1.143.17ZM11.553 11.485H7.352V4.798h4.06c.642 0 1.133.174 1.474.521.341.348.512.742.512 1.183 0 .408-.107.749-.321 1.023a1.412 1.412 0 0 1-.822.511c.367.054.671.234.912.542.24.3.36.665.36 1.092 0 .502-.17.93-.51 1.284-.341.354-.83.531-1.464.531Zm-.612-4.22a.396.396 0 0 0 .401-.401.334.334 0 0 0-.12-.272.402.402 0 0 0-.28-.11H9.376v.782h1.564Zm.06 2.536c.147 0 .261-.037.341-.11a.404.404 0 0 0 .13-.311c0-.12-.043-.22-.13-.301a.461.461 0 0 0-.34-.13H9.376V9.8h1.624ZM17.34 11.485h-2.997V4.798h2.987c1.083 0 1.966.297 2.647.892C20.66 6.278 21 7.094 21 8.136c0 1.043-.34 1.862-1.023 2.457-.681.595-1.56.892-2.637.892Zm-.01-1.764c.488 0 .88-.154 1.174-.462.294-.307.44-.681.44-1.123 0-.474-.136-.855-.41-1.142-.274-.288-.672-.432-1.194-.432h-.972v3.159h.962Z" fill="#84D52C"/><g filter="url(#aeb)"><path d="m15.833 17.064 2.566-2.34 1.347.74 3.128-3.836m-2.033-.083 2.332.096m-.082 1.935-.362-2.344" stroke="#84D52C" stroke-width="1.069" shape-rendering="crispEdges"/></g></g><defs><clipPath id="aea"><path fill="#fff" d="M0 0h24v24H0z"/></clipPath><filter id="aeb" x="-9.528" y="-3.988" width="58.147" height="56.447" filterUnits="userSpaceOnUse" color-interpolation-filters="sRGB"><feFlood flood-opacity="0" result="BackgroundImageFix"/><feColorMatrix in="SourceAlpha" values="0 0 0 0 0 0 0 0 0 0 0 0 0 0 0 0 0 0 127 0" result="hardAlpha"/><feOffset dy="10"/><feGaussianBlur stdDeviation="12.5"/><feComposite in2="hardAlpha" operator="out"/><feColorMatrix values="0 0 0 0 0.0588235 0 0 0 0 0.0588235 0 0 0 0 0.0901961 0 0 0 0.35 0"/><feBlend in2="BackgroundImageFix" result="effect1_dropShadow_6095_73113"/><feBlend in="SourceGraphic" in2="effect1_dropShadow_6095_73113" result="shape"/><feColorMatrix in="SourceAlpha" values="0 0 0 0 0 0 0 0 0 0 0 0 0 0 0 0 0 0 127 0" result="hardAlpha"/><feOffset dx="5" dy="10"/><feGaussianBlur stdDeviation="7.5"/><feComposite in2="hardAlpha" operator="arithmetic" k2="-1" k3="1"/><feColorMatrix values="0 0 0 0 1 0 0 0 0 1 0 0 0 0 1 0 0 0 0.5 0"/><feBlend in2="shape" result="effect2_innerShadow_6095_73113"/></filter></defs></symbol><symbol fill="none" viewBox="0 0 24 24" id="cbdLow" xmlns="http://www.w3.org/2000/svg"><path d="M3.504 12.18c-1.005 0-1.843-.305-2.51-.916C.33 10.646 0 9.854 0 8.886c0-.974.331-1.766.993-2.378.662-.61 1.5-.916 2.511-.916.764 0 1.379.178 1.843.535.471.356.821.795 1.05 1.317l-1.66.774a1.336 1.336 0 0 0-.469-.65 1.188 1.188 0 0 0-.764-.277c-.458 0-.83.153-1.117.459-.286.305-.43.684-.43 1.136 0 .452.144.83.43 1.136.287.306.659.459 1.117.459.28 0 .535-.09.764-.268a1.39 1.39 0 0 0 .468-.658l1.662.763c-.102.236-.23.456-.382.66a3.779 3.779 0 0 1-.573.582c-.23.19-.513.343-.85.458a3.487 3.487 0 0 1-1.089.162ZM11.003 12.066H7.002v-6.37h3.867c.611 0 1.079.166 1.404.497.324.331.487.707.487 1.127 0 .388-.102.713-.306.974a1.345 1.345 0 0 1-.783.487c.35.051.64.223.869.516.23.286.344.633.344 1.04 0 .478-.163.885-.487 1.223-.325.337-.79.506-1.394.506Zm-.583-4.02a.377.377 0 0 0 .382-.382.318.318 0 0 0-.115-.258.383.383 0 0 0-.267-.105H8.93v.745h1.49Zm.057 2.416c.14 0 .249-.035.325-.105a.385.385 0 0 0 .124-.296.374.374 0 0 0-.124-.287.44.44 0 0 0-.325-.124H8.931v.812h1.546ZM16.515 12.066H13.66v-6.37h2.845c1.031 0 1.872.284 2.521.85.65.56.974 1.337.974 2.33 0 .994-.325 1.773-.974 2.34-.65.567-1.486.85-2.511.85Zm-.01-1.68c.465 0 .837-.147 1.117-.44.28-.293.42-.65.42-1.07 0-.451-.13-.814-.391-1.088-.261-.274-.64-.41-1.136-.41h-.927v3.007h.917Z" fill="#84D52C"/><path d="m17.308 11.278 2.1 2.253-.703 1.149 3.46 2.761m.112-1.751-.13 2.01m-1.772-.105 2.155-.272" stroke="#FF6D59" stroke-width="1.069"/></symbol><symbol fill="none" viewBox="0 0 16 16" id="deal" xmlns="http://www.w3.org/2000/svg"><g clip-path="url(#aga)"><g filter="url(#agb)"><path d="M13.499 4.825a2.068 2.068 0 1 0 0-4.135 2.068 2.068 0 0 0 0 4.135Z" fill="#84D52C"/></g><path fill-rule="evenodd" clip-rule="evenodd" d="M11.315 6.014a.69.69 0 0 1 .123.967l-2.02 2.606a.69.69 0 0 1-.97.12L6.642 8.288l-1.638 2.13a.69.69 0 1 1-1.093-.84l2.063-2.682a.69.69 0 0 1 .972-.122l1.808 1.42 1.594-2.057a.69.69 0 0 1 .967-.123Z" fill="#959595"/><path fill-rule="evenodd" clip-rule="evenodd" d="M1.776 2.485c.726-.782 1.757-1.215 2.966-1.215h5.01a.69.69 0 0 1 0 1.378h-5.01c-.867 0-1.517.303-1.954.774-.443.478-.72 1.187-.72 2.083v5.571c0 .9.272 1.606.71 2.08.433.468 1.082.77 1.964.77h5.928c.867 0 1.518-.3 1.955-.77.442-.477.718-1.183.718-2.08V6.225a.69.69 0 1 1 1.38 0v4.851c0 1.18-.368 2.243-1.089 3.018-.725.78-1.756 1.212-2.964 1.212H4.742c-1.219 0-2.252-.43-2.976-1.213-.718-.777-1.077-1.84-1.077-3.017v-5.57c0-1.18.368-2.245 1.087-3.02Z" fill="#959595"/></g><defs><clipPath id="aga"><path fill="#fff" d="M0 0h16v16H0z"/></clipPath><filter id="agb" x="7.295" y="-1.379" width="12.408" height="12.408" filterUnits="userSpaceOnUse" color-interpolation-filters="sRGB"><feFlood flood-opacity="0" result="BackgroundImageFix"/><feColorMatrix in="SourceAlpha" values="0 0 0 0 0 0 0 0 0 0 0 0 0 0 0 0 0 0 127 0" result="hardAlpha"/><feOffset dy="2.068"/><feGaussianBlur stdDeviation="2.068"/><feColorMatrix values="0 0 0 0 0.517647 0 0 0 0 0.835294 0 0 0 0 0.172549 0 0 0 1 0"/><feBlend in2="BackgroundImageFix" result="effect1_dropShadow_5556_74183"/><feBlend in="SourceGraphic" in2="effect1_dropShadow_5556_74183" result="shape"/></filter></defs></symbol><symbol fill="none" viewBox="0 0 18 17" id="dealAccent" xmlns="http://www.w3.org/2000/svg"><path d="m5.16 10.407 2.063-2.682 2.353 1.849 2.02-2.606" stroke="#84D52C" stroke-width="1.379" stroke-linecap="round" stroke-linejoin="round"/><path d="m5.16 10.407 2.063-2.682 2.353 1.849 2.02-2.606" stroke="url(#aha)" stroke-opacity=".2" stroke-width="1.379" stroke-linecap="round" stroke-linejoin="round"/><path d="M14.205 5.235a2.068 2.068 0 1 0 0-4.136 2.068 2.068 0 0 0 0 4.136Z" fill="#84D52C"/><path d="M14.205 5.235a2.068 2.068 0 1 0 0-4.136 2.068 2.068 0 0 0 0 4.136Z" fill="url(#ahb)" fill-opacity=".2"/><path d="M10.455 2.368h-5.01c-2.075 0-3.363 1.47-3.363 3.546v5.572c0 2.075 1.262 3.54 3.363 3.54h5.928c2.075 0 3.363-1.465 3.363-3.54V6.633" stroke="#84D52C" stroke-width="1.379" stroke-linecap="round" stroke-linejoin="round"/><path d="M10.455 2.368h-5.01c-2.075 0-3.363 1.47-3.363 3.546v5.572c0 2.075 1.262 3.54 3.363 3.54h5.928c2.075 0 3.363-1.465 3.363-3.54V6.633" stroke="url(#ahc)" stroke-opacity=".2" stroke-width="1.379" stroke-linecap="round" stroke-linejoin="round"/><defs><linearGradient id="aha" x1="11.595" y1="6.968" x2="5.252" y2="7.683" gradientUnits="userSpaceOnUse"><stop stop-color="#6BAB2B"/><stop offset="1" stop-color="#84D52C" stop-opacity="0"/></linearGradient><linearGradient id="ahb" x1="16.273" y1="1.099" x2="12.159" y2="1.346" gradientUnits="userSpaceOnUse"><stop stop-color="#6BAB2B"/><stop offset="1" stop-color="#84D52C" stop-opacity="0"/></linearGradient><linearGradient id="ahc" x1="14.736" y1="2.368" x2="2.149" y2="3.126" gradientUnits="userSpaceOnUse"><stop stop-color="#6BAB2B"/><stop offset="1" stop-color="#84D52C" stop-opacity="0"/></linearGradient></defs></symbol><symbol fill="none" viewBox="0 0 30 31" id="delivery" xmlns="http://www.w3.org/2000/svg"><path d="M6.895 5.624a1.87 1.87 0 0 0-1.87 1.87v1.87h-1.87a.625.625 0 0 0-.624.624c0 .343.28.623.624.623h9.975c.343 0 .623.281.623.624 0 .343-.28.623-.623.623H4.402a.625.625 0 0 0-.624.624c0 .343.28.623.624.623h7.48c.344 0 .624.28.624.624 0 .343-.28.623-.623.623H3.155a.625.625 0 0 0-.624.624c0 .342.28.623.624.623h7.48c.344 0 .624.28.624.623 0 .343-.28.624-.623.624H5.025v4.987a3.742 3.742 0 0 0 7.481 0h4.988a3.742 3.742 0 0 0 7.481 0h1.247a1.246 1.246 0 1 0 0-2.494V14.87c0-.662-.261-1.297-.729-1.765l-3.012-3.012a2.495 2.495 0 0 0-1.765-.728h-1.975v-1.87a1.87 1.87 0 0 0-1.87-1.871H6.894Zm16.833 9.246v.729h-4.987v-3.74h1.975l3.012 3.011ZM8.766 23.704a1.87 1.87 0 1 1 0-3.742 1.87 1.87 0 0 1 0 3.742Zm14.339-1.87a1.87 1.87 0 1 1-3.742-.002 1.87 1.87 0 0 1 3.742.001Z" fill="#fff"/></symbol><symbol fill="none" viewBox="0 0 31 30" id="deliveryFinish" xmlns="http://www.w3.org/2000/svg"><path d="M27.469 20.541c-.109-.065-2.7-1.609-5.938-1.609-.333 0-.664.013-.991.033.76-.41 1.525-.884 2.233-1.433 3.42-2.65 4.858-6.957 4.918-7.139a.51.51 0 0 0-.097-.489.53.53 0 0 0-.47-.175c-.147.022-3.655.57-6.865 3.465a22.045 22.045 0 0 0-2.343 2.507 15.74 15.74 0 0 0 .523-3.931c0-4.9-2.553-8.814-2.662-8.978-.19-.288-.671-.288-.862 0-.108.164-2.661 4.078-2.661 8.978 0 1.417.216 2.746.522 3.93a22.037 22.037 0 0 0-2.343-2.506c-3.21-2.896-6.717-3.443-6.865-3.465a.533.533 0 0 0-.47.175.51.51 0 0 0-.096.49c.06.18 1.497 4.488 4.917 7.138a16.19 16.19 0 0 0 2.234 1.433c-.327-.02-.658-.033-.992-.033-3.238 0-5.829 1.544-5.937 1.61a.512.512 0 0 0 .003.875c.11.066 2.736 1.608 5.934 1.608.714 0 1.417-.102 2.085-.256-1.093 1.278-1.057 2.762-1.053 2.836a.512.512 0 0 0 .515.49c.049 0 .098-.007.147-.021.077-.023 1.921-.581 3.335-2.203.253-.29.457-.578.64-.86v3.595c0 .283.232.512.516.512a.513.513 0 0 0 .516-.512V23.01c.183.283.388.57.641.861 1.413 1.622 3.258 2.18 3.335 2.203a.527.527 0 0 0 .446-.074.512.512 0 0 0 .216-.395c.003-.074.04-1.562-1.057-2.84a9.204 9.204 0 0 0 2.088.26c3.239 0 5.83-1.544 5.938-1.61a.512.512 0 0 0 0-.873Zm-6.516-6.59a13.928 13.928 0 0 1 5.412-2.994c-.587 1.36-1.944 4-4.226 5.769-1.89 1.465-4.283 2.406-5.702 2.879.842-1.384 2.467-3.804 4.516-5.653Zm-12.4 2.775c-2.277-1.765-3.636-4.407-4.225-5.769a13.927 13.927 0 0 1 5.412 2.995c2.046 1.846 3.672 4.268 4.515 5.652-1.419-.473-3.812-1.414-5.702-2.878Zm.608 5.276c-1.862 0-3.548-.595-4.525-1.026.967-.43 2.638-1.02 4.525-1.02 1.87 0 3.73.38 4.877.672-1.115.577-2.995 1.374-4.877 1.374Zm4.25 1.2c-.684.783-1.5 1.283-2.083 1.571a3.306 3.306 0 0 1 1.235-1.85 36.434 36.434 0 0 1 1.878-1.316 6.6 6.6 0 0 1-1.03 1.595Zm2.026-3.936c-.03.051-.063.105-.09.153l-.091-.153c-.73-1.395-1.971-4.238-1.971-7.496 0-3.389 1.348-6.346 2.061-7.673.713 1.327 2.062 4.284 2.062 7.673 0 3.258-1.241 6.101-1.971 7.496Zm1.845 3.936a6.57 6.57 0 0 1-1.027-1.593c.477.31 1.103.74 1.875 1.314a3.302 3.302 0 0 1 1.237 1.854c-.582-.287-1.396-.786-2.085-1.575Zm4.25-1.2c-1.858 0-3.747-.799-4.871-1.377 1.146-.29 3.002-.67 4.87-.67 1.884 0 3.562.594 4.53 1.024-.966.43-2.64 1.023-4.53 1.023Z" fill="#fff"/></symbol><symbol fill="none" viewBox="0 0 29 30" id="deliveryPack" xmlns="http://www.w3.org/2000/svg"><path fill-rule="evenodd" clip-rule="evenodd" d="M24.463 8.354a1.001 1.001 0 0 1 .63.93v11.571a1.002 1.002 0 0 1-.63.93l-9.685 3.875a1.002 1.002 0 0 1-.745 0l-9.685-3.875a1.002 1.002 0 0 1-.63-.93V9.284a1.002 1.002 0 0 1 .63-.93l9.314-3.726.013-.004.358-.144c.24-.096.507-.096.746 0l.36.144.013.004 9.311 3.726Zm-6.845-1.3-8.222 3.288-3.211-1.284-1.13.453v.534l8.683 3.474v10.583l.668.267.668-.267V13.52l8.684-3.473v-.535l-1.13-.453-8.222 3.287-3.211-1.284 8.221-3.288-1.798-.72Z" fill="#fff"/></symbol><symbol fill="none" viewBox="0 0 25 25" id="failedBordered" xmlns="http://www.w3.org/2000/svg"><path fill-rule="evenodd" clip-rule="evenodd" d="M12.838 4.683a8.2 8.2 0 1 0 0 16.398 8.2 8.2 0 1 0 0-16.398Zm-10 8.199c0-5.523 4.478-10 10-10 5.523 0 10 4.477 10 10 0 5.522-4.477 9.999-10 9.999-5.522 0-10-4.477-10-10Zm6.264-3.736a.9.9 0 0 1 1.273 0l2.363 2.363 2.364-2.363a.9.9 0 1 1 1.273 1.272l-2.364 2.364 2.364 2.363a.9.9 0 1 1-1.273 1.273l-2.364-2.364-2.363 2.364a.9.9 0 0 1-1.273-1.273l2.364-2.363-2.364-2.364a.9.9 0 0 1 0-1.272Z" fill="#FF6D59"/></symbol><symbol fill="none" viewBox="0 0 49 65" id="file" xmlns="http://www.w3.org/2000/svg"><path d="M29.32.594H8.07a8.03 8.03 0 0 0-8.029 8.03V56.8a8.03 8.03 0 0 0 8.03 8.03h32.117a8.029 8.029 0 0 0 8.03-8.03V19.49a4.014 4.014 0 0 0-1.176-2.838L32.159 1.771A4.015 4.015 0 0 0 29.321.594Zm.832 14.052v-8.03l12.044 12.045h-8.03a4.015 4.015 0 0 1-4.014-4.015Zm-20.074 22.08a2.008 2.008 0 0 1 0-4.014H38.18a2.008 2.008 0 0 1 0 4.015H10.078ZM8.07 42.75a2.008 2.008 0 0 1 2.008-2.007H38.18a2.008 2.008 0 0 1 0 4.014H10.078A2.008 2.008 0 0 1 8.07 42.75Zm2.008 10.037a2.008 2.008 0 0 1 0-4.015h16.059a2.007 2.007 0 1 1 0 4.015h-16.06Z" fill="#fff"/></symbol><symbol fill="none" viewBox="0 0 24 24" id="filter" xmlns="http://www.w3.org/2000/svg"><path d="M9.645 7.41h10.128M4.403 3.552a1.523 1.523 0 0 0-1.51 1.533v.903c0 .625.238 1.227.665 1.683l4.674 4.97a4.974 4.974 0 0 1 1.413 3.472v4.414a.386.386 0 0 0 .565.344l2.662-1.447a1.262 1.262 0 0 0 .65-1.115V16.1a4.97 4.97 0 0 1 1.395-3.46l4.675-4.97a2.462 2.462 0 0 0 .663-1.683v-.903a1.522 1.522 0 0 0-1.508-1.533H4.403Z" stroke="#fff" stroke-width="1.929" stroke-linecap="round" stroke-linejoin="round"/></symbol><symbol fill="none" viewBox="0 0 24 24" id="filterAdvanced" xmlns="http://www.w3.org/2000/svg"><path d="M9.648 7.564h10.128M4.406 3.706a1.523 1.523 0 0 0-1.51 1.534v.903c0 .625.238 1.227.665 1.683l4.674 4.97a4.974 4.974 0 0 1 1.413 3.471v4.415a.386.386 0 0 0 .565.343l2.662-1.447a1.263 1.263 0 0 0 .65-1.114v-2.208a4.97 4.97 0 0 1 1.395-3.46l4.675-4.97a2.463 2.463 0 0 0 .663-1.683V5.24a1.522 1.522 0 0 0-1.508-1.534H4.406Z" stroke="url(#aoa)" stroke-width="1.929" stroke-linecap="round" stroke-linejoin="round"/><defs><linearGradient id="aoa" x1="20.258" y1="12.966" x2="1.512" y2="13.05" gradientUnits="userSpaceOnUse"><stop stop-color="#58AA46"/><stop offset="1" stop-color="#FFD964"/></linearGradient></defs></symbol><symbol fill="none" viewBox="0 0 24 24" id="filterSpecial" xmlns="http://www.w3.org/2000/svg"><path d="M10.442 7.235H20.57M5.2 3.377A1.523 1.523 0 0 0 3.69 4.91v.903c0 .625.238 1.227.665 1.683l4.674 4.97a4.974 4.974 0 0 1 1.413 3.472v4.415a.387.387 0 0 0 .564.343l2.662-1.447a1.263 1.263 0 0 0 .652-1.115v-2.208a4.97 4.97 0 0 1 1.394-3.46l4.674-4.97a2.462 2.462 0 0 0 .664-1.683V4.91a1.522 1.522 0 0 0-1.508-1.533H5.2Z" stroke="url(#apa)" stroke-width="1.929" stroke-linecap="round" stroke-linejoin="round"/><defs><linearGradient id="apa" x1="21.052" y1="12.637" x2="2.306" y2="12.72" gradientUnits="userSpaceOnUse"><stop stop-color="#58AA46"/><stop offset="1" stop-color="#FFD964"/></linearGradient></defs></symbol><symbol fill="none" viewBox="0 0 20 20" id="flower" xmlns="http://www.w3.org/2000/svg"><g clip-path="url(#aqa)" stroke-width="1.5" stroke-miterlimit="1.5" stroke-linecap="round" stroke-linejoin="round"><path d="M10.833 7.5s.834-1.667.834-3.333C11.667 2.5 10 .833 10 .833S8.333 2.5 8.333 4.167c0 1.666.834 3.333.834 3.333m.833 5a2.5 2.5 0 1 0 0-5 2.5 2.5 0 0 0 0 5v0Z" stroke="#84D52C"/><path d="M10.833 7.5s.834-1.667.834-3.333C11.667 2.5 10 .833 10 .833S8.333 2.5 8.333 4.167c0 1.666.834 3.333.834 3.333m.833 5a2.5 2.5 0 1 0 0-5 2.5 2.5 0 0 0 0 5v0Z" stroke="url(#aqb)" stroke-opacity=".2"/><path d="M7.5 9.167s-1.667-.834-3.333-.834C2.5 8.333.833 10 .833 10s1.667 1.667 3.334 1.667c1.666 0 3.333-.834 3.333-.834m3.333 1.667s.834 1.667.834 3.333c0 1.667-1.667 3.334-1.667 3.334S8.333 17.5 8.333 15.833c0-1.666.834-3.333.834-3.333M12.5 9.167s1.667-.834 3.333-.834C17.5 8.333 19.167 10 19.167 10s-1.667 1.667-3.334 1.667c-1.666 0-3.333-.834-3.333-.834m-3.678-3.19s-.59-1.768-1.769-2.946C5.875 3.518 3.518 3.518 3.518 3.518s0 2.357 1.179 3.536c1.178 1.179 2.946 1.768 2.946 1.768m0 2.356s-1.768.59-2.946 1.769c-1.179 1.178-1.179 3.535-1.179 3.535s2.357 0 3.535-1.179c1.18-1.178 1.769-2.946 1.769-2.946m3.536-1.179s1.766.59 2.945 1.769c1.179 1.178 1.179 3.535 1.179 3.535s-2.357 0-3.535-1.179c-1.18-1.178-1.769-2.946-1.769-2.946m0-4.714s.59-1.768 1.769-2.946c1.178-1.179 3.535-1.179 3.535-1.179s0 2.357-1.179 3.536c-1.178 1.179-2.946 1.768-2.946 1.768" stroke="#84D52C"/><path d="M7.5 9.167s-1.667-.834-3.333-.834C2.5 8.333.833 10 .833 10s1.667 1.667 3.334 1.667c1.666 0 3.333-.834 3.333-.834m3.333 1.667s.834 1.667.834 3.333c0 1.667-1.667 3.334-1.667 3.334S8.333 17.5 8.333 15.833c0-1.666.834-3.333.834-3.333M12.5 9.167s1.667-.834 3.333-.834C17.5 8.333 19.167 10 19.167 10s-1.667 1.667-3.334 1.667c-1.666 0-3.333-.834-3.333-.834m-3.678-3.19s-.59-1.768-1.769-2.946C5.875 3.518 3.518 3.518 3.518 3.518s0 2.357 1.179 3.536c1.178 1.179 2.946 1.768 2.946 1.768m0 2.356s-1.768.59-2.946 1.769c-1.179 1.178-1.179 3.535-1.179 3.535s2.357 0 3.535-1.179c1.18-1.178 1.769-2.946 1.769-2.946m3.536-1.179s1.766.59 2.945 1.769c1.179 1.178 1.179 3.535 1.179 3.535s-2.357 0-3.535-1.179c-1.18-1.178-1.769-2.946-1.769-2.946m0-4.714s.59-1.768 1.769-2.946c1.178-1.179 3.535-1.179 3.535-1.179s0 2.357-1.179 3.536c-1.178 1.179-2.946 1.768-2.946 1.768" stroke="url(#aqc)" stroke-opacity=".2"/></g><defs><linearGradient id="aqb" x1="12.5" y1=".833" x2="7.512" y2=".962" gradientUnits="userSpaceOnUse"><stop stop-color="#6BAB2B"/><stop offset="1" stop-color="#84D52C" stop-opacity="0"/></linearGradient><linearGradient id="aqc" x1="19.167" y1="3.518" x2=".955" y2="4.803" gradientUnits="userSpaceOnUse"><stop stop-color="#6BAB2B"/><stop offset="1" stop-color="#84D52C" stop-opacity="0"/></linearGradient><clipPath id="aqa"><path fill="#fff" d="M0 0h20v20H0z"/></clipPath></defs></symbol><symbol fill="none" viewBox="0 0 22 23" id="flowerLight" xmlns="http://www.w3.org/2000/svg"><g clip-path="url(#ara)" stroke="#fff" stroke-width="1.5" stroke-miterlimit="1.5" stroke-linecap="round" stroke-linejoin="round"><path d="M12.127 8.538s.875-1.833.875-3.667c0-1.833-1.75-3.666-1.75-3.666s-1.75 1.833-1.75 3.667c0 1.833.875 3.666.875 3.666m.875 5.5c.697 0 1.364-.29 1.857-.805a2.818 2.818 0 0 0 .768-1.945c0-.73-.276-1.429-.768-1.944a2.566 2.566 0 0 0-1.857-.806c-.696 0-1.363.29-1.856.806a2.818 2.818 0 0 0-.769 1.944c0 .73.277 1.429.77 1.945.492.515 1.16.805 1.855.805v0Z"/><path d="M8.627 10.372s-1.75-.917-3.5-.917-3.5 1.833-3.5 1.833 1.75 1.834 3.5 1.834 3.5-.917 3.5-.917m3.5 1.833s.875 1.834.875 3.667c0 1.833-1.75 3.667-1.75 3.667s-1.75-1.834-1.75-3.667c0-1.833.875-3.667.875-3.667m3.5-3.666s1.75-.917 3.5-.917 3.5 1.833 3.5 1.833-1.75 1.834-3.5 1.834-3.5-.917-3.5-.917m-3.862-3.51s-.618-1.944-1.857-3.24C6.921 4.158 4.447 4.158 4.447 4.158s0 2.593 1.237 3.89c1.237 1.296 3.094 1.944 3.094 1.944m0 2.592s-1.857.649-3.094 1.946c-1.237 1.296-1.237 3.888-1.237 3.888s2.474 0 3.712-1.296 1.856-3.241 1.856-3.241m3.713-1.297s1.855.649 3.093 1.946c1.237 1.296 1.237 3.888 1.237 3.888s-2.474 0-3.711-1.296c-1.239-1.296-1.857-3.241-1.857-3.241m0-5.185s.618-1.945 1.857-3.241c1.237-1.297 3.711-1.297 3.711-1.297s0 2.593-1.237 3.89c-1.237 1.296-3.094 1.944-3.094 1.944"/></g><defs><clipPath id="ara"><path fill="#fff" transform="translate(.753 .288)" d="M0 0h21v22H0z"/></clipPath></defs></symbol><symbol fill="none" viewBox="0 0 30 30" id="inventory" xmlns="http://www.w3.org/2000/svg"><path d="M19.16 20.004h-8.568m8.569-4.962h-8.57m3.267-4.951h-3.266m8.798-6.058h-9.13a5.056 5.056 0 0 0-3.898 1.52 5.038 5.038 0 0 0-1.41 3.933v10.905a5.034 5.034 0 0 0 1.42 3.957 5.052 5.052 0 0 0 3.931 1.508h9.13a5.057 5.057 0 0 0 3.898-1.52 5.038 5.038 0 0 0 1.41-3.933V9.498a5.036 5.036 0 0 0-1.42-3.957 5.053 5.053 0 0 0-3.931-1.508Z" stroke="#fff" stroke-width="2.375" stroke-linecap="round" stroke-linejoin="round"/></symbol><symbol fill="none" viewBox="0 0 24 25" id="link" xmlns="http://www.w3.org/2000/svg"><path d="M19.646 11.991a.5.5 0 0 1 .854.354v6a2.5 2.5 0 0 1-2.5 2.5H6a2.5 2.5 0 0 1-2.5-2.5v-12a2.5 2.5 0 0 1 2.5-2.5h6a.5.5 0 0 1 0 1H6a1.5 1.5 0 0 0-1.5 1.5v12a1.5 1.5 0 0 0 1.5 1.5h12a1.5 1.5 0 0 0 1.5-1.5v-6a.5.5 0 0 1 .146-.354Z" fill="#959595"/><path d="M19.646 11.991a.5.5 0 0 1 .854.354v6a2.5 2.5 0 0 1-2.5 2.5H6a2.5 2.5 0 0 1-2.5-2.5v-12a2.5 2.5 0 0 1 2.5-2.5h6a.5.5 0 0 1 0 1H6a1.5 1.5 0 0 0-1.5 1.5v12a1.5 1.5 0 0 0 1.5 1.5h12a1.5 1.5 0 0 0 1.5-1.5v-6a.5.5 0 0 1 .146-.354Z" stroke="#84D52C"/><path d="M19.646 11.991a.5.5 0 0 1 .854.354v6a2.5 2.5 0 0 1-2.5 2.5H6a2.5 2.5 0 0 1-2.5-2.5v-12a2.5 2.5 0 0 1 2.5-2.5h6a.5.5 0 0 1 0 1H6a1.5 1.5 0 0 0-1.5 1.5v12a1.5 1.5 0 0 0 1.5 1.5h12a1.5 1.5 0 0 0 1.5-1.5v-6a.5.5 0 0 1 .146-.354Z" stroke="url(#ata)" stroke-opacity=".2"/><path d="M16 5.345h1.58l-6.29 6.28a1 1 0 0 0 0 1.42 1.001 1.001 0 0 0 1.42 0L19 6.765v1.58a1 1 0 0 0 2 0v-4a1 1 0 0 0-1-1h-4a1 1 0 0 0 0 2Z" fill="#84D52C"/><path d="M16 5.345h1.58l-6.29 6.28a1 1 0 0 0 0 1.42 1.001 1.001 0 0 0 1.42 0L19 6.765v1.58a1 1 0 0 0 2 0v-4a1 1 0 0 0-1-1h-4a1 1 0 0 0 0 2Z" fill="url(#atb)" fill-opacity=".2"/><defs><linearGradient id="ata" x1="21" y1="3.345" x2="3.095" y2="4.423" gradientUnits="userSpaceOnUse"><stop stop-color="#6BAB2B"/><stop offset="1" stop-color="#84D52C" stop-opacity="0"/></linearGradient><linearGradient id="atb" x1="21" y1="3.345" x2="11.047" y2="3.945" gradientUnits="userSpaceOnUse"><stop stop-color="#6BAB2B"/><stop offset="1" stop-color="#84D52C" stop-opacity="0"/></linearGradient></defs></symbol><symbol fill="none" viewBox="0 0 25 25" id="market" xmlns="http://www.w3.org/2000/svg"><path d="M3.563 4.578c.212-.758.318-1.137.635-1.357C4.514 3 4.952 3 5.827 3h12.69c.874 0 1.312 0 1.628.22.317.221.423.6.635 1.358l1.404 5.015c.113.404.17.605.157.77-.032.424-.35.789-.805.92-.175.05-.413.05-.89.05-.622 0-.933 0-1.194-.054-.732-.152-1.337-.61-1.625-1.23-.103-.22-.153-.488-.253-1.023-.028-.15-.042-.225-.058-.245a.125.125 0 0 0-.19 0c-.015.02-.03.095-.057.245l-.095.51-.02.104c-.206.965-1.139 1.67-2.239 1.693h-.237c-1.1-.023-2.033-.728-2.239-1.693a4.845 4.845 0 0 1-.02-.105l-.095-.51c-.028-.15-.042-.224-.058-.244a.125.125 0 0 0-.19 0c-.015.02-.03.095-.057.245l-.095.51-.02.104c-.206.965-1.139 1.67-2.239 1.693h-.238c-1.1-.023-2.032-.728-2.238-1.693l-.02-.105-.095-.51c-.028-.15-.042-.224-.058-.244a.125.125 0 0 0-.19 0c-.015.02-.03.095-.057.245-.1.535-.15.803-.253 1.024-.288.62-.893 1.077-1.625 1.229-.261.054-.572.054-1.194.054-.477 0-.715 0-.89-.05-.454-.131-.773-.496-.805-.92-.013-.165.044-.366.157-.77l1.404-5.015Z" fill="#84D52C"/><path d="M3.563 4.578c.212-.758.318-1.137.635-1.357C4.514 3 4.952 3 5.827 3h12.69c.874 0 1.312 0 1.628.22.317.221.423.6.635 1.358l1.404 5.015c.113.404.17.605.157.77-.032.424-.35.789-.805.92-.175.05-.413.05-.89.05-.622 0-.933 0-1.194-.054-.732-.152-1.337-.61-1.625-1.23-.103-.22-.153-.488-.253-1.023-.028-.15-.042-.225-.058-.245a.125.125 0 0 0-.19 0c-.015.02-.03.095-.057.245l-.095.51-.02.104c-.206.965-1.139 1.67-2.239 1.693h-.237c-1.1-.023-2.033-.728-2.239-1.693a4.845 4.845 0 0 1-.02-.105l-.095-.51c-.028-.15-.042-.224-.058-.244a.125.125 0 0 0-.19 0c-.015.02-.03.095-.057.245l-.095.51-.02.104c-.206.965-1.139 1.67-2.239 1.693h-.238c-1.1-.023-2.032-.728-2.238-1.693l-.02-.105-.095-.51c-.028-.15-.042-.224-.058-.244a.125.125 0 0 0-.19 0c-.015.02-.03.095-.057.245-.1.535-.15.803-.253 1.024-.288.62-.893 1.077-1.625 1.229-.261.054-.572.054-1.194.054-.477 0-.715 0-.89-.05-.454-.131-.773-.496-.805-.92-.013-.165.044-.366.157-.77l1.404-5.015Z" fill="url(#aua)" fill-opacity=".2"/><path d="M4.025 12.896c-.02.438-.02.953-.02 1.562v6.25c0 .982 0 1.474.341 1.779.342.305.892.305 1.992.305h3.5v-4.167c0-.575.522-1.042 1.167-1.042h2.333c.644 0 1.167.467 1.167 1.042v4.167h3.5c1.1 0 1.65 0 1.991-.305.342-.305.342-.797.342-1.779v-6.25c0-.609 0-1.123-.02-1.562-.426 0-.861-.012-1.263-.095a4.299 4.299 0 0 1-1.633-.71c-.682.49-1.54.785-2.466.804H14.637a4.382 4.382 0 0 1-2.466-.805c-.681.49-1.54.786-2.465.805H9.387a4.381 4.381 0 0 1-2.466-.805 4.3 4.3 0 0 1-1.633.71c-.402.084-.837.095-1.263.096Z" fill="#84D52C"/><path d="M4.025 12.896c-.02.438-.02.953-.02 1.562v6.25c0 .982 0 1.474.341 1.779.342.305.892.305 1.992.305h3.5v-4.167c0-.575.522-1.042 1.167-1.042h2.333c.644 0 1.167.467 1.167 1.042v4.167h3.5c1.1 0 1.65 0 1.991-.305.342-.305.342-.797.342-1.779v-6.25c0-.609 0-1.123-.02-1.562-.426 0-.861-.012-1.263-.095a4.299 4.299 0 0 1-1.633-.71c-.682.49-1.54.785-2.466.804H14.637a4.382 4.382 0 0 1-2.466-.805c-.681.49-1.54.786-2.465.805H9.387a4.381 4.381 0 0 1-2.466-.805 4.3 4.3 0 0 1-1.633.71c-.402.084-.837.095-1.263.096Z" fill="url(#aub)" fill-opacity=".2"/><defs><linearGradient id="aua" x1="22.343" y1="3" x2="2.112" y2="4.252" gradientUnits="userSpaceOnUse"><stop stop-color="#6BAB2B"/><stop offset="1" stop-color="#84D52C" stop-opacity="0"/></linearGradient><linearGradient id="aub" x1="22.343" y1="3" x2="2.112" y2="4.252" gradientUnits="userSpaceOnUse"><stop stop-color="#6BAB2B"/><stop offset="1" stop-color="#84D52C" stop-opacity="0"/></linearGradient></defs></symbol><symbol fill="none" viewBox="0 0 19 18" id="pack" xmlns="http://www.w3.org/2000/svg"><path fill-rule="evenodd" clip-rule="evenodd" d="M8.85 1.637 3.353 4.824l2.503 1.452 6.003-3.48-1.998-1.16a1.005 1.005 0 0 0-1.01 0Zm4.246.72L10.361.772a2.005 2.005 0 0 0-2.012 0L2.504 4.16c-.2.116-.364.284-.477.485-.113.2-.172.427-.172.657v6.685c0 .374.097.743.28 1.068.184.325.449.596.77.783l5.444 3.157a2.005 2.005 0 0 0 2.012 0l5.445-3.158c.321-.186.586-.457.77-.782.183-.325.28-.694.28-1.069V5.302c0-.23-.06-.457-.172-.657a1.294 1.294 0 0 0-.478-.485l-3.09-1.791a.564.564 0 0 0-.02-.012Zm-.24 1.016-6.004 3.48 2.503 1.452 6.004-3.48-2.504-1.452Zm3 2.32v6.293c0 .204-.053.404-.151.578a1.088 1.088 0 0 1-.4.408L9.86 16.13c-.002 0-.003.002-.005.003V9.17l6-3.479Zm-7 3.478-3.244-1.88a.498.498 0 0 1-.016-.01l-2.74-1.589v6.295c0 .204.052.403.15.577.098.173.237.314.4.408l5.445 3.158.004.003V9.17Zm-4.6-.273a.5.5 0 0 1 .684-.181l2.333 1.357a.5.5 0 0 1-.502.864L4.437 9.582a.5.5 0 0 1-.18-.683Z" fill="#6BAB2B"/></symbol><symbol fill="none" viewBox="0 0 22 24" id="pin" xmlns="http://www.w3.org/2000/svg"><path d="M14.108 19.629c.968-1.677.867-3.708-.076-5.44l3.363-5.826.402.233c.32.184.702.231 1.062.13.36-.1.668-.34.857-.668.19-.327.243-.715.15-1.077a1.377 1.377 0 0 0-.643-.854L11.985 1.95a1.377 1.377 0 0 0-1.062-.131c-.36.1-.668.341-.857.668a1.442 1.442 0 0 0-.15 1.077c.092.362.324.67.644.854l.402.232L7.6 10.474c-1.972.05-3.781.978-4.75 2.655l4.826 2.786-1.9 3.29a.942.942 0 0 0 .329 1.288.942.942 0 0 0 1.279-.359l1.9-3.29 4.825 2.785Z" fill="#84D52C"/><path d="M14.108 19.629c.968-1.677.867-3.708-.076-5.44l3.363-5.826.402.233c.32.184.702.231 1.062.13.36-.1.668-.34.857-.668.19-.327.243-.715.15-1.077a1.377 1.377 0 0 0-.643-.854L11.985 1.95a1.377 1.377 0 0 0-1.062-.131c-.36.1-.668.341-.857.668a1.442 1.442 0 0 0-.15 1.077c.092.362.324.67.644.854l.402.232L7.6 10.474c-1.972.05-3.781.978-4.75 2.655l4.826 2.786-1.9 3.29a.942.942 0 0 0 .329 1.288.942.942 0 0 0 1.279-.359l1.9-3.29 4.825 2.785Z" fill="url(#awa)" fill-opacity=".2"/><defs><linearGradient id="awa" x1="21.233" y1="7.288" x2="9.746" y2="1.272" gradientUnits="userSpaceOnUse"><stop stop-color="#6BAB2B"/><stop offset="1" stop-color="#84D52C" stop-opacity="0"/></linearGradient></defs></symbol><symbol fill="none" viewBox="0 0 29 29" id="price" xmlns="http://www.w3.org/2000/svg"><path d="M14.267 3.643c-5.902 0-10.688 4.777-10.688 10.669 0 5.89 4.786 10.668 10.688 10.668 5.902 0 10.687-4.777 10.687-10.668 0-5.892-4.785-10.669-10.687-10.669Zm0 19.527c-4.9 0-8.875-3.967-8.875-8.859 0-4.89 3.975-8.858 8.875-8.858s8.874 3.967 8.874 8.858c0 4.892-3.974 8.859-8.874 8.859Zm1.138-9.411-.606-.14V10.42c.906.123 1.467.69 1.562 1.385a.188.188 0 0 0 .189.165h1.07c.113 0 .201-.098.192-.21-.146-1.483-1.37-2.436-3.004-2.6v-.779a.191.191 0 0 0-.19-.19h-.671a.191.191 0 0 0-.19.19v.786c-1.69.164-3.011 1.095-3.011 2.834 0 1.61 1.188 2.386 2.435 2.683l.59.15v3.398c-1.055-.14-1.647-.702-1.768-1.46a.19.19 0 0 0-.189-.156h-1.102c-.112 0-.2.095-.19.207.107 1.31 1.101 2.514 3.224 2.67v.747c0 .105.086.19.191.19h.678c.105 0 .19-.085.19-.193l-.004-.754c1.868-.165 3.204-1.162 3.204-2.953-.002-1.653-1.055-2.391-2.6-2.772Zm-1.637-.386a3.502 3.502 0 0 1-.358-.119c-.806-.29-1.18-.76-1.18-1.364 0-.865.655-1.358 1.538-1.47v2.953Zm1.03 4.868v-3.184c.075.021.141.038.21.052 1.129.343 1.508.82 1.508 1.55 0 .931-.701 1.491-1.717 1.582Z" fill="#fff"/></symbol><symbol fill="none" viewBox="0 0 24 24" id="save" xmlns="http://www.w3.org/2000/svg"><path d="M5 21h14a2 2 0 0 0 2-2V8a1 1 0 0 0-.29-.71l-4-4A1 1 0 0 0 16 3H5a2 2 0 0 0-2 2v14a2 2 0 0 0 2 2Zm10-2H9v-5h6v5ZM13 7h-2V5h2v2ZM5 5h2v4h8V5h.59L19 8.41V19h-2v-5a2 2 0 0 0-2-2H9a2 2 0 0 0-2 2v5H5V5Z" fill="#84D52C"/><path d="M5 21h14a2 2 0 0 0 2-2V8a1 1 0 0 0-.29-.71l-4-4A1 1 0 0 0 16 3H5a2 2 0 0 0-2 2v14a2 2 0 0 0 2 2Zm10-2H9v-5h6v5ZM13 7h-2V5h2v2ZM5 5h2v4h8V5h.59L19 8.41V19h-2v-5a2 2 0 0 0-2-2H9a2 2 0 0 0-2 2v5H5V5Z" fill="url(#aya)" fill-opacity=".2"/><defs><linearGradient id="aya" x1="21" y1="3" x2="3.095" y2="4.078" gradientUnits="userSpaceOnUse"><stop stop-color="#6BAB2B"/><stop offset="1" stop-color="#84D52C" stop-opacity="0"/></linearGradient></defs></symbol><symbol fill="none" viewBox="0 0 14 15" id="successBordered" xmlns="http://www.w3.org/2000/svg"><path d="M6.206 10.121a.788.788 0 0 1-.56-.233L4.15 8.391a.791.791 0 1 1 1.119-1.118l.937.938 2.525-2.525a.791.791 0 1 1 1.119 1.12L6.763 9.888a.79.79 0 0 1-.557.232Z" fill="#84D52C"/><path d="M6.206 10.121a.788.788 0 0 1-.56-.233L4.15 8.391a.791.791 0 1 1 1.119-1.118l.937.938 2.525-2.525a.791.791 0 1 1 1.119 1.12L6.763 9.888a.79.79 0 0 1-.557.232Z" fill="url(#aza)" fill-opacity=".2"/><path d="M7 13.097A5.308 5.308 0 1 0 7 2.48a5.308 5.308 0 0 0 0 10.617Z" stroke="#84D52C"/><path d="M7 13.097A5.308 5.308 0 1 0 7 2.48a5.308 5.308 0 0 0 0 10.617Z" stroke="url(#azb)" stroke-opacity=".2"/><defs><linearGradient id="aza" x1="10.081" y1="5.455" x2="3.96" y2="5.942" gradientUnits="userSpaceOnUse"><stop stop-color="#6BAB2B"/><stop offset="1" stop-color="#84D52C" stop-opacity="0"/></linearGradient><linearGradient id="azb" x1="12.308" y1="2.48" x2="1.748" y2="3.116" gradientUnits="userSpaceOnUse"><stop stop-color="#6BAB2B"/><stop offset="1" stop-color="#84D52C" stop-opacity="0"/></linearGradient></defs></symbol><symbol fill="none" viewBox="0 0 24 25" id="thcHight" xmlns="http://www.w3.org/2000/svg"><g clip-path="url(#baa)"><path d="M3.97 12.715H1.864V7.193H0v-1.98h5.824v1.98H3.969v5.522ZM13.27 12.715h-2.104V9.847h-2.49v2.868H6.57V5.214h2.105v2.654h2.49V5.214h2.104v7.5ZM17.843 12.85c-1.097 0-2.01-.36-2.74-1.08-.722-.727-1.083-1.66-1.083-2.8 0-1.147.361-2.08 1.083-2.8.723-.72 1.636-1.08 2.74-1.08.834 0 1.504.21 2.011.63.514.42.896.937 1.146 1.552l-1.813.91c-.09-.3-.26-.554-.51-.764a1.24 1.24 0 0 0-.834-.326c-.5 0-.906.18-1.219.54-.312.36-.468.805-.468 1.338 0 .532.156.978.468 1.338.313.36.72.54 1.22.54.305 0 .583-.105.833-.315.25-.217.42-.476.51-.776l1.813.9a3.89 3.89 0 0 1-.417.776 4.315 4.315 0 0 1-.625.686 2.82 2.82 0 0 1-.927.54 3.546 3.546 0 0 1-1.188.19Z" fill="#84D52C"/><g filter="url(#bab)"><path d="M15.832 18.007 18.4 15.66l1.347.743 3.128-3.846m-2.033-.083 2.332.095m-.082 1.94-.362-2.35" stroke="#84D52C" stroke-width="1.069" shape-rendering="crispEdges"/></g></g><defs><clipPath id="baa"><path fill="#fff" transform="translate(0 .676)" d="M0 0h24v24H0z"/></clipPath><filter id="bab" x="-9.528" y="-3.061" width="58.147" height="56.462" filterUnits="userSpaceOnUse" color-interpolation-filters="sRGB"><feFlood flood-opacity="0" result="BackgroundImageFix"/><feColorMatrix in="SourceAlpha" values="0 0 0 0 0 0 0 0 0 0 0 0 0 0 0 0 0 0 127 0" result="hardAlpha"/><feOffset dy="10"/><feGaussianBlur stdDeviation="12.5"/><feComposite in2="hardAlpha" operator="out"/><feColorMatrix values="0 0 0 0 0.0588235 0 0 0 0 0.0588235 0 0 0 0 0.0901961 0 0 0 0.35 0"/><feBlend in2="BackgroundImageFix" result="effect1_dropShadow_6095_73102"/><feBlend in="SourceGraphic" in2="effect1_dropShadow_6095_73102" result="shape"/><feColorMatrix in="SourceAlpha" values="0 0 0 0 0 0 0 0 0 0 0 0 0 0 0 0 0 0 127 0" result="hardAlpha"/><feOffset dx="5" dy="10"/><feGaussianBlur stdDeviation="7.5"/><feComposite in2="hardAlpha" operator="arithmetic" k2="-1" k3="1"/><feColorMatrix values="0 0 0 0 1 0 0 0 0 1 0 0 0 0 1 0 0 0 0.5 0"/><feBlend in2="shape" result="effect2_innerShadow_6095_73102"/></filter></defs></symbol><symbol fill="none" viewBox="0 0 24 25" id="thcLow" xmlns="http://www.w3.org/2000/svg"><g clip-path="url(#bba)"><path d="M3.97 13.26H1.864V7.74H0v-1.98h5.824v1.98H3.969v5.522ZM13.27 13.26h-2.104v-2.867h-2.49v2.868H6.57V5.759h2.105v2.655h2.49V5.759h2.104v7.502ZM17.843 13.396c-1.097 0-2.01-.36-2.74-1.08-.722-.727-1.083-1.66-1.083-2.8 0-1.147.361-2.08 1.083-2.8.723-.72 1.636-1.08 2.74-1.08.834 0 1.504.21 2.011.63.514.42.896.937 1.146 1.552l-1.813.91c-.09-.3-.26-.554-.51-.764a1.24 1.24 0 0 0-.834-.326c-.5 0-.906.18-1.219.54-.312.36-.468.805-.468 1.338 0 .532.156.978.468 1.338.313.36.72.54 1.22.54.305 0 .583-.105.833-.315.25-.218.42-.476.51-.776l1.813.9a3.89 3.89 0 0 1-.417.776 4.315 4.315 0 0 1-.625.686 2.82 2.82 0 0 1-.927.54 3.546 3.546 0 0 1-1.188.19Z" fill="#84D52C"/><path d="m17.308 11.781 2.1 2.245-.703 1.145 3.46 2.753m.112-1.746-.13 2.003m-1.772-.104 2.155-.27" stroke="#FF6D59" stroke-width="1.069"/></g><defs><clipPath id="bba"><path fill="#fff" transform="translate(0 .676)" d="M0 0h24v24H0z"/></clipPath></defs></symbol></svg>