<svg width="0" height="0" style="position:absolute"><symbol viewBox="0 0 25 25" id="accept" xmlns="http://www.w3.org/2000/svg"><path d="M11.115 16.562a1.35 1.35 0 0 1-.959-.4L7.59 13.596a1.355 1.355 0 1 1 1.918-1.917l1.607 1.608 4.328-4.328a1.356 1.356 0 1 1 1.918 1.918l-5.29 5.287a1.356 1.356 0 0 1-.956.398Z"/><path d="M11.115 16.562a1.35 1.35 0 0 1-.959-.4L7.59 13.596a1.355 1.355 0 1 1 1.918-1.917l1.607 1.608 4.328-4.328a1.356 1.356 0 1 1 1.918 1.918l-5.29 5.287a1.356 1.356 0 0 1-.956.398Z" fill-opacity=".2"/><path fill-rule="evenodd" clip-rule="evenodd" d="M12.476 4.362a8.2 8.2 0 1 0 0 16.4 8.2 8.2 0 0 0 0-16.4Zm-10 8.2c0-5.523 4.477-10 10-10s10 4.477 10 10-4.477 10-10 10-10-4.477-10-10Z"/><path fill-rule="evenodd" clip-rule="evenodd" d="M12.476 4.362a8.2 8.2 0 1 0 0 16.4 8.2 8.2 0 0 0 0-16.4Zm-10 8.2c0-5.523 4.477-10 10-10s10 4.477 10 10-4.477 10-10 10-10-4.477-10-10Z" fill-opacity=".2"/></symbol><symbol viewBox="0 0 24 24" id="addDocument" xmlns="http://www.w3.org/2000/svg"><path d="M23 18h-3v-3h-2v3h-3v2h3v3h2v-3h3M6 2a2 2 0 0 0-2 2v16c0 1.11.89 2 2 2h7.81c-.36-.62-.61-1.3-.73-2H6V4h7v5h5v4.08c.33-.05.67-.08 1-.08.34 0 .67.03 1 .08V8l-6-6M8 12v2h8v-2m-8 4v2h5v-2H8Z"/><path d="M23 18h-3v-3h-2v3h-3v2h3v3h2v-3h3M6 2a2 2 0 0 0-2 2v16c0 1.11.89 2 2 2h7.81c-.36-.62-.61-1.3-.73-2H6V4h7v5h5v4.08c.33-.05.67-.08 1-.08.34 0 .67.03 1 .08V8l-6-6M8 12v2h8v-2m-8 4v2h5v-2H8Z" fill-opacity=".2"/></symbol><symbol viewBox="0 0 24 22" id="addMedia" xmlns="http://www.w3.org/2000/svg"><path d="M20.584 5.987H17.72L16.066 4.18h-5.422v1.807h4.627l1.654 1.807h3.66v10.844H6.125v-8.133H4.32v8.133c0 .994.813 1.807 1.807 1.807h14.458c.994 0 1.808-.813 1.808-1.807V7.794c0-.994-.814-1.807-1.808-1.807Zm-11.747 7.23a4.52 4.52 0 0 0 4.518 4.517 4.52 4.52 0 0 0 4.518-4.518 4.52 4.52 0 0 0-4.518-4.518 4.52 4.52 0 0 0-4.518 4.518Zm4.518-2.712c1.491 0 2.711 1.22 2.711 2.711a2.719 2.719 0 0 1-2.71 2.711 2.719 2.719 0 0 1-2.712-2.71c0-1.492 1.22-2.712 2.711-2.712ZM6.126 5.987h2.711V4.18h-2.71V1.469H4.318v2.71H1.608v1.808h2.71v2.71h1.808v-2.71Z"/></symbol><symbol viewBox="0 0 24 24" id="addMember" xmlns="http://www.w3.org/2000/svg"><path fill-rule="evenodd" clip-rule="evenodd" d="M4.634 15.18c1.422-.477 3.305-.62 5.243-.62 1.95 0 3.834.148 5.254.631.714.243 1.366.588 1.846 1.09.496.521.777 1.18.777 1.958 0 .78-.283 1.438-.783 1.957-.482.5-1.135.842-1.85 1.081-1.422.477-3.306.621-5.244.621-1.95 0-3.833-.149-5.254-.632-.714-.243-1.366-.588-1.845-1.09A2.76 2.76 0 0 1 2 18.218c0-.78.283-1.438.783-1.957.482-.5 1.136-.842 1.85-1.081Zm-.77 2.122a1.246 1.246 0 0 0-.364.916c0 .386.127.675.363.922.253.265.658.507 1.243.706 1.177.4 2.856.552 4.771.552 1.907 0 3.587-.147 4.767-.543.586-.197.993-.437 1.247-.7.236-.245.363-.532.363-.916 0-.385-.127-.675-.363-.922-.253-.265-.658-.507-1.243-.706-1.176-.4-2.856-.552-4.771-.552-1.906 0-3.586.147-4.767.543-.586.196-.993.436-1.247.7ZM6.115 3.685a5.302 5.302 0 1 1 3.764 9.054H9.843a5.302 5.302 0 0 1-3.728-9.054Zm3.746-.05a3.802 3.802 0 0 0-.015 7.604h.029a3.802 3.802 0 0 0-.014-7.604ZM19.2 8.022a.75.75 0 0 1 .75.75v4.01a.75.75 0 0 1-1.5 0v-4.01a.75.75 0 0 1 .75-.75Z"/><path fill-rule="evenodd" clip-rule="evenodd" d="M16.41 10.777a.75.75 0 0 1 .75-.75h4.09a.75.75 0 0 1 0 1.5h-4.09a.75.75 0 0 1-.75-.75Z"/></symbol><symbol viewBox="0 0 25 25" id="addRound" xmlns="http://www.w3.org/2000/svg"><path d="M12.184 3.75c4.95 0 9 4.05 9 9s-4.05 9-9 9-9-4.05-9-9 4.05-9 9-9Zm0-1.5c-5.775 0-10.5 4.725-10.5 10.5s4.725 10.5 10.5 10.5 10.5-4.725 10.5-10.5-4.725-10.5-10.5-10.5Z"/><path d="M18.184 12h-5.25V6.75h-1.5V12h-5.25v1.5h5.25v5.25h1.5V13.5h5.25V12Z"/></symbol><symbol viewBox="0 0 24 24" id="approved" xmlns="http://www.w3.org/2000/svg"><path d="M8.04 9.066c-.52-1.617-.784-3.033-.784-4.253C7.256 2.095 8.32 0 10.089 0c.906 0 1.221.51 1.567 1.752l.306 1.158c.113.406.313 1.1.596 2.074a.279.279 0 0 0 .034.075l3.248 5.082a6.67 6.67 0 0 0 3.235 2.637l1.425.545a1.983 1.983 0 0 1 1.237 2.23l-.777 4.01a2.549 2.549 0 0 1-1.896 1.992l-9.35 2.29a5.383 5.383 0 0 1-6.496-3.898l-1.784-6.994a3.116 3.116 0 0 1 3.02-3.887h3.587Z"/></symbol><symbol viewBox="0 0 15 8" id="arrowDown" xmlns="http://www.w3.org/2000/svg"><path d="M1.275.034a1.027 1.027 0 0 0-.703.585c-.081.203-.081.533.001.744.055.143.187.279 3.209 3.304 2.505 2.507 3.177 3.167 3.28 3.219.187.095.402.129.589.095.363-.068.148.131 3.565-3.288 3.4-3.403 3.228-3.217 3.281-3.556.1-.648-.482-1.229-1.12-1.116-.329.058-.203-.058-3.141 2.881L7.513 5.625 4.775 2.891C1.812-.067 1.981.088 1.647.024a.706.706 0 0 0-.372.01" fill-rule="evenodd"/></symbol><symbol viewBox="0 0 15 8" id="arrowDown" xmlns="http://www.w3.org/2000/svg"><path d="M7.506 7.995a.98.98 0 0 1-.695-.288L.777 1.672a.983.983 0 0 1 1.39-1.39l5.34 5.34 5.338-5.34a.983.983 0 0 1 1.39 1.39L8.201 7.707a.98.98 0 0 1-.695.288Z"/></symbol><symbol viewBox="0 0 9 16" id="arrowLeft" xmlns="http://www.w3.org/2000/svg"><path d="M7.286.931a1.076 1.076 0 0 0-.487.192C6.741 1.166.494 7.225.376 7.354a1.074 1.074 0 0 0-.206.363.991.991 0 0 0 0 .571c.043.132.123.272.207.364.118.129 6.363 6.187 6.422 6.23.091.066.213.125.342.165.158.049.395.049.553 0 .305-.095.521-.273.646-.535a.847.847 0 0 0 .096-.435c-.002-.282-.1-.49-.344-.731-.082-.082-1.353-1.318-2.823-2.746L2.595 8.003l.116-.115 2.764-2.682A363.92 363.92 0 0 0 8.2 2.547a.943.943 0 0 0 .237-.627.852.852 0 0 0-.097-.428.965.965 0 0 0-.458-.458 1.041 1.041 0 0 0-.596-.103" fill-rule="evenodd"/></symbol><symbol viewBox="0 0 9 16" id="arrowLeft" xmlns="http://www.w3.org/2000/svg"><path d="M.125 8a.966.966 0 0 1 .3-.703l6.28-6.1a1.04 1.04 0 0 1 .72-.28c.27.002.526.106.716.29a.98.98 0 0 1 .3.696.979.979 0 0 1-.288.7L2.595 8l5.558 5.398c.186.187.29.438.288.7a.98.98 0 0 1-.3.694c-.19.185-.447.29-.715.291a1.039 1.039 0 0 1-.72-.28l-6.281-6.1A.99.99 0 0 1 .125 8Z"/></symbol><symbol viewBox="0 0 8 14" id="arrowRight" xmlns="http://www.w3.org/2000/svg"><path d="M7.859 6.905a.945.945 0 0 1-.278.67l-5.82 5.82a.948.948 0 0 1-1.341-1.34l5.15-5.15-5.15-5.15A.948.948 0 0 1 1.76.415l5.821 5.82a.945.945 0 0 1 .278.67Z"/><path d="M7.859 6.905a.945.945 0 0 1-.278.67l-5.82 5.82a.948.948 0 0 1-1.341-1.34l5.15-5.15-5.15-5.15A.948.948 0 0 1 1.76.415l5.821 5.82a.945.945 0 0 1 .278.67Z" fill-opacity=".2"/></symbol><symbol viewBox="0 0 25 24" id="attach" xmlns="http://www.w3.org/2000/svg"><path d="M9.769 22a6.269 6.269 0 0 1-4.433-10.7l7.978-7.978a4.513 4.513 0 1 1 6.383 6.382l-6.914 6.914a2.825 2.825 0 0 1-3.9 0 2.758 2.758 0 0 1 0-3.9l5.141-5.142a1.002 1.002 0 1 1 1.418 1.418l-5.141 5.143a.752.752 0 0 0 0 1.064.77.77 0 0 0 1.064 0l6.914-6.912a2.51 2.51 0 0 0 0-3.545 2.567 2.567 0 0 0-3.546 0L6.759 12.72a4.262 4.262 0 1 0 6.028 6.027l6.205-6.2a1.002 1.002 0 1 1 1.418 1.418l-6.205 6.2A6.224 6.224 0 0 1 9.769 22Z"/></symbol><symbol viewBox="0 0 25 25" id="basket" xmlns="http://www.w3.org/2000/svg"><path d="M17.783 18.032a2 2 0 1 1-2 2c0-1.11.89-2 2-2Zm-16-16h3.27l.94 2h14.79a1 1 0 0 1 1 1c0 .17-.05.34-.12.5l-3.58 6.47c-.34.61-1 1.03-1.75 1.03h-7.45l-.9 1.63-.03.12a.25.25 0 0 0 .25.25h11.58v2h-12a2 2 0 0 1-2-2c0-.35.09-.68.24-.96l1.36-2.45-3.6-7.59h-2v-2Zm6 16a2 2 0 1 1-2 2c0-1.11.89-2 2-2Zm9-7 2.78-5H6.923l2.36 5h7.5Z"/></symbol><symbol viewBox="0 0 16 16" id="bookmark" xmlns="http://www.w3.org/2000/svg"><path d="M3.669.028a2.105 2.105 0 0 0-1.187.677c-.153.176-.235.31-.326.53-.168.408-.158-.087-.15 7.514l.007 6.922.065.093a.449.449 0 0 0 .414.223h.163l2.673-1.458L8 13.072l2.662 1.451c1.518.829 2.703 1.459 2.758 1.468.054.008.14.007.193-.003.116-.021.301-.18.351-.3.03-.072.036-1.26.036-6.982 0-7.562.01-7.066-.157-7.472a1.957 1.957 0 0 0-.979-1.026C12.426-.003 12.861.015 8.08.01 5.726.008 3.741.016 3.669.028" fill-rule="evenodd"/></symbol><symbol viewBox="0 0 16 16" id="bookmark" xmlns="http://www.w3.org/2000/svg"><g clip-path="url(#cwa)"><path d="M2 2v13.5a.5.5 0 0 0 .74.439L8 13.069l5.26 2.87A.5.5 0 0 0 14 15.5V2a2 2 0 0 0-2-2H4a2 2 0 0 0-2 2Z"/></g><defs><clipPath id="cwa"><path d="M0 0h16v16H0z"/></clipPath></defs></symbol><symbol viewBox="0 0 24 25" id="calendar" xmlns="http://www.w3.org/2000/svg"><path d="M7.82 1.678c-.472.114-.619.382-.62 1.128 0 .47-.002.474-.268.474-.22 0-1.091.187-1.418.304C4.315 4.015 3.358 4.84 2.829 5.9c-.262.525-.474 1.306-.547 2.014-.057.559-.057 9.862 0 10.463.093.985.412 1.937.88 2.626a5.84 5.84 0 0 0 1.075 1.114c.738.548 1.724.897 2.825 1.001.594.057 9.283.057 9.878 0 2.332-.221 3.988-1.492 4.556-3.498.256-.902.244-.592.244-6.44 0-5.848.012-5.538-.244-6.44-.532-1.877-2.084-3.158-4.143-3.42-.622-.079-.553-.009-.553-.562 0-.512-.044-.691-.212-.871-.387-.415-1.123-.225-1.262.324a3.464 3.464 0 0 0-.046.607v.422H8.72v-.481c0-.513-.043-.692-.212-.872a.744.744 0 0 0-.688-.209m7.46 3.552c0 .61.042.781.235.975.277.277.693.305.983.067.25-.207.3-.369.301-.982.001-.611-.048-.563.481-.47 1.938.341 2.959 1.641 2.96 3.77v.45H3.76l.001-.45c.002-1.323.407-2.344 1.19-3.002.452-.38 1.304-.72 2.019-.806l.23-.028v.476c0 .308.021.547.06.679a.732.732 0 0 0 1.158.363c.252-.209.3-.367.301-1.002l.001-.55h6.56v.51m4.96 9.16c0 4.092-.006 4.235-.202 4.87a3.212 3.212 0 0 1-2.218 2.173c-.673.194-.455.187-5.86.187h-5.1l-.385-.106c-.823-.228-1.19-.43-1.697-.934-.314-.312-.389-.416-.57-.78a4.028 4.028 0 0 1-.407-1.372c-.025-.201-.041-1.769-.041-4.097V10.56h16.48v3.83m-13-2.134c-.613.136-1.043.595-1.162 1.238-.114.615.257 1.298.853 1.57.454.207 1.02.173 1.431-.086.5-.314.792-.97.677-1.523-.133-.645-.586-1.096-1.216-1.212-.281-.051-.299-.051-.583.013m4.482-.014a1.618 1.618 0 0 0-1.073.836c-.096.196-.108.269-.109.623 0 .371.009.419.13.665a1.45 1.45 0 0 0 1.234.826c.377.024.646-.045.936-.239.866-.577.9-1.806.068-2.435a1.565 1.565 0 0 0-1.186-.276m4.44 0a1.58 1.58 0 0 0-1.069.828c-.101.206-.113.272-.113.631 0 .371.01.42.13.665.154.313.405.558.723.708.198.093.277.106.627.106.357 0 .424-.012.629-.112a1.496 1.496 0 0 0 .259-2.55 1.565 1.565 0 0 0-1.186-.276m-4.374 3.886c-.553.071-.983.436-1.225 1.041-.085.212-.088.251-.048.553.112.828.706 1.366 1.506 1.364a1.487 1.487 0 0 0 1.252-2.295c-.314-.495-.869-.743-1.485-.663m4.441 0a1.779 1.779 0 0 0-.41.108c-.252.112-.598.453-.729.72-.099.201-.11.266-.11.644 0 .382.01.44.113.64.302.591.924.924 1.563.837.828-.112 1.422-.916 1.273-1.721-.154-.827-.859-1.337-1.7-1.228m-9.195.067c-1.03.413-1.302 1.682-.527 2.458.864.863 2.292.399 2.538-.826.121-.602-.252-1.306-.837-1.58-.303-.142-.886-.168-1.174-.052" fill-rule="evenodd"/></symbol><symbol viewBox="0 0 24 25" id="calendar" xmlns="http://www.w3.org/2000/svg"><path d="M3.093 9.05a.75.75 0 0 0 0 1.5v-1.5Zm17.824 1.5a.75.75 0 0 0 0-1.5v1.5Zm-13.89 2.63-.53-.53.53.53Zm.54-.22v.75-.75Zm.53.22.53-.53-.53.53Zm-1.07 1.06-.53.531.53-.53Zm4.981-1.28v.75-.75Zm-.53.22-.53-.53.53.53Zm1.07 0 .53-.53-.53.53Zm3.898-.22v.75-.75Zm-.53.22-.53-.53.53.53Zm1.07 0 .53-.53-.53.53Zm-5.728 4.417.53.53.22-.219v-.31h-.75Zm.742.75-.005.75H12v-.75Zm-.745-.747-.53-.53-.221.221.001.312.75-.003Zm-4.227-.533-.53-.53.53.53Zm-.22.53h-.75.75Zm.22.53-.53.531.53-.53ZM16.794 2.4a.75.75 0 0 0-1.5 0h1.5Zm-1.5 3.291a.75.75 0 0 0 1.5 0h-1.5Zm-6.578-3.29a.75.75 0 0 0-1.5 0h1.5Zm-1.5 3.29a.75.75 0 0 0 1.5 0h-1.5ZM21 8.622l-.75-.002v.002H21ZM3.093 10.55h17.824v-1.5H3.093v1.5Zm4.465 3.16-1.06-1.06a1.5 1.5 0 0 0-.44 1.06h1.5Zm0 0v-1.5a1.5 1.5 0 0 0-1.06.44l1.06 1.06Zm0 0h.009v-1.5h-.009v1.5Zm.009 0 1.06-1.06a1.5 1.5 0 0 0-1.06-.44v1.5Zm0 0h1.5a1.5 1.5 0 0 0-.44-1.06l-1.06 1.06Zm0 0 1.06 1.061a1.5 1.5 0 0 0 .44-1.06h-1.5Zm0 0v1.5a1.5 1.5 0 0 0 1.06-.439l-1.06-1.06Zm0 0h-.009v1.5h.009v-1.5Zm-.009 0-1.06 1.061a1.5 1.5 0 0 0 1.06.44v-1.5Zm0 0h-1.5c0 .398.158.78.44 1.061l1.06-1.06Zm4.45-1.5a1.5 1.5 0 0 0-1.06.44l1.06 1.06v-1.5Zm-1.06.44a1.5 1.5 0 0 0-.44 1.06h1.5l-1.06-1.06Zm-.44 1.06c0 .398.158.78.44 1.061l1.06-1.06h-1.5Zm.44 1.061a1.5 1.5 0 0 0 1.06.44v-1.5l-1.06 1.06Zm1.06.44h.009v-1.5h-.009v1.5Zm.009 0a1.5 1.5 0 0 0 1.06-.44l-1.06-1.06v1.5Zm1.06-.44a1.5 1.5 0 0 0 .44-1.06h-1.5l1.06 1.06Zm.44-1.06a1.5 1.5 0 0 0-.44-1.061l-1.06 1.06h1.5Zm-.44-1.061a1.5 1.5 0 0 0-1.06-.44v1.5l1.06-1.06Zm-1.06-.44h-.009v1.5h.009v-1.5Zm4.429 0a1.5 1.5 0 0 0-1.06.44l1.06 1.06v-1.5Zm-1.06.44a1.5 1.5 0 0 0-.44 1.06h1.5l-1.06-1.06Zm-.44 1.06c0 .398.158.78.44 1.061l1.06-1.06h-1.5Zm.44 1.061a1.5 1.5 0 0 0 1.06.44v-1.5l-1.06 1.06Zm1.06.44h.009v-1.5h-.009v1.5Zm.009 0a1.5 1.5 0 0 0 1.06-.44l-1.06-1.06v1.5Zm1.06-.44a1.5 1.5 0 0 0 .44-1.06h-1.5l1.06 1.06Zm.44-1.06a1.5 1.5 0 0 0-.44-1.061l-1.06 1.06h1.5Zm-.44-1.061a1.5 1.5 0 0 0-1.06-.44v1.5l1.06-1.06Zm-1.06-.44h-.009v1.5h.009v-1.5Zm-.009 3.887a1.5 1.5 0 0 0-1.06.44l1.06 1.06v-1.5Zm-1.06.44a1.5 1.5 0 0 0-.44 1.06h1.5l-1.06-1.06Zm-.44 1.06c0 .398.158.78.44 1.061l1.06-1.06h-1.5Zm.44 1.061a1.5 1.5 0 0 0 1.06.44v-1.5l-1.06 1.06Zm1.06.44h.009v-1.5h-.009v1.5Zm.009 0a1.5 1.5 0 0 0 1.06-.44l-1.06-1.06v1.5Zm1.06-.44a1.5 1.5 0 0 0 .44-1.06h-1.5l1.06 1.06Zm.44-1.06a1.5 1.5 0 0 0-.44-1.061l-1.06 1.06h1.5Zm-.44-1.061a1.5 1.5 0 0 0-1.06-.44v1.5l1.06-1.06Zm-1.06-.44h-.009v1.5h.009v-1.5Zm-4.447 1.5-1.06-1.06a1.5 1.5 0 0 0-.44 1.06h1.5Zm0 0v-1.5a1.5 1.5 0 0 0-1.06.44l1.06 1.06Zm0 0h.009v-1.5h-.009v1.5Zm.009 0 1.06-1.06a1.5 1.5 0 0 0-1.06-.44v1.5Zm0 0h1.5a1.5 1.5 0 0 0-.44-1.06l-1.06 1.06Zm0 0 1.06 1.061a1.5 1.5 0 0 0 .44-1.06h-1.5Zm0 0v1.5a1.5 1.5 0 0 0 1.06-.439l-1.06-1.06Zm0 0H12v1.5h.017v-1.5Zm-.012 0-1.062 1.06a1.5 1.5 0 0 0 1.052.44l.01-1.5Zm0 0-1.5.006a1.5 1.5 0 0 0 .438 1.054l1.062-1.06Zm-.22.534.003-.003-1.06-1.06-.003.002 1.06 1.06Zm-4.227-2.034a1.5 1.5 0 0 0-1.06.44l1.06 1.06v-1.5Zm-1.06.44a1.5 1.5 0 0 0-.44 1.06h1.5l-1.06-1.06Zm-.44 1.06c0 .398.158.78.44 1.061l1.06-1.06h-1.5Zm.44 1.061a1.5 1.5 0 0 0 1.06.44v-1.5l-1.06 1.06Zm1.06.44h.009v-1.5h-.009v1.5Zm.009 0a1.5 1.5 0 0 0 1.06-.44l-1.06-1.06v1.5Zm1.06-.44a1.5 1.5 0 0 0 .44-1.06h-1.5l1.06 1.06Zm.44-1.06a1.5 1.5 0 0 0-.44-1.061l-1.06 1.06h1.5Zm-.44-1.061a1.5 1.5 0 0 0-1.06-.44v1.5l1.06-1.06Zm-1.06-.44h-.009v1.5h.009v-1.5ZM15.294 2.4v3.291h1.5v-3.29h-1.5Zm-8.078 0v3.291h1.5v-3.29h-1.5Zm9.022.83H7.771v1.5h8.467v-1.5Zm-8.467 0c-1.604 0-3.002.448-4.004 1.4C2.76 5.587 2.25 6.964 2.25 8.622h1.5c0-1.348.407-2.293 1.05-2.905.65-.618 1.638-.988 2.971-.988v-1.5ZM2.25 8.621v9.05h1.5v-9.05h-1.5Zm0 9.05c0 1.68.508 3.075 1.512 4.048 1 .97 2.4 1.43 4.009 1.43v-1.5c-1.329 0-2.314-.376-2.965-1.007-.647-.627-1.056-1.595-1.056-2.97h-1.5Zm5.521 5.478h8.458v-1.5H7.771v1.5Zm8.458 0c1.609 0 3.008-.45 4.008-1.406 1.006-.96 1.513-2.339 1.513-3.997h-1.5c0 1.35-.405 2.298-1.049 2.912-.648.62-1.635.991-2.972.991v1.5Zm5.521-5.403V8.622h-1.5v9.125h1.5Zm0-9.122c.005-1.659-.5-3.036-1.505-3.995-1-.953-2.4-1.4-4.007-1.4v1.5c1.339 0 2.325.37 2.972.986.64.611 1.044 1.555 1.04 2.904l1.5.005Z"/></symbol><symbol viewBox="0 0 18 19" id="calendarMonth" xmlns="http://www.w3.org/2000/svg"><path d="M3.938.756a.563.563 0 0 1 .562.562v.563h9v-.563a.563.563 0 0 1 1.125 0v.563h1.125A2.25 2.25 0 0 1 18 4.13v12.375a2.25 2.25 0 0 1-2.25 2.25H2.25A2.25 2.25 0 0 1 0 16.506V4.13a2.25 2.25 0 0 1 2.25-2.25h1.125v-.563a.563.563 0 0 1 .563-.562ZM2.25 3.006A1.125 1.125 0 0 0 1.125 4.13v12.375A1.125 1.125 0 0 0 2.25 17.63h13.5a1.125 1.125 0 0 0 1.125-1.125V4.13a1.125 1.125 0 0 0-1.125-1.125H2.25Z"/><path d="M2.813 5.256a.563.563 0 0 1 .562-.563h11.25a.562.562 0 0 1 .563.563V6.38a.563.563 0 0 1-.563.562H3.375a.563.563 0 0 1-.563-.562V5.256Zm9.562 3.937a.563.563 0 0 1 .563-.562h1.124a.562.562 0 0 1 .563.562v1.125a.563.563 0 0 1-.563.563h-1.124a.562.562 0 0 1-.563-.563V9.193ZM9 9.193a.563.563 0 0 1 .563-.562h1.124a.562.562 0 0 1 .563.562v1.125a.563.563 0 0 1-.563.563H9.563A.563.563 0 0 1 9 10.318V9.193Zm-5.625 3.375a.563.563 0 0 1 .563-.562h1.124a.562.562 0 0 1 .563.562v1.125a.563.563 0 0 1-.563.563H3.938a.563.563 0 0 1-.562-.563v-1.125Zm3.375 0a.563.563 0 0 1 .563-.562h1.125a.562.562 0 0 1 .562.562v1.125a.563.563 0 0 1-.563.563H7.313a.563.563 0 0 1-.563-.563v-1.125Z"/></symbol><symbol viewBox="0 0 25 25" id="calendarMonth" xmlns="http://www.w3.org/2000/svg"><g clip-path="url(#cya)"><path d="M5.434.75a.75.75 0 0 1 .75.75v.75h12V1.5a.75.75 0 1 1 1.5 0v.75h1.5a3 3 0 0 1 3 3v16.5a3 3 0 0 1-3 3h-18a3 3 0 0 1-3-3V5.25a3 3 0 0 1 3-3h1.5V1.5a.75.75 0 0 1 .75-.75Zm-2.25 3a1.5 1.5 0 0 0-1.5 1.5v16.5a1.5 1.5 0 0 0 1.5 1.5h18a1.5 1.5 0 0 0 1.5-1.5V5.25a1.5 1.5 0 0 0-1.5-1.5h-18Z"/><path d="M3.934 6.75a.75.75 0 0 1 .75-.75h15a.75.75 0 0 1 .75.75v1.5a.75.75 0 0 1-.75.75h-15a.75.75 0 0 1-.75-.75v-1.5ZM16.684 12a.75.75 0 0 1 .75-.75h1.5a.75.75 0 0 1 .75.75v1.5a.75.75 0 0 1-.75.75h-1.5a.75.75 0 0 1-.75-.75V12Zm-4.5 0a.75.75 0 0 1 .75-.75h1.5a.75.75 0 0 1 .75.75v1.5a.75.75 0 0 1-.75.75h-1.5a.75.75 0 0 1-.75-.75V12Zm-7.5 4.5a.75.75 0 0 1 .75-.75h1.5a.75.75 0 0 1 .75.75V18a.75.75 0 0 1-.75.75h-1.5a.75.75 0 0 1-.75-.75v-1.5Zm4.5 0a.75.75 0 0 1 .75-.75h1.5a.75.75 0 0 1 .75.75V18a.75.75 0 0 1-.75.75h-1.5a.75.75 0 0 1-.75-.75v-1.5Z"/></g><defs><clipPath id="cya"><path transform="translate(.184 .75)" d="M0 0h24v24H0z"/></clipPath></defs></symbol><symbol viewBox="0 0 18 19" id="calendarWeek" xmlns="http://www.w3.org/2000/svg"><path d="M3.938.756a.563.563 0 0 1 .562.562v.563h9v-.563a.563.563 0 0 1 1.125 0v.563h1.125A2.25 2.25 0 0 1 18 4.13v12.375a2.25 2.25 0 0 1-2.25 2.25H2.25A2.25 2.25 0 0 1 0 16.506V4.13a2.25 2.25 0 0 1 2.25-2.25h1.125v-.563a.563.563 0 0 1 .563-.562ZM2.25 3.006A1.125 1.125 0 0 0 1.125 4.13v12.375A1.125 1.125 0 0 0 2.25 17.63h13.5a1.125 1.125 0 0 0 1.125-1.125V4.13a1.125 1.125 0 0 0-1.125-1.125H2.25Z"/><path d="M2.813 5.256a.563.563 0 0 1 .562-.563h11.25a.562.562 0 0 1 .563.563V6.38a.563.563 0 0 1-.563.562H3.375a.563.563 0 0 1-.563-.562V5.256Zm9.562 3.937a.563.563 0 0 1 .563-.562h1.124a.562.562 0 0 1 .563.562v1.125a.563.563 0 0 1-.563.563h-1.124a.562.562 0 0 1-.563-.563V9.193ZM9 9.193a.563.563 0 0 1 .563-.562h1.124a.562.562 0 0 1 .563.562v1.125a.563.563 0 0 1-.563.563H9.563A.563.563 0 0 1 9 10.318V9.193Zm-5.625 3.375a.563.563 0 0 1 .563-.562h1.124a.562.562 0 0 1 .563.562v1.125a.563.563 0 0 1-.563.563H3.938a.563.563 0 0 1-.562-.563v-1.125Zm3.375 0a.563.563 0 0 1 .563-.562h1.125a.562.562 0 0 1 .562.562v1.125a.563.563 0 0 1-.563.563H7.313a.563.563 0 0 1-.563-.563v-1.125Z"/></symbol><symbol viewBox="0 0 25 25" id="calendarWeek" xmlns="http://www.w3.org/2000/svg"><g clip-path="url(#cza)"><path d="M5.434.75a.75.75 0 0 1 .75.75v.75h12V1.5a.75.75 0 1 1 1.5 0v.75h1.5a3 3 0 0 1 3 3v16.5a3 3 0 0 1-3 3h-18a3 3 0 0 1-3-3V5.25a3 3 0 0 1 3-3h1.5V1.5a.75.75 0 0 1 .75-.75Zm-2.25 3a1.5 1.5 0 0 0-1.5 1.5v16.5a1.5 1.5 0 0 0 1.5 1.5h18a1.5 1.5 0 0 0 1.5-1.5V5.25a1.5 1.5 0 0 0-1.5-1.5h-18Z"/><path d="M3.934 6.75a.75.75 0 0 1 .75-.75h15a.75.75 0 0 1 .75.75v1.5a.75.75 0 0 1-.75.75h-15a.75.75 0 0 1-.75-.75v-1.5ZM16.684 12a.75.75 0 0 1 .75-.75h1.5a.75.75 0 0 1 .75.75v1.5a.75.75 0 0 1-.75.75h-1.5a.75.75 0 0 1-.75-.75V12Zm-4.5 0a.75.75 0 0 1 .75-.75h1.5a.75.75 0 0 1 .75.75v1.5a.75.75 0 0 1-.75.75h-1.5a.75.75 0 0 1-.75-.75V12Zm-7.5 4.5a.75.75 0 0 1 .75-.75h1.5a.75.75 0 0 1 .75.75V18a.75.75 0 0 1-.75.75h-1.5a.75.75 0 0 1-.75-.75v-1.5Zm4.5 0a.75.75 0 0 1 .75-.75h1.5a.75.75 0 0 1 .75.75V18a.75.75 0 0 1-.75.75h-1.5a.75.75 0 0 1-.75-.75v-1.5Z"/></g><defs><clipPath id="cza"><path transform="translate(.184 .75)" d="M0 0h24v24H0z"/></clipPath></defs></symbol><symbol viewBox="0 0 16 16" id="cancel" xmlns="http://www.w3.org/2000/svg"><path d="M.993.993 0 1.987l.428.427c.236.234 1.582 1.588 2.992 3.008l2.563 2.581-2.991 2.992L0 13.987l1 1 1 .999 3-2.999 3-3 3 3 3 2.999 1-.999 1-1-3-3-3-3 3-3 3-3-1-1-1-1-3.007 3.006L7.987 6l-3-3-3-3-.994.993" fill-rule="evenodd"/></symbol><symbol viewBox="0 0 16 16" id="cancel" xmlns="http://www.w3.org/2000/svg"><path d="M14 0 8 6 2 0 0 2l6 6-6 5.999 2 2 6-6 6 6 2-2-6-6 6-6L14 0Z"/></symbol><symbol viewBox="0 0 16 16" id="cancelRound" xmlns="http://www.w3.org/2000/svg"><path fill-rule="evenodd" clip-rule="evenodd" d="M8.079 1.56a6.325 6.325 0 1 0 0 12.65 6.325 6.325 0 0 0 0-12.65ZM.754 7.883a7.325 7.325 0 1 1 14.65 0 7.325 7.325 0 0 1-14.65 0ZM5.4 5.206a.5.5 0 0 1 .707 0l1.897 1.896L9.9 5.206a.5.5 0 0 1 .707.707L8.712 7.809l1.896 1.897a.5.5 0 0 1-.707.707L8.004 8.517l-1.897 1.896a.5.5 0 1 1-.707-.707l1.897-1.897L5.4 5.913a.5.5 0 0 1 0-.707Z"/></symbol><symbol viewBox="0 0 25 25" id="cancelRoundBordered" xmlns="http://www.w3.org/2000/svg"><path fill-rule="evenodd" clip-rule="evenodd" d="M12.838 4.683a8.2 8.2 0 1 0 0 16.398 8.2 8.2 0 1 0 0-16.398Zm-10 8.199c0-5.523 4.478-10 10-10 5.523 0 10 4.477 10 10 0 5.522-4.477 9.999-10 9.999-5.522 0-10-4.477-10-10Zm6.264-3.736a.9.9 0 0 1 1.273 0l2.363 2.363 2.364-2.363a.9.9 0 1 1 1.273 1.272l-2.364 2.364 2.364 2.363a.9.9 0 1 1-1.273 1.273l-2.364-2.364-2.363 2.364a.9.9 0 0 1-1.273-1.273l2.364-2.363-2.364-2.364a.9.9 0 0 1 0-1.272Z"/></symbol><symbol viewBox="0 0 25 25" id="cancelThin" xmlns="http://www.w3.org/2000/svg"><path fill-rule="evenodd" clip-rule="evenodd" d="M4.888 4.016a.75.75 0 0 1 1.06 0l6.97 6.97 6.97-6.97a.75.75 0 1 1 1.06 1.06l-6.97 6.97 6.97 6.97a.75.75 0 1 1-1.06 1.06l-6.97-6.969-6.97 6.97a.75.75 0 0 1-1.06-1.06l6.97-6.97-6.97-6.97a.75.75 0 0 1 0-1.061Z"/><path fill-rule="evenodd" clip-rule="evenodd" d="M4.888 4.016a.75.75 0 0 1 1.06 0l6.97 6.97 6.97-6.97a.75.75 0 1 1 1.06 1.06l-6.97 6.97 6.97 6.97a.75.75 0 1 1-1.06 1.06l-6.97-6.969-6.97 6.97a.75.75 0 0 1-1.06-1.06l6.97-6.97-6.97-6.97a.75.75 0 0 1 0-1.061Z" fill-opacity=".2"/></symbol><symbol viewBox="0 0 20 20" id="cardView" xmlns="http://www.w3.org/2000/svg"><path fill-rule="evenodd" clip-rule="evenodd" d="M2.05 2.97C2.004 3.348 2 3.826 2 4.5c0 .678 0 1.157.046 1.536.044.37.119.512.17.575.038.048.14.152.498.241.374.093.934.148 1.786.148s1.412-.055 1.786-.148c.357-.09.46-.193.499-.241.05-.063.125-.204.169-.575C6.999 5.657 7 5.178 7 4.5c0-.675-.003-1.153-.05-1.53-.047-.368-.123-.51-.176-.577-.043-.052-.15-.156-.506-.245C5.897 2.055 5.341 2 4.5 2s-1.397.055-1.768.148c-.356.089-.463.193-.506.245-.053.066-.129.21-.175.578ZM2.246.209C2.855.055 3.605 0 4.5 0c.895 0 1.645.055 2.255.208.626.157 1.177.435 1.575.93.388.48.536 1.049.604 1.583C9 3.247 9 3.862 9 4.5v.065c0 .61 0 1.202-.06 1.708-.064.531-.206 1.101-.592 1.585-.397.499-.95.778-1.578.934C6.158 8.945 5.404 9 4.5 9c-.904 0-1.658-.055-2.27-.208-.628-.156-1.18-.435-1.578-.934C.266 7.374.124 6.804.06 6.273 0 5.767 0 5.176 0 4.565V4.5c0-.638 0-1.253.066-1.78.068-.533.216-1.101.604-1.582.399-.495.95-.773 1.575-.93ZM13.051 2.97c-.047.376-.05.854-.05 1.529 0 .678 0 1.157.045 1.536.045.37.119.512.17.575.038.048.141.152.498.241.374.093.935.148 1.786.148.852 0 1.413-.055 1.786-.148.357-.09.46-.193.499-.241.05-.063.125-.204.17-.575.044-.379.045-.858.045-1.536 0-.675-.003-1.153-.05-1.53-.047-.368-.123-.51-.176-.577-.042-.052-.15-.156-.505-.245C16.897 2.055 16.34 2 15.5 2c-.84 0-1.397.055-1.768.148-.356.089-.463.193-.505.245-.054.066-.13.21-.176.578Zm.194-2.763C13.855.055 14.605 0 15.5 0c.895 0 1.645.055 2.255.208.626.157 1.177.435 1.576.93.387.48.535 1.049.603 1.583C20 3.247 20 3.862 20 4.5v.065c0 .61 0 1.202-.06 1.708-.063.531-.206 1.101-.591 1.585-.398.499-.95.778-1.579.934-.611.153-1.366.208-2.27.208-.904 0-1.658-.055-2.27-.208-.628-.156-1.18-.435-1.578-.934-.386-.484-.528-1.054-.592-1.585C11 5.767 11 5.176 11 4.565V4.5c0-.638 0-1.253.067-1.78.067-.533.215-1.101.603-1.582.399-.495.95-.773 1.575-.93ZM2.051 13.97C2.003 14.347 2 14.825 2 15.5c0 .678 0 1.157.046 1.536.044.37.119.512.17.575.038.048.14.152.498.241.374.093.934.148 1.786.148s1.412-.055 1.786-.148c.357-.09.46-.193.499-.241.05-.063.125-.204.169-.575.045-.379.046-.858.046-1.536 0-.675-.003-1.153-.05-1.53-.047-.368-.123-.51-.176-.577-.043-.052-.15-.156-.506-.245C5.897 13.055 5.341 13 4.5 13s-1.397.055-1.768.148c-.356.089-.463.193-.506.245-.053.066-.129.21-.175.578Zm.194-2.763C2.855 11.055 3.605 11 4.5 11c.895 0 1.645.055 2.255.208.626.157 1.177.435 1.575.93.388.48.536 1.049.604 1.583C9 14.247 9 14.862 9 15.5v.065c0 .61 0 1.202-.06 1.708-.064.531-.206 1.101-.592 1.585-.397.498-.95.778-1.578.934-.612.153-1.366.208-2.27.208-.904 0-1.658-.055-2.27-.208-.628-.156-1.18-.436-1.578-.934-.386-.484-.528-1.054-.592-1.585C0 16.767 0 16.176 0 15.565V15.5c0-.638 0-1.253.066-1.78.068-.534.216-1.101.604-1.582.399-.495.95-.773 1.575-.93Zm10.806 2.763c-.047.376-.05.854-.05 1.529 0 .678 0 1.157.045 1.536.045.37.119.512.17.575.038.048.141.152.498.241.374.093.935.148 1.786.148.852 0 1.413-.055 1.786-.148.357-.09.46-.193.499-.241.05-.063.125-.204.17-.575.044-.379.045-.858.045-1.536 0-.675-.003-1.153-.05-1.53-.047-.368-.123-.51-.176-.577-.042-.052-.15-.156-.505-.245-.372-.093-.928-.148-1.769-.148-.84 0-1.397.055-1.768.148-.356.089-.463.193-.505.245-.054.066-.13.21-.176.578Zm.194-2.763c.61-.153 1.36-.208 2.255-.208.895 0 1.645.055 2.255.208.626.157 1.177.435 1.576.93.387.48.535 1.049.603 1.583.066.526.066 1.141.066 1.779v.065c0 .61 0 1.202-.06 1.708-.063.531-.206 1.101-.591 1.585-.398.498-.95.778-1.579.934-.611.153-1.366.208-2.27.208-.904 0-1.658-.055-2.27-.208-.628-.156-1.18-.436-1.578-.934-.386-.484-.528-1.054-.592-1.585-.06-.506-.06-1.097-.06-1.708V15.5c0-.638 0-1.253.067-1.78.067-.534.215-1.101.603-1.582.399-.495.95-.773 1.575-.93Z"/></symbol><symbol viewBox="0 0 21 21" id="categoryBuds" xmlns="http://www.w3.org/2000/svg"><path d="M19.917 15.478c-.088-.053-2.182-1.312-4.8-1.312-.27 0-.537.011-.802.027.615-.333 1.234-.72 1.806-1.167 2.766-2.16 3.928-5.67 3.976-5.819a.418.418 0 0 0-.078-.398.427.427 0 0 0-.38-.143c-.12.018-2.955.464-5.55 2.824a17.904 17.904 0 0 0-1.894 2.043c.247-.966.422-2.05.422-3.203 0-3.993-2.064-7.183-2.152-7.317-.153-.234-.542-.234-.696 0-.088.134-2.152 3.324-2.152 7.317 0 1.154.175 2.237.423 3.203A17.906 17.906 0 0 0 6.145 9.49C3.55 7.13.715 6.684.595 6.666a.43.43 0 0 0-.38.143.418.418 0 0 0-.077.398c.048.149 1.21 3.658 3.975 5.819.573.447 1.192.834 1.806 1.167a13.034 13.034 0 0 0-.802-.027c-2.618 0-4.712 1.259-4.8 1.312a.418.418 0 0 0 .002.714c.09.053 2.212 1.31 4.798 1.31.577 0 1.145-.083 1.685-.209a3.653 3.653 0 0 0-.851 2.311.418.418 0 0 0 .535.382c.063-.018 1.554-.473 2.696-1.794.205-.237.37-.472.519-.702v2.93a.417.417 0 1 0 .833 0v-2.93c.148.23.313.465.518.702 1.143 1.32 2.634 1.776 2.696 1.794a.423.423 0 0 0 .36-.06.418.418 0 0 0 .175-.322 3.652 3.652 0 0 0-.854-2.315 7.38 7.38 0 0 0 1.688.213c2.618 0 4.712-1.258 4.8-1.312a.417.417 0 0 0 0-.712Zm-5.267-5.37a11.232 11.232 0 0 1 4.375-2.441c-.475 1.108-1.572 3.26-3.416 4.701-1.528 1.194-3.463 1.96-4.61 2.346.68-1.127 1.994-3.1 3.65-4.606Zm-10.024 2.26c-1.841-1.438-2.94-3.591-3.416-4.7.969.278 2.739.951 4.375 2.44 1.654 1.504 2.968 3.478 3.65 4.606-1.147-.386-3.082-1.152-4.61-2.346Zm.491 4.3c-1.505 0-2.868-.485-3.658-.836.782-.35 2.133-.832 3.658-.832 1.51 0 3.015.31 3.943.548-.902.47-2.422 1.12-3.943 1.12Zm3.435.978a5.46 5.46 0 0 1-1.683 1.28c.114-.447.38-1.044.998-1.508.626-.47 1.133-.82 1.519-1.072a5.384 5.384 0 0 1-.834 1.3Zm1.638-3.207-.073.124-.073-.124c-.59-1.137-1.594-3.454-1.594-6.11 0-2.761 1.09-5.17 1.667-6.252.577 1.081 1.667 3.49 1.667 6.253 0 2.655-1.004 4.972-1.594 6.109Zm1.492 3.207a5.36 5.36 0 0 1-.83-1.298c.385.252.891.602 1.515 1.07.62.466.887 1.064 1 1.511a5.446 5.446 0 0 1-1.685-1.283Zm3.435-.978c-1.501 0-3.029-.65-3.937-1.122.927-.236 2.427-.546 3.937-.546 1.523 0 2.88.484 3.662.835-.781.35-2.134.833-3.662.833Z"/></symbol><symbol viewBox="0 0 16 21" id="categoryConcentrate" xmlns="http://www.w3.org/2000/svg"><path fill-rule="evenodd" clip-rule="evenodd" d="M14.925 16.392C12.652 10.717 10 9.222 10 6.392V3.059h.556a.556.556 0 0 0 .555-.556V1.392a.555.555 0 0 0-.555-.556H5a.556.556 0 0 0-.555.556v1.111A.556.556 0 0 0 5 3.06h.556v3.333c0 2.83-2.652 4.325-4.925 10-.723 1.806-2.58 4.444 7.147 4.444 9.728 0 7.87-2.638 7.147-4.444Zm-1.797 1.945c-.78.234-2.332.5-5.35.5s-4.57-.266-5.35-.5c-.277-.082-.384-.403-.287-.697.245-.745.706-2.031 1.568-3.468 2.107-3.51 4.292.552 6.111.552 1.82 0 1.32-1.734 2.027-.552a17.063 17.063 0 0 1 1.568 3.468c.098.294-.01.614-.287.697Z"/></symbol><symbol viewBox="0 0 20 21" id="categoryEdible" xmlns="http://www.w3.org/2000/svg"><path d="M17.375 5.522c-.046-.645.21-1.25-.3-1.76-.266-.267-.56-.324-.872-.324-.23 0-.468.03-.714.03a2.34 2.34 0 0 1-.174-.007c-.878-1.608-.982-3.291-1.918-2.356-1.043 1.043-1.692 3.914-.616 5.774A4.814 4.814 0 0 0 10.004 6a4.838 4.838 0 0 0-4.84 4.839c0 1.037.33 1.995.885 2.783-1.86-1.08-4.736-.432-5.78.611-.936.937.747 1.04 2.356 1.919.047.645-.21 1.25.3 1.76.267.267.56.324.872.324.23 0 .468-.03.713-.03.058 0 .117.003.176.007.877 1.608.982 3.29 1.918 2.356 1.043-1.044 1.691-3.919.613-5.778a4.81 4.81 0 0 0 2.786.886 4.838 4.838 0 0 0 3.957-7.619c1.86 1.074 4.729.424 5.771-.617.936-.936-.747-1.04-2.356-1.918m-1.172-1.446c.24 0 .33.046.422.136.147.148.15.299.123.726-.018.287-.04.613.04.974.19.87.748 1.388 1.322 1.694a5.6 5.6 0 0 1-1.875.325c-1.033 0-1.908-.307-2.465-.864-1.08-1.079-1.022-3.02-.542-4.344.306.575.824 1.135 1.698 1.327.173.038.357.056.563.056.145 0 .28-.008.41-.016.109-.008.211-.014.304-.014ZM3.798 17.597c-.24 0-.33-.046-.422-.137-.147-.147-.15-.298-.123-.725.019-.287.04-.614-.04-.974-.191-.871-.749-1.388-1.323-1.695a5.6 5.6 0 0 1 1.875-.324c1.034 0 1.909.306 2.466.863 1.078 1.08 1.021 3.02.541 4.345-.305-.575-.823-1.135-1.697-1.326a2.594 2.594 0 0 0-.564-.057c-.146 0-.28.009-.41.017a4.67 4.67 0 0 1-.303.013m8.232-2.989c.465-2.488-1.373-3.243-1.989-3.72a2.349 2.349 0 0 1-2.206 3.636 4.292 4.292 0 0 1-1.596-1.647c2.538.463 3.273-1.462 3.752-2.033l-.001-.003a2.348 2.348 0 0 1-3.003-.262 2.331 2.331 0 0 1-.669-1.911c.394-.67.962-1.22 1.643-1.593-.473 2.538 1.45 3.27 2.025 3.747a2.35 2.35 0 0 1 2.19-3.667 4.297 4.297 0 0 1 1.596 1.654c-2.538-.475-3.283 1.43-3.763 2.016l-.003.01.005.006a2.349 2.349 0 0 1 3.009.258 2.335 2.335 0 0 1 .67 1.907 4.293 4.293 0 0 1-1.66 1.602"/></symbol><symbol viewBox="0 0 20 22" id="categoryNonEdible" xmlns="http://www.w3.org/2000/svg"><path fill-rule="evenodd" clip-rule="evenodd" d="M.903 7.093a.75.75 0 0 1 .84.646l1.165 8.926A3.125 3.125 0 0 0 5.2 19.281a18.63 18.63 0 0 0 9.598 0 3.124 3.124 0 0 0 2.293-2.616l1.164-8.926a.75.75 0 1 1 1.488.194L18.58 16.86a4.625 4.625 0 0 1-3.395 3.871 20.13 20.13 0 0 1-10.37 0 4.625 4.625 0 0 1-3.395-3.87L.256 7.932a.75.75 0 0 1 .647-.84Z"/><path fill-rule="evenodd" clip-rule="evenodd" d="M3.751 5.88a.75.75 0 0 1-.493.939c-.602.187-1.029.384-1.288.565a1.017 1.017 0 0 0-.195.166c.039.047.126.132.319.247.365.22.945.445 1.727.643 1.553.394 3.738.646 6.18.646 2.44 0 4.626-.252 6.178-.646.782-.198 1.362-.423 1.728-.643.192-.115.28-.2.319-.247a1.013 1.013 0 0 0-.196-.167c-.26-.18-.686-.378-1.289-.564a.75.75 0 1 1 .444-1.433c.67.208 1.262.46 1.703.767.417.29.862.75.862 1.397 0 .74-.573 1.234-1.071 1.533-.545.328-1.284.596-2.13.811-1.705.433-4.02.692-6.549.692-2.528 0-4.843-.26-6.548-.692-.847-.215-1.586-.483-2.13-.81C.822 8.783.25 8.288.25 7.55c0-.647.445-1.106.861-1.396.44-.307 1.032-.56 1.702-.768a.75.75 0 0 1 .938.494Zm14.505 1.715v-.002Zm-16.512 0v-.001Z"/><path fill-rule="evenodd" clip-rule="evenodd" d="M7.056.892A2.75 2.75 0 0 1 9 .086h2a2.75 2.75 0 0 1 2.673 2.104l2.453.417.02.004c.948.188 1.77.427 2.372.72.3.147.586.324.805.547.223.224.427.547.427.958 0 .383-.178.69-.381.912-.2.216-.458.39-.727.531-.54.284-1.273.517-2.116.704-1.696.377-4.003.603-6.526.603-2.523 0-4.83-.226-6.526-.603-.842-.187-1.575-.42-2.115-.704a2.672 2.672 0 0 1-.728-.531c-.203-.221-.38-.529-.38-.912 0-.41.203-.734.426-.959.22-.222.505-.4.805-.546.603-.293 1.425-.533 2.373-.72l.02-.004 2.452-.417A2.75 2.75 0 0 1 7.056.892Zm.694 1.934a.75.75 0 0 1-.624.75l-2.99.508c-.888.176-1.563.385-1.998.596-.12.058-.21.111-.276.156.05.034.114.073.194.115.37.195.956.393 1.743.568 1.561.346 3.754.567 6.201.567 2.447 0 4.64-.22 6.201-.567.787-.175 1.372-.373 1.743-.568.08-.042.144-.08.193-.114a2.192 2.192 0 0 0-.275-.156c-.434-.212-1.11-.42-1.998-.597l-2.977-.506a.752.752 0 0 1-.637-.752A1.25 1.25 0 0 0 11 1.586H9a1.25 1.25 0 0 0-1.25 1.24Z"/></symbol><symbol viewBox="0 0 20 20" id="categorySeller" xmlns="http://www.w3.org/2000/svg"><path d="M19.376 9.172 10.859.655a1.927 1.927 0 0 0-1.36-.56H2.583C1.523.096.654.965.654 2.026V8.94c0 .512.203 1.004.57 1.36l8.516 8.517a1.933 1.933 0 0 0 2.73 0l6.915-6.915a1.924 1.924 0 0 0-.01-2.73ZM4.995 5.882c-.8 0-1.447-.645-1.447-1.446 0-.8.646-1.447 1.447-1.447.8 0 1.446.647 1.446 1.447s-.646 1.447-1.446 1.447Z"/></symbol><symbol viewBox="0 0 23 23" id="categoryState" xmlns="http://www.w3.org/2000/svg"><path d="M11.574.89C5.58.89.723 5.748.723 11.741c0 5.993 4.858 10.851 10.85 10.851 5.993 0 10.852-4.858 10.852-10.85C22.425 5.747 17.566.89 11.574.89ZM6.948 20.746a10.154 10.154 0 0 1-2.314-1.64h13.88a10.162 10.162 0 0 1-2.315 1.64H6.95Zm-3.722-3.28a10.105 10.105 0 0 1-.916-1.639h18.527c-.253.574-.56 1.123-.915 1.64H3.226m-1.48-3.279a10.072 10.072 0 0 1-.265-1.64h20.185a10.081 10.081 0 0 1-.265 1.64H1.747m1.342-7.966h.136l.12-.373.067-.095.15.468h.543l-.44.348.168.539-.44-.32-.44.328.169-.548-.17-.134c.044-.072.09-.142.137-.213m.744 5.155-.44-.32-.44.328.169-.548-.44-.347h.543l.168-.528.168.528h.544l-.44.348.168.539m6.674-7.816.168.527h.543l-.44.348.168.54-.44-.321-.44.328.169-.548-.44-.347h.543l.169-.527m-.169 4.795.169-.527.168.527h.543l-.44.348.168.54-.44-.321-.44.328.169-.548-.44-.347h.543ZM9.355 6.57l.169.539-.44-.32-.44.328.168-.548-.44-.347h.544l.168-.528.168.528h.543l-.44.348m.169 4.807-.44-.32-.44.328.168-.548-.44-.347h.544l.168-.528.168.528h.543l-.44.348.169.539m-1.59-6.941.167.54-.44-.321-.44.328.169-.548-.44-.347h.543l.168-.528.169.528h.543l-.44.348m-.44 3.92.168-.527.169.527h.543l-.44.348.168.54-.44-.321-.44.328.169-.548-.44-.347h.543ZM6.51 6.57l.168.539-.44-.32-.44.328.169-.548-.44-.347h.543l.169-.528.168.528h.543l-.44.348m-.44 3.92.169-.527.168.527h.543l-.44.348.168.539-.44-.32-.44.328.169-.548-.44-.347h.543Zm-.983-1.786.168.54-.44-.321-.44.328.169-.548-.44-.347h.543l.169-.527.168.527h.543l-.44.348m6.487.565h9.82c.134.53.224 1.079.27 1.64h-10.09v-1.64Zm0-1.64V5.99h8.33c.357.517.666 1.066.922 1.64h-9.252m0-3.28V2.71h4.574c.853.434 1.64.986 2.339 1.64h-6.913ZM9.23 1.89l.02.064h.544l-.44.348.169.54-.44-.321-.44.328.168-.548-.279-.22c.23-.072.463-.136.698-.191M4.984 4.088h.543l-.44.348.168.54-.44-.321-.44.328.158-.512c.144-.14.292-.274.444-.405l.007.022M2.139 8.356h.543l-.44.348.168.54-.44-.321-.155.116c.08-.286.17-.567.273-.843l.05.16"/></symbol><symbol viewBox="0 0 17 17" id="changeRound" xmlns="http://www.w3.org/2000/svg"><path d="m8.307 13.443 1.964-1.948-1.964-1.947-.724.723.741.742a2.39 2.39 0 0 1-.939-.155 2.294 2.294 0 0 1-.819-.535 2.365 2.365 0 0 1-.526-.793 2.272 2.272 0 0 1-.103-1.482 2.95 2.95 0 0 1 .216-.568l-.759-.759a3.161 3.161 0 0 0-.43.914c-.092.321-.138.649-.138.982 0 .437.086.868.258 1.293.172.425.425.804.758 1.137.334.333.707.583 1.12.75.414.166.84.255 1.276.267l-.655.655.724.724Zm2.843-2.93a3.16 3.16 0 0 0 .431-.914 3.56 3.56 0 0 0 .138-.982c0-.436-.083-.87-.25-1.301a3.283 3.283 0 0 0-.75-1.146 3.211 3.211 0 0 0-1.128-.741 3.56 3.56 0 0 0-1.284-.241l.655-.673-.724-.723-1.965 1.947 1.965 1.947.724-.723-.759-.759c.31 0 .627.06.948.181.322.12.598.296.828.526.23.23.405.494.526.793a2.273 2.273 0 0 1 .103 1.482 2.953 2.953 0 0 1-.216.569l.758.758ZM8.272 15.51a6.71 6.71 0 0 1-2.688-.544 6.957 6.957 0 0 1-2.189-1.473 6.956 6.956 0 0 1-1.473-2.188 6.709 6.709 0 0 1-.543-2.689c0-.954.181-1.85.543-2.688A6.957 6.957 0 0 1 3.395 3.74a6.966 6.966 0 0 1 2.189-1.474 6.716 6.716 0 0 1 2.688-.542c.954 0 1.85.18 2.689.542a6.966 6.966 0 0 1 2.188 1.474c.62.62 1.112 1.35 1.474 2.189.362.838.543 1.734.543 2.688 0 .954-.181 1.85-.543 2.688a6.954 6.954 0 0 1-1.473 2.19 6.957 6.957 0 0 1-2.19 1.472 6.71 6.71 0 0 1-2.688.544Z"/></symbol><symbol viewBox="0 0 31 30" id="check" xmlns="http://www.w3.org/2000/svg"><g clip-path="url(#bba)"><path d="M25.864 2.797A2.694 2.694 0 0 1 27.788 2a2.698 2.698 0 0 1 1.912.827c.511.525.808 1.238.826 1.987a2.97 2.97 0 0 1-.724 2.03L15.118 26.076a2.766 2.766 0 0 1-.896.672 2.657 2.657 0 0 1-2.16.042 2.755 2.755 0 0 1-.918-.637L1.405 15.955a2.891 2.891 0 0 1-.64-.938 3.006 3.006 0 0 1-.038-2.26c.139-.36.346-.686.608-.96.262-.275.574-.492.918-.637a2.65 2.65 0 0 1 2.157.04c.338.158.643.386.896.67l7.706 8.066L25.794 2.883a.998.998 0 0 1 .074-.085h-.004Z"/></g><defs><clipPath id="bba"><path transform="translate(.527)" d="M0 0h30v30H0z"/></clipPath></defs></symbol><symbol viewBox="0 0 24 24" id="company" xmlns="http://www.w3.org/2000/svg"><path d="M18.883 6.617a1.588 1.588 0 0 0-.53-3.086H4.59a1.588 1.588 0 0 0-.529 3.086v11.206a.53.53 0 0 0 .53.53h1.587v-4.765a.53.53 0 0 1 .53-.53h4.235c.397-.53.98-.892 1.632-1.013l.009-.045H6.708a.53.53 0 0 1-.53-.53V8.296a.53.53 0 0 1 .53-.53h9.528a.53.53 0 0 1 .53.53v1.588h.529c.596 0 1.145.197 1.588.53V6.616ZM4.59 4.589h13.763a.53.53 0 0 1 0 1.06H4.59a.53.53 0 0 1 0-1.06Zm5.823 9.529v4.234H7.237v-4.234h3.176Zm4.764-4.235h.53V8.824h-8.47v2.118h5.823a2.642 2.642 0 0 1 2.117-1.06Zm-1.588 3.176v-.53a1.588 1.588 0 0 1 1.588-1.587h2.118a1.588 1.588 0 0 1 1.588 1.588v.529h.529A1.588 1.588 0 0 1 21 14.647v1.588h-2.117v-.53a.53.53 0 1 0-1.06 0v.53h-3.175v-.53a.53.53 0 0 0-1.059 0v.53h-2.117v-1.588a1.588 1.588 0 0 1 1.588-1.588h.53Zm1.059-.53v.53h3.176v-.53a.529.529 0 0 0-.53-.529h-2.117a.53.53 0 0 0-.53.53Zm4.235 5.294v-.53H21v1.589a1.588 1.588 0 0 1-1.588 1.588H13.06a1.588 1.588 0 0 1-1.588-1.588v-1.588h2.117v.529a.53.53 0 0 0 1.059 0v-.53h3.176v.53a.53.53 0 0 0 1.059 0Z"/></symbol><symbol viewBox="0 0 25 25" id="creditCard" xmlns="http://www.w3.org/2000/svg"><path d="M4.813 6.335c-.895.12-1.649.728-1.896 1.528-.082.264-.084.381-.084 4.887 0 4.506.002 4.623.084 4.887.169.548.602 1.037 1.154 1.305.582.282.168.269 8.262.257l7.313-.011.336-.115c.776-.262 1.361-.885 1.513-1.606.066-.311.066-9.123 0-9.434-.152-.724-.716-1.32-1.517-1.603l-.332-.117-7.292-.006c-4.01-.003-7.404.009-7.541.028m3.591 3.288c.232.142.263.255.263.981s-.031.84-.263.981c-.125.076-.218.081-1.487.081-1.27 0-1.363-.005-1.488-.081-.232-.141-.262-.255-.262-.981s.03-.839.262-.981c.125-.076.218-.081 1.488-.081 1.269 0 1.362.005 1.487.081m3.445 3.185a.514.514 0 0 1 .013.944c-.166.076-.318.08-3.186.08-2.46.001-3.037-.009-3.146-.056-.44-.187-.481-.727-.072-.945.139-.073.303-.077 3.2-.079 2.512-.002 3.078.008 3.191.056m-4.637 2.173a.508.508 0 0 1 .206.715c-.154.253-.27.283-1.085.283-.623 0-.749-.011-.866-.075-.373-.203-.393-.689-.038-.906.12-.073.213-.081.896-.081.607 0 .788.013.887.064m3.495-.003c.317.164.394.529.166.788-.163.186-.382.234-1.052.233-.768-.001-.991-.081-1.11-.394a.504.504 0 0 1 .201-.593c.135-.091.179-.095.909-.095.595 0 .793.013.886.061m3.541.007c.342.202.334.705-.014.916-.114.069-.219.078-.88.078s-.765-.009-.88-.078c-.345-.209-.356-.706-.021-.914.162-.101 1.625-.103 1.795-.002m3.524.016a.514.514 0 0 1-.039.905c-.167.09-1.192.126-1.536.054-.31-.064-.489-.252-.489-.515 0-.202.079-.334.266-.448.116-.071.216-.08.896-.08.695 0 .779.007.902.084" fill-rule="evenodd"/></symbol><symbol viewBox="0 0 25 25" id="creditCard" xmlns="http://www.w3.org/2000/svg"><path d="M2.823 8.451c0-.57.246-1.116.685-1.52a2.45 2.45 0 0 1 1.655-.629h14.041c.62 0 1.216.226 1.655.63.439.403.685.95.685 1.52v8.597c0 .57-.246 1.117-.685 1.52a2.45 2.45 0 0 1-1.655.63H5.164a2.45 2.45 0 0 1-1.656-.63 2.065 2.065 0 0 1-.685-1.52V8.451Zm2.925 1.075a.612.612 0 0 0-.414.158.516.516 0 0 0-.17.38v1.074c0 .143.06.28.17.38.11.101.259.158.414.158h2.34a.612.612 0 0 0 .414-.158c.11-.1.171-.237.171-.38v-1.074a.516.516 0 0 0-.171-.38.612.612 0 0 0-.414-.158h-2.34Zm0 3.224a.612.612 0 0 0-.414.158.516.516 0 0 0-.17.38c0 .142.06.279.17.38.11.1.259.157.414.157h5.85a.612.612 0 0 0 .414-.157c.11-.101.172-.238.172-.38a.516.516 0 0 0-.172-.38.612.612 0 0 0-.414-.158h-5.85Zm0 2.15a.613.613 0 0 0-.414.157.516.516 0 0 0-.17.38c0 .143.06.28.17.38.11.101.259.158.414.158h1.17a.612.612 0 0 0 .414-.158c.11-.1.171-.237.171-.38a.516.516 0 0 0-.171-.38.613.613 0 0 0-.414-.157h-1.17Zm3.51 0a.613.613 0 0 0-.413.157.516.516 0 0 0-.172.38c0 .143.062.28.172.38.11.101.258.158.413.158h1.17a.612.612 0 0 0 .414-.158c.11-.1.171-.237.171-.38a.516.516 0 0 0-.17-.38.613.613 0 0 0-.415-.157h-1.17Zm3.51 0a.613.613 0 0 0-.413.157.516.516 0 0 0-.171.38c0 .143.061.28.17.38.11.101.26.158.415.158h1.17a.612.612 0 0 0 .413-.158c.11-.1.172-.237.172-.38a.516.516 0 0 0-.172-.38.613.613 0 0 0-.413-.157h-1.17Zm3.51 0a.613.613 0 0 0-.413.157.516.516 0 0 0-.171.38c0 .143.061.28.171.38.11.101.259.158.414.158h1.17a.612.612 0 0 0 .414-.158c.11-.1.171-.237.171-.38a.516.516 0 0 0-.171-.38.613.613 0 0 0-.414-.157h-1.17Z"/></symbol><symbol viewBox="0 0 25 24" id="deal" xmlns="http://www.w3.org/2000/svg"><path fill-rule="evenodd" clip-rule="evenodd" d="M3.37 3.605C4.422 2.47 5.918 1.842 7.67 1.842h7.269a1 1 0 1 1 0 2H7.67c-1.257 0-2.2.438-2.835 1.123-.642.693-1.044 1.72-1.044 3.021v8.082c0 1.305.395 2.33 1.031 3.018.627.678 1.569 1.117 2.848 1.117h8.6c1.259 0 2.203-.437 2.837-1.12.641-.69 1.043-1.715 1.043-3.015V9.03a1 1 0 1 1 2 0v7.038c0 1.711-.534 3.253-1.578 4.377-1.053 1.133-2.55 1.758-4.302 1.758h-8.6c-1.768 0-3.266-.623-4.316-1.76-1.042-1.126-1.563-2.67-1.563-4.375V7.986c0-1.71.533-3.255 1.578-4.381Zm13.838 5.12a1 1 0 0 1 .178 1.402l-2.93 3.78a1 1 0 0 1-1.407.174l-2.62-2.058-2.377 3.09a1 1 0 1 1-1.585-1.22l2.993-3.89a1 1 0 0 1 1.41-.176l2.622 2.06 2.313-2.984a1 1 0 0 1 1.403-.178Z"/></symbol><symbol viewBox="0 0 29 27" id="deal" xmlns="http://www.w3.org/2000/svg"><path d="m6.643 17.253 2.993-3.89 3.415 2.682 2.928-3.78"/><g filter="url(#dca)"><path d="M19.76 9.75a3 3 0 1 0 0-6 3 3 0 0 0 0 6Z"/></g><path d="M14.323 5.592H7.056c-3.011 0-4.88 2.133-4.88 5.144v8.082c0 3.011 1.832 5.135 4.88 5.135h8.6c3.01 0 4.879-2.124 4.879-5.135V11.78"/><defs><filter id="dca" x="10.761" y=".75" width="18" height="18" filterUnits="userSpaceOnUse" color-interpolation-filters="sRGB"><feFlood flood-opacity="0" result="BackgroundImageFix"/><feColorMatrix in="SourceAlpha" values="0 0 0 0 0 0 0 0 0 0 0 0 0 0 0 0 0 0 127 0" result="hardAlpha"/><feOffset dy="3"/><feGaussianBlur stdDeviation="3"/><feColorMatrix values="0 0 0 0 0.517647 0 0 0 0 0.835294 0 0 0 0 0.172549 0 0 0 1 0"/><feBlend in2="BackgroundImageFix" result="effect1_dropShadow_5489_73139"/><feBlend in="SourceGraphic" in2="effect1_dropShadow_5489_73139" result="shape"/></filter></defs></symbol><symbol viewBox="0 0 27 25" id="deal2" xmlns="http://www.w3.org/2000/svg"><path fill-rule="evenodd" clip-rule="evenodd" d="M16.416 9.725a1 1 0 0 1 .178 1.403l-2.928 3.78a1 1 0 0 1-1.409.174l-2.619-2.058-2.377 3.089a1 1 0 0 1-1.585-1.22l2.993-3.89a1 1 0 0 1 1.41-.176l2.622 2.06 2.313-2.984a1 1 0 0 1 1.402-.178Z"/><g filter="url(#bfa)"><path d="M19.586 8a3 3 0 1 0 0-6 3 3 0 0 0 0 6Z"/></g><path fill-rule="evenodd" clip-rule="evenodd" d="M2.577 4.605C3.629 3.47 5.125 2.842 6.879 2.842h7.267a1 1 0 1 1 0 2H6.879c-1.257 0-2.2.438-2.835 1.123C3.4 6.658 3 7.685 3 8.985v8.083c0 1.305.395 2.33 1.03 3.018.628.678 1.569 1.117 2.849 1.117h8.599c1.258 0 2.202-.437 2.836-1.12.642-.69 1.043-1.715 1.043-3.015V10.03a1 1 0 1 1 2 0v7.038c0 1.71-.533 3.253-1.578 4.377-1.053 1.133-2.549 1.758-4.301 1.758h-8.6c-1.768 0-3.266-.624-4.316-1.76C1.521 20.316 1 18.773 1 17.068V8.986c0-1.711.533-3.255 1.577-4.381Z"/><defs><filter id="bfa" x="12.932" y=".173" width="13.307" height="13.307" filterUnits="userSpaceOnUse" color-interpolation-filters="sRGB"><feFlood flood-opacity="0" result="BackgroundImageFix"/><feColorMatrix in="SourceAlpha" values="0 0 0 0 0 0 0 0 0 0 0 0 0 0 0 0 0 0 127 0" result="hardAlpha"/><feOffset dy="1.827"/><feGaussianBlur stdDeviation="1.827"/><feColorMatrix values="0 0 0 0 0.517647 0 0 0 0 0.835294 0 0 0 0 0.172549 0 0 0 1 0"/><feBlend in2="BackgroundImageFix" result="effect1_dropShadow_6546_103630"/><feBlend in="SourceGraphic" in2="effect1_dropShadow_6546_103630" result="shape"/></filter></defs></symbol><symbol viewBox="0 0 24 24" id="delete" xmlns="http://www.w3.org/2000/svg"><path fill-rule="evenodd" clip-rule="evenodd" d="M9.887 1.751h4.232a2.281 2.281 0 0 1 2.218 1.753l.243 1.215a.65.65 0 0 0 .635.521h3.266a1 1 0 1 1 0 2H3.523a1 1 0 1 1 0-2h3.268a.649.649 0 0 0 .635-.52l.243-1.216.014-.063a2.28 2.28 0 0 1 2.204-1.69ZM9.358 5.24h5.29a2.487 2.487 0 0 1-.029-.127l-.235-1.174a.28.28 0 0 0-.264-.188H9.886a.281.281 0 0 0-.265.188l-.234 1.173a2.672 2.672 0 0 1-.029.128Zm-4.53 3.231a1 1 0 0 1 1.076.917l-.997.08-.996.08a1 1 0 0 1 .916-1.077Zm14.41 10.642c.16-1.438.372-3.818.546-5.837a817.975 817.975 0 0 0 .287-3.432l.024-.294v-.002a1 1 0 0 0-1.993-.16l-.024.294a863.215 863.215 0 0 1-.287 3.422c-.175 2.04-.389 4.421-.544 5.826a1.053 1.053 0 0 0-.006.083 1.237 1.237 0 0 1-1.305 1.202 1.017 1.017 0 0 0-.072 0 199.298 199.298 0 0 1-7.845-.005 1.217 1.217 0 0 1-1.255-1.186 1 1 0 0 0-.006-.087c-.157-1.417-.37-3.8-.545-5.838a806.123 806.123 0 0 1-.285-3.418l-.024-.293-.997.08-.996.08.024.295a744.09 744.09 0 0 0 .286 3.427c.173 2.017.386 4.398.545 5.848a3.215 3.215 0 0 0 3.291 3.091c2.604.055 5.21.052 7.81.005a3.238 3.238 0 0 0 3.371-3.101Z"/><path fill-rule="evenodd" clip-rule="evenodd" d="M9.887 1.751h4.232a2.281 2.281 0 0 1 2.218 1.753l.243 1.215a.65.65 0 0 0 .635.521h3.266a1 1 0 1 1 0 2H3.523a1 1 0 1 1 0-2h3.268a.649.649 0 0 0 .635-.52l.243-1.216.014-.063a2.28 2.28 0 0 1 2.204-1.69ZM9.358 5.24h5.29a2.487 2.487 0 0 1-.029-.127l-.235-1.174a.28.28 0 0 0-.264-.188H9.886a.281.281 0 0 0-.265.188l-.234 1.173a2.672 2.672 0 0 1-.029.128Zm-4.53 3.231a1 1 0 0 1 1.076.917l-.997.08-.996.08a1 1 0 0 1 .916-1.077Zm14.41 10.642c.16-1.438.372-3.818.546-5.837a817.975 817.975 0 0 0 .287-3.432l.024-.294v-.002a1 1 0 0 0-1.993-.16l-.024.294a863.215 863.215 0 0 1-.287 3.422c-.175 2.04-.389 4.421-.544 5.826a1.053 1.053 0 0 0-.006.083 1.237 1.237 0 0 1-1.305 1.202 1.017 1.017 0 0 0-.072 0 199.298 199.298 0 0 1-7.845-.005 1.217 1.217 0 0 1-1.255-1.186 1 1 0 0 0-.006-.087c-.157-1.417-.37-3.8-.545-5.838a806.123 806.123 0 0 1-.285-3.418l-.024-.293-.997.08-.996.08.024.295a744.09 744.09 0 0 0 .286 3.427c.173 2.017.386 4.398.545 5.848a3.215 3.215 0 0 0 3.291 3.091c2.604.055 5.21.052 7.81.005a3.238 3.238 0 0 0 3.371-3.101Z" fill-opacity=".2"/></symbol><symbol viewBox="0 0 25 24" id="edit" xmlns="http://www.w3.org/2000/svg"><path d="M4.422 21c.081 0 .162-.01.242-.03l4-1c.176-.044.337-.135.465-.263L21.422 7.414c.378-.378.586-.88.586-1.414 0-.534-.208-1.036-.586-1.414L19.836 3c-.756-.756-2.072-.756-2.828 0L4.715 15.293a1.003 1.003 0 0 0-.263.464l-1 4A1 1 0 0 0 4.422 21Zm14-16.586L20.008 6l-1.586 1.586L16.836 6l1.586-1.586ZM6.325 16.511l9.097-9.097L17.008 9 7.91 18.097l-2.114.528.529-2.114Z"/><path d="M4.422 21c.081 0 .162-.01.242-.03l4-1c.176-.044.337-.135.465-.263L21.422 7.414c.378-.378.586-.88.586-1.414 0-.534-.208-1.036-.586-1.414L19.836 3c-.756-.756-2.072-.756-2.828 0L4.715 15.293a1.003 1.003 0 0 0-.263.464l-1 4A1 1 0 0 0 4.422 21Zm14-16.586L20.008 6l-1.586 1.586L16.836 6l1.586-1.586ZM6.325 16.511l9.097-9.097L17.008 9 7.91 18.097l-2.114.528.529-2.114Z" fill-opacity=".2"/></symbol><symbol viewBox="0 0 25 24" id="emoji" xmlns="http://www.w3.org/2000/svg"><path d="M14.505 14.23a3.76 3.76 0 0 1-4.72 0 1.001 1.001 0 0 0-1.28 1.54 5.68 5.68 0 0 0 7.28 0 1.001 1.001 0 1 0-1.28-1.54ZM9.145 11a1 1 0 1 0 0-2.001 1 1 0 0 0 0 2.001Zm6-2a1 1 0 1 0 0 2 1 1 0 0 0 0-2Zm-3-7a10 10 0 1 0 0 20 10 10 0 0 0 0-20Zm0 18a8 8 0 1 1 0-16 8 8 0 0 1 0 16Z"/><path fill-rule="evenodd" clip-rule="evenodd" d="M6.533 3.602a10.1 10.1 0 1 1 11.223 16.796A10.1 10.1 0 0 1 6.533 3.602ZM12.144 2.1a9.9 9.9 0 1 0 0 19.8 9.9 9.9 0 0 0 0-19.8Zm3.024 2.601A7.9 7.9 0 1 0 9.12 19.298a7.9 7.9 0 0 0 6.047-14.597Zm-4.604-.645a8.1 8.1 0 1 1 3.16 15.889 8.1 8.1 0 0 1-3.16-15.89Zm-1.84 4.928a1.1 1.1 0 1 1 .841 2.032 1.1 1.1 0 0 1-.842-2.032Zm.596.133a.9.9 0 1 0-.351 1.766.9.9 0 0 0 .351-1.766Zm5.213-.032a1.1 1.1 0 1 1 1.223 1.83 1.1 1.1 0 0 1-1.223-1.83Zm.611.015a.9.9 0 1 0 0 1.8.9.9 0 0 0 0-1.8Zm-6.1 4.803c.29-.026.58.063.804.25a3.66 3.66 0 0 0 4.593 0 1.101 1.101 0 0 1 1.407 1.694 5.78 5.78 0 0 1-7.407 0m6.063-1.617.064.077a.901.901 0 1 1 1.152 1.386 5.58 5.58 0 0 1-7.151 0 .901.901 0 0 1 1.152-1.386 3.86 3.86 0 0 0 4.846 0l-.063-.077Zm-5.46-.327c-.292.027-.56.169-.746.393Zm-.746.393a1.101 1.101 0 0 0-.25.805Zm-.25.805c.027.291.168.56.392.746Z"/></symbol><symbol viewBox="0 0 14 14" id="energy" xmlns="http://www.w3.org/2000/svg"><path d="m9.999 1.31.011.006a.107.107 0 0 1 .046.053c.01.022.01.046.003.069L8.585 6.193l-.12.388h3.126a.11.11 0 0 1 .1.065.104.104 0 0 1-.02.114l-6.545 6.906a.111.111 0 0 1-.136.02.107.107 0 0 1-.047-.054.103.103 0 0 1-.002-.069l1.474-4.756.12-.388H3.409a.111.111 0 0 1-.06-.018.104.104 0 0 1-.02-.16l6.545-6.907A.11.11 0 0 1 10 1.31Z"/></symbol><symbol viewBox="0 0 25 24" id="eyeInvisible" xmlns="http://www.w3.org/2000/svg"><path d="M12.024 14.625a2.625 2.625 0 0 0 2.615-2.854l-2.843 2.844c.075.006.15.01.228.01ZM20.713 3.88l-1.002-1a.187.187 0 0 0-.265 0l-2.562 2.563c-1.413-.723-3.002-1.084-4.766-1.084-4.505 0-7.866 2.346-10.083 7.038a1.413 1.413 0 0 0 0 1.207c.886 1.867 1.952 3.362 3.2 4.488l-2.48 2.478a.188.188 0 0 0 0 .265l1.001 1a.187.187 0 0 0 .265 0l16.692-16.69a.19.19 0 0 0 .04-.204.189.189 0 0 0-.04-.061ZM7.899 12a4.125 4.125 0 0 1 6.067-3.64l-1.14 1.14a2.627 2.627 0 0 0-3.302 3.303l-1.14 1.14A4.104 4.104 0 0 1 7.9 12Z"/><path d="M22.2 11.396c-.825-1.738-1.807-3.155-2.946-4.25l-3.378 3.378a4.126 4.126 0 0 1-5.329 5.329l-2.865 2.865c1.329.615 2.808.923 4.435.923 4.505 0 7.866-2.346 10.083-7.038a1.412 1.412 0 0 0 0-1.207Z"/></symbol><symbol viewBox="0 0 24 24" id="eyeInvisible" xmlns="http://www.w3.org/2000/svg"><path d="M11.906 14.625a2.625 2.625 0 0 0 2.615-2.854l-2.844 2.844c.076.006.152.01.229.01ZM20.594 3.88l-1-1a.188.188 0 0 0-.266 0l-2.562 2.563c-1.413-.723-3.002-1.084-4.767-1.084-4.504 0-7.865 2.346-10.082 7.038a1.413 1.413 0 0 0 0 1.207c.886 1.866 1.952 3.362 3.2 4.487l-2.48 2.479a.187.187 0 0 0 0 .265l1.001 1a.188.188 0 0 0 .265 0l16.691-16.69a.188.188 0 0 0 0-.265ZM7.781 12a4.125 4.125 0 0 1 6.067-3.64l-1.14 1.14a2.627 2.627 0 0 0-3.302 3.303l-1.14 1.14A4.103 4.103 0 0 1 7.781 12Z"/><path d="M22.083 11.396c-.825-1.738-1.807-3.155-2.946-4.25l-3.378 3.378a4.126 4.126 0 0 1-5.33 5.329l-2.865 2.865c1.33.616 2.808.923 4.436.923 4.505 0 7.866-2.346 10.083-7.038a1.412 1.412 0 0 0 0-1.207Z"/></symbol><symbol viewBox="0 0 24 24" id="eyeVisible" xmlns="http://www.w3.org/2000/svg"><path d="M11.02 4.404c-2.428.197-4.449 1.105-6.168 2.771-1.079 1.045-1.961 2.276-2.727 3.806-.434.865-.443 1.143-.065 1.916 1.065 2.179 2.553 3.98 4.199 5.082 1.193.799 2.532 1.308 4.067 1.547.491.077.734.09 1.674.09s1.183-.013 1.674-.09c2.19-.341 3.919-1.194 5.474-2.701 1.046-1.014 1.843-2.107 2.598-3.566.403-.779.458-.929.461-1.245.002-.313-.039-.438-.355-1.074-1.311-2.639-3.214-4.63-5.391-5.64-1.593-.74-3.5-1.054-5.441-.896m1.56 3.535c2.366.385 3.918 2.76 3.32 5.081a4.132 4.132 0 0 1-4 3.1 4.063 4.063 0 0 1-3.68-2.3c-.333-.676-.399-.974-.399-1.82 0-.846.066-1.144.399-1.82a4.094 4.094 0 0 1 4.36-2.241m-1.34 1.524c-1.333.35-2.185 1.728-1.901 3.071a2.62 2.62 0 0 0 2.521 2.079c.495.005.736-.051 1.216-.28.615-.295 1.073-.817 1.313-1.5.137-.387.169-1.006.073-1.412-.131-.559-.499-1.147-.923-1.472-.258-.198-.782-.45-1.051-.505-.295-.061-.984-.05-1.248.019" fill-rule="evenodd"/></symbol><symbol viewBox="0 0 24 24" id="eyeVisible" xmlns="http://www.w3.org/2000/svg"><path d="M9.28 12a2.625 2.625 0 1 0 5.25 0 2.625 2.625 0 0 0-5.25 0Zm12.802-.605C19.86 6.715 16.502 4.36 12 4.36c-4.504 0-7.86 2.356-10.082 7.039a1.413 1.413 0 0 0 0 1.207c2.221 4.68 5.58 7.036 10.082 7.036 4.505 0 7.861-2.356 10.083-7.039.18-.38.18-.82 0-1.207Zm-10.176 4.73a4.125 4.125 0 1 1 0-8.25 4.125 4.125 0 0 1 0 8.25Z"/></symbol><symbol viewBox="0 0 25 25" id="favorite" xmlns="http://www.w3.org/2000/svg"><path d="M17.62 4.532a4.103 4.103 0 0 1 2.933 1.23 4.275 4.275 0 0 1 0 6l-7.77 7.868-7.77-7.868a4.275 4.275 0 0 1 0-6 4.11 4.11 0 0 1 5.865 0l1.905 1.95 1.898-1.935a4.08 4.08 0 0 1 2.94-1.245Zm0-1.5a5.602 5.602 0 0 0-4.004 1.68l-.833.84-.832-.84a5.618 5.618 0 0 0-8.01 0 5.79 5.79 0 0 0 0 8.115l8.842 8.955 8.843-8.955a5.79 5.79 0 0 0 0-8.115 5.618 5.618 0 0 0-4.005-1.68Z"/></symbol><symbol viewBox="0 0 26 25" id="filter" xmlns="http://www.w3.org/2000/svg"><path fill-rule="evenodd" clip-rule="evenodd" d="M10.02 3.658h13.858a1 1 0 1 1 0 2H9.98c-.358 1.526-1.446 2.637-2.733 2.637-1.288 0-2.376-1.11-2.734-2.637h-2.39a1 1 0 1 1 0-2h2.35C4.786 2.037 5.909.836 7.248.836c1.338 0 2.462 1.2 2.772 2.822Zm-7.897 8.524a1 1 0 0 0 0 2h11.524c.458 1.26 1.443 2.13 2.583 2.13 1.14 0 2.124-.87 2.583-2.13h5.065a1 1 0 1 0 0-2H19.07c-.153-1.871-1.367-3.328-2.841-3.328-1.475 0-2.688 1.457-2.842 3.328H2.123ZM.939 21.107a1 1 0 0 1 1-1h7.453c.335-1.574 1.442-2.729 2.755-2.729s2.419 1.155 2.754 2.73h9.16a1 1 0 1 1 0 2h-9.16c-.335 1.573-1.442 2.728-2.755 2.728s-2.419-1.155-2.754-2.729H1.94a1 1 0 0 1-1-1Z"/><path fill-rule="evenodd" clip-rule="evenodd" d="M10.02 3.658h13.858a1 1 0 1 1 0 2H9.98c-.358 1.526-1.446 2.637-2.733 2.637-1.288 0-2.376-1.11-2.734-2.637h-2.39a1 1 0 1 1 0-2h2.35C4.786 2.037 5.909.836 7.248.836c1.338 0 2.462 1.2 2.772 2.822Zm-7.897 8.524a1 1 0 0 0 0 2h11.524c.458 1.26 1.443 2.13 2.583 2.13 1.14 0 2.124-.87 2.583-2.13h5.065a1 1 0 1 0 0-2H19.07c-.153-1.871-1.367-3.328-2.841-3.328-1.475 0-2.688 1.457-2.842 3.328H2.123ZM.939 21.107a1 1 0 0 1 1-1h7.453c.335-1.574 1.442-2.729 2.755-2.729s2.419 1.155 2.754 2.73h9.16a1 1 0 1 1 0 2h-9.16c-.335 1.573-1.442 2.728-2.755 2.728s-2.419-1.155-2.754-2.729H1.94a1 1 0 0 1-1-1Z" fill-opacity=".2"/></symbol><symbol viewBox="0 0 26 25" id="filterSort" xmlns="http://www.w3.org/2000/svg"><path fill-rule="evenodd" clip-rule="evenodd" d="M10.75 17.5V9.625h3.375V13H13v3.375l1.125 1.125H10.75Zm-5.625 1.125V4H4v15.75h11.25v-1.125H5.125Zm10.25 2.125H3V3h3.125v3.375h4.5v2.25h3.625v-4.5h5.375v9H23v2.716l-2.25 2.531v3.503h-5.375V20.75Zm1 .125h3.375v-2.883L22 15.461v-1.336h-7.875v1.336l2.25 2.531v2.883Zm2.25-15.75H15.25V13h3.375V5.125Zm-9 2.25H6.25V17.5h3.375V7.375Z"/><path fill-rule="evenodd" clip-rule="evenodd" d="M10.75 17.5V9.625h3.375V13H13v3.375l1.125 1.125H10.75Zm-5.625 1.125V4H4v15.75h11.25v-1.125H5.125Zm10.25 2.125H3V3h3.125v3.375h4.5v2.25h3.625v-4.5h5.375v9H23v2.716l-2.25 2.531v3.503h-5.375V20.75Zm1 .125h3.375v-2.883L22 15.461v-1.336h-7.875v1.336l2.25 2.531v2.883Zm2.25-15.75H15.25V13h3.375V5.125Zm-9 2.25H6.25V17.5h3.375V7.375Z" fill-opacity=".2"/></symbol><symbol viewBox="0 0 25 25" id="help" xmlns="http://www.w3.org/2000/svg"><path d="M12.783 2.032c5.514 0 10 4.486 10 10s-4.486 10-10 10-10-4.486-10-10 4.486-10 10-10Zm0-2c-6.627 0-12 5.373-12 12s5.373 12 12 12 12-5.373 12-12-5.373-12-12-12Zm1.25 17a1.25 1.25 0 1 1-2.5 0 1.25 1.25 0 0 1 2.5 0Zm1.393-9.998c-.608-.616-1.515-.955-2.55-.955-2.18 0-3.59 1.55-3.59 3.95h2.01c0-1.486.83-2.013 1.538-2.013.634 0 1.307.421 1.364 1.226.062.847-.39 1.277-.962 1.821-1.412 1.343-1.438 1.993-1.432 3.468h2.005c-.013-.664.03-1.203.935-2.178.677-.73 1.52-1.638 1.536-3.022.011-.924-.284-1.719-.854-2.297Z"/></symbol><symbol viewBox="0 0 25 24" id="history" xmlns="http://www.w3.org/2000/svg"><path fill-rule="evenodd" clip-rule="evenodd" d="M3.151 2.732A2.5 2.5 0 0 1 4.92 2h15a2.5 2.5 0 0 1 2.5 2.5V12a1 1 0 1 1-2 0V4.5a.5.5 0 0 0-.5-.5h-15a.5.5 0 0 0-.5.5v15a.5.5 0 0 0 .5.5h7.5a1 1 0 1 1 0 2h-7.5a2.5 2.5 0 0 1-2.5-2.5v-15a2.5 2.5 0 0 1 .732-1.768Z"/><path fill-rule="evenodd" clip-rule="evenodd" d="M3.151 2.732A2.5 2.5 0 0 1 4.92 2h15a2.5 2.5 0 0 1 2.5 2.5V12a1 1 0 1 1-2 0V4.5a.5.5 0 0 0-.5-.5h-15a.5.5 0 0 0-.5.5v15a.5.5 0 0 0 .5.5h7.5a1 1 0 1 1 0 2h-7.5a2.5 2.5 0 0 1-2.5-2.5v-15a2.5 2.5 0 0 1 .732-1.768Z" fill-opacity=".2"/><path fill-rule="evenodd" clip-rule="evenodd" d="M16.419 14a2 2 0 1 0 0 4 2 2 0 0 0 0-4Zm-4 2a4 4 0 1 1 8 0 4 4 0 0 1-8 0Z"/><path fill-rule="evenodd" clip-rule="evenodd" d="M16.419 14a2 2 0 1 0 0 4 2 2 0 0 0 0-4Zm-4 2a4 4 0 1 1 8 0 4 4 0 0 1-8 0Z" fill-opacity=".2"/><path fill-rule="evenodd" clip-rule="evenodd" d="M6.419 8a1 1 0 0 1 1-1h10a1 1 0 1 1 0 2h-10a1 1 0 0 1-1-1Zm0 4a1 1 0 0 1 1-1h4a1 1 0 1 1 0 2h-4a1 1 0 0 1-1-1Zm11.72 5.375a1 1 0 0 1 1.405-.156l2.5 2a1 1 0 0 1-1.25 1.562l-2.5-2a1 1 0 0 1-.156-1.406Z"/><path fill-rule="evenodd" clip-rule="evenodd" d="M6.419 8a1 1 0 0 1 1-1h10a1 1 0 1 1 0 2h-10a1 1 0 0 1-1-1Zm0 4a1 1 0 0 1 1-1h4a1 1 0 1 1 0 2h-4a1 1 0 0 1-1-1Zm11.72 5.375a1 1 0 0 1 1.405-.156l2.5 2a1 1 0 0 1-1.25 1.562l-2.5-2a1 1 0 0 1-.156-1.406Z" fill-opacity=".2"/></symbol><symbol viewBox="0 0 25 24" id="invoices" xmlns="http://www.w3.org/2000/svg"><path d="M20.825 5.548h-3.333v-.74a2.602 2.602 0 0 0-2.593-2.593h-4.444a2.602 2.602 0 0 0-2.593 2.593v.74H4.529A1.861 1.861 0 0 0 2.677 7.4v11.852a1.86 1.86 0 0 0 1.852 1.852h16.296a1.861 1.861 0 0 0 1.852-1.852V7.4a1.862 1.862 0 0 0-1.852-1.852Zm-10.74-.74a.37.37 0 0 1 .37-.37h4.444a.37.37 0 0 1 .37.37v.74h-5.185v-.74Zm10.37 2.963v6.296H4.899V7.77h15.555ZM4.899 18.88V16.29h15.555v2.593H4.9Z"/></symbol><symbol viewBox="0 0 21 21" id="invoices" xmlns="http://www.w3.org/2000/svg"><path d="M1.234 14.355s.142 1.738.175 2.286c.045.773.324 1.514.8 2.126a2.969 2.969 0 0 0 2.509 1.1h11.469a2.968 2.968 0 0 0 2.509-1.1 3.832 3.832 0 0 0 .8-2.126c.032-.548.174-2.286.174-2.286M6.934 4.207v-.371a2.207 2.207 0 0 1 2.2-2.208h2.582a2.208 2.208 0 0 1 2.208 2.208v.37m-3.495 11.35v-1.294M1.184 7.267v3.467a16.326 16.326 0 0 0 6.738 2.5 2.58 2.58 0 0 1 4.985.01 16.325 16.325 0 0 0 6.767-2.512V7.267a3.051 3.051 0 0 0-3.057-3.058H4.25a3.059 3.059 0 0 0-3.067 3.058Z"/></symbol><symbol viewBox="0 0 25 24" id="kebab" xmlns="http://www.w3.org/2000/svg"><circle cx="4.419" cy="12" r="2.5"/><circle cx="4.419" cy="12" r="2.5" fill-opacity=".2"/><circle cx="12.419" cy="12" r="2.5"/><circle cx="12.419" cy="12" r="2.5" fill-opacity=".2"/><circle cx="20.419" cy="12" r="2.5"/><circle cx="20.419" cy="12" r="2.5" fill-opacity=".2"/></symbol><symbol viewBox="0 0 21 20" id="leaf" xmlns="http://www.w3.org/2000/svg"><path d="M9.92.034c-.107.043-.233.206-.428.552a15.502 15.502 0 0 0-1.699 4.699c-.153.835-.181 1.187-.179 2.24.002 1.103.033 1.419.245 2.478.067.333.121.613.121.622 0 .01-.122-.128-.271-.306C6.806 9.241 5.916 8.4 4.961 7.725c-1.2-.85-2.83-1.581-4.102-1.841-.391-.08-.527-.059-.664.105-.113.134-.115.261-.007.576.398 1.166 1.31 2.794 2.18 3.891a13.995 13.995 0 0 0 1.517 1.556c.354.297 1.235.901 1.698 1.163l.28.159-.684.001a9.46 9.46 0 0 0-3.604.689c-.36.143-1.105.496-1.288.61a.447.447 0 0 0-.182.351c0 .22.1.319.548.547 1.587.807 3.557 1.241 4.976 1.096.385-.039.937-.125 1.069-.165.048-.015.021.042-.097.207-.382.537-.65 1.307-.662 1.909l-.006.326.13.12c.175.161.293.157.752-.026.975-.389 1.966-1.141 2.565-1.947l.263-.353.017 1.494c.012 1.038.03 1.516.058 1.565.115.2.34.274.543.178.243-.116.239-.086.239-1.774v-1.516l.172.243c.657.932 1.655 1.702 2.787 2.151.295.118.427.13.577.052.143-.074.209-.221.209-.466 0-.609-.302-1.469-.699-1.992a2.013 2.013 0 0 1-.132-.184l.363.069c.195.038.569.088.831.112 1.376.124 3.23-.272 4.765-1.018.635-.309.771-.455.686-.738-.049-.165-.124-.227-.521-.431a10.744 10.744 0 0 0-3.056-1.007c-.318-.054-.664-.08-1.292-.097l-.857-.022.245-.137a16.363 16.363 0 0 0 1.522-1.015c.962-.762 1.854-1.783 2.598-2.973.501-.801 1.277-2.431 1.373-2.881a.443.443 0 0 0-.175-.418c-.133-.088-.348-.075-.838.051-1.566.401-3.036 1.133-4.392 2.188-.486.378-1.533 1.406-2.05 2.013-.23.269-.422.485-.427.48a2.967 2.967 0 0 1 .075-.374c.543-2.315.398-4.643-.441-7.099C11.377 1.848 10.586.234 10.31.066a.45.45 0 0 0-.39-.032m.857 2.714c.664 1.688.956 3.121.958 4.707.003 1.595-.298 3.104-.945 4.742-.231.585-.657 1.488-.702 1.488-.045 0-.488-.938-.718-1.522-1.016-2.577-1.201-5.057-.566-7.587.239-.955.605-1.954 1.035-2.826l.25-.507.241.49c.132.269.334.726.447 1.015m-9.145 4.22c.824.284 1.7.701 2.406 1.145 1.284.808 2.52 2.013 3.751 3.655.503.671 1.453 2.092 1.399 2.092-.042 0-1.009-.366-1.381-.523-1.948-.821-3.337-1.749-4.373-2.921-.755-.855-1.322-1.707-1.897-2.856-.265-.528-.359-.735-.333-.735.007 0 .2.064.428.143m16.979.637c-.488.969-.908 1.633-1.518 2.405-.359.453-1.206 1.279-1.661 1.619-.946.707-2.212 1.387-3.549 1.906-.417.162-.893.324-.893.305 0-.04.701-1.107 1.045-1.591 1.81-2.542 3.544-4.056 5.693-4.967.526-.224 1.211-.465 1.239-.436.01.009-.15.351-.356.759M6.387 14.231c.308.03.749.086.98.123.535.087 1.567.308 1.603.343.067.065-1.262.622-1.972.826-.768.221-1.153.276-1.94.277a6.545 6.545 0 0 1-1.82-.208c-.583-.136-1.768-.545-1.768-.609 0-.029.56-.251.969-.384 1.255-.41 2.405-.517 3.948-.368m9.296-.04c.456.022 1.176.152 1.743.315.417.12 1.219.416 1.274.47.027.027-.405.209-.885.372-1.081.369-2.413.544-3.325.44a9.064 9.064 0 0 1-2.232-.585c-.451-.178-1.058-.467-1.058-.502 0-.055 1.568-.355 2.398-.458.353-.044 1.36-.095 1.575-.08.077.005.306.018.51.028m-6.362 1.375a4.92 4.92 0 0 1-.303.552 5.583 5.583 0 0 1-1.497 1.556c-.381.255-.661.403-.661.349a1.8 1.8 0 0 1 .093-.27c.207-.517.485-.873.973-1.245.246-.188 1.389-1 1.409-1.002.004-.001-.002.027-.014.06m2.032.295c1.248.873 1.463 1.073 1.75 1.624.102.194.234.549.213.57-.007.008-.104-.038-.216-.1a5.48 5.48 0 0 1-2.122-2.138c-.129-.234-.146-.277-.106-.277.012 0 .229.145.481.321" fill-rule="evenodd"/></symbol><symbol viewBox="0 0 21 20" id="leaf" xmlns="http://www.w3.org/2000/svg"><path d="M19.887 14.64c-.087-.053-2.182-1.31-4.8-1.31-.27 0-.537.01-.801.026.614-.333 1.233-.72 1.806-1.168 2.765-2.16 3.927-5.67 3.975-5.818a.418.418 0 0 0-.078-.398.427.427 0 0 0-.38-.143c-.12.018-2.955.464-5.55 2.824a17.907 17.907 0 0 0-1.894 2.043c.247-.966.422-2.05.422-3.204 0-3.993-2.063-7.183-2.151-7.316-.154-.235-.543-.235-.697 0-.088.133-2.152 3.323-2.152 7.316 0 1.155.175 2.238.423 3.204a17.904 17.904 0 0 0-1.894-2.043C3.52 6.293.686 5.847.566 5.83a.43.43 0 0 0-.38.143.418.418 0 0 0-.078.398c.048.148 1.21 3.658 3.975 5.818.573.448 1.192.835 1.806 1.168a13.113 13.113 0 0 0-.802-.027c-2.618 0-4.712 1.258-4.8 1.312a.418.418 0 0 0 .003.713c.089.054 2.212 1.31 4.797 1.31.577 0 1.146-.082 1.686-.208a3.653 3.653 0 0 0-.852 2.311.418.418 0 0 0 .535.382c.063-.019 1.554-.474 2.696-1.795.205-.236.37-.471.519-.702v2.931a.417.417 0 1 0 .833 0v-2.93c.149.23.314.465.519.701 1.142 1.322 2.633 1.776 2.696 1.795a.423.423 0 0 0 .36-.06.418.418 0 0 0 .175-.322 3.652 3.652 0 0 0-.855-2.315 7.38 7.38 0 0 0 1.688.213c2.618 0 4.713-1.258 4.8-1.312a.418.418 0 0 0 0-.712ZM14.62 9.27a11.232 11.232 0 0 1 4.375-2.44c-.475 1.108-1.571 3.26-3.416 4.701-1.528 1.194-3.463 1.96-4.61 2.346.68-1.128 1.994-3.1 3.65-4.607ZM4.596 11.531C2.755 10.093 1.656 7.94 1.18 6.83c.97.279 2.739.952 4.375 2.44 1.654 1.505 2.969 3.479 3.65 4.607-1.147-.386-3.081-1.152-4.61-2.346Zm.491 4.3c-1.505 0-2.868-.485-3.658-.836.782-.35 2.133-.832 3.658-.832 1.511 0 3.015.31 3.943.548-.901.47-2.422 1.12-3.943 1.12Zm3.435.978a5.461 5.461 0 0 1-1.683 1.28c.114-.447.38-1.044.998-1.508.626-.47 1.133-.82 1.519-1.072a5.384 5.384 0 0 1-.834 1.3Zm1.639-3.208-.074.124-.073-.123c-.59-1.138-1.593-3.454-1.593-6.11 0-2.761 1.09-5.17 1.666-6.253.577 1.082 1.667 3.492 1.667 6.253 0 2.656-1.003 4.972-1.593 6.11Zm1.491 3.208a5.362 5.362 0 0 1-.83-1.298c.386.252.891.602 1.516 1.07.62.466.886 1.064 1 1.511a5.443 5.443 0 0 1-1.686-1.283Zm3.435-.978c-1.5 0-3.028-.65-3.937-1.122.927-.236 2.427-.546 3.937-.546 1.523 0 2.88.484 3.662.834-.78.35-2.134.834-3.662.834Z"/></symbol><symbol viewBox="0 0 21 19" id="license" xmlns="http://www.w3.org/2000/svg"><path d="M11.217 16.29H1.572a1.286 1.286 0 0 1-1.286-1.285V2.145A1.286 1.286 0 0 1 1.572.857h18.005a1.286 1.286 0 0 1 1.286 1.286v6.668a5.363 5.363 0 0 0-8.675 6.296l-.598.732-.373.45ZM3.501 4.717v1.03h10.932v-1.03H3.5Zm0 3.601h7.074V7.288H3.5v1.03Zm0 4.501h6.43V11.79h-6.43v1.028Z"/><path d="M20.753 12.169a4.095 4.095 0 1 0-6.925 2.951l-1.247 1.524.578 2.322 2.354-2.868c.745.22 1.537.22 2.283 0l2.353 2.868.579-2.322-1.248-1.524a4.075 4.075 0 0 0 1.273-2.951Zm-6.906 0a2.81 2.81 0 1 1 .837 1.963 2.797 2.797 0 0 1-.83-1.963h-.007Z"/></symbol><symbol viewBox="0 0 25 24" id="link" xmlns="http://www.w3.org/2000/svg"><path d="M20.419 11a1 1 0 0 0-1 1v6a1 1 0 0 1-1 1h-12a1 1 0 0 1-1-1V6a1 1 0 0 1 1-1h6a1 1 0 1 0 0-2h-6a3 3 0 0 0-3 3v12a3 3 0 0 0 3 3h12a3 3 0 0 0 3-3v-6a1 1 0 0 0-1-1Z"/><path d="M16.419 5h1.58l-6.29 6.28a1.002 1.002 0 0 0 .325 1.639 1 1 0 0 0 1.095-.219l6.29-6.28V8a1 1 0 1 0 2 0V4a1 1 0 0 0-1-1h-4a1 1 0 1 0 0 2Z"/><path d="M16.419 5h1.58l-6.29 6.28a1.002 1.002 0 0 0 .325 1.639 1 1 0 0 0 1.095-.219l6.29-6.28V8a1 1 0 1 0 2 0V4a1 1 0 0 0-1-1h-4a1 1 0 1 0 0 2Z" fill-opacity=".2"/></symbol><symbol viewBox="0 0 17 17" id="list" xmlns="http://www.w3.org/2000/svg"><path d="M14.735 3.33H5.299a.13.13 0 0 0-.129.13v.904c0 .071.058.13.13.13h9.435a.13.13 0 0 0 .129-.13v-.905a.13.13 0 0 0-.13-.13Zm0 4.588H5.299a.13.13 0 0 0-.129.13v.904c0 .071.058.13.13.13h9.435a.13.13 0 0 0 .129-.13v-.904a.13.13 0 0 0-.13-.13Zm0 4.589H5.299a.13.13 0 0 0-.129.13v.904c0 .07.058.13.13.13h9.435a.13.13 0 0 0 .129-.13v-.905a.13.13 0 0 0-.13-.13ZM1.68 3.912a.905.905 0 1 0 1.81 0 .905.905 0 0 0-1.81 0Zm0 4.588a.905.905 0 1 0 1.81 0 .905.905 0 0 0-1.81 0Zm0 4.588a.905.905 0 1 0 1.81 0 .905.905 0 0 0-1.81 0Z"/></symbol><symbol viewBox="0 0 25 25" id="listView" xmlns="http://www.w3.org/2000/svg"><path d="M3.117 4.269a1 1 0 0 1 1-1h16a1 1 0 1 1 0 2h-16a1 1 0 0 1-1-1ZM3.117 12.269a1 1 0 0 1 1-1h16a1 1 0 1 1 0 2h-16a1 1 0 0 1-1-1ZM3.117 20.269a1 1 0 0 1 1-1h16a1 1 0 1 1 0 2h-16a1 1 0 0 1-1-1Z"/></symbol><symbol viewBox="0 0 25 25" id="logout" xmlns="http://www.w3.org/2000/svg"><path d="M12.137 22.5c-5.523 0-10-4.477-10-10s4.477-10 10-10 10 4.477 10 10-4.477 10-10 10Zm5-6 5-4-5-4v3H7.19v2h9.947v3Z"/><path d="M12.137 22.5c-5.523 0-10-4.477-10-10s4.477-10 10-10 10 4.477 10 10-4.477 10-10 10Zm5-6 5-4-5-4v3H7.19v2h9.947v3Z" fill-opacity=".2"/></symbol><symbol viewBox="0 0 25 25" id="market" xmlns="http://www.w3.org/2000/svg"><path d="M3.563 4.578c.212-.758.318-1.137.635-1.357C4.514 3 4.952 3 5.827 3h12.69c.874 0 1.312 0 1.628.22.317.221.423.6.635 1.358l1.404 5.015c.113.404.17.605.157.77-.032.424-.35.789-.805.92-.175.05-.413.05-.89.05-.622 0-.933 0-1.194-.054-.732-.152-1.337-.61-1.625-1.23-.103-.22-.153-.488-.253-1.023-.028-.15-.042-.225-.058-.245a.125.125 0 0 0-.19 0c-.015.02-.03.095-.057.245l-.095.51-.02.104c-.206.965-1.139 1.67-2.239 1.693h-.237c-1.1-.023-2.033-.728-2.239-1.693a4.845 4.845 0 0 1-.02-.105l-.095-.51c-.028-.15-.042-.224-.058-.244a.125.125 0 0 0-.19 0c-.015.02-.03.095-.057.245l-.095.51-.02.104c-.206.965-1.139 1.67-2.239 1.693h-.238c-1.1-.023-2.032-.728-2.238-1.693l-.02-.105-.095-.51c-.028-.15-.042-.224-.058-.244a.125.125 0 0 0-.19 0c-.015.02-.03.095-.057.245-.1.535-.15.803-.253 1.024-.288.62-.893 1.077-1.625 1.229-.261.054-.572.054-1.194.054-.477 0-.715 0-.89-.05-.454-.131-.773-.496-.805-.92-.013-.165.044-.366.157-.77l1.404-5.015Z"/><path d="M3.563 4.578c.212-.758.318-1.137.635-1.357C4.514 3 4.952 3 5.827 3h12.69c.874 0 1.312 0 1.628.22.317.221.423.6.635 1.358l1.404 5.015c.113.404.17.605.157.77-.032.424-.35.789-.805.92-.175.05-.413.05-.89.05-.622 0-.933 0-1.194-.054-.732-.152-1.337-.61-1.625-1.23-.103-.22-.153-.488-.253-1.023-.028-.15-.042-.225-.058-.245a.125.125 0 0 0-.19 0c-.015.02-.03.095-.057.245l-.095.51-.02.104c-.206.965-1.139 1.67-2.239 1.693h-.237c-1.1-.023-2.033-.728-2.239-1.693a4.845 4.845 0 0 1-.02-.105l-.095-.51c-.028-.15-.042-.224-.058-.244a.125.125 0 0 0-.19 0c-.015.02-.03.095-.057.245l-.095.51-.02.104c-.206.965-1.139 1.67-2.239 1.693h-.238c-1.1-.023-2.032-.728-2.238-1.693l-.02-.105-.095-.51c-.028-.15-.042-.224-.058-.244a.125.125 0 0 0-.19 0c-.015.02-.03.095-.057.245-.1.535-.15.803-.253 1.024-.288.62-.893 1.077-1.625 1.229-.261.054-.572.054-1.194.054-.477 0-.715 0-.89-.05-.454-.131-.773-.496-.805-.92-.013-.165.044-.366.157-.77l1.404-5.015Z" fill-opacity=".2"/><path d="M4.025 12.896c-.02.438-.02.953-.02 1.562v6.25c0 .982 0 1.474.341 1.779.342.305.892.305 1.992.305h3.5v-4.167c0-.575.522-1.042 1.167-1.042h2.333c.644 0 1.167.467 1.167 1.042v4.167h3.5c1.1 0 1.65 0 1.991-.305.342-.305.342-.797.342-1.779v-6.25c0-.609 0-1.123-.02-1.562-.426 0-.861-.012-1.263-.095a4.299 4.299 0 0 1-1.633-.71c-.682.49-1.54.785-2.466.804H14.637a4.382 4.382 0 0 1-2.466-.805c-.681.49-1.54.786-2.465.805H9.387a4.381 4.381 0 0 1-2.466-.805 4.3 4.3 0 0 1-1.633.71c-.402.084-.837.095-1.263.096Z"/><path d="M4.025 12.896c-.02.438-.02.953-.02 1.562v6.25c0 .982 0 1.474.341 1.779.342.305.892.305 1.992.305h3.5v-4.167c0-.575.522-1.042 1.167-1.042h2.333c.644 0 1.167.467 1.167 1.042v4.167h3.5c1.1 0 1.65 0 1.991-.305.342-.305.342-.797.342-1.779v-6.25c0-.609 0-1.123-.02-1.562-.426 0-.861-.012-1.263-.095a4.299 4.299 0 0 1-1.633-.71c-.682.49-1.54.785-2.466.804H14.637a4.382 4.382 0 0 1-2.466-.805c-.681.49-1.54.786-2.465.805H9.387a4.381 4.381 0 0 1-2.466-.805 4.3 4.3 0 0 1-1.633.71c-.402.084-.837.095-1.263.096Z" fill-opacity=".2"/></symbol><symbol viewBox="0 0 25 25" id="message" xmlns="http://www.w3.org/2000/svg"><path d="M12.938 2.212c-5.515 0-10 3.59-10 8 0 2.907 1.897 5.515 5 6.934v5.066l5.34-4.005c5.356-.142 9.66-3.675 9.66-7.995 0-4.41-4.486-8-10-8Zm2 11h-7v-2h7v2Zm3-4h-10v-2h10v2Z"/></symbol><symbol viewBox="0 0 20 24" id="notification" xmlns="http://www.w3.org/2000/svg"><path fill-rule="evenodd" clip-rule="evenodd" d="M2.067 7.274c0-3.447 3.06-7.242 7.681-7.242 4.622 0 7.681 3.795 7.681 7.243 0 .851.103 1.439.24 1.885.137.447.32.791.539 1.175l.069.121c.2.35.442.772.627 1.278.213.586.344 1.262.344 2.13a.985.985 0 0 1-.003.083c-.075.903-.332 1.71-.833 2.392-.501.68-1.192 1.16-2.014 1.498-1.59.654-3.833.836-6.65.836-2.815 0-5.058-.18-6.649-.832-.821-.337-1.513-.817-2.014-1.499-.502-.682-.759-1.491-.834-2.396a1 1 0 0 1-.003-.083c0-.869.131-1.544.345-2.13.184-.507.426-.929.626-1.279l.07-.12c.218-.384.4-.728.538-1.175.137-.446.24-1.034.24-1.885Zm7.681-5.242c-3.468 0-5.68 2.85-5.68 5.242 0 1.019-.125 1.808-.33 2.472-.203.663-.475 1.162-.711 1.577l-.068.118c-.208.365-.365.64-.487.975-.125.343-.22.774-.224 1.405.056.604.218 1.024.448 1.336.235.32.595.601 1.162.834 1.187.487 3.067.682 5.89.682 2.822 0 4.703-.198 5.89-.686.567-.233.928-.515 1.163-.834.23-.312.392-.73.447-1.33-.004-.631-.099-1.062-.224-1.405-.122-.336-.279-.61-.487-.975l-.068-.119c-.236-.415-.508-.914-.712-1.577-.204-.664-.328-1.453-.328-2.472 0-2.393-2.213-5.243-5.681-5.243Zm-3.1 18.016a1 1 0 0 1 1.404.164c.207.261.463.468.748.608a2.039 2.039 0 0 0 1.805 0c.285-.14.541-.347.748-.608a1 1 0 0 1 1.568 1.24c-.387.49-.875.888-1.432 1.162a4.04 4.04 0 0 1-3.573 0 4.19 4.19 0 0 1-1.432-1.161 1 1 0 0 1 .164-1.405Z"/></symbol><symbol viewBox="0 0 18 18" id="pack" xmlns="http://www.w3.org/2000/svg"><path fill-rule="evenodd" clip-rule="evenodd" d="M8.495 1.637 2.997 4.824 5.5 6.276l6.003-3.48-1.998-1.16a1.005 1.005 0 0 0-1.01 0Zm4.246.72L10.006.772a2.005 2.005 0 0 0-2.012 0L2.15 4.16c-.2.116-.364.284-.477.485-.113.2-.172.427-.172.657v6.685c0 .374.096.743.28 1.068.183.325.448.596.77.783l5.444 3.157a2.005 2.005 0 0 0 2.012 0l5.444-3.158c.322-.186.587-.457.77-.782.184-.325.28-.694.28-1.069V5.302c0-.23-.059-.457-.172-.657a1.295 1.295 0 0 0-.477-.485l-3.09-1.791a.49.49 0 0 0-.02-.012ZM12.5 3.373l-6.003 3.48L9 8.306l6.003-3.48L12.5 3.372Zm3 2.32v6.293c0 .204-.053.404-.15.578a1.088 1.088 0 0 1-.401.408L9.505 16.13c-.002 0-.004.002-.005.003V9.17l6-3.479Zm-7 3.478-3.243-1.88a.509.509 0 0 1-.016-.01L2.5 5.692v6.295c0 .204.053.403.15.577.099.173.238.314.401.408l5.444 3.158c.002 0 .004.002.005.003V9.17Zm-4.599-.273a.5.5 0 0 1 .684-.181l2.333 1.357a.5.5 0 0 1-.503.864L4.082 9.582a.5.5 0 0 1-.18-.683Z"/></symbol><symbol viewBox="0 0 48 61" id="pdf" xmlns="http://www.w3.org/2000/svg"><path d="M46.683 15.705c.403.403.632.948.632 1.52V58.67c0 1.19-.962 2.15-2.151 2.15H2.153c-1.19 0-2.151-.96-2.151-2.15V2.755c0-1.19.961-2.15 2.15-2.15h28.543c.57 0 1.122.228 1.525.631l14.463 14.47Zm-4.328 2.507L29.707 5.564v12.648h12.648ZM31.805 39.13c-1.02-.033-2.105.045-3.337.2-1.633-1.008-2.733-2.392-3.513-4.425l.072-.294.083-.348c.289-1.219.444-2.108.49-3.004a7.355 7.355 0 0 0-.123-1.88c-.221-1.25-1.105-1.98-2.219-2.025-1.038-.042-1.992.538-2.236 1.436-.397 1.453-.165 3.365.677 6.626-1.072 2.557-2.49 5.555-3.44 7.227-1.27.655-2.259 1.25-3.09 1.91-1.095.872-1.78 1.768-1.967 2.709-.092.436.046 1.006.36 1.473.356.53.892.873 1.536.923 1.623.126 3.617-1.548 5.82-5.327l.74-.248.8-.27c.506-.171.873-.294 1.236-.411 1.572-.512 2.762-.836 3.844-1.02 1.88 1.007 4.054 1.667 5.518 1.667 1.208 0 2.024-.626 2.32-1.612.258-.866.053-1.87-.503-2.425-.575-.565-1.633-.835-3.068-.882Zm-16.666 8.63v-.023l.008-.023c.099-.254.225-.497.377-.723.287-.443.683-.908 1.174-1.403.263-.265.537-.524.86-.814.071-.065.53-.474.617-.555l.75-.699-.545.87c-.828 1.32-1.577 2.27-2.218 2.889a4.175 4.175 0 0 1-.611.505 1.106 1.106 0 0 1-.176.095.252.252 0 0 1-.076.02.148.148 0 0 1-.075-.01.138.138 0 0 1-.085-.128Zm8.463-14.669-.151.27-.095-.295c-.208-.66-.361-1.656-.404-2.554-.048-1.022.033-1.634.356-1.634.453 0 .66.725.677 1.817.015.96-.137 1.959-.383 2.396Zm-.39 3.93.103-.273.14.255c.786 1.428 1.805 2.619 2.926 3.449l.242.178-.295.06c-1.097.228-2.12.57-3.517 1.133.146-.059-1.453.596-1.858.75l-.353.136.188-.328c.83-1.445 1.597-3.18 2.423-5.36h.001Zm10.593 5.124c-.528.208-1.666.022-3.668-.833l-.508-.216.551-.04c1.566-.116 2.675-.03 3.322.206.275.1.459.228.54.373a.312.312 0 0 1-.091.424.45.45 0 0 1-.146.086Z"/></symbol><symbol viewBox="0 0 17 17" id="phone" xmlns="http://www.w3.org/2000/svg"><path d="m14.373 3.881-1.664-1.662a1.263 1.263 0 0 0-1.793 0l-1.79 1.79a1.263 1.263 0 0 0 0 1.792l1.31 1.31a6.153 6.153 0 0 1-1.259 1.814 6.177 6.177 0 0 1-1.814 1.262l-1.31-1.31a1.263 1.263 0 0 0-1.791 0l-1.792 1.79a1.264 1.264 0 0 0 0 1.794l1.66 1.66a2.054 2.054 0 0 0 1.78.573c2.106-.347 4.195-1.468 5.881-3.152 1.685-1.683 2.803-3.77 3.155-5.883a2.057 2.057 0 0 0-.573-1.778Z"/></symbol><symbol viewBox="0 0 19 19" id="price" xmlns="http://www.w3.org/2000/svg"><path d="M9.883.836a9 9 0 1 0 .001 18.002A9 9 0 0 0 9.883.836Zm0 16.474a7.474 7.474 0 0 1 0-14.947 7.474 7.474 0 0 1 0 14.946Zm.958-7.94-.51-.118V6.554c.763.104 1.235.582 1.316 1.169.01.08.078.139.158.139h.902a.163.163 0 0 0 .161-.177c-.123-1.252-1.153-2.055-2.53-2.194v-.657a.161.161 0 0 0-.16-.16h-.564a.161.161 0 0 0-.161.16v.663c-1.422.139-2.535.924-2.535 2.39 0 1.359 1 2.014 2.05 2.265l.497.126v2.867c-.888-.118-1.386-.592-1.489-1.231a.16.16 0 0 0-.158-.133H6.89a.161.161 0 0 0-.161.175c.09 1.105.928 2.121 2.716 2.252v.63c0 .09.072.161.16.161h.571c.088 0 .16-.072.16-.162l-.003-.637c1.573-.139 2.698-.98 2.698-2.491-.002-1.394-.888-2.017-2.19-2.339Zm-1.378-.325a2.941 2.941 0 0 1-.301-.1c-.68-.246-.995-.641-.995-1.152 0-.729.553-1.145 1.296-1.24v2.492Zm.868 4.106v-2.686c.062.018.118.032.177.044.95.29 1.27.691 1.27 1.308 0 .786-.591 1.258-1.447 1.334Z"/></symbol><symbol viewBox="0 0 25 25" id="profile" xmlns="http://www.w3.org/2000/svg"><path fill-rule="evenodd" clip-rule="evenodd" d="M12.137 21.5a9 9 0 1 0 0-18 9 9 0 0 0 0 18Zm0 1c5.523 0 10-4.477 10-10s-4.477-10-10-10-10 4.477-10 10 4.477 10 10 10Z"/><path d="M6.137 18.315c0-.517.386-.953.9-1.01 3.857-.427 6.36-.389 10.209.01a.995.995 0 0 1 .554 1.735c-4.543 3.96-7.139 3.905-11.343.005a1.01 1.01 0 0 1-.32-.74Z"/><path fill-rule="evenodd" clip-rule="evenodd" d="M17.194 17.811c-3.818-.395-6.285-.431-10.103-.009a.514.514 0 0 0-.454.514c0 .143.06.278.16.372 2.084 1.933 3.663 2.806 5.206 2.812 1.55.006 3.213-.861 5.468-2.826a.495.495 0 0 0-.277-.863ZM6.982 16.808c3.898-.431 6.437-.392 10.316.009a1.495 1.495 0 0 1 .83 2.61c-2.287 1.995-4.192 3.08-6.128 3.073-1.941-.007-3.762-1.111-5.883-3.079a1.509 1.509 0 0 1-.48-1.106 1.514 1.514 0 0 1 1.345-1.507Z"/><path d="M16.137 10.5a4 4 0 1 1-8 0 4 4 0 0 1 8 0Z"/><path fill-rule="evenodd" clip-rule="evenodd" d="M12.137 13.5a3 3 0 1 0 0-6 3 3 0 0 0 0 6Zm0 1a4 4 0 1 0 0-8 4 4 0 0 0 0 8Z"/></symbol><symbol viewBox="0 0 24 24" id="question" xmlns="http://www.w3.org/2000/svg"><path d="M5.954 7.094a.529.529 0 0 0 .537.55H8.33c.308 0 .552-.25.593-.556.2-1.463 1.203-2.528 2.992-2.528 1.527 0 2.927.764 2.927 2.603 0 1.415-.835 2.064-2.15 3.054-1.5 1.09-2.687 2.363-2.602 4.428l.006.482c.004.305.252.55.557.55h1.807c.308 0 .557-.25.557-.557v-.235c0-1.598.609-2.065 2.25-3.309 1.358-1.032 2.771-2.178 2.771-4.584C18.037 3.626 15.195 2 12.082 2 9.26 2 6.166 3.316 5.955 7.094h-.001Zm3.47 12.841c0 1.188.947 2.065 2.25 2.065 1.356 0 2.29-.878 2.29-2.065 0-1.231-.934-2.094-2.292-2.094-1.3 0-2.248.863-2.248 2.094Z"/></symbol><symbol viewBox="0 0 19 19" id="rate" xmlns="http://www.w3.org/2000/svg"><path d="m11.591 8.26-1.12-3.692c-.222-.725-1.244-.725-1.458 0L7.885 8.259H4.49c-.74 0-1.045.953-.442 1.38l2.776 1.983-1.091 3.516c-.221.71.603 1.281 1.19.832l2.814-2.136 2.814 2.143c.587.45 1.411-.122 1.19-.831l-1.09-3.516 2.775-1.983c.603-.435.298-1.38-.442-1.38h-3.394v-.008Z"/></symbol><symbol viewBox="0 0 24 24" id="rejected" xmlns="http://www.w3.org/2000/svg"><path d="M15.03 14.934c.52 1.617.785 3.033.785 4.253 0 2.718-1.064 4.813-2.833 4.813-.907 0-1.222-.51-1.567-1.752l-.306-1.158c-.114-.406-.313-1.1-.597-2.074a.278.278 0 0 0-.034-.075L7.231 13.86a6.67 6.67 0 0 0-3.236-2.637l-1.424-.545a1.983 1.983 0 0 1-1.238-2.23l.778-4.01a2.55 2.55 0 0 1 1.896-1.992l9.349-2.29a5.383 5.383 0 0 1 6.496 3.898l1.784 6.994a3.117 3.117 0 0 1-3.02 3.887H15.03Z"/></symbol><symbol viewBox="0 0 20 21" id="request" xmlns="http://www.w3.org/2000/svg"><path fill-rule="evenodd" clip-rule="evenodd" d="M9.852 12.076c-.437-.05-.88-.076-1.325-.076-1.981 0-3.907.508-5.479 1.447-1.22.728-2.174 1.684-2.78 2.771-.275.494.055 1.072.608 1.187 3.508.732 7.095.954 10.651.669V18h-1a3 3 0 0 1-.675-5.924Z"/><path fill-rule="evenodd" clip-rule="evenodd" d="M14.527 9.75c.69 0 1.25.56 1.25 1.25v2.75h2.75a1.25 1.25 0 0 1 0 2.5h-2.75V19a1.25 1.25 0 0 1-2.5 0v-2.75h-2.75a1.25 1.25 0 1 1 0-2.5h2.75V11c0-.69.56-1.25 1.25-1.25Z"/><path d="M13.527 5a5 5 0 1 1-10 0 5 5 0 0 1 10 0Z"/></symbol><symbol viewBox="0 0 25 25" id="request" xmlns="http://www.w3.org/2000/svg"><path fill-rule="evenodd" clip-rule="evenodd" d="M14.003 15.827c-.437-.05-.88-.077-1.325-.077-1.982 0-3.908.509-5.48 1.447-1.22.728-2.174 1.684-2.78 2.772-.275.493.055 1.072.607 1.187 3.51.731 7.096.954 10.653.668v-.074h-1a3 3 0 0 1-.675-5.923Z"/><path d="M18.678 14.75v8M22.678 18.75h-8"/><circle cx="12.678" cy="8.75" r="5"/></symbol><symbol viewBox="0 0 24 24" id="requests" xmlns="http://www.w3.org/2000/svg"><path d="M4.235 20.128h10.023a6.008 6.008 0 0 1-.724-1.703H4.057c-.786 0-1.23-.388-1.23-1.152V8.44c0-.763.444-1.151 1.23-1.151h13.765c.787 0 1.244.388 1.244 1.151v2.597c.304-.036.609-.06.913-.06.305 0 .61.024.914.06V5.96c0-1.973-1.066-2.96-3.236-2.96H4.235C2.078 3 1 3.987 1 5.96v11.208c0 1.973 1.078 2.96 3.235 2.96Zm1.624-9.374h10.187c.394 0 .685-.282.685-.647 0-.352-.291-.622-.685-.622H5.86c-.406 0-.698.27-.698.622 0 .365.292.647.698.647Zm0 2.737h8.792a6.57 6.57 0 0 1 1.332-1.269H5.859c-.406 0-.698.282-.698.646 0 .352.292.623.698.623Zm0 2.737h6.381c.394 0 .685-.27.685-.623 0-.364-.291-.646-.685-.646H5.86c-.406 0-.698.282-.698.646 0 .353.292.623.698.623Z"/><path fill-rule="evenodd" clip-rule="evenodd" d="M15.983 12.222a6.599 6.599 0 0 0-1.332 1.269H5.859c-.406 0-.698-.27-.698-.623 0-.364.292-.646.698-.646h10.124Zm-1.726 7.906a5.918 5.918 0 0 1-.723-1.703H4.057c-.786 0-1.23-.388-1.23-1.152V8.44c0-.763.444-1.151 1.23-1.151h13.765c.787 0 1.244.388 1.244 1.151v2.597a8.11 8.11 0 0 1 .862-.06h.102c.288.003.575.026.863.06V5.96c0-1.973-1.066-2.96-3.236-2.96H4.235C2.078 3 1 3.987 1 5.96v11.208c0 1.973 1.078 2.96 3.235 2.96h10.023Zm5.671-12.404V5.96c0-.818-.217-1.257-.492-1.51-.29-.266-.82-.485-1.779-.485H4.235c-.95 0-1.482.219-1.775.487-.277.253-.495.693-.495 1.508v1.76c.096-.315.265-.61.53-.853.447-.411 1.024-.544 1.562-.544h13.765c.54 0 1.115.133 1.564.54.27.244.444.541.542.861Zm-3.882 3.03H5.86c-.406 0-.698-.282-.698-.647 0-.352.292-.622.698-.622h10.187c.394 0 .685.27.685.622 0 .365-.291.647-.685.647Zm-3.806 5.474H5.86c-.406 0-.698-.27-.698-.623 0-.364.292-.646.698-.646h6.381c.394 0 .685.282.685.646 0 .353-.291.623-.685.623Z"/><path fill-rule="evenodd" clip-rule="evenodd" d="M23.926 17.098c0 2.584-2.234 4.734-4.865 4.734-2.669 0-4.866-2.126-4.866-4.734 0-2.597 2.197-4.735 4.866-4.735 2.668 0 4.865 2.138 4.865 4.735Zm-5.493 2.338c0 .364.253.61.627.61.375 0 .628-.246.628-.61v-1.727h1.775c.374 0 .615-.247.615-.611s-.241-.611-.615-.611h-1.775V14.76c0-.364-.253-.61-.628-.61-.374 0-.627.246-.627.61v1.727h-1.775c-.374 0-.628.247-.628.61 0 .365.254.612.628.612h1.775v1.727Z"/></symbol><symbol viewBox="0 0 20 20" id="reset" xmlns="http://www.w3.org/2000/svg"><path d="M7.1 7.1v3.4L2 6.25 7.1 2v3.4h4.25a6.8 6.8 0 1 1 0 13.6H3.7v-1.7h7.65a5.1 5.1 0 1 0 0-10.2H7.1Z"/></symbol><symbol viewBox="0 0 17 18" id="search" xmlns="http://www.w3.org/2000/svg"><path d="M6.998.698c-.039.006-.185.024-.326.041-.858.103-1.881.442-2.662.882C1.96 2.775.62 4.723.24 7.097.178 7.485.154 8.439.196 8.841c.243 2.317 1.416 4.286 3.314 5.557a9.031 9.031 0 0 0 1.572.803 7.475 7.475 0 0 0 6.739-.809c.207-.139.412-.282.455-.316l.078-.063 1.622 1.617c1.467 1.464 1.635 1.622 1.761 1.664.332.11.662.026.893-.227a.792.792 0 0 0 .144-.902c-.043-.088-.523-.585-1.659-1.717l-1.598-1.594.097-.13c.788-1.047 1.269-2.201 1.478-3.544.071-.453.071-1.545.001-2.026-.241-1.643-.962-3.101-2.102-4.251C11.756 1.658 10.251.927 8.5.722 8.184.684 7.199.669 6.998.698m1.223 1.683a5.833 5.833 0 0 1 3.351 1.46c.881.772 1.576 1.984 1.816 3.171a5.853 5.853 0 0 1-.472 3.718 5.829 5.829 0 0 1-3.849 3.111 5.868 5.868 0 0 1-2.779-.001c-2.762-.696-4.619-3.239-4.418-6.051a5.82 5.82 0 0 1 6.351-5.408" fill-rule="evenodd"/></symbol><symbol viewBox="0 0 17 18" id="search" xmlns="http://www.w3.org/2000/svg"><path d="m16.605 15.927-3.092-3.067a7.5 7.5 0 1 0-1.159 1.158l3.067 3.067a.83.83 0 1 0 1.184-1.158ZM7.68 14.018a5.833 5.833 0 1 1 0-11.666 5.833 5.833 0 0 1 0 11.666Z"/></symbol><symbol viewBox="0 0 25 24" id="send" xmlns="http://www.w3.org/2000/svg"><g clip-path="url(#coa)"><path fill-rule="evenodd" clip-rule="evenodd" d="m3.032 8.567 5.145 4.642 4.125-2.764a1 1 0 0 1 1.114 1.661L9.47 14.75c.032.056.059.117.08.18l2.085 6.453 9.06-15.36L3.032 8.566Zm4.573 6.784c.007.065.021.13.042.195l2.139 6.616a1.642 1.642 0 0 0 .196.428c.818 1.234 2.624 1.087 3.344-.135L23.478 5.243a1 1 0 0 0-1.004-1.498l-19.78 2.85C1.282 6.8.449 8.447 1.329 9.676l.014.02c.068.09.145.173.23.248l5.845 5.273a.998.998 0 0 0 .188.134ZM2.894 8.442l-.007-.005a.43.43 0 0 1 .007.005Z"/></g><defs><clipPath id="coa"><path transform="matrix(0 -1 1 0 .145 24)" d="M0 0h24v24H0z"/></clipPath></defs></symbol><symbol viewBox="0 0 24 24" id="settings" xmlns="http://www.w3.org/2000/svg"><path fill-rule="evenodd" clip-rule="evenodd" d="M9.627 0h4.746l.473 3.468c.403.134.795.297 1.174.488l2.788-2.12 3.352 3.357-2.119 2.787c.19.379.354.771.488 1.174L24 9.627v4.747l-3.468.47a8.932 8.932 0 0 1-.488 1.173l2.12 2.788-3.356 3.355-2.788-2.119c-.379.19-.771.354-1.174.488L14.373 24H9.626l-.47-3.468a8.934 8.934 0 0 1-1.173-.488l-2.788 2.12-3.355-3.356 2.119-2.788a8.922 8.922 0 0 1-.488-1.174L0 14.373V9.627l3.468-.473c.134-.403.297-.795.488-1.174l-2.12-2.788 3.357-3.356L7.98 3.958c.38-.19.771-.353 1.174-.487L9.627 0Zm1.746 2-.417 3.054-.656.164a6.927 6.927 0 0 0-1.892.786l-.581.351-2.456-1.87-.886.887 1.867 2.455-.35.581a6.927 6.927 0 0 0-.787 1.892l-.164.656L2 11.373v1.254l3.054.417.164.656c.167.666.432 1.304.786 1.892l.35.581-1.866 2.455.887.887 2.455-1.867.581.35c.588.355 1.226.62 1.892.787l.657.165.414 3.05h1.253l.417-3.053.656-.165a6.927 6.927 0 0 0 1.892-.787l.581-.35 2.455 1.867.887-.887-1.867-2.455.35-.581c.355-.588.62-1.226.787-1.892l.165-.657 3.05-.414v-1.253l-3.053-.417-.165-.656a6.926 6.926 0 0 0-.787-1.892l-.35-.581 1.867-2.456-.884-.885-2.455 1.866-.581-.35a6.928 6.928 0 0 0-1.892-.787l-.656-.164L12.627 2h-1.254Z"/><path fill-rule="evenodd" clip-rule="evenodd" d="M12 10a2 2 0 1 0 0 4 2 2 0 0 0 0-4Zm-4 2a4 4 0 1 1 8 0 4 4 0 0 1-8 0Z"/></symbol><symbol viewBox="0 0 19 19" id="settings" xmlns="http://www.w3.org/2000/svg"><path d="M18.133 10.89V8.61l-2.502-.337a5.984 5.984 0 0 0-.694-1.646l1.529-1.984-1.632-1.612-2.01 1.508a6.153 6.153 0 0 0-1.669-.684l-.341-2.467H8.503l-.342 2.47a6.152 6.152 0 0 0-1.668.683l-2.01-1.51-1.635 1.612 1.529 1.984a5.983 5.983 0 0 0-.693 1.646l-2.5.337v2.28l2.502.337c.147.58.38 1.135.693 1.646l-1.528 1.985 1.634 1.612 2.01-1.508c.52.308 1.081.539 1.669.684l.339 2.467h2.31l.342-2.47a6.152 6.152 0 0 0 1.668-.684l2.01 1.509 1.635-1.613-1.529-1.984a5.984 5.984 0 0 0 .694-1.646l2.5-.334Z"/><path d="M9.658 12.031c1.277 0 2.311-1.021 2.311-2.28 0-1.26-1.034-2.281-2.31-2.281-1.277 0-2.312 1.02-2.312 2.28 0 1.26 1.035 2.281 2.311 2.281Z"/></symbol><symbol viewBox="0 0 14 15" id="share" xmlns="http://www.w3.org/2000/svg"><path d="M11.025 6.975a.525.525 0 0 1 .52.454l.005.071v3.675a1.925 1.925 0 0 1-1.807 1.921l-.118.004h-5.25a1.925 1.925 0 0 1-1.921-1.807l-.004-.118V7.5a.525.525 0 0 1 1.045-.071L3.5 7.5v3.675c0 .453.345.826.786.87l.09.005h5.25a.875.875 0 0 0 .87-.785l.004-.09V7.5a.525.525 0 0 1 .525-.525ZM3.66 5.023l2.97-2.969a.525.525 0 0 1 .683-.051l.06.051 2.97 2.97a.525.525 0 0 1-.685.793l-.058-.05-2.074-2.075v5.383a.525.525 0 0 1-.453.52L7 9.6a.525.525 0 0 1-.52-.454l-.005-.071V3.692L4.402 5.766a.525.525 0 0 1-.684.051l-.059-.05a.525.525 0 0 1-.051-.685l.051-.059 2.97-2.969-2.97 2.97Z"/></symbol><symbol viewBox="0 0 21 21" id="shop" xmlns="http://www.w3.org/2000/svg"><g clip-path="url(#cra)"><path d="M9.188 20.175c.725 0 1.312-.56 1.312-1.25s-.587-1.25-1.312-1.25c-.725 0-1.313.56-1.313 1.25s.588 1.25 1.313 1.25ZM16.188 20.175c.725 0 1.312-.56 1.312-1.25s-.587-1.25-1.312-1.25c-.725 0-1.313.56-1.313 1.25s.588 1.25 1.313 1.25ZM21 5.591c0 2.987-2.551 5.417-5.687 5.417s-5.688-2.43-5.688-5.417c0-2.986 2.552-5.416 5.688-5.416C18.449.175 21 2.605 21 5.59Zm-2.625 0c0-.46-.392-.833-.875-.833h-1.312v-1.25c0-.46-.392-.833-.875-.833s-.875.373-.875.833v1.25h-1.313c-.483 0-.875.373-.875.833 0 .46.392.834.875.834h1.313v1.25c0 .46.392.833.875.833s.875-.373.875-.833v-1.25H17.5c.483 0 .875-.374.875-.834Z"/><path d="M7.875 5.592c0-.141.013-.279.022-.417H5.564L5.232 3.67c-.233-1.05-1.218-1.815-2.344-1.82l-2.23-.009H.657c-.361 0-.654.278-.656.623-.002.345.291.626.654.627l2.227.01c.512.001.96.35 1.066.826l2.026 9.164h-.504c-1.086 0-1.969.841-1.969 1.876 0 1.034.883 1.874 1.969 1.874h13.125c.362 0 .656-.28.656-.625s-.294-.625-.656-.625H5.469c-.362 0-.656-.28-.656-.624 0-.346.294-.626.656-.626h13.125a.65.65 0 0 0 .642-.496l.582-2.631a7.63 7.63 0 0 1-4.506 1.46c-4.1 0-7.437-3.177-7.437-7.082Z"/></g><defs><clipPath id="cra"><path transform="translate(0 .175)" d="M0 0h21v20H0z"/></clipPath></defs></symbol><symbol viewBox="0 0 22 20" id="star" xmlns="http://www.w3.org/2000/svg"><path d="m11.06.122 2.845 6.84 7.384.592-5.626 4.819 1.72 7.205-6.322-3.861-6.322 3.86 1.719-7.205L.832 7.555l7.384-.592L11.06.122Z"/></symbol><symbol viewBox="0 0 24 25" id="watch" xmlns="http://www.w3.org/2000/svg"><path d="M11.998 2.268c-5.366 0-9.732 4.367-9.732 9.736 0 5.368 4.366 9.735 9.732 9.735 5.367 0 9.733-4.367 9.733-9.735 0-5.369-4.366-9.736-9.733-9.736Zm0 17.524c-4.293 0-7.786-3.494-7.786-7.788 0-4.295 3.493-7.789 7.786-7.789 4.293 0 7.786 3.494 7.786 7.789 0 4.294-3.493 7.788-7.786 7.788Z"/><path d="M12.972 7.136h-1.947v5.27l3.205 3.207 1.376-1.377-2.634-2.635V7.136Z"/></symbol></svg>