<svg width="317" height="196" viewBox="0 0 317 196" fill="none" xmlns="http://www.w3.org/2000/svg">
<g opacity="0.6">
<g filter="url(#filter0_d_5909_67531)">
<path d="M245.146 65.7324L146.855 134.327L48.5645 65.7324L138.542 2.91376C140.982 1.21306 143.885 0.30127 146.859 0.30127C149.834 0.30127 152.737 1.21306 155.177 2.91376L173.125 15.4612L177.824 18.7245L225.142 51.7654L230.127 55.2653L245.146 65.7324Z" fill="url(#paint0_linear_5909_67531)" shape-rendering="crispEdges"/>
</g>
<path d="M130.873 123.175L48.5645 181.702V65.7324L130.873 123.175Z" fill="url(#paint1_linear_5909_67531)"/>
<path d="M162.846 123.175L245.154 181.702V65.7324L162.846 123.175Z" fill="url(#paint2_linear_5909_67531)"/>
<path d="M48.5645 181.702L138.436 117.807C140.895 116.055 143.84 115.114 146.859 115.114C149.879 115.114 152.823 116.055 155.283 117.807L245.146 181.702H48.5645Z" fill="url(#paint3_linear_5909_67531)"/>
<g filter="url(#filter1_d_5909_67531)">
<path d="M233.135 81.0591C251.406 89.6061 271.041 94.8675 291.138 96.602C288.422 102.914 269.127 134.512 211.851 160.548C210.303 160.786 174.536 144.148 154.908 132.738C155.575 133.69 215.877 111.502 233.135 81.0591Z" fill="url(#paint4_linear_5909_67531)" shape-rendering="crispEdges"/>
</g>
<path d="M231.721 96.7695C232.562 96.1862 233.626 96.0287 234.6 96.3437L266.568 106.686C267.713 107.057 268.121 108.467 267.351 109.392C266.73 110.137 265.715 110.421 264.798 110.107L232.014 98.878C231.089 98.5611 230.917 97.3269 231.721 96.7695Z" fill="#30303D"/>
<path d="M222.771 105.283C223.582 104.522 224.746 104.268 225.8 104.623L247.931 112.071C248.907 112.399 249.251 113.603 248.597 114.398C248.062 115.048 247.181 115.298 246.385 115.027L223.169 107.122C222.385 106.855 222.167 105.85 222.771 105.283Z" fill="#30303D"/>
<path d="M213.573 112.351C214.419 111.673 215.557 111.485 216.576 111.856L242.068 121.121C243.068 121.484 243.369 122.754 242.639 123.528C242.08 124.12 241.222 124.323 240.457 124.042L213.89 114.293C213.064 113.99 212.886 112.901 213.573 112.351Z" fill="#30303D"/>
<path d="M192.875 126.49C193.658 125.624 194.893 125.328 195.985 125.744L210.553 131.303C211.448 131.645 211.77 132.745 211.202 133.516C210.669 134.237 209.719 134.513 208.882 134.189L193.266 128.141C192.593 127.88 192.39 127.026 192.875 126.49Z" fill="#30303D"/>
<path d="M202.384 118.939C203.247 118.398 204.311 118.286 205.267 118.636L238.835 130.909C239.908 131.302 240.168 132.701 239.307 133.452C238.738 133.949 237.943 134.096 237.234 133.835L202.607 121.079C201.673 120.735 201.541 119.468 202.384 118.939Z" fill="#30303D"/>
<g filter="url(#filter2_d_5909_67531)">
<path d="M58.9513 44.7183C43.8828 51.767 27.6903 56.1061 11.1162 57.5365C13.3557 62.7424 29.268 88.8012 76.5039 110.273C77.7808 110.469 107.278 96.7475 123.465 87.3377C122.915 88.1235 73.184 69.8243 58.9513 44.7183Z" fill="url(#paint5_linear_5909_67531)" shape-rendering="crispEdges"/>
</g>
<path d="M60.117 57.6744C59.4235 57.1933 58.5453 57.0634 57.7423 57.3232L31.3783 65.8527C30.4339 66.1583 30.0974 67.3215 30.7328 68.0841C31.2445 68.6982 32.0821 68.9327 32.8383 68.6737L59.875 59.4132C60.6379 59.1519 60.7795 58.1341 60.117 57.6744Z" fill="#30303D"/>
<path d="M59.6599 68.1796C58.9912 67.5517 58.0314 67.3424 57.162 67.635L38.9106 73.7775C38.1058 74.0483 37.8217 75.0413 38.3614 75.6969C38.8023 76.2325 39.5288 76.439 40.1856 76.2154L59.332 69.6963C59.9784 69.4762 60.1576 68.6469 59.6599 68.1796Z" fill="#30303D"/>
<path d="M69.456 73.3815C68.7583 72.8227 67.8197 72.668 66.9796 72.9734L45.9562 80.6143C45.1311 80.9142 44.8827 81.961 45.4852 82.5995C45.9462 83.0881 46.654 83.2548 47.2845 83.0234L69.1946 74.9832C69.8758 74.7332 70.0224 73.835 69.456 73.3815Z" fill="#30303D"/>
<path d="M76.8059 89.1531C76.1596 88.4387 75.1411 88.1944 74.241 88.5378L62.2262 93.1228C61.4884 93.4043 61.2224 94.3118 61.6914 94.9471C62.131 95.5424 62.9146 95.77 63.6047 95.5027L76.4828 90.5149C77.0382 90.2998 77.2055 89.5947 76.8059 89.1531Z" fill="#30303D"/>
<path d="M84.0764 76.829C83.3652 76.3829 82.4877 76.2905 81.6992 76.5788L54.0156 86.7008C53.1308 87.0244 52.9165 88.1779 53.626 88.7977C54.0953 89.2076 54.751 89.3286 55.3357 89.1132L83.8929 78.5934C84.6631 78.3097 84.7717 77.2651 84.0764 76.829Z" fill="#30303D"/>
<path d="M196.009 73.2379C214.122 73.2379 228.805 58.5546 228.805 40.4417C228.805 22.3289 214.122 7.64551 196.009 7.64551C177.896 7.64551 163.213 22.3289 163.213 40.4417C163.213 58.5546 177.896 73.2379 196.009 73.2379Z" fill="url(#paint6_linear_5909_67531)"/>
<path d="M190.735 48.2594V47.451C190.735 45.2165 190.919 43.4354 191.287 42.1079C191.668 40.7803 192.22 39.7156 192.943 38.9138C193.666 38.0989 194.546 37.3562 195.585 36.6859C196.413 36.1601 197.149 35.6278 197.793 35.0889C198.45 34.5368 198.969 33.9453 199.351 33.3144C199.732 32.6835 199.922 31.9671 199.922 31.1653C199.922 30.3898 199.738 29.7063 199.37 29.1148C199.002 28.5233 198.496 28.0699 197.852 27.7544C197.221 27.4258 196.518 27.2615 195.743 27.2615C194.967 27.2615 194.238 27.4389 193.554 27.7938C192.884 28.1487 192.332 28.6548 191.898 29.312C191.477 29.9561 191.26 30.7381 191.247 31.6582H182.178C182.217 28.8979 182.855 26.6371 184.09 24.8758C185.339 23.1145 186.989 21.8132 189.039 20.972C191.09 20.1176 193.35 19.6904 195.821 19.6904C198.529 19.6904 200.935 20.111 203.038 20.9523C205.154 21.7935 206.817 23.0356 208.026 24.6787C209.235 26.3217 209.84 28.3327 209.84 30.7119C209.84 32.276 209.577 33.6562 209.051 34.8523C208.525 36.0484 207.789 37.1065 206.843 38.0266C205.91 38.9335 204.812 39.7616 203.55 40.5109C202.564 41.0892 201.743 41.6938 201.086 42.3248C200.442 42.9557 199.955 43.6786 199.627 44.4936C199.298 45.2953 199.134 46.2812 199.134 47.451V48.2594H190.735ZM195.092 61.1933C193.672 61.1933 192.457 60.6938 191.444 59.6948C190.445 58.6959 189.953 57.4866 189.966 56.067C189.953 54.6737 190.445 53.4842 191.444 52.4984C192.457 51.4994 193.672 50.9999 195.092 50.9999C196.446 50.9999 197.635 51.4994 198.661 52.4984C199.686 53.4842 200.205 54.6737 200.218 56.067C200.205 57.0134 199.955 57.8744 199.469 58.6499C198.996 59.4254 198.371 60.0431 197.596 60.5032C196.834 60.9632 195.999 61.1933 195.092 61.1933Z" fill="white"/>
</g>
<defs>
<filter id="filter0_d_5909_67531" x="45.0808" y="0.30127" width="203.549" height="140.993" filterUnits="userSpaceOnUse" color-interpolation-filters="sRGB">
<feFlood flood-opacity="0" result="BackgroundImageFix"/>
<feColorMatrix in="SourceAlpha" type="matrix" values="0 0 0 0 0 0 0 0 0 0 0 0 0 0 0 0 0 0 127 0" result="hardAlpha"/>
<feOffset dy="3.48368"/>
<feGaussianBlur stdDeviation="1.74184"/>
<feComposite in2="hardAlpha" operator="out"/>
<feColorMatrix type="matrix" values="0 0 0 0 0 0 0 0 0 0 0 0 0 0 0 0 0 0 0.25 0"/>
<feBlend mode="normal" in2="BackgroundImageFix" result="effect1_dropShadow_5909_67531"/>
<feBlend mode="normal" in="SourceGraphic" in2="effect1_dropShadow_5909_67531" result="shape"/>
</filter>
<filter id="filter1_d_5909_67531" x="129.908" y="66.0591" width="186.229" height="129.492" filterUnits="userSpaceOnUse" color-interpolation-filters="sRGB">
<feFlood flood-opacity="0" result="BackgroundImageFix"/>
<feColorMatrix in="SourceAlpha" type="matrix" values="0 0 0 0 0 0 0 0 0 0 0 0 0 0 0 0 0 0 127 0" result="hardAlpha"/>
<feOffset dy="10"/>
<feGaussianBlur stdDeviation="12.5"/>
<feComposite in2="hardAlpha" operator="out"/>
<feColorMatrix type="matrix" values="0 0 0 0 0.0588235 0 0 0 0 0.0588235 0 0 0 0 0.0901961 0 0 0 0.63 0"/>
<feBlend mode="normal" in2="BackgroundImageFix" result="effect1_dropShadow_5909_67531"/>
<feBlend mode="normal" in="SourceGraphic" in2="effect1_dropShadow_5909_67531" result="shape"/>
</filter>
<filter id="filter2_d_5909_67531" x="0.664197" y="37.7509" width="133.252" height="86.4587" filterUnits="userSpaceOnUse" color-interpolation-filters="sRGB">
<feFlood flood-opacity="0" result="BackgroundImageFix"/>
<feColorMatrix in="SourceAlpha" type="matrix" values="0 0 0 0 0 0 0 0 0 0 0 0 0 0 0 0 0 0 127 0" result="hardAlpha"/>
<feOffset dy="3.48368"/>
<feGaussianBlur stdDeviation="5.22552"/>
<feComposite in2="hardAlpha" operator="out"/>
<feColorMatrix type="matrix" values="0 0 0 0 0.0196078 0 0 0 0 0.168627 0 0 0 0 0.396078 0 0 0 0.15 0"/>
<feBlend mode="normal" in2="BackgroundImageFix" result="effect1_dropShadow_5909_67531"/>
<feBlend mode="normal" in="SourceGraphic" in2="effect1_dropShadow_5909_67531" result="shape"/>
</filter>
<linearGradient id="paint0_linear_5909_67531" x1="245.146" y1="3.83446" x2="262.755" y2="265.353" gradientUnits="userSpaceOnUse">
<stop stop-color="#84D52C" stop-opacity="0.36"/>
<stop offset="1" stop-color="#171722" stop-opacity="0"/>
</linearGradient>
<linearGradient id="paint1_linear_5909_67531" x1="130.873" y1="68.7896" x2="161.903" y2="291.784" gradientUnits="userSpaceOnUse">
<stop stop-color="#84D52C" stop-opacity="0.36"/>
<stop offset="1" stop-color="#171722" stop-opacity="0"/>
</linearGradient>
<linearGradient id="paint2_linear_5909_67531" x1="245.154" y1="68.7896" x2="276.185" y2="291.784" gradientUnits="userSpaceOnUse">
<stop stop-color="#84D52C" stop-opacity="0.36"/>
<stop offset="1" stop-color="#171722" stop-opacity="0"/>
</linearGradient>
<linearGradient id="paint3_linear_5909_67531" x1="259.195" y1="115.114" x2="188.817" y2="301.216" gradientUnits="userSpaceOnUse">
<stop stop-color="#84D52C"/>
<stop offset="1" stop-color="#171722" stop-opacity="0"/>
</linearGradient>
<linearGradient id="paint4_linear_5909_67531" x1="291.138" y1="83.1546" x2="300.087" y2="238.45" gradientUnits="userSpaceOnUse">
<stop stop-color="#84D52C" stop-opacity="0.36"/>
<stop offset="1" stop-color="#171722" stop-opacity="0"/>
</linearGradient>
<linearGradient id="paint5_linear_5909_67531" x1="11.1162" y1="46.4465" x2="3.73549" y2="174.519" gradientUnits="userSpaceOnUse">
<stop stop-color="#84D52C" stop-opacity="0.36"/>
<stop offset="1" stop-color="#171722" stop-opacity="0"/>
</linearGradient>
<linearGradient id="paint6_linear_5909_67531" x1="228.805" y1="9.37466" x2="241.38" y2="136.7" gradientUnits="userSpaceOnUse">
<stop stop-color="#84D52C" stop-opacity="0.36"/>
<stop offset="1" stop-color="#171722" stop-opacity="0"/>
</linearGradient>
</defs>
</svg>
