<svg width="62" height="1253" viewBox="0 0 62 1253" fill="none" xmlns="http://www.w3.org/2000/svg">
<path d="M45.5056 3.94007L60.9923 1251.88L16.526 1242.6C16.5373 1242.42 16.5519 1242.18 16.5699 1241.89C16.6162 1241.13 16.6844 1240.01 16.7717 1238.54C16.9462 1235.59 17.1972 1231.26 17.5032 1225.69C18.1151 1214.55 18.9467 1198.47 19.8256 1178.73C21.5833 1139.25 23.53 1085.09 24.2861 1026.4C25.798 909.041 22.5522 773.471 3.48379 700.873C-0.25764 686.628 1.65953 676.09 4.37767 665.08C4.68871 663.82 5.01039 662.554 5.33526 661.275C7.85171 651.368 10.5598 640.707 9.99962 626.48C9.45594 612.673 7.19442 602.047 5.10558 592.232C4.53925 589.571 3.98562 586.969 3.48236 584.38C1.12378 572.247 -0.147793 560.32 3.48876 543.606C19.0495 472.091 23.0474 336.16 23.1605 218.16C23.2171 159.149 22.3019 104.605 21.3726 64.8138C20.9079 44.9181 20.4397 28.7104 20.0876 17.4764C19.9116 11.8594 19.7646 7.48584 19.6616 4.5164C19.6101 3.03168 19.5696 1.89799 19.542 1.13542C19.5341 0.916914 19.5273 0.728877 19.5215 0.571784L45.5056 3.94007Z" fill="#212129" stroke="url(#paint0_linear_5705_47401)"/>
<defs>
<linearGradient id="paint0_linear_5705_47401" x1="81.5" y1="-160" x2="-85.2957" y2="-155.211" gradientUnits="userSpaceOnUse">
<stop stop-color="#84D52C"/>
<stop offset="1" stop-color="#171722" stop-opacity="0"/>
</linearGradient>
</defs>
</svg>
